<svg xmlns="http://www.w3.org/2000/svg" width="21.756" height="24.864" viewBox="0 0 21.756 24.864">
    <path data-name="Icon awesome-calendar-alt" d="M0 22.533a2.332 2.332 0 0 0 2.331 2.331h17.094a2.332 2.332 0 0 0 2.331-2.331V9.324H0zm15.54-9.518a.584.584 0 0 1 .583-.583h1.943a.584.584 0 0 1 .583.583v1.943a.584.584 0 0 1-.583.583h-1.943a.584.584 0 0 1-.583-.583zm0 6.216a.584.584 0 0 1 .583-.583h1.943a.584.584 0 0 1 .583.583v1.943a.584.584 0 0 1-.583.583h-1.943a.584.584 0 0 1-.583-.583zm-6.216-6.216a.584.584 0 0 1 .583-.583h1.943a.584.584 0 0 1 .583.583v1.943a.584.584 0 0 1-.583.583H9.907a.584.584 0 0 1-.583-.583zm0 6.216a.584.584 0 0 1 .583-.583h1.943a.584.584 0 0 1 .583.583v1.943a.584.584 0 0 1-.583.583H9.907a.584.584 0 0 1-.583-.583zm-6.216-6.216a.584.584 0 0 1 .583-.583h1.942a.584.584 0 0 1 .583.583v1.943a.584.584 0 0 1-.583.583H3.691a.584.584 0 0 1-.583-.583zm0 6.216a.584.584 0 0 1 .583-.583h1.942a.584.584 0 0 1 .583.583v1.943a.584.584 0 0 1-.583.583H3.691a.584.584 0 0 1-.583-.583zM19.425 3.108h-2.331V.777A.779.779 0 0 0 16.317 0h-1.554a.779.779 0 0 0-.777.777v2.331H7.77V.777A.779.779 0 0 0 6.993 0H5.439a.779.779 0 0 0-.777.777v2.331H2.331A2.332 2.332 0 0 0 0 5.439V7.77h21.756V5.439a2.332 2.332 0 0 0-2.331-2.331z" style="fill:#b8b8b8"/>
</svg>
