<svg width="16" height="16" viewBox="0 0 16 16" fill="none" xmlns="http://www.w3.org/2000/svg">
<g clip-path="url(#clip0_38_28090)">
<path d="M15.6525 7.24932C15.9664 6.92832 16.0786 6.46019 15.944 6.02215C15.8094 5.58412 15.4538 5.27315 15.0181 5.20627L11.1448 4.61776C10.9814 4.59436 10.8372 4.48401 10.7635 4.3302L9.02708 0.668757C8.83165 0.257471 8.43759 0 7.99867 0C7.55975 0 7.16569 0.254127 6.97026 0.668757L5.23703 4.33354C5.16334 4.4907 5.01917 4.5977 4.85578 4.62111L0.982426 5.20961C0.546714 5.27649 0.191096 5.58746 0.0565375 6.0255C-0.0780206 6.46353 0.0309074 6.93166 0.34808 7.25267L3.15137 10.1049C3.26991 10.2253 3.32438 10.4025 3.29875 10.573L2.63877 14.599C2.5811 14.9534 2.67081 15.2978 2.88867 15.5687C3.23147 15.9933 3.82737 16.1204 4.30153 15.8596L7.7648 13.9569C7.90897 13.8767 8.09158 13.8767 8.23575 13.9569L11.699 15.8596C11.8688 15.9532 12.0482 16 12.234 16C12.5736 16 12.894 15.8428 13.1151 15.5687C13.3361 15.2978 13.4226 14.9501 13.365 14.599L12.705 10.573C12.6762 10.4025 12.7306 10.2253 12.8524 10.1049L15.6557 7.25267L15.6525 7.24932Z" fill="#FCC601"/>
</g>
<defs>
<clipPath id="clip0_38_28090">
<rect width="16" height="16" fill="white"/>
</clipPath>
</defs>
</svg>
