<svg width="16" height="16" viewBox="0 0 16 16" fill="none" xmlns="http://www.w3.org/2000/svg">
<g clip-path="url(#clip0_38_28104)">
<path d="M15.295 6.89974L14.9572 7.24524L14.9595 7.2477L12.4979 9.75225C12.2581 9.99131 12.1577 10.3321 12.2118 10.6549C12.2118 10.6554 12.2119 10.6558 12.212 10.6563L12.8716 14.6799L12.8716 14.6799C12.9073 14.8976 12.8531 15.0988 12.7277 15.2526L12.7259 15.2548C12.5953 15.4167 12.4155 15.5 12.234 15.5C12.1356 15.5 12.0389 15.476 11.9404 15.4217L11.9398 15.4214L8.47882 13.52C8.47839 13.5197 8.47796 13.5195 8.47754 13.5192C8.18289 13.3559 7.8177 13.3559 7.52305 13.5192C7.52261 13.5195 7.52217 13.5197 7.52173 13.52L4.06077 15.4214L4.06056 15.4215C3.80699 15.561 3.4745 15.4981 3.27795 15.2549C3.15157 15.0975 3.09684 14.8972 3.13227 14.6794C3.13227 14.6794 3.13228 14.6793 3.13228 14.6793L3.79216 10.6539L3.79221 10.6539L3.79319 10.6473C3.84097 10.3295 3.74228 9.99244 3.50771 9.75415C3.50769 9.75414 3.50768 9.75412 3.50766 9.75411L0.704681 6.90219L0.703753 6.90125C0.520649 6.71593 0.451981 6.44093 0.534495 6.17232L0.0568881 6.02561L0.534495 6.17232C0.61472 5.91116 0.818627 5.74079 1.05783 5.70389C1.05798 5.70387 1.05813 5.70385 1.05829 5.70382L4.92919 5.11569C5.26297 5.067 5.5465 4.8505 5.6893 4.54674C5.68944 4.54643 5.68959 4.54612 5.68974 4.54581L7.42226 0.882526L7.42254 0.881932C7.53895 0.634945 7.76143 0.5 7.99867 0.5C8.234 0.5 8.45823 0.636616 8.57547 0.883347L10.3117 4.54445L10.3126 4.54626C10.4531 4.83956 10.7328 5.06294 11.0714 5.11234L14.9422 5.70048C14.9423 5.70049 14.9424 5.70051 14.9425 5.70052C15.1818 5.73734 15.3858 5.90773 15.4661 6.16901C15.5478 6.43518 15.4786 6.71204 15.295 6.89974Z" stroke="#AAAAAA"/>
</g>
<defs>
<clipPath id="clip0_38_28104">
<rect width="16" height="16" fill="white"/>
</clipPath>
</defs>
</svg>
