<svg xmlns="http://www.w3.org/2000/svg" width="58" height="58" viewBox="0 0 58 58">
    <g data-name="그룹 168" transform="translate(-756 -174)">
        <rect data-name="사각형 13" width="58" height="58" rx="20" transform="translate(756 174)" style="fill:#ededed"/>
        <path data-name="Icon awesome-building" d="M30.656 33.75H29.25V1.688A1.687 1.687 0 0 0 27.563 0H3.938A1.687 1.687 0 0 0 2.25 1.688V33.75H.844a.844.844 0 0 0-.844.844V36h31.5v-1.406a.844.844 0 0 0-.844-.844zM9 5.344a.844.844 0 0 1 .844-.844h2.813a.844.844 0 0 1 .844.844v2.812a.844.844 0 0 1-.845.844H9.844A.844.844 0 0 1 9 8.156zm0 6.75a.844.844 0 0 1 .844-.844h2.813a.844.844 0 0 1 .844.844v2.813a.844.844 0 0 1-.844.844H9.844A.844.844 0 0 1 9 14.906zM12.656 22.5H9.844A.844.844 0 0 1 9 21.656v-2.812A.844.844 0 0 1 9.844 18h2.813a.844.844 0 0 1 .844.844v2.813a.844.844 0 0 1-.845.843zM18 33.75h-4.5v-5.906a.844.844 0 0 1 .844-.844h2.813a.844.844 0 0 1 .844.844zm4.5-12.094a.844.844 0 0 1-.844.844h-2.812a.844.844 0 0 1-.844-.844v-2.812a.844.844 0 0 1 .844-.844h2.813a.844.844 0 0 1 .844.844zm0-6.75a.844.844 0 0 1-.844.844h-2.812a.844.844 0 0 1-.844-.844v-2.812a.844.844 0 0 1 .844-.844h2.813a.844.844 0 0 1 .844.844zm0-6.75a.844.844 0 0 1-.844.844h-2.812A.844.844 0 0 1 18 8.156V5.344a.844.844 0 0 1 .844-.844h2.813a.844.844 0 0 1 .844.844z" transform="translate(769.25 184.703)" style="fill:#858585"/>
    </g>
</svg>
