<?xml version="1.0" standalone="no"?>
<!DOCTYPE svg PUBLIC "-//W3C//DTD SVG 1.1//EN" "http://www.w3.org/Graphics/SVG/1.1/DTD/svg11.dtd" >
<svg xmlns="http://www.w3.org/2000/svg" xmlns:xlink="http://www.w3.org/1999/xlink" version="1.1">
<metadata>
Created by FontForge 20201107 at Fri Dec 26 12:55:29 2014
 By Jimmy Wärting
Copyright(c) BR KOREA Co., Ltd.
</metadata>
<defs>
<font id="BRR" horiz-adv-x="850" >
  <font-face 
    font-family="BR R"
    font-weight="400"
    font-stretch="normal"
    units-per-em="1000"
    panose-1="2 2 6 3 2 1 1 2 1 1"
    ascent="800"
    descent="-200"
    x-height="585"
    cap-height="754"
    bbox="-84 -287 958 939"
    underline-thickness="25"
    underline-position="-157"
    unicode-range="U+0020-FFE6"
  />
<missing-glyph horiz-adv-x="1000" 
d="M100 -45v800h800v-800h-800zM150 5h700v700h-700v-700z" />
    <glyph glyph-name=".notdef" horiz-adv-x="1000" 
d="M100 -45v800h800v-800h-800zM150 5h700v700h-700v-700z" />
    <glyph glyph-name="glyph1" horiz-adv-x="0" 
 />
    <glyph glyph-name="glyph2" horiz-adv-x="1000" 
 />
    <glyph glyph-name="space" unicode=" " horiz-adv-x="312" 
d="M0 -2z" />
    <glyph glyph-name="exclam" unicode="!" horiz-adv-x="280" 
d="M75 807h130l-19 -535h-96zM138 202q35 0 57 -23t22 -53q0 -33 -22 -55.5t-57 -22.5q-32 0 -54 22.5t-22 55.5q0 30 22 53t54 23z" />
    <glyph glyph-name="quotedbl" unicode="&#x22;" horiz-adv-x="361" 
d="M62 870h109l-8 -239h-73zM190 870h108l-27 -239h-74z" />
    <glyph glyph-name="numbersign" unicode="#" horiz-adv-x="676" 
d="M231 796h102l-21 -156h88l22 156h105l-22 -156h110l-14 -89h-108l-21 -164h106l-11 -89h-106l-29 -213h-102l25 213h-88l-27 -213h-104l27 213h-101l13 89h101l21 164h-102l15 89h98zM296 556l-20 -173h96l24 173h-100z" />
    <glyph glyph-name="dollar" unicode="$" horiz-adv-x="558" 
d="M62 287q44 -52 86 -76t82 -26h1v243q-34 14 -63.5 31t-51.5 41q-23 22 -35.5 52.5t-12.5 70.5t12.5 70t35.5 52q21 21 50.5 33t63.5 17v75h102v-77q36 -5 67 -15t61 -27v-120q-38 34 -72.5 54t-56.5 22h-1v-216h1q79 -38 122.5 -83t43.5 -111q0 -90 -45.5 -134.5
t-119.5 -61.5v-109h-102v101q-43 3 -88 15t-80 44v135zM321 190q26 6 46 30.5t20 69.5q0 32 -18 57t-44 44h-4v-201zM240 526v185q-28 -6 -50 -26t-22 -57q0 -36 21 -60.5t49 -41.5h2z" />
    <glyph glyph-name="percent" unicode="%" horiz-adv-x="821" 
d="M548 813h112l-387 -748h-115zM380 613q0 -41 -10 -75.5t-29 -59.5q-20 -26 -49.5 -41t-69.5 -15t-69.5 15t-49.5 41q-20 25 -30 59.5t-10 75.5q0 43 10 78t30 60t49.5 40t69.5 15t69.5 -15t49.5 -40q19 -25 29 -60t10 -78zM277 613q0 109 -55 109q-56 0 -56 -109
q0 -107 56 -107q55 0 55 107zM760 263q0 -41 -11 -76.5t-29 -60.5q-20 -25 -49.5 -39.5t-69.5 -14.5t-70 14.5t-49 39.5q-20 25 -29.5 60.5t-9.5 76.5q0 42 9.5 77t29.5 61q19 25 49 39.5t70 14.5t69.5 -14.5t49.5 -39.5q18 -26 29 -61t11 -77zM657 263q0 109 -56 109
t-56 -109q0 -108 56 -108t56 108z" />
    <glyph glyph-name="ampersand" unicode="&#x26;" horiz-adv-x="771" 
d="M273 431q-22 -19 -39.5 -37t-30.5 -37q-12 -19 -18.5 -40t-6.5 -47q0 -24 9 -45.5t25 -36.5q16 -16 37.5 -25.5t47.5 -9.5q46 0 146 77l-168 201h-2zM288 555q32 26 50.5 51.5t18.5 64.5q0 26 -13 40t-48 14q-24 0 -38.5 -16t-14.5 -47q0 -30 11.5 -57t32.5 -50h1z
M352 486l138 -168q13 35 10.5 77t-18.5 87h111q12 -77 3.5 -136.5t-30.5 -108.5l142 -157h-143l-58 72h-1q-31 -40 -83.5 -65.5t-115.5 -25.5q-54 0 -94 11t-77 36q-34 29 -54 65.5t-20 89.5q0 65 37.5 120t111.5 115v3q-14 14 -26.5 31.5t-22.5 37.5q-11 18 -18 40.5
t-7 47.5q0 69 40.5 111.5t117.5 42.5q81 0 124.5 -38t43.5 -98q0 -33 -10.5 -61t-26.5 -50q-16 -24 -35.5 -43t-38.5 -35v-1z" />
    <glyph glyph-name="quotesingle" unicode="'" horiz-adv-x="250" 
d="M80 631l-17 239h124l-17 -239h-90z" />
    <glyph glyph-name="parenleft" unicode="(" horiz-adv-x="403" 
d="M63 416q0 61 13.5 121.5t36.5 118.5q24 56 57 108t75 98h96q-46 -62 -75.5 -121t-47.5 -114t-26.5 -108t-8.5 -103q0 -100 36 -210t122 -233h-96q-38 43 -71.5 95t-57.5 110q-25 58 -39 118.5t-14 119.5z" />
    <glyph glyph-name="parenright" unicode=")" horiz-adv-x="403" 
d="M341 416q0 -59 -14.5 -119.5t-38.5 -118.5q-25 -58 -58.5 -110t-71.5 -95h-95q85 123 121.5 233t36.5 210q0 50 -9 103t-26 108q-18 55 -48 114t-75 121h95q42 -46 75 -98t57 -108q23 -58 37 -118.5t14 -121.5z" />
    <glyph glyph-name="asterisk" unicode="*" horiz-adv-x="472" 
d="M235 386l-47 -121l-87 48l77 110v3l-116 -20v104l116 -19v2l-77 110l87 49l47 -121h2l48 121l86 -49l-78 -110v-2l117 19v-104l-117 20v-3l78 -110l-86 -48l-48 121h-2z" />
    <glyph glyph-name="plus" unicode="+" horiz-adv-x="562" 
d="M231 508v189h101v-189h168v-93h-168v-190h-101v190h-168v93h168z" />
    <glyph glyph-name="comma" unicode="," horiz-adv-x="280" 
d="M128 63q5 18 -10 22q-18 2 -34 16.5t-16 46.5q0 12 4.5 24.5t13.5 22.5q9 8 22.5 14.5t28.5 6.5q36 0 57 -24t21 -61q0 -56 -32 -100t-100 -70l-20 40q27 11 43 27.5t22 34.5z" />
    <glyph glyph-name="hyphen" unicode="-" horiz-adv-x="525" 
d="M462 510v-98h-399v98h399z" />
    <glyph glyph-name="period" unicode="." horiz-adv-x="280" 
d="M138 216q35 0 57 -22.5t22 -53.5q0 -32 -22 -54.5t-57 -22.5q-31 0 -53 22.5t-22 54.5q0 31 22 53.5t53 22.5z" />
    <glyph glyph-name="slash" unicode="/" horiz-adv-x="478" 
d="M172 -25h-110l249 886h106z" />
    <glyph glyph-name="zero" unicode="0" horiz-adv-x="512" 
d="M25 427q0 36 3.5 76t14.5 79q10 38 27.5 72t44.5 61q25 27 59 42t82 15q44 0 79 -15t60 -42q26 -27 43.5 -61t27.5 -72q12 -39 16.5 -79t4.5 -76q0 -56 -11 -117.5t-36 -111.5q-27 -51 -72.5 -84t-111.5 -33q-69 0 -114 33t-70 84q-27 50 -37 111.5t-10 117.5zM137 427
q0 -21 2 -47.5t7 -53.5q5 -29 13 -56.5t22 -49.5q12 -22 31 -35t44 -13t43 13t32 35q12 22 19.5 49.5t15.5 56.5q5 27 7 53.5t2 47.5q0 29 -6.5 72.5t-18.5 83.5q-13 40 -36 68.5t-58 28.5q-36 0 -59.5 -28.5t-35.5 -68.5q-14 -40 -19 -83.5t-5 -72.5z" />
    <glyph glyph-name="one" unicode="1" horiz-adv-x="423" 
d="M203 625q-20 -19 -43 -39t-44 -40l-59 77l163 138h92v-671h-109v535z" />
    <glyph glyph-name="two" unicode="2" horiz-adv-x="512" 
d="M43 202q28 29 60.5 56t68.5 58q29 26 59.5 56t56.5 65q24 33 40.5 70.5t16.5 75.5q0 22 -8.5 39.5t-24.5 30.5q-15 12 -35 18.5t-41 6.5q-23 0 -44.5 -3.5t-43.5 -11.5q-21 -6 -40.5 -14.5t-32.5 -17.5q-4 26 -6.5 51t-5.5 48q43 20 90.5 31t92.5 11t83 -12t68 -38
q29 -22 46 -58.5t17 -85.5q0 -57 -30 -111.5t-73 -103.5q-42 -51 -93 -96t-92 -84h296v-92h-425v111z" />
    <glyph glyph-name="three" unicode="3" horiz-adv-x="512" 
d="M131 486h60q22 0 49.5 4.5t50.5 16.5q22 11 38 30.5t16 48.5q0 25 -9 43t-24 31q-15 10 -35 14t-41 4q-46 0 -89.5 -11.5t-71.5 -26.5q-2 25 -3.5 50t-3.5 51q34 14 80.5 22.5t89.5 8.5t82.5 -9.5t71.5 -31.5q29 -21 47.5 -57.5t18.5 -86.5q0 -29 -9 -52t-27 -42
q-16 -20 -37.5 -33.5t-42.5 -22.5q55 -16 88 -55.5t33 -106.5q0 -59 -21.5 -96t-56.5 -58q-37 -23 -83.5 -31.5t-94.5 -8.5q-44 0 -85 7.5t-76 19.5q1 28 2.5 53.5t3.5 51.5q24 -16 64.5 -28t83.5 -12q26 0 53 5t48 18q22 11 36 30.5t14 50.5q0 34 -14 56t-35 37
q-22 13 -49.5 18t-57.5 5h-64v93z" />
    <glyph glyph-name="four" unicode="4" horiz-adv-x="512" 
d="M311 641q-44 -78 -90 -153.5t-91 -155.5h182zM312 241h-301v86l266 434h144v-429h80v-91h-80v-151h-109v151z" />
    <glyph glyph-name="five" unicode="5" horiz-adv-x="512" 
d="M441 668h-271q-2 -37 -2.5 -76.5t-1.5 -79.5q11 3 28.5 4.5t40.5 1.5q43 0 83 -15.5t72 -44.5q30 -27 48 -66t18 -84q0 -56 -21.5 -98.5t-57.5 -69.5q-35 -29 -82 -44t-98 -15q-52 0 -88 7.5t-54 14.5l3 110q34 -21 66.5 -30.5t72.5 -9.5q26 0 52.5 8.5t46.5 23.5
q21 15 34 38t13 52q0 32 -12.5 57t-33.5 43q-21 15 -48 23t-58 8q-39 0 -69.5 -8t-60.5 -21l6 365h374v-94z" />
    <glyph glyph-name="six" unicode="6" horiz-adv-x="512" 
d="M433 643q-28 17 -62.5 27t-65.5 10q-39 0 -69 -17t-48 -45q-22 -28 -33.5 -66.5t-13.5 -79.5q30 26 62.5 36t69.5 10q48 0 86 -16t63 -45q26 -29 40.5 -68t14.5 -84q0 -53 -17 -95t-45 -70q-30 -29 -69.5 -44t-84.5 -15q-70 0 -113 28.5t-68 73.5q-27 48 -36 105.5
t-9 113.5q0 68 12.5 134t42.5 120q30 52 81.5 84t128.5 32q16 0 38 -3t43 -6q21 -5 40.5 -10t26.5 -8zM362 303q0 22 -7 43.5t-18 40.5q-12 15 -31 27t-44 12q-26 0 -46.5 -10t-34.5 -25q-16 -18 -23.5 -40.5t-7.5 -47.5q0 -22 6 -45t21 -42q13 -20 33 -32t46 -12t45.5 11.5
t33.5 29.5q13 19 20 42t7 48z" />
    <glyph glyph-name="seven" unicode="7" horiz-adv-x="512" 
d="M468 676l-243 -586h-118l248 578h-312v93h425v-85z" />
    <glyph glyph-name="eight" unicode="8" horiz-adv-x="512" 
d="M377 266q0 34 -28.5 65.5t-92.5 60.5q-21 -10 -43 -22.5t-40 -27.5q-17 -15 -27.5 -32t-10.5 -37q0 -23 11.5 -40.5t29.5 -29.5q17 -12 38.5 -18.5t40.5 -6.5q18 0 39.5 6t38.5 17q18 11 30 27.5t14 37.5zM147 598q0 -25 26.5 -53t84.5 -54q15 6 33.5 16.5t34.5 25.5
q16 14 26.5 30.5t10.5 33.5q0 19 -11 34t-27 25q-17 9 -36 14t-34 5q-17 0 -35.5 -5t-34.5 -14q-17 -10 -27.5 -24.5t-10.5 -33.5zM255 78q-42 0 -83 13.5t-72 38.5q-33 23 -53 59t-20 82q0 31 10.5 56.5t29.5 48.5q18 21 39.5 38.5t44.5 31.5q-41 26 -74.5 66.5t-33.5 95.5
q0 43 21 75t52 53q31 20 68 30t71 10q37 0 75 -10.5t68 -30.5q30 -22 49.5 -53.5t19.5 -74.5q0 -29 -9.5 -52.5t-24.5 -43.5t-34 -37t-39 -29q60 -38 92.5 -81.5t32.5 -87.5q0 -50 -21 -87.5t-53 -61.5q-34 -25 -74.5 -37t-81.5 -12z" />
    <glyph glyph-name="nine" unicode="9" horiz-adv-x="512" 
d="M78 210q29 -17 64 -27.5t69 -10.5q39 0 68 17t51 47q17 27 27.5 64.5t13.5 80.5q-29 -26 -57 -37t-68 -11q-46 0 -85 16.5t-69 46.5q-25 29 -41 69t-16 85q0 51 18 93t49 72q31 27 72 42t87 15q69 0 111.5 -28.5t64.5 -75.5q23 -46 31 -103t8 -114q0 -66 -12 -133.5
t-41 -120.5q-28 -54 -79 -85t-127 -31q-19 0 -40.5 2t-43.5 5q-22 4 -41 9t-29 13zM150 551q0 -23 7.5 -44.5t22.5 -39.5q13 -17 34 -28.5t46 -11.5t44 10t33 26q11 17 17.5 39.5t6.5 48.5q0 21 -5 44t-16 42q-13 20 -31 31.5t-43 11.5q-26 0 -48 -10t-37 -29t-23 -42.5
t-8 -47.5z" />
    <glyph glyph-name="colon" unicode=":" horiz-adv-x="280" 
d="M137 330q34 0 57 -22.5t23 -54.5q0 -31 -23 -53.5t-57 -22.5q-32 0 -53.5 22.5t-21.5 53.5q0 32 21.5 54.5t53.5 22.5zM137 702q34 0 57 -22.5t23 -53.5q0 -30 -23 -53t-57 -23q-32 0 -53.5 23t-21.5 53q0 31 21.5 53.5t53.5 22.5z" />
    <glyph glyph-name="semicolon" unicode=";" horiz-adv-x="280" 
d="M136 702q34 0 57 -22.5t23 -54.5q0 -29 -23 -53t-57 -24q-33 0 -53.5 24t-20.5 53q0 32 20.5 54.5t53.5 22.5zM126 180q7 16 -10 20q-18 2 -33.5 17.5t-15.5 47.5q0 12 4 23.5t14 22.5q8 10 21.5 15.5t29.5 5.5q36 0 56.5 -23.5t20.5 -61.5q0 -56 -32.5 -100t-98.5 -70
l-20 40q26 11 42.5 27t21.5 36z" />
    <glyph glyph-name="less" unicode="&#x3c;" horiz-adv-x="456" 
d="M62 426l205 435h118l-205 -435l216 -451h-120z" />
    <glyph glyph-name="equal" unicode="=" horiz-adv-x="521" 
d="M458 585v-93h-396v93h396zM458 402v-94h-396v94h396z" />
    <glyph glyph-name="greater" unicode="&#x3e;" horiz-adv-x="456" 
d="M396 426l-215 -451h-119l216 451l-206 435h118z" />
    <glyph glyph-name="question" unicode="?" horiz-adv-x="498" 
d="M231 202q34 0 56.5 -22.5t22.5 -53.5t-22.5 -53.5t-56.5 -22.5q-33 0 -54.5 22.5t-21.5 53.5t21.5 53.5t54.5 22.5zM63 638v123q35 27 80 43t89 16q98 0 149.5 -46t51.5 -124q0 -30 -10 -57t-23 -51q-14 -24 -31.5 -44.5t-33.5 -36.5q-13 -13 -25 -26t-19 -24
q-8 -13 -11.5 -27t-3.5 -34q0 -18 2 -35.5t12 -47.5h-104q-6 23 -8.5 45.5t-2.5 40.5q0 27 5 48t15 40q10 17 23 35.5t28 34.5q30 29 52.5 58t22.5 68q0 45 -26.5 65t-73.5 20q-36 0 -73.5 -17.5t-84.5 -66.5z" />
    <glyph glyph-name="at" unicode="@" horiz-adv-x="957" 
d="M483 557q-25 0 -45.5 -16t-35.5 -43t-23.5 -63.5t-8.5 -74.5q0 -57 18 -80.5t49 -23.5q21 0 42 12t37 37q15 23 24.5 60.5t9.5 90.5q0 52 -14.5 76.5t-52.5 24.5zM488 60q48 0 87.5 7.5t72.5 20.5q34 14 64 32t59 41v-110l-1 -1q-55 -40 -129 -59.5t-154 -19.5
q-115 0 -195.5 31t-131.5 88q-52 56 -75 133t-23 169q0 98 30.5 181t87.5 144q56 60 133 94.5t168 34.5q95 0 171 -28t130 -80t82 -124.5t28 -160.5q0 -72 -19.5 -125t-50.5 -88q-32 -37 -73 -54.5t-83 -17.5q-53 0 -76 25t-27 58q-21 -40 -58 -65t-84 -25
q-80 0 -120.5 55.5t-40.5 145.5q0 68 20 121t51 90q30 37 67.5 57t72.5 20q66 0 96 -42l8 35h96l-30 -347q0 -50 34 -50q18 0 37 12.5t34 37.5t24.5 62t9.5 85q0 78 -21 136t-59 97q-39 37 -93 56.5t-121 19.5q-68 0 -124.5 -26t-98.5 -74q-41 -47 -63.5 -113.5
t-22.5 -145.5q0 -333 311 -333z" />
    <glyph glyph-name="A" unicode="A" horiz-adv-x="663" 
d="M278 762h109l270 -681h-119l-62 165h-293l-65 -165h-113zM330 638l-113 -300h226z" />
    <glyph glyph-name="B" unicode="B" horiz-adv-x="551" 
d="M67 762h188q51 0 95.5 -9.5t75.5 -30.5q31 -20 49 -50.5t18 -80.5q0 -61 -31 -98t-82 -56q45 -6 68.5 -20t41.5 -34q17 -20 27 -46.5t10 -65.5q0 -64 -21 -98.5t-58 -55.5q-36 -21 -82 -28.5t-96 -7.5h-203v681zM176 173h84q28 0 56.5 4.5t48.5 15.5q22 9 34.5 29
t12.5 58q0 41 -14.5 62t-37.5 33q-24 11 -53 14.5t-56 3.5h-75v-220zM176 486h49q30 0 58.5 3t52.5 14q21 8 35 28t14 51q0 28 -11.5 43.5t-28.5 25.5q-17 11 -37 14t-38 3h-94v-182z" />
    <glyph glyph-name="C" unicode="C" horiz-adv-x="566" 
d="M525 630q-72 43 -138 43q-52 0 -95.5 -18t-71.5 -50q-32 -35 -48.5 -80t-16.5 -98q0 -57 17.5 -102t50.5 -79q29 -33 71 -50.5t88 -17.5q16 0 35.5 2.5t38.5 10.5q20 2 38 9.5t33 17.5l8 -112q-40 -18 -82.5 -21.5t-71.5 -3.5q-78 0 -139.5 23t-105.5 69q-48 45 -72 110
t-24 145q0 78 25.5 141t71.5 108t108 69.5t137 24.5q39 0 76.5 -6.5t74.5 -23.5z" />
    <glyph glyph-name="D" unicode="D" horiz-adv-x="647" 
d="M67 761h195q73 0 134.5 -23t109.5 -65q46 -42 72.5 -103.5t26.5 -143.5q0 -89 -24 -154t-68 -107q-45 -43 -108 -63.5t-143 -20.5h-195v680zM177 178h84q114 0 172.5 58.5t58.5 185.5q0 61 -17.5 104.5t-47.5 74.5q-29 29 -69.5 45.5t-85.5 16.5h-95v-485z" />
    <glyph glyph-name="E" unicode="E" horiz-adv-x="522" 
d="M67 761h388v-98h-279v-181h256v-97h-256v-207h279v-97h-388v680z" />
    <glyph glyph-name="F" unicode="F" horiz-adv-x="460" 
d="M67 761h370v-98h-260v-176h249v-97h-249v-309h-110v680z" />
    <glyph glyph-name="G" unicode="G" horiz-adv-x="650" 
d="M577 736q-2 -29 -4 -57t-5 -58q-18 14 -38 24.5t-42 16.5q-22 5 -46.5 8t-54.5 3q-51 0 -94 -18t-73 -50q-32 -35 -48 -80t-16 -98q0 -61 19.5 -108t54.5 -77q35 -34 80 -49t97 -15q16 0 33.5 1.5t34.5 7.5v203h-133v92h240v-370q-29 -11 -77 -21t-123 -10
q-77 0 -139.5 23.5t-106.5 70.5q-46 43 -70.5 108t-24.5 145q0 78 25 141t71 108t108.5 69.5t137.5 24.5q48 0 96 -9t98 -26z" />
    <glyph glyph-name="H" unicode="H" horiz-adv-x="632" 
d="M67 762h109v-280h281v280h109v-681h-109v304h-281v-304h-109v681z" />
    <glyph glyph-name="I" unicode="I" horiz-adv-x="251" 
d="M71 762h109v-681h-109v681z" />
    <glyph glyph-name="J" unicode="J" horiz-adv-x="327" 
d="M-7 192q22 -7 38 -10.5t27 -3.5q54 0 73.5 32.5t19.5 86.5v465h109v-494q0 -36 -9 -70.5t-29 -59.5q-21 -26 -56.5 -41.5t-90.5 -15.5q-47 0 -82 12v99z" />
    <glyph glyph-name="K" unicode="K" horiz-adv-x="605" 
d="M67 762h110v-277l253 277h145l-304 -322l327 -359h-156l-265 310v-310h-110v681z" />
    <glyph glyph-name="L" unicode="L" horiz-adv-x="446" 
d="M68 762h109v-584h275v-97h-384v681z" />
    <glyph glyph-name="M" unicode="M" horiz-adv-x="770" 
d="M67 762h160l159 -534l156 534h161v-681h-103v539l-165 -539h-99l-166 539v-539h-103v681z" />
    <glyph glyph-name="N" unicode="N" horiz-adv-x="653" 
d="M67 762h136l274 -517v517h109v-681h-130l-280 530v-530h-109v681z" />
    <glyph glyph-name="O" unicode="O" horiz-adv-x="705" 
d="M155 427q0 -47 11.5 -92t34.5 -80q25 -35 62.5 -56t88.5 -21t88.5 21t61.5 56t36.5 80t12.5 92q0 48 -12.5 92t-37.5 81q-25 33 -62.5 53t-86.5 20q-50 0 -87 -20t-62 -53q-25 -37 -36.5 -81t-11.5 -92zM40 426q0 75 21.5 138t61.5 108q39 46 97 72.5t132 26.5t132 -26.5
t97 -72.5q40 -45 61 -108t21 -138q0 -78 -20.5 -141.5t-60.5 -109.5q-40 -45 -98 -69.5t-132 -24.5q-75 0 -133 24.5t-97 69.5q-39 46 -60.5 109.5t-21.5 141.5z" />
    <glyph glyph-name="P" unicode="P" horiz-adv-x="546" 
d="M177 452h89q20 0 42 5t40 19q18 12 30.5 32t12.5 50q0 29 -15 49t-34 33q-21 12 -45.5 17.5t-44.5 5.5h-75v-211zM68 761h182q51 0 97 -10t80 -34q35 -24 55.5 -63t20.5 -97q0 -57 -20.5 -96.5t-55.5 -63.5q-34 -25 -76.5 -35t-85.5 -10h-88v-271h-109v680z" />
    <glyph glyph-name="Q" unicode="Q" horiz-adv-x="705" 
d="M40 426q0 74 21.5 137.5t61.5 108.5q39 46 97 72.5t132 26.5t132 -26.5t97 -72.5q40 -45 61 -108.5t21 -137.5q0 -78 -21 -141q-19 -59 -54 -102l72 -60l-60 -73l-84 71q-15 -9 -33 -16q-57 -25 -131 -25q-75 0 -133 25t-97 70q-39 46 -60.5 109.5t-21.5 141.5zM401 343
l102 -87q23 34 35 77q13 45 13 93q0 47 -12.5 91.5t-37.5 80.5q-25 33 -62.5 54t-86.5 21q-50 0 -87 -21t-62 -54q-25 -36 -36.5 -80.5t-11.5 -91.5q0 -48 11.5 -93t34.5 -80q25 -35 62.5 -55.5t88.5 -20.5q45 0 79 15l-88 76z" />
    <glyph glyph-name="R" unicode="R" horiz-adv-x="571" 
d="M67 761h176q49 0 96 -6.5t83 -26.5q36 -17 58 -54t22 -98q0 -60 -34.5 -99.5t-85.5 -53.5q15 -10 27 -23t26 -38l121 -281h-121l-98 242q-10 22 -20.5 33t-24.5 17q-11 5 -26 7t-29 2h-61v-301h-109v680zM176 480h82q60 0 96 24t36 69q0 42 -32 66t-90 24h-92v-183z" />
    <glyph glyph-name="S" unicode="S" horiz-adv-x="485" 
d="M413 746q-3 -26 -7 -51t-8 -52q-21 8 -36.5 13.5t-30.5 9.5q-16 4 -31 5.5t-33 1.5q-24 0 -42.5 -3.5t-33.5 -9.5q-15 -12 -24.5 -27t-9.5 -40q0 -23 9.5 -37.5t23.5 -27.5q15 -12 34 -22.5t44 -20.5v1q29 -14 60.5 -31.5t58.5 -41.5q24 -25 41 -58.5t17 -73.5
q0 -55 -20 -92.5t-54 -60.5q-35 -26 -80.5 -36.5t-97.5 -10.5q-36 0 -73 8.5t-73 20.5q3 26 6.5 52t4.5 51q15 -5 32.5 -10.5t37.5 -10.5t40 -9.5t37 -4.5q25 0 45 6t38 16q18 11 29 29.5t11 47.5q0 39 -20 61t-53 39q-32 19 -70.5 36.5t-69.5 38.5q-32 24 -53 57.5
t-21 76.5q0 45 17.5 80t46.5 57q31 24 71 36t87 12q34 0 73.5 -6.5t76.5 -18.5z" />
    <glyph glyph-name="T" unicode="T" horiz-adv-x="510" 
d="M201 663h-196v98h500v-98h-195v-582h-109v582z" />
    <glyph glyph-name="U" unicode="U" horiz-adv-x="640" 
d="M573 371q0 -143 -65 -216.5t-187 -73.5q-124 0 -189 73.5t-65 216.5v391h109v-379q0 -45 7 -83t24 -64q16 -28 45 -43t69 -15t68 15t46 43q15 26 22.5 64t7.5 83v379h108v-391z" />
    <glyph glyph-name="V" unicode="V" horiz-adv-x="625" 
d="M375 81h-129l-240 681h120l187 -564l192 564h113z" />
    <glyph glyph-name="W" unicode="W" horiz-adv-x="815" 
d="M5 762h117l109 -541l109 541h125l110 -541l120 541h115l-172 -681h-132l-105 551l-103 -551h-132z" />
    <glyph glyph-name="X" unicode="X" horiz-adv-x="630" 
d="M241 435l-215 327h130l161 -249q154 239 160 249h126l-216 -326l236 -355h-135l-180 274l-172 -274h-131z" />
    <glyph glyph-name="Y" unicode="Y" horiz-adv-x="622" 
d="M257 371l-252 391h127l180 -284l178 284h126l-251 -391v-290h-108v290z" />
    <glyph glyph-name="Z" unicode="Z" horiz-adv-x="541" 
d="M41 176l324 487h-313v98h443v-96l-323 -487h328v-97h-459v95z" />
    <glyph glyph-name="bracketleft" unicode="[" horiz-adv-x="327" 
d="M265 861v-81h-92v-728h92v-79h-202v888h202z" />
    <glyph glyph-name="backslash" unicode="\" horiz-adv-x="938" 
d="M63 516h89l-64 267h112l51 -267h102l57 267h118l57 -267h101l54 267h111l-64 -267h88v-90h-103l-74 -331h-121l-70 331h-74l-72 -331h-120l-75 331h-103v90zM446 513h47l-23 149zM671 427h-73l38 -204zM340 427h-73l35 -204z" />
    <glyph glyph-name="bracketright" unicode="]" horiz-adv-x="328" 
d="M63 861h203v-888h-203v79h90v728h-90v81z" />
    <glyph glyph-name="asciicircum" unicode="^" horiz-adv-x="521" 
d="M310 870l147 -209h-124l-75 122h-1l-72 -122h-122l144 209h103z" />
    <glyph glyph-name="underscore" unicode="_" horiz-adv-x="518" 
d="M455 -27h-392v90h392v-90z" />
    <glyph glyph-name="grave" unicode="`" horiz-adv-x="325" 
d="M263 636h-95l-106 234h134z" />
    <glyph glyph-name="a" unicode="a" horiz-adv-x="498" 
d="M66 543q34 23 78 38t93 15q104 0 148.5 -51.5t44.5 -153.5v-209q0 -41 1 -63.5t5 -38.5h-101v57q-19 -20 -53 -38.5t-81 -18.5q-40 0 -73 8.5t-56 27.5q-24 19 -36.5 48t-12.5 73q0 46 22 78t55 50q35 20 73.5 28.5t71.5 8.5q22 0 41 -0.5t40 -1.5q-1 53 -24.5 80.5
t-78.5 27.5q-18 0 -37 -3.5t-40 -13.5q-19 -9 -39 -21t-36 -25zM326 318q-8 2 -18 2h-18q-17 0 -43.5 -2t-53.5 -11q-25 -9 -43 -25t-18 -45q0 -19 7 -31.5t18 -19.5q11 -11 23.5 -15.5t27.5 -4.5q58 0 88 34.5t30 84.5v33z" />
    <glyph glyph-name="b" unicode="b" horiz-adv-x="562" 
d="M67 811h103l2 -273q21 24 56 41.5t87 17.5t91.5 -20t64.5 -55q26 -35 38.5 -80t12.5 -94q0 -51 -12 -99.5t-37 -86.5q-25 -37 -63.5 -59t-94.5 -22q-53 0 -90.5 19.5t-58.5 41.5v-61h-99v730zM413 341q0 30 -6 60.5t-19 53.5q-15 25 -36.5 39t-55.5 14q-31 0 -55 -14
t-40 -39q-15 -23 -23 -54t-8 -64q0 -29 7.5 -59t22.5 -53q16 -27 39.5 -42.5t56.5 -15.5q31 0 54 17t37 43q14 25 20 55t6 58v1z" />
    <glyph glyph-name="c" unicode="c" horiz-adv-x="433" 
d="M388 485q-30 13 -54 18t-46 5q-33 0 -59 -14t-42 -38q-19 -24 -28 -55t-9 -63q0 -31 8 -61.5t25 -54.5q18 -26 45 -40.5t64 -14.5q21 0 47.5 9.5t53.5 25.5l7 -99q-33 -15 -62.5 -19t-52.5 -4q-54 0 -99.5 20t-77.5 56q-32 35 -49.5 82t-17.5 100q0 57 17.5 104.5
t49.5 80.5q30 35 76 54t101 19q27 0 59.5 -5.5t52.5 -17.5z" />
    <glyph glyph-name="d" unicode="d" horiz-adv-x="545" 
d="M377 141q-20 -23 -56 -41.5t-91 -18.5q-54 0 -94 22.5t-65 59.5t-36.5 85.5t-11.5 99.5q0 49 12 94t38 80q27 35 66 55t92 20q55 0 88.5 -17t55.5 -42v273h103v-730h-101v60zM248 508q-31 0 -53.5 -14t-37.5 -38t-20.5 -54.5t-5.5 -60.5q0 -28 5.5 -58.5t20.5 -55.5
q15 -26 38 -43t53 -17q35 0 59 15.5t38 42.5q15 23 22.5 53t7.5 59q0 33 -8.5 64t-23.5 54q-16 25 -39 39t-56 14z" />
    <glyph glyph-name="e" unicode="e" horiz-adv-x="501" 
d="M435 113q-37 -13 -70.5 -23t-84.5 -10q-64 0 -110.5 19t-78.5 54q-29 37 -44 85.5t-15 108.5q0 55 16.5 100.5t44.5 78.5q30 32 71 51t93 19q60 0 100.5 -21.5t65.5 -59.5q25 -39 34.5 -91.5t9.5 -113.5h-326q1 -30 13.5 -57t32.5 -46q18 -17 43.5 -28.5t54.5 -11.5
q17 0 39.5 5.5t45.5 17.5q21 6 37 16.5t28 19.5v-113zM360 388q-3 23 -10 45.5t-20 39.5q-15 17 -34 26t-41 9q-27 0 -47 -10t-32 -27q-15 -18 -22.5 -40.5t-11.5 -42.5h218z" />
    <glyph glyph-name="f" unicode="f" horiz-adv-x="375" 
d="M127 498h-109v87h109q0 55 4.5 98.5t23.5 76.5q16 28 49 44.5t86 16.5q17 0 34 -2t32 -4q-3 -23 -3 -45.5t-1 -46.5q-12 5 -25.5 7.5t-24.5 2.5q-27 0 -43 -10.5t-19 -31.5q-8 -20 -9 -47t-1 -59h121v-87h-121v-418h-103v418z" />
    <glyph glyph-name="g" unicode="g" horiz-adv-x="555" 
d="M487 157q0 -114 -58 -172.5t-188 -58.5q-18 0 -36.5 1t-39.5 4q-22 2 -45.5 9t-52.5 20l5 50q3 25 5 48q26 -12 48 -21t43 -15q20 -5 40 -8t43 -3q65 0 98 44.5t33 122.5v10q-27 -31 -64.5 -45.5t-79.5 -14.5q-52 0 -91 17.5t-64 49.5q-26 31 -38.5 71.5t-12.5 86.5
q0 45 14 89t41 78q28 35 68 55.5t91 20.5q56 0 89 -15t55 -46v50h97v-428zM260 215q53 0 88 36t35 100q0 71 -30.5 114t-92.5 43q-30 0 -52.5 -12.5t-36.5 -32.5q-16 -21 -23.5 -48.5t-7.5 -57.5q0 -64 31.5 -103t88.5 -39z" />
    <glyph glyph-name="h" unicode="h" horiz-adv-x="558" 
d="M67 811h103l1 -276q50 62 139 62q93 0 137 -57t44 -155v-304h-104v267q0 80 -18.5 119t-70.5 41q-32 0 -56.5 -13.5t-41.5 -38.5q-14 -24 -22 -59t-8 -76v-240h-103v730z" />
    <glyph glyph-name="i" unicode="i" horiz-adv-x="250" 
d="M72 585h108v-505h-108v505zM180 666h-108v120h108v-120z" />
    <glyph glyph-name="j" unicode="j" horiz-adv-x="262" 
d="M-3 -18q15 -5 22 -5.5t19 -0.5q25 0 37.5 25t12.5 69v516h104v-503q0 -28 -2.5 -63t-14.5 -64q-14 -29 -42 -51t-80 -22q-13 0 -30 1.5t-30 5.5zM195 666h-107v120h107v-120z" />
    <glyph glyph-name="k" unicode="k" horiz-adv-x="512" 
d="M67 811h103v-410l171 185h141l-222 -228l247 -277h-146l-191 234v-234h-103v730z" />
    <glyph glyph-name="l" unicode="l" horiz-adv-x="246" 
d="M71 811h105v-730h-105v730z" />
    <glyph glyph-name="m" unicode="m" horiz-adv-x="812" 
d="M67 585h99v-50q24 31 57.5 46t79.5 15q40 0 75 -19t55 -62q15 22 33.5 37.5t35.5 25.5q20 10 39.5 14t34.5 4q46 0 78 -15t53 -39q19 -26 28.5 -61t9.5 -76v-325h-104v305q0 20 -2.5 42.5t-11.5 39.5q-9 19 -22 30t-37 11q-28 0 -49.5 -14t-33.5 -38q-15 -23 -21.5 -53.5
t-6.5 -62.5v-260h-104v305q0 20 -2.5 42.5t-9.5 39.5q-8 19 -22 30t-37 11q-30 0 -51 -14t-35 -38q-13 -23 -19.5 -53.5t-6.5 -62.5v-260h-103v505z" />
    <glyph glyph-name="n" unicode="n" horiz-adv-x="558" 
d="M67 585h100v-57q24 30 62 49t81 19q93 0 137 -57t44 -156v-303h-104v267q0 80 -18.5 119.5t-70.5 41.5q-32 0 -56.5 -13.5t-41.5 -38.5q-14 -25 -22 -60t-8 -75v-241h-103v505z" />
    <glyph glyph-name="o" unicode="o" horiz-adv-x="551" 
d="M32 338q0 57 18 104.5t50 80.5q31 35 76.5 54t99.5 19q56 0 100 -19t75 -54q32 -33 49.5 -80.5t17.5 -104.5q0 -53 -17.5 -100t-49.5 -82q-31 -36 -75.5 -56t-99.5 -20q-54 0 -98.5 20t-77.5 56q-32 35 -50 82t-18 100zM141 338q0 -31 8 -61.5t26 -54.5q13 -26 39 -40.5
t62 -14.5q34 0 59.5 14.5t41.5 40.5q16 24 23.5 54.5t7.5 61.5q0 32 -8.5 63t-24.5 55q-18 24 -43 38t-56 14t-56 -14t-42 -38q-18 -24 -27.5 -55t-9.5 -63z" />
    <glyph glyph-name="p" unicode="p" horiz-adv-x="571" 
d="M67 585h101v-52q20 25 58.5 44t91.5 19q54 0 93 -19t67 -51q25 -33 39 -77t14 -93q0 -51 -13 -98t-37 -82q-28 -35 -66.5 -57t-94.5 -22q-55 0 -91.5 16.5t-58.5 43.5v-232h-103v660zM421 350q1 31 -5 59t-21 51q-17 22 -39.5 35t-54.5 13q-33 0 -56.5 -13t-41.5 -35
q-16 -23 -24.5 -52.5t-8.5 -60.5q0 -30 8 -58.5t23 -50.5q17 -25 41.5 -38.5t57.5 -13.5q32 0 54.5 15t38.5 40q15 24 22 52t6 57z" />
    <glyph glyph-name="q" unicode="q" horiz-adv-x="571" 
d="M505 -75h-105l-2 230q-21 -25 -61.5 -41.5t-85.5 -16.5q-54 0 -94 22t-66 58q-25 35 -38 81.5t-13 97.5q0 49 13.5 93t39.5 77q28 32 67.5 51t91.5 19q55 0 94 -19t57 -45v53h102v-660zM150 350q-2 -29 5 -57t23 -52q15 -25 38.5 -40t54.5 -15q34 0 58 13.5t41 38.5
q16 22 23 50.5t7 58.5q0 31 -7.5 60.5t-25.5 52.5q-16 22 -40.5 35t-55.5 13t-55 -13t-39 -34q-16 -23 -22.5 -51.5t-4.5 -59.5z" />
    <glyph glyph-name="r" unicode="r" horiz-adv-x="348" 
d="M67 585h99v-54q21 30 51 47.5t66 17.5q37 0 73 -13v-97q-15 7 -35 13t-30 6q-51 0 -85.5 -51.5t-34.5 -136.5v-237h-104v505z" />
    <glyph glyph-name="s" unicode="s" horiz-adv-x="397" 
d="M35 112l6 96q16 -10 34 -17.5t37 -12.5q19 -6 34 -8.5t25 -2.5q16 0 30.5 2.5t25.5 10.5q13 7 20.5 21t7.5 32q0 24 -16 38.5t-39 26.5q-25 13 -54 26t-56 29q-25 17 -41.5 40.5t-16.5 53.5q0 39 15 66.5t40 44.5q25 20 59 29.5t72 9.5q33 0 61.5 -6t60.5 -15l-10 -99
q-9 6 -24 13.5t-29 12.5q-16 3 -29 6t-21 3q-19 0 -33 -3t-24 -9q-13 -7 -21 -18.5t-8 -28.5q0 -25 17 -39t42 -26q23 -11 52 -24.5t56 -30.5q25 -18 41 -44t16 -56q0 -40 -14.5 -67.5t-39.5 -45.5q-24 -22 -56.5 -30.5t-67.5 -8.5q-32 0 -74 5t-78 26z" />
    <glyph glyph-name="t" unicode="t" horiz-adv-x="363" 
d="M333 498h-122v-243q0 -38 18 -57.5t44 -19.5q19 0 35.5 7.5t32.5 17.5v-97q-18 -6 -38.5 -11t-42.5 -5q-72 0 -112 35.5t-40 112.5v260h-102v87h102v138h103v-138h122v-87z" />
    <glyph glyph-name="u" unicode="u" horiz-adv-x="558" 
d="M491 81h-101v67q-24 -31 -61.5 -49t-81.5 -18q-94 0 -137 56t-43 158v291h103v-255q0 -83 18.5 -121.5t69.5 -42.5q34 0 59 14t40 40q16 25 23.5 59.5t7.5 75.5v230h103v-505z" />
    <glyph glyph-name="v" unicode="v" horiz-adv-x="463" 
d="M290 81h-115l-170 505h106l121 -380l121 380h105z" />
    <glyph glyph-name="w" unicode="w" horiz-adv-x="740" 
d="M588 81h-113l-105 386l-105 -386h-114l-146 505h105l96 -380l107 380h113l107 -381l99 381h101z" />
    <glyph glyph-name="x" unicode="x" horiz-adv-x="475" 
d="M175 345l-154 241h127l93 -165l96 165h116l-152 -240l167 -265h-126l-107 182l-107 -182h-123z" />
    <glyph glyph-name="y" unicode="y" horiz-adv-x="462" 
d="M32 -108q3 23 4 45.5t2 43.5q12 -4 25.5 -7t23.5 -3q28 0 45.5 15.5t27.5 35.5q11 20 15.5 38t4.5 21l-174 504h106l120 -373l120 373h105l-171 -498q-13 -35 -28 -70.5t-35 -65.5q-21 -29 -50.5 -47.5t-72.5 -18.5q-20 0 -36.5 1.5t-31.5 5.5z" />
    <glyph glyph-name="z" unicode="z" horiz-adv-x="472" 
d="M40 168l255 332h-243v86h369v-89l-254 -330h265v-86h-392v87z" />
    <glyph glyph-name="braceleft" unicode="{" horiz-adv-x="386" 
d="M248 541q0 -45 -23 -69.5t-53 -38.5v-1q16 -7 30 -16t25 -21q11 -13 16 -30t5 -39v-225q0 -19 1.5 -29.5t5.5 -15.5q3 -6 8 -7.5t15 -1.5h44v-79h-62q-58 0 -91 27t-33 86v216q0 24 -2 42t-11 32q-8 12 -22.5 20.5t-38.5 10.5v58q24 3 38.5 11.5t22.5 21.5q9 13 11 31
t2 42v185q0 59 33 86.5t91 27.5h62v-80h-44q-10 0 -15 -1.5t-8 -6.5q-4 -6 -5.5 -16t-1.5 -31v-189z" />
    <glyph glyph-name="bar" unicode="|" horiz-adv-x="228" 
d="M63 -27v888h103v-888h-103z" />
    <glyph glyph-name="braceright" unicode="}" horiz-adv-x="386" 
d="M135 541v189q0 21 -1 31t-3 16q-4 5 -10 6.5t-15 1.5h-44v80h65q56 0 88 -27.5t32 -86.5v-185q0 -24 4 -42t12 -31t22.5 -21.5t36.5 -11.5v-58q-22 -2 -36.5 -10.5t-22.5 -20.5q-8 -14 -12 -32t-4 -42v-216q0 -59 -32 -86t-88 -27h-65v79h44q9 0 15 1.5t10 7.5
q2 5 3 15.5t1 29.5v225q0 22 6 39t17 30q10 12 24 21t33 16v1q-33 14 -56.5 38.5t-23.5 69.5z" />
    <glyph glyph-name="asciitilde" unicode="~" horiz-adv-x="537" 
d="M176 443q-34 0 -59 -20.5t-55 -70.5v121q19 35 51 54.5t69 19.5q58 0 103 -40q22 -17 37.5 -27t37.5 -10q33 0 57.5 20t57.5 72v-122q-20 -37 -52 -55.5t-70 -18.5q-27 0 -55 10t-48 27q-22 22 -38 31t-36 9z" />
    <glyph glyph-name="exclamdown" unicode="&#xa1;" horiz-adv-x="950" 
d="M458 585h34l10 -273v-392h-59v392zM512 719h-82v86h82v-86z" />
    <glyph glyph-name="currency" unicode="&#xa4;" horiz-adv-x="950" 
d="M471 647q-55 0 -102 -21t-86 -63q-40 -42 -59.5 -92.5t-19.5 -108.5q0 -59 19.5 -109.5t59.5 -92.5q39 -42 86.5 -62.5t101.5 -20.5q55 0 104 20.5t91 62.5q39 42 59.5 92.5t20.5 109.5q0 58 -20.5 108.5t-59.5 92.5q-42 42 -90.5 63t-104.5 21v0zM152 -7l-31 31l114 120
q-18 22 -32.5 47t-23.5 53q-11 27 -16 56.5t-5 61.5q0 31 5 60.5t17 58.5q10 27 24 52t32 46q-15 15 -29.5 31t-27.5 32q-8 7 -15.5 14.5t-14.5 15.5t-14 15.5t-14 15.5l31 32l112 -122q21 19 45.5 34t51.5 27q27 10 54 15.5t56 5.5q31 0 59.5 -5.5t54.5 -15.5
q24 -12 47.5 -27t44.5 -33q15 15 29.5 30t29.5 30q13 15 27.5 30t29.5 31l35 -32l-119 -124q20 -21 35.5 -46t26.5 -52q9 -29 14.5 -58.5t5.5 -60.5q0 -32 -5.5 -61.5t-14.5 -56.5q-11 -28 -26.5 -53t-34.5 -47l118 -120l-35 -31l-114 118q-21 -20 -44.5 -35t-48.5 -25
q-26 -12 -55 -17t-60 -5q-29 0 -56.5 5.5t-54.5 17.5q-28 10 -52.5 25t-45.5 35z" />
    <glyph glyph-name="section" unicode="&#xa7;" horiz-adv-x="950" 
d="M467 798q30 0 54 -12t42 -36q16 -24 17 -41t-14 -26q-11 -8 -20 -5.5t-17 16.5q-6 15 -8.5 27t-2.5 23q0 15 -14 23.5t-44 10.5q-32 0 -47.5 -21t-15.5 -63q0 -48 27 -93.5t82 -87.5q51 -44 75.5 -91.5t21.5 -98.5q-3 -24 -13 -38t-27 -19q-2 -2 -3.5 -3t-4.5 -1
q-3 -2 -5 -2h-2q-3 -1 -6 -1.5t-5 -1.5t-3.5 -1.5t-2.5 -0.5q-3 -2 -4.5 -2.5l-1.5 -0.5q-2 0 7.5 -18t30.5 -54q8 -15 12.5 -31.5t4.5 -34.5q0 -11 -1.5 -21.5t-3.5 -20.5q-2 -6 -3.5 -11.5t-3.5 -11.5t-3.5 -11.5t-2.5 -10.5q-8 -15 -17 -25.5t-20 -18.5q-12 -8 -26 -11
t-29 -3q-17 0 -31 4t-26 10q-14 6 -26 14t-24 19q-12 18 -14 34t4 30q3 12 12 14.5t24 -3.5h-1q11 -9 15.5 -19.5t3.5 -22.5q-3 -14 -2.5 -22t3.5 -11q6 -6 15.5 -10.5t24.5 -7.5q18 -5 35 2t33 25q6 12 10 26t4 31q0 8 -1.5 18.5t-4.5 24.5t-8 27.5t-14 27.5q-5 6 -10 11.5
t-9 11.5q-5 5 -9 10.5t-8 10.5q-14 12 -27.5 25.5t-25.5 28.5q-14 15 -26.5 29.5t-24.5 29.5q-5 9 -8.5 18.5t-6.5 20.5q-5 9 -6.5 19t-1.5 20q0 11 2 23t7 24q5 18 16.5 28.5t29.5 13.5q6 1 11.5 2.5t11.5 3.5q4 1 6.5 2t3.5 1v0v1q-1 1 -1.5 2.5t-0.5 3.5q-2 1 -3.5 3
t-3.5 4l-4.5 4.5t-4.5 5.5l-2 2t-2 3q-1 1 -2 2.5t-1 3.5q-3 2 -4 4.5t-1 5.5q-18 21 -27 46t-10 55q-3 34 3.5 60t23.5 43q15 16 35.5 25t44.5 11v0zM438 484q-30 6 -45 -3.5t-15 -35.5q0 -27 6 -49.5t19 -39.5q18 -24 34.5 -40.5t33.5 -25.5q15 -10 28 -14.5t23 -2.5
q25 3 35 17t6 38q-4 22 -11.5 39.5t-19.5 31.5h1q-9 16 -20.5 30.5t-24.5 26.5q-15 12 -27.5 18.5t-22.5 9.5v0z" />
    <glyph glyph-name="dieresis" unicode="&#xa8;" horiz-adv-x="950" 
d="M774 709h-123v130h123v-130zM295 709h-123v130h123v-130z" />
    <glyph glyph-name="ordfeminine" unicode="&#xaa;" horiz-adv-x="950" 
d="M615 171q-9 14 -14 32.5t-6 42.5q-12 -17 -32 -31.5t-47 -26.5q-27 -14 -52.5 -22t-49.5 -9q-20 -3 -38 -2.5t-34 3.5q-18 2 -32.5 8t-26.5 15q-15 7 -26.5 17t-18.5 23q-9 12 -14 27.5t-6 35.5q-3 18 -1.5 34t7.5 31q4 14 10.5 27t15.5 25q6 10 15 19.5t23 18.5
q12 7 24.5 13t25.5 12q18 5 35.5 9.5t34.5 7.5q16 2 30.5 4.5t28.5 5.5q7 0 13.5 1t12.5 3h4.5h4.5q3 0 5.5 0.5t5.5 0.5q13 3 27.5 8.5t29.5 14.5q12 7 19 19.5t7 30.5q0 5 -2 12t-5 16q-4 8 -9.5 15.5t-12.5 14.5q-18 14 -44 21.5t-61 7.5q-29 0 -51.5 -7t-40.5 -20
q-19 -15 -28 -34t-9 -43h-92q-2 21 1.5 39.5t12.5 36.5q7 16 18 30.5t26 28.5q37 25 78 38t86 13t85.5 -12t76.5 -34q36 -24 54.5 -54.5t18.5 -68.5v-309q0 -15 1 -28.5t4 -24.5q1 -6 2 -11.5t1 -9.5q1 -5 2 -8t2 -5zM781 -25h-600v77h600v-77zM596 452q-6 -5 -13.5 -9
t-16.5 -7q-5 -3 -9.5 -5t-8.5 -4q-4 -1 -7 -2.5t-6 -2.5q-6 -2 -11 -3t-9 -1q-5 -1 -9 -2t-8 -1q-9 -3 -19 -5t-21 -3q-7 -2 -12.5 -3t-10.5 -2t-9.5 -2t-7.5 -1q-8 -3 -15.5 -5t-14.5 -3q-16 -7 -28 -16.5t-21 -21.5q-10 -14 -13 -28.5t0 -30.5q3 -12 9.5 -20.5t18.5 -14.5
q10 -7 23 -10t30 -3q7 0 17 1t24 4q12 3 26 7.5t29 11.5q15 6 27 14t21 18q22 21 33.5 41t11.5 40v69z" />
    <glyph glyph-name="uni00AD" unicode="&#xad;" horiz-adv-x="950" 
d="M724 315h-507v94h507v-94z" />
    <glyph glyph-name="registered" unicode="&#xae;" horiz-adv-x="1000" 
d="M861 362q0 85 -28.5 157.5t-84.5 132.5q-60 60 -129 90t-148 30q-78 0 -145 -30t-124 -90q-59 -60 -88 -132.5t-29 -157.5q0 -86 29 -158.5t88 -131.5q57 -60 124 -89.5t145 -29.5q79 0 148 29.5t129 89.5q56 59 84.5 131.5t28.5 158.5v0zM913 362q0 -96 -32.5 -177.5
t-96.5 -148.5q-65 -67 -143 -100.5t-170 -33.5q-90 0 -166.5 33.5t-139.5 100.5q-65 67 -96.5 148.5t-31.5 177.5q0 94 31.5 175.5t96.5 150.5q63 67 139.5 101t166.5 34q92 0 170 -34t143 -101q64 -68 96.5 -149.5t32.5 -176.5v0zM612 101l-142 211h-91v-212h-20.5t-18.5 1
h-9.5h-9.5t-10 0.5t-9 0.5v526h204q36 0 66 -11.5t54 -32.5q25 -21 38.5 -49t13.5 -62q0 -27 -8.5 -50.5t-24.5 -43.5q-17 -21 -38 -36t-47 -22q9 -14 18 -27.5t18 -27.5l18 -28t19 -27q18 -29 36.5 -56t38.5 -54h-96zM499 388q17 0 33.5 5t31.5 16t23 27t8 37q0 10 -1.5 19
t-4.5 18q-4 7 -9.5 13t-12.5 12q-6 4 -12.5 8t-13.5 7q-9 2 -18.5 3.5t-18.5 1.5h-125v-167h120z" />
    <glyph glyph-name="degree" unicode="&#xb0;" horiz-adv-x="950" 
d="M129 839q21 0 41 -9t38 -25q18 -17 27 -38t9 -45q0 -25 -9 -46t-27 -37q-18 -18 -38 -26t-41 -8q-23 0 -43 8t-36 26q-15 17 -21.5 38t-6.5 45t6.5 44.5t21.5 38.5q16 16 36 25t43 9v0zM129 802q-17 0 -30.5 -6t-23.5 -17q-12 -12 -17 -26.5t-5 -30.5q0 -18 5 -32t17 -25
q10 -12 23.5 -17.5t30.5 -5.5q18 0 32 5.5t26 17.5q10 11 15.5 25t5.5 32q0 16 -5.5 30.5t-15.5 26.5q-12 11 -26 17t-32 6v0z" />
    <glyph glyph-name="plusminus" unicode="&#xb1;" horiz-adv-x="950" 
d="M792 408h-270v-226h-98v226h-269v87h269v221h98v-221h270v-87zM792 15h-637v85h637v-85z" />
    <glyph glyph-name="uni00B2" unicode="&#xb2;" horiz-adv-x="950" 
d="M328 537h-197q0 13 4.5 27t13.5 29q7 13 19 27.5t29 29.5l47 35q3 3 8 8.5t13 12.5q6 6 10 14t5 17q0 8 -3 15.5t-9 15.5q-8 6 -16 10t-17 4q-14 0 -23.5 -4t-15.5 -10q-7 -8 -10 -17t-3 -19h-47q0 15 6.5 29t21.5 28q13 15 31 23.5t41 8.5q9 0 18 -2t19 -5
q9 -4 15.5 -8.5t11.5 -9.5q7 -6 12.5 -13t8.5 -14q3 -8 4.5 -16t1.5 -15q0 -18 -4.5 -30.5t-12.5 -21.5q-9 -9 -17.5 -17t-15.5 -14l-57 -39q-6 -5 -10 -9.5t-7 -8.5q-2 -3 -3.5 -6t-2.5 -6q-2 -3 -3 -5.5t-1 -4.5h135v-39z" />
    <glyph glyph-name="uni00B3" unicode="&#xb3;" horiz-adv-x="950" 
d="M333 615q0 -18 -7 -33t-20 -26q-14 -12 -31.5 -18t-38.5 -6q-13 0 -23.5 1.5t-19.5 4.5q-10 3 -17 7t-11 10q-8 5 -13.5 11.5t-9.5 15.5q-6 7 -8 15.5t-1 19.5h48q0 -11 3 -18.5t11 -12.5q6 -6 16.5 -9t24.5 -3q9 0 17.5 3t16.5 9q6 6 10 13t5 16q0 6 -2 12.5t-6 12.5
q-6 6 -13 9.5t-14 6.5q-3 0 -6.5 1t-8.5 2h-11h-8v43q12 0 21 0.5t16 2.5q1 2 3 4t5 4l4 4l5 5t5.5 8t3.5 11q0 6 -2.5 12.5t-8.5 13.5q-7 6 -15 9.5t-17 3.5q-14 0 -22.5 -3t-12.5 -8q-6 -6 -8 -13t0 -15h-52q2 16 9.5 30t21.5 26q12 10 28 16t36 6t36.5 -6t29.5 -16
q12 -12 18 -25t6 -28q0 -14 -4 -24t-10 -17q-8 -9 -14 -13.5t-10 -5.5v-6q7 -3 15 -8.5t16 -14.5q6 -9 10 -19.5t4 -20.5v0z" />
    <glyph glyph-name="acute" unicode="&#xb4;" horiz-adv-x="950" 
d="M366 587l-5 3l1 0.5t3 2.5l3 3q-2 -3 -2 -5.5v-3.5v0zM470 732q-15 -24 -29 -44.5t-29 -38.5q-16 -18 -27 -31.5t-17 -21.5q3 11 8 28t13 41q3 11 7 22.5t8 23.5q3 12 7 24.5t9 26.5q3 8 8 16.5t11 17.5q4 8 9 15.5t10 13.5q6 13 16.5 16t25.5 -3q11 -7 12.5 -18
t-6.5 -26q-6 -17 -15 -32t-21 -30v0z" />
    <glyph glyph-name="paragraph" unicode="&#xb6;" horiz-adv-x="950" 
d="M605 809v-896h-32v862h-114v-862h-32v512q-48 0 -83.5 13.5t-59.5 41.5q-26 27 -38.5 61.5t-12.5 76.5q0 39 13 72.5t40 62.5q25 27 57.5 41.5t71.5 14.5h190z" />
    <glyph glyph-name="periodcentered" unicode="&#xb7;" horiz-adv-x="630" 
d="M375 297h-124v130h124v-130z" />
    <glyph glyph-name="cedilla" unicode="&#xb8;" horiz-adv-x="950" 
d="M428 -35l94 97q-12 10 -23 22t-22 25q-6 6 -12.5 11.5t-12.5 11.5t-12 11.5t-12 11.5v37l130 -130q-15 -18 -30.5 -35t-32.5 -33q-18 -16 -35 -32.5t-32 -34.5v38z" />
    <glyph glyph-name="uni00B9" unicode="&#xb9;" horiz-adv-x="950" 
d="M285 545h-51v187h-65v38q15 0 27 3t21 11q3 1 6.5 4.5t8.5 9.5q3 4 5.5 9.5t3.5 11.5h44v-274z" />
    <glyph glyph-name="ordmasculine" unicode="&#xba;" horiz-adv-x="950" 
d="M721 447q0 -60 -16 -111.5t-47 -93.5q-36 -42 -82.5 -63t-104.5 -21q-57 0 -101.5 21t-77.5 63q-35 42 -52 93t-17 112q0 60 17 111.5t52 93.5q34 42 79 64t101 22q57 0 104 -22t83 -64q30 -42 46 -93.5t16 -111.5v0zM779 -25h-600v77h600v-77zM625 447q0 42 -10.5 78.5
t-31.5 67.5q-21 30 -49 45.5t-63 15.5q-34 0 -61 -15.5t-46 -45.5q-21 -30 -31 -66.5t-10 -79.5q0 -42 10 -78t31 -65q21 -30 47.5 -45t59.5 -15q35 0 63 15t49 45q21 29 31.5 65t10.5 78v0z" />
    <glyph glyph-name="onequarter" unicode="&#xbc;" horiz-adv-x="950" 
d="M529 425h-72v286h-93v58q7 0 16 1.5t20 4.5q9 2 19 5t19 8q5 4 9.5 10t9.5 14q3 6 5 14t3 17h64v-418zM814 340h-682v44h682v-44zM617 -59h-59v-59h-67v59h-199v74q12 17 24 34.5t24 34.5q13 18 25.5 36t25.5 37q12 18 24.5 35.5t24.5 35.5t24.5 35.5t24.5 35.5h69v-296
h59v-62zM491 3v183l-126 -183h126z" />
    <glyph glyph-name="onehalf" unicode="&#xbd;" horiz-adv-x="950" 
d="M521 425h-72v286h-93v58q9 0 19 1.5t21 4.5q9 2 16.5 5t13.5 8q8 4 14 10t11 14q3 6 5 14t2 17h63v-418zM814 340h-682v44h682v-44zM620 -127h-294q0 21 4.5 42.5t14.5 44.5q9 23 27 45t45 45q10 6 19.5 13t18.5 14q8 6 18 12.5t22 14.5l-1 -1l1.5 1t4.5 4q6 6 13 13.5
t15 16.5q6 7 10 17.5t5 24.5q0 12 -3.5 24t-11.5 24q-9 11 -22.5 17t-30.5 6t-29.5 -6t-21.5 -17q-10 -12 -14.5 -26.5t-4.5 -29.5h-72q0 25 9 48.5t28 44.5q18 21 44.5 32.5t60.5 11.5q33 0 60 -10t48 -29q18 -20 27 -42.5t9 -46.5t-7.5 -43t-22.5 -32q-5 -8 -11 -14
t-13 -11q-8 -6 -14 -12t-10 -11l-84 -62q-9 -6 -16.5 -13t-13.5 -16t-10.5 -17t-7.5 -17h211v-60z" />
    <glyph glyph-name="threequarters" unicode="&#xbe;" horiz-adv-x="950" 
d="M625 543q0 -27 -10.5 -50t-31.5 -41q-22 -20 -50 -29.5t-62 -9.5q-15 0 -29 2.5t-28 8.5q-15 5 -27.5 12t-21.5 16q-12 9 -20.5 19.5t-12.5 23.5q-5 12 -7 24.5t-2 27.5h68q-2 -17 4 -29t19 -21q12 -10 25.5 -14.5t30.5 -4.5q18 0 32 4.5t25 14.5q10 9 15.5 20t7.5 26
q0 10 -2 20t-8 19q-7 8 -17 14t-23 10q-5 2 -11 3.5t-13 1.5h-14.5h-8.5h-6v63q6 0 14 0.5t18 2.5q9 0 15 2t10 5q8 3 14.5 8.5t11.5 12.5q4 6 7 14t5 17q0 4 -1 9.5t-2 11.5q-2 4 -5 9l-6 10l-12 8t-11 7q-6 3 -15 4.5t-20 1.5q-16 0 -28 -5t-19 -14q-9 -10 -13.5 -21.5
t-4.5 -23.5h-72q0 25 9.5 46t30.5 39q19 18 43.5 27t53.5 9q32 0 57.5 -9t45.5 -26q19 -17 29 -37t10 -43q0 -11 -2.5 -19.5t-5.5 -15.5q-5 -9 -9.5 -15.5t-8.5 -12.5q-3 -7 -8 -12t-11 -8q-8 -5 -14 -8t-10 -4q18 -6 32.5 -16t26.5 -23q11 -15 17 -30.5t6 -31.5v0zM814 340
h-682v44h682v-44zM617 -59h-59v-59h-67v59h-199v74q12 17 24 34.5t24 34.5q13 18 25.5 36t25.5 37q12 18 24.5 35.5t24.5 35.5t24.5 35.5t24.5 35.5h69v-296h59v-62zM491 3v183l-126 -183h126z" />
    <glyph glyph-name="questiondown" unicode="&#xbf;" horiz-adv-x="950" 
d="M696 163q2 -47 -10.5 -88.5t-39.5 -78.5q-14 -18 -31.5 -32t-39.5 -24q-24 -10 -51.5 -15t-58.5 -5q-52 0 -95 19t-76 57q-23 27 -33.5 57t-10.5 63q0 13 1 27t4 28q9 27 20 49.5t26 42.5q13 18 30 32.5t38 24.5q39 18 59 50.5t20 80.5v134h52v-131q0 -60 -23.5 -102
t-68.5 -66q-45 -23 -71 -59t-35 -85q-2 -11 -2.5 -18.5t-0.5 -12.5q0 -17 3.5 -31t11.5 -26q6 -13 13.5 -23.5t16.5 -18.5q15 -10 31 -17.5t33 -13.5q16 -6 31.5 -9t30.5 -3q48 0 82 14.5t55 43.5q21 28 29 62.5t5 73.5h55zM512 719h-82v86h82v-86z" />
    <glyph glyph-name="AE" unicode="&#xc6;" horiz-adv-x="950" 
d="M886 -25h-301l-60 187h-320q-5 -12 -9 -24l-8 -24t-8 -23.5t-7 -22.5q-9 -24 -18.5 -47.5t-18.5 -45.5h-105q32 97 65.5 194t68.5 193q33 96 66.5 192t66.5 193h579v-100h-418l81 -221h323v-104h-286l84 -245h225v-102zM489 265l-125 356l-124 -356h249z" />
    <glyph glyph-name="Eth" unicode="&#xd0;" horiz-adv-x="950" 
d="M842 362q0 -81 -22.5 -149.5t-65.5 -125.5q-44 -57 -104.5 -84.5t-138.5 -27.5h-266v280h-161v74h161v418h266q78 0 138.5 -28t104.5 -82q43 -57 65.5 -125.5t22.5 -149.5v0zM725 362q0 60 -15 110.5t-43 91.5q-27 41 -70 62t-101 21h-148v-318h228v-74h-228v-178h148
q58 0 101 20.5t70 62.5q28 41 43 91.5t15 110.5v0z" />
    <glyph glyph-name="multiply" unicode="&#xd7;" horiz-adv-x="950" 
d="M788 101q-5 -6 -8.5 -10.5t-7.5 -9.5q-4 -4 -7 -8.5t-6 -7.5q-8 -8 -16.5 -16t-17.5 -16l-255 265l-58 -64t-59 -63q-16 -17 -31 -33l-30 -32t-29.5 -32t-28.5 -31q-11 8 -20 16t-16 16q-9 6 -16.5 14t-14.5 17l249 254q-15 15 -30 30.5t-30 31.5t-30 31.5t-29 31.5
q-30 30 -61.5 61t-62.5 63q10 8 18.5 16t15.5 17q6 7 14.5 15.5t19.5 17.5l229 -250q31 30 61.5 60.5t60.5 62.5q28 30 57 60.5t59 61.5l57 -60l-229 -248z" />
    <glyph glyph-name="Oslash" unicode="&#xd8;" horiz-adv-x="950" 
d="M817 806l-1 -2q-5 -3 -9 -8.5t-7 -12.5q-5 -8 -11.5 -18.5t-14.5 -22.5q-12 -16 -22 -29.5t-17 -25.5q-8 -12 -14.5 -21.5t-10.5 -15.5q21 -27 38 -59t29 -68q11 -37 17 -77.5t6 -83.5q0 -87 -22.5 -159t-66.5 -127q-44 -56 -104 -83t-136 -27q-51 0 -95.5 13.5
t-83.5 40.5q-11 -18 -23 -36.5t-25 -36.5q-15 -18 -27 -37.5t-21 -38.5q-11 6 -18.5 12t-11.5 11q-6 6 -14 10.5t-17 8.5l107 155q-24 26 -41 58t-29 71q-13 37 -19 78.5t-6 86.5q0 42 6 81.5t18 76.5q11 36 27 68t37 60q22 27 48.5 47.5t56.5 35.5q30 13 62.5 20.5
t68.5 7.5q28 0 54.5 -4t50.5 -11q22 -8 43.5 -19t41.5 -25q10 18 22 36.5t26 37.5q12 18 24 36.5t23 37.5zM599 612q-12 11 -26 20t-30 16q-18 6 -36 9t-36 3q-48 0 -87 -21t-68 -63q-32 -42 -47.5 -95.5t-15.5 -118.5q0 -29 3.5 -56t11.5 -51q7 -26 15.5 -49t18.5 -43z
M693 362q0 25 -3.5 50t-9.5 51q-7 24 -15 46.5t-17 43.5l-300 -445q13 -11 28 -19t32 -13q15 -6 31 -9t32 -3q51 0 90.5 21t68.5 63q31 41 47 94.5t16 119.5v0z" />
    <glyph glyph-name="Thorn" unicode="&#xde;" horiz-adv-x="950" 
d="M739 327q0 -67 -18 -121.5t-53 -96.5q-32 -42 -75 -63t-98 -21q-24 0 -46 4.5t-42 14.5q-21 9 -39 22.5t-33 32.5v-123h-104v770h104v-190q15 15 32.5 28.5t38.5 24.5q20 9 42.5 14.5t46.5 5.5q54 0 97.5 -21.5t75.5 -63.5q35 -43 53 -97t18 -120v0zM625 327
q0 21 -2.5 41.5t-5.5 38.5q-5 18 -13 33t-19 29q-8 12 -19 22.5t-25 18.5q-15 6 -30 10t-30 4q-18 0 -33.5 -4t-29.5 -10q-15 -8 -26 -18.5t-17 -22.5q-10 -14 -17.5 -29t-12.5 -33q-6 -18 -9 -38.5t-3 -41.5q0 -43 10.5 -78.5t31.5 -63.5q18 -29 44.5 -42.5t61.5 -13.5
q32 0 57.5 13.5t45.5 42.5q20 28 30.5 63.5t10.5 78.5v0z" />
    <glyph glyph-name="germandbls" unicode="&#xdf;" horiz-adv-x="950" 
d="M714 173q0 -23 -3.5 -43t-9.5 -38q-7 -20 -17.5 -36t-24.5 -29q-17 -15 -35.5 -26t-39.5 -18q-21 -6 -46.5 -9.5t-55.5 -3.5h-51v81h27q31 0 58 7t50 19q24 13 36 40.5t12 69.5q0 41 -12.5 68.5t-36.5 42.5q-12 6 -25 11.5t-26 9.5q-15 3 -29 3.5t-27 0.5h-27v85h21
q31 -1 56 6.5t44 24.5q18 15 27 40t9 58q0 32 -8.5 55t-23.5 38q-17 13 -39.5 20.5t-50.5 7.5q-27 0 -47.5 -10t-35.5 -28q-12 -21 -17.5 -41.5t-5.5 -41.5v-583h-99v574q0 28 4 52.5t13 44.5q7 19 20 35t31 30q15 10 31.5 18.5t34.5 15.5q16 6 34 9t37 3h18q46 0 82 -13.5
t63 -40.5q30 -28 45.5 -59.5t17.5 -67.5q0 -45 -9 -76t-27 -47q-11 -9 -21.5 -16.5t-19.5 -13.5q-6 -4 -11 -7.5t-9 -6.5q-5 -3 -9 -6l-8 -6q18 -5 40 -18.5t48 -35.5q24 -24 36 -61t12 -88v0z" />
    <glyph glyph-name="ae" unicode="&#xe6;" horiz-adv-x="950" 
d="M501 204q0 -30 7.5 -57.5t24.5 -51.5q15 -27 33.5 -39.5t40.5 -12.5q9 0 17 1.5t16 5.5q7 3 13 7.5t12 10.5q8 12 14 23.5t11 20.5h101q-4 -14 -10 -27t-13 -26q-5 -7 -9 -14t-7 -13q-4 -7 -8 -13t-7 -12q-21 -27 -53.5 -40t-74.5 -13q-15 0 -29.5 3.5t-28.5 9.5
q-15 6 -29 13.5t-27 16.5q0 -1 0.5 -2t0.5 -2q1 -2 1.5 -3.5t1.5 -3.5v-4.5v-3.5q0 -1 0.5 -2.5l0.5 -1.5v-4v-1h-85q-2 3 -3 6.5t-2 6.5t-2 6.5t-1 6.5q-2 6 -3 14.5t-1 19.5l-6 1q-6 -8 -11 -15t-9 -13q-6 -6 -13.5 -12t-17.5 -12q-7 -5 -15.5 -9.5t-17.5 -7.5
q-11 -3 -23 -5.5t-24 -2.5q-28 0 -52 7t-45 22t-33.5 39t-15.5 57q-2 7 -2.5 15.5t-0.5 17.5q0 25 6 47.5t20 42.5q12 18 29 32.5t38 24.5q13 5 26.5 9t26.5 7q12 2 23 4.5t21 5.5q7 0 12.5 1t10.5 2h2.5h3.5t4 0.5t5 1.5q12 3 21.5 8.5t18.5 13.5q7 6 11.5 17t4.5 28
q0 15 -6 29t-17 28q-8 14 -23.5 21.5t-38.5 7.5q-26 0 -43.5 -7.5t-27.5 -20.5q-11 -15 -14.5 -32t-0.5 -37h-92q-2 42 11 75t41 57q26 24 57.5 37t69.5 13q23 0 44.5 -5.5t41.5 -14.5q18 -11 33 -25.5t26 -32.5q15 18 31.5 32t35.5 25q18 9 37.5 14.5t40.5 5.5
q40 0 75.5 -20.5t67.5 -60.5q31 -40 44.5 -100t9.5 -141h-303zM705 289q-1 15 -3 29.5t-5 27.5q-5 12 -11 23.5t-13 22.5q-12 22 -28.5 33.5t-38.5 11.5q-12 0 -22 -3t-19 -9q-10 -6 -17 -14t-11 -17q-7 -12 -13 -23.5t-10 -23.5q-6 -13 -8.5 -27.5t-2.5 -30.5h202zM399 232
q-11 -6 -20 -10t-16 -6q-9 -3 -16 -6t-13 -6h-2h-1q-1 -1 -2 -1.5t-2 -0.5t-2 -0.5l-1 -0.5q-3 -2 -5 -2.5t-4 -0.5q-3 -1 -5.5 -1.5t-4.5 -1.5q-2 0 -3.5 -0.5t-2.5 -0.5q-2 -1 -3.5 -1.5t-2.5 -1.5q-1 0 -2 -0.5l-1 -0.5q-6 -3 -12.5 -5t-12.5 -3q-8 -3 -12.5 -5.5
t-5.5 -5.5v1q-20 -12 -29.5 -31.5t-7.5 -46.5q3 -18 10.5 -29t20.5 -16q12 -6 25 -7.5t28 3.5q10 2 19.5 6.5t18.5 10.5q3 2 7 5l8 6q5 4 9.5 7.5t9.5 7.5q4 7 9.5 15.5t11.5 17.5q5 9 8 18t5 20q0 3 0.5 6t0.5 6q1 4 1.5 7.5t1.5 7.5v17.5v25.5z" />
    <glyph glyph-name="eth" unicode="&#xf0;" horiz-adv-x="950" 
d="M737 257q0 -63 -18 -116.5t-53 -96.5q-39 -45 -87.5 -67.5t-105.5 -22.5q-51 0 -97 21t-86 63q-39 39 -58.5 97t-19.5 134v6.5t1 6.5v5v8h410q-1 15 -5 30.5t-10 32.5q-8 15 -15.5 28.5t-16.5 25.5q-17 -12 -32 -24.5t-27 -24.5q-14 -14 -28.5 -26.5t-30.5 -24.5
q-5 6 -10 13.5t-11 15.5q-8 7 -13.5 14t-8.5 15l92 84q-4 0 -8 0.5t-8 2.5l-10 2t-10 1q-27 0 -47.5 -7t-35.5 -19q-7 -6 -12 -11.5t-8 -10.5q-5 -6 -8 -11.5t-5 -9.5h-118q6 28 23 56t44 56q30 27 71.5 41.5t95.5 14.5q15 0 31 -3t33 -7q15 -6 29 -11t26 -11q13 9 26 19.5
t26 22.5q6 5 11.5 10t11.5 10l12 10t12 11q2 -4 4.5 -7.5t5.5 -7.5q2 -4 4.5 -7.5t5.5 -6.5q4 -8 10 -15.5t14 -13.5l-81 -71q19 -21 35 -46.5t28 -53.5q10 -30 16 -60.5t6 -63.5v0zM332 203q1 -30 11.5 -56.5t31.5 -47.5q19 -23 43 -33.5t54 -10.5q15 0 28.5 3t26.5 9
q12 5 23.5 12.5t23.5 18.5q6 9 13 20.5t15 25.5q6 13 10.5 27.5t7.5 31.5h-288z" />
    <glyph glyph-name="divide" unicode="&#xf7;" horiz-adv-x="950" 
d="M546 636q0 -17 -5.5 -30.5t-15.5 -23.5q-12 -12 -25 -17.5t-28 -4.5q-14 0 -26.5 5t-23.5 16q-12 10 -17.5 23.5t-5.5 31.5q0 16 5 30.5t17 26.5q10 11 22 17t27 6q18 0 32.5 -6t24.5 -18q9 -12 14 -26.5t5 -29.5v0zM800 313h-659v94h659v-94zM548 86q0 -17 -6 -30.5
t-16 -24.5q-12 -12 -25.5 -18t-28.5 -6t-27.5 5.5t-23.5 17.5q-12 10 -18 24t-6 32q0 15 5.5 28.5t17.5 25.5q10 11 22.5 17t26.5 6q18 0 33 -6t26 -16q9 -12 14.5 -26t5.5 -29v0z" />
    <glyph glyph-name="oslash" unicode="&#xf8;" horiz-adv-x="950" 
d="M734 257q0 -63 -18 -116.5t-52 -96.5q-38 -45 -86.5 -67.5t-107.5 -22.5q-20 0 -37 2.5t-32 8.5q-17 6 -33.5 14t-33.5 17q-5 -9 -11 -19t-13 -21q-9 -11 -15.5 -21.5t-9.5 -21.5q-8 7 -14.5 13t-12.5 11q-8 6 -15 10.5t-13 8.5l56 82q-18 22 -32.5 47.5t-23.5 53.5
q-11 27 -15.5 56.5t-4.5 61.5q0 63 18 116t55 97q33 44 80 66.5t107 22.5q36 0 69.5 -9.5t65.5 -27.5q3 5 6.5 10t7.5 11q3 5 7 10.5t8 11.5q3 5 6.5 10.5t7.5 10.5t7.5 10.5t7.5 11.5q4 -6 10.5 -11.5t15.5 -9.5q3 -3 6.5 -6t7.5 -6q3 -3 6 -5.5t6 -4.5q-1 -2 -2 -3l-1 -1
q-2 -3 -3.5 -6.5t-2.5 -7.5q-2 -5 -5 -9.5t-6 -7.5q-8 -8 -13 -14t-8 -11q-4 -6 -6.5 -11.5t-3.5 -8.5h1q-3 -3 -4 -4.5l-1 -1.5q0 -1 -0.5 -1.5l-0.5 -0.5v-0.5v-0.5q18 -21 32 -46t24 -52q9 -29 14 -59t5 -62v0zM544 436q-17 12 -35.5 18.5t-38.5 6.5q-32 0 -58 -15
t-47 -45t-31 -66t-10 -78q0 -33 5 -63t17 -57zM624 257q0 33 -8.5 64t-23.5 61l-196 -303q16 -14 34.5 -20t39.5 -6q35 0 63.5 15t49.5 45q20 30 30.5 66t10.5 78v0z" />
    <glyph glyph-name="thorn" unicode="&#xfe;" horiz-adv-x="950" 
d="M708 -25h-112v335q0 35 -7 61t-20 44q-14 16 -34 24.5t-45 8.5q-17 0 -30.5 -3t-25.5 -8q-12 -6 -24 -14t-22 -17q-8 -11 -14 -23t-12 -25q-6 -15 -9 -30.5t-3 -30.5v-322h-103v772h103v-271q16 17 36.5 32t44.5 29q18 9 39.5 14.5t45.5 5.5h10.5h8.5q3 -1 5.5 -1.5
t5.5 -0.5q39 -5 69.5 -22.5t51.5 -47.5q20 -32 30.5 -62t10.5 -58v-390z" />
    <glyph glyph-name="dcroat" unicode="&#x111;" horiz-adv-x="950" 
d="M840 535h-132v-560h-100v44q-15 -15 -31.5 -26.5t-35.5 -20.5q-21 -9 -41.5 -13.5t-41.5 -4.5q-25 0 -47.5 5t-43.5 14q-22 10 -41 23t-35 31q-18 18 -30.5 39t-20.5 45q-9 23 -13 49t-4 55q0 27 4 53.5t13 50.5q8 23 20.5 44t30.5 39q16 17 35 30.5t41 23.5
q21 9 43.5 14t47.5 5q22 0 43.5 -4.5t42.5 -12.5q19 -9 35.5 -21t30.5 -25v123h-284v74h284v137h98v-137h132v-74zM612 214q0 36 -9 67t-27 55q-18 23 -45 35t-62 12q-31 0 -55.5 -12t-42.5 -35q-20 -24 -29 -55t-9 -67q0 -19 2 -36t7 -32q3 -16 10.5 -29.5t19.5 -23.5
q6 -12 16.5 -20.5t25.5 -14.5q13 -7 26.5 -10t28.5 -3q16 0 30.5 3t28.5 10q12 6 24 14.5t24 20.5q6 10 12.5 23.5t12.5 29.5q5 15 8 32t3 36v0z" />
    <glyph glyph-name="Hbar" unicode="&#x126;" horiz-adv-x="950" 
d="M861 555h-123v-580h-111v354h-308v-354h-111v580h-124v74h124v118h111v-118h308v118h111v-118h123v-74zM627 433v122h-308v-122h308z" />
    <glyph glyph-name="hbar" unicode="&#x127;" horiz-adv-x="950" 
d="M694 -23h-107v269q0 35 -6 60.5t-18 42.5q-13 15 -31.5 23t-42.5 8q-30 0 -52.5 -11.5t-37.5 -33.5q-17 -24 -25 -50.5t-8 -55.5v-252h-107v558h-134v74h134v137h107v-137h273v-74h-273v-129q4 7 11.5 15t18.5 16q9 7 20 13t23 12q9 4 20.5 8t25.5 7q12 1 26.5 1.5
t30.5 -0.5q40 -5 69 -22t47 -47q18 -32 27 -60t9 -53v-319z" />
    <glyph glyph-name="dotlessi" unicode="&#x131;" horiz-adv-x="950" 
d="M528 638h-111v113h111v-113zM528 -24h-111v561h111v-561z" />
    <glyph glyph-name="IJ" unicode="&#x132;" horiz-adv-x="950" 
d="M281 -34h-111v773h111v-773zM776 163q0 -50 -17 -88t-50 -65q-30 -28 -65.5 -42t-76.5 -14q-42 0 -79.5 13.5t-70.5 40.5q-30 26 -44 64t-14 88v70h103v-49q0 -18 2.5 -32t8.5 -25q4 -12 10 -22t14 -16q4 -8 11.5 -13t16.5 -8q9 -4 19.5 -5.5t22.5 -1.5q7 0 16.5 1.5
t20.5 5.5q9 3 16.5 8t13.5 13q9 6 15 16t11 22q3 11 5 25t2 32v558h109v-576z" />
    <glyph glyph-name="ij" unicode="&#x133;" horiz-adv-x="950" 
d="M677 638h-103v113h103v-113zM375 638h-109v113h109v-113zM375 -24h-109v561h109v-561zM677 -63q0 -38 -6 -64.5t-18 -42.5q-11 -6 -22 -13l-22 -14q-12 -6 -25.5 -9t-28.5 -3h-56v93h1h6h6q4 0 7.5 0.5t7.5 0.5q7 1 13 4t11 8q9 6 14 12t7 12q0 6 1 14.5t1 18.5v582h103
v-599z" />
    <glyph glyph-name="kgreenlandic" unicode="&#x138;" horiz-adv-x="950" 
d="M708 -46h-125l-179 250q-9 -6 -15.5 -12t-10.5 -11q-6 -6 -10.5 -11t-8.5 -9l-10 -6v-201h-99v565h99v-231q12 10 24 23t25 28q12 14 27 30t33 34q15 17 28.5 33t25.5 31q11 14 20 27t15 25h126q-6 -12 -14.5 -24.5t-18.5 -24.5q-12 -14 -25.5 -29.5t-29.5 -31.5
q-15 -19 -29.5 -36t-27.5 -32q-15 -17 -29.5 -32t-29.5 -29z" />
    <glyph glyph-name="Ldot" unicode="&#x13f;" horiz-adv-x="950" 
d="M715 -24h-485v770h103v-669h382v-101zM723 298q0 -15 -5.5 -27t-14.5 -21q-11 -11 -21.5 -15.5t-20.5 -4.5q-15 0 -27.5 4.5t-21.5 15.5q-11 9 -15.5 21t-4.5 27q0 13 4.5 25.5t15.5 23.5q9 9 21.5 14.5t27.5 5.5q10 0 20.5 -5.5t21.5 -14.5q9 -11 14.5 -23.5t5.5 -25.5
v0z" />
    <glyph glyph-name="ldot" unicode="&#x140;" horiz-adv-x="950" 
d="M709 444q0 -8 -1.5 -15t-2.5 -13q-3 -7 -6 -13t-7 -10q-8 -6 -14 -10t-11 -7q-6 -3 -13 -4.5t-16 -1.5q-7 0 -13.5 1.5t-12.5 4.5q-7 3 -13 7t-10 10q-3 4 -6 10t-5 13q-3 6 -4.5 13t-1.5 15q0 15 5 28t16 25q10 10 21.5 16t23.5 6q14 0 26.5 -6t23.5 -16
q10 -12 15.5 -25t5.5 -28v0zM491 -29h-112v775h112v-775z" />
    <glyph glyph-name="Lslash" unicode="&#x141;" horiz-adv-x="950" 
d="M715 -24h-485v342q-11 -9 -21.5 -17.5t-20.5 -17.5l-11 -11t-10 -9q-5 -5 -10 -9t-9 -8q-7 5 -13.5 11.5t-12.5 15.5q-4 3 -7.5 6.5t-6.5 7.5q-3 3 -6 6.5t-6 7.5l134 112v333h103v-236q7 6 15.5 13t17.5 16q4 3 8 6.5t9 7.5q4 4 9 7.5t10 7.5q5 -8 11 -15t13 -13
q3 -4 5.5 -7.5t5.5 -7.5q3 -3 6 -6.5t6 -6.5l-116 -100v-335h382v-101z" />
    <glyph glyph-name="lslash" unicode="&#x142;" horiz-adv-x="950" 
d="M705 523l-176 -155v-397h-112v301q-8 -7 -15.5 -13.5t-14.5 -13.5q-8 -6 -15 -12.5t-14 -12.5q-8 -7 -15.5 -14t-15.5 -14q-7 -7 -15 -14l-16 -14q-4 9 -9 17t-11 16q-7 7 -13 14.5t-11 15.5l165 144v375h112v-280q13 13 28.5 28t33.5 30q16 14 34 27.5t36 27.5z" />
    <glyph glyph-name="napostrophe" unicode="&#x149;" horiz-adv-x="950" 
d="M699 -24h-107v352q0 18 -1.5 33.5t-4.5 27.5t-8.5 22.5t-11.5 19.5q-10 7 -20 12.5t-19 9.5q-11 3 -21.5 4.5t-20.5 1.5q-32 0 -57 -10.5t-43 -30.5q-19 -21 -28 -48t-9 -60v-334h-99v562h99v-57q16 19 35 33.5t41 23.5q16 10 37 15.5t46 5.5h8h11q2 -1 4.5 -1.5
t4.5 -0.5h3.5h3.5q20 -3 37.5 -9t32.5 -14q14 -9 26.5 -21.5t23.5 -27.5q18 -32 27.5 -62t9.5 -58v-389z" />
    <glyph glyph-name="Eng" unicode="&#x14a;" horiz-adv-x="950" 
d="M730 257q0 -69 -17.5 -123.5t-51.5 -94.5q-37 -39 -83.5 -60t-103.5 -25v27v25q-1 12 -1 24v26q34 3 60.5 17.5t46.5 40.5q18 24 28 58.5t10 79.5q0 21 -3 41.5t-9 39.5q-6 18 -13 33t-13 29q-12 12 -24.5 22.5t-25.5 18.5q-15 6 -30.5 10t-32.5 4q-18 0 -33 -4t-27 -10
q-14 -8 -24.5 -18.5t-16.5 -22.5q-12 -14 -20 -29t-11 -33q-5 -19 -6.5 -39.5t-1.5 -41.5v-207h-109v701h109v-260q14 18 32 31.5t40 23.5q21 9 42.5 13.5t44.5 4.5q52 0 96.5 -21.5t80.5 -63.5q33 -43 50 -97t17 -120v0z" />
    <glyph glyph-name="eng" unicode="&#x14b;" horiz-adv-x="950" 
d="M689 -57q0 -41 -7 -69t-19 -44q-6 -6 -16.5 -13t-23.5 -15q-15 -6 -30 -10t-30 -4h-57v92h2q8 0 15.5 0.5t15.5 1.5q6 1 13.5 4t15.5 9q6 6 10 12.5t5 13.5v15.5v17.5v374q0 36 -7 62t-19 41q-14 13 -31 20.5t-38 7.5q-30 0 -53.5 -10.5t-39.5 -30.5q-17 -21 -25 -48
t-8 -60v-334h-108v562h108v-66q10 19 26 35.5t38 30.5q9 4 19.5 8.5t21.5 7.5q10 2 20 3.5t20 1.5h8h11q4 -1 8.5 -1.5t7.5 -0.5q38 -6 65.5 -23.5t45.5 -47.5t27 -59.5t9 -56.5v-427z" />
    <glyph glyph-name="OE" unicode="&#x152;" horiz-adv-x="950" 
d="M886 -35l-541 1q-69 0 -122.5 27t-92.5 83q-41 55 -60.5 127t-19.5 159q0 106 24 181.5t73 120.5q46 47 90.5 71t86.5 24h552v-103h-323q17 -23 31 -49t26 -56q10 -31 17 -64t10 -68h224v-105h-223q-3 -37 -10 -71t-17 -64q-12 -32 -26.5 -59.5t-31.5 -51.5h333v-103z
M540 362q0 65 -13 118.5t-38 95.5q-29 42 -65 63t-79 21q-45 0 -79 -21t-58 -63q-26 -42 -38 -95.5t-12 -118.5q0 -66 12 -120t38 -94q24 -42 58 -63t79 -21q43 0 79 21t65 63q25 42 38 95t13 119v0z" />
    <glyph glyph-name="oe" unicode="&#x153;" horiz-adv-x="950" 
d="M537 204q0 -30 7 -57.5t21 -51.5q13 -27 30.5 -39.5t40.5 -12.5q11 0 20.5 1.5t17.5 5.5q6 3 12 7.5t12 10.5q7 12 12.5 22.5t9.5 21.5h104q-9 -27 -23.5 -53t-35.5 -52q-21 -27 -53 -40t-74 -13q-26 0 -49 7.5t-43 22.5q-21 15 -37.5 35t-28.5 46q-14 -26 -30.5 -46
t-35.5 -35q-21 -15 -44.5 -22.5t-49.5 -7.5q-45 0 -82 20.5t-66 62.5q-26 42 -38 92.5t-12 110.5q0 57 12 107.5t38 94.5q29 42 66 63.5t82 21.5q26 0 49 -7.5t44 -21.5q19 -15 34.5 -36t27.5 -48q13 26 30.5 47t38.5 36q20 14 43 21.5t49 7.5q40 0 77 -20.5t71 -60.5
q25 -38 38.5 -90t13.5 -119v-9v-7t-0.5 -5t-0.5 -4v-4v-3h-298zM739 289q-1 15 -3.5 29.5t-6.5 27.5q-5 12 -10 23t-11 23q-14 22 -32 33.5t-40 11.5q-9 0 -17.5 -3t-17.5 -9t-16.5 -14t-13.5 -17q-9 -12 -15 -23.5t-9 -23.5q-3 -13 -5 -27.5t-2 -30.5h199zM420 240
q0 40 -6 75t-18 65q-15 30 -34 45t-42 15q-24 0 -43 -15t-34 -45q-17 -29 -24.5 -64t-7.5 -76q0 -42 7.5 -77t24.5 -63q15 -32 34 -47t43 -15q23 0 42 15t34 47q12 29 18 64t6 76v0z" />
    <glyph glyph-name="Tbar" unicode="&#x166;" horiz-adv-x="950" 
d="M762 360h-233v-383h-112v383h-238v74h238v212h-238v100h583v-100h-233v-212h233v-74z" />
    <glyph glyph-name="tbar" unicode="&#x167;" horiz-adv-x="950" 
d="M639 295h-140v-155v-20.5t1 -14.5q0 -6 3.5 -13t10.5 -13q7 -5 14 -7.5t13 -2.5q5 -2 13 -2h19h2v-93h-68q-13 0 -25 2.5t-24 8.5q-13 6 -23 13t-17 16q-7 8 -12.5 18.5t-8.5 22.5q-5 12 -7 28t-2 37v175h-133v76h133v77h-84v89h84v173h111v-173h91v-89h-91v-77h140v-76z
" />
    <glyph glyph-name="caron" unicode="&#x2c7;" horiz-adv-x="950" 
d="M471 719q-24 13 -47.5 26.5t-45.5 28.5q-12 6 -23.5 13t-22.5 14q-11 6 -22.5 13t-22.5 15q2 3 4 7t4 9q1 3 2.5 7t4.5 7l169 -98l42 24t43 25q10 6 20.5 12t21.5 12q10 6 20.5 12.5t21.5 12.5q4 -5 7.5 -8t6.5 -6q1 -4 3.5 -8t5.5 -8z" />
    <glyph glyph-name="uni02D0" unicode="&#x2d0;" horiz-adv-x="950" 
d="M224 475l-68 130h139zM224 246l71 -127h-139z" />
    <glyph glyph-name="breve" unicode="&#x2d8;" horiz-adv-x="950" 
d="M300 856q15 -21 34 -37.5t42 -28.5q22 -14 45.5 -20t49.5 -6q27 0 52.5 6t49.5 20q22 12 40.5 28.5t33.5 37.5q4 -4 8 -7t7 -5q2 -3 5.5 -7t8.5 -8q-18 -24 -39.5 -42.5t-46.5 -32.5q-27 -15 -56.5 -22t-62.5 -7q-30 0 -58.5 7t-55.5 22q-29 14 -51.5 32.5t-39.5 42.5z
" />
    <glyph glyph-name="dotaccent" unicode="&#x2d9;" horiz-adv-x="950" 
d="M470 635q-41 0 -61 21t-20 63t20 63.5t61 21.5q40 0 60.5 -21.5t20.5 -63.5t-20.5 -63t-60.5 -21v0z" />
    <glyph glyph-name="ring" unicode="&#x2da;" horiz-adv-x="950" 
d="M471 804q-15 0 -27 -5.5t-21 -15.5q-11 -11 -16 -25t-5 -31q0 -18 5 -32t16 -24q9 -11 21 -16t27 -5t28.5 5t24.5 16q9 10 14.5 24t5.5 32q0 17 -5.5 31t-14.5 25q-11 10 -24.5 15.5t-28.5 5.5v0zM471 839q22 0 41 -8.5t34 -24.5q17 -18 26 -37.5t9 -41.5q0 -23 -9 -43
t-26 -36q-15 -17 -34 -25t-41 -8q-23 0 -41 8t-30 25q-16 16 -23.5 36t-7.5 43q0 22 7.5 41.5t23.5 37.5q12 16 30 24.5t41 8.5v0z" />
    <glyph glyph-name="ogonek" unicode="&#x2db;" horiz-adv-x="950" 
d="M524 -73q-17 18 -34 34.5t-33 32.5q-18 16 -34.5 33t-32.5 35l134 130v-37l-94 -93q6 -6 12 -12.5t12 -12.5l12 -12l12 -12q10 -12 22 -24l24 -24v-38z" />
    <glyph glyph-name="hungarumlaut" unicode="&#x2dd;" horiz-adv-x="950" 
d="M328 588l-5 2l1 0.5t2 2.5l3 3q-1 -2 -1 -4v-4v0zM432 732q-15 -24 -29.5 -44.5t-29.5 -38.5q-17 -18 -27.5 -31.5t-16.5 -21.5q1 10 6 26.5t14 39.5q7 21 15.5 46t17.5 54q3 8 7.5 16.5t10.5 17.5q5 7 9.5 14.5t7.5 14.5q3 6 8.5 9.5t12.5 6.5q6 1 11 0.5t9 -3.5
q12 -7 14.5 -18t-5.5 -26q-4 -9 -7 -17t-6 -15q-4 -9 -9.5 -16.5t-12.5 -13.5v0zM456 587l-5 3l7 7q-2 -5 -2 -7.5v-2.5v0zM564 732q-17 -24 -32.5 -44t-30.5 -38q-16 -18 -26.5 -31.5t-16.5 -21.5q0 11 5 28t14 40q7 21 15.5 45.5t17.5 51.5q3 8 7.5 16.5t10.5 17.5
q5 7 8.5 14.5t6.5 14.5q4 5 9.5 8.5t13.5 6.5q6 1 11.5 1t10.5 -3h-1q12 -7 14.5 -18t-6.5 -26q-4 -9 -7 -17t-6 -15q-4 -9 -8.5 -16.5t-9.5 -13.5v0z" />
    <glyph glyph-name="Alpha" unicode="&#x391;" horiz-adv-x="950" 
d="M764 44q9 0 13 -4.5t3 -13.5q-3 -11 -9.5 -15.5t-17.5 -4.5h-211q-8 0 -10 4.5t1 13.5q1 9 6 14.5t13 5.5q13 0 23.5 0.5t18.5 2.5q6 0 11.5 2.5t10.5 5.5q3 3 5 6.5t3 8.5q0 4 -0.5 11t-0.5 16l-18 140h-261l-83 -136q-8 -17 -11 -28t0 -17q1 -6 14.5 -9t39.5 -3
q10 0 14.5 -4.5t3.5 -13.5q-3 -11 -10 -15.5t-19 -4.5h-171q-9 0 -12 4.5t0 13.5q1 9 5.5 14.5t12.5 5.5q18 0 30 3t18 10l8 8l11 11t10.5 13t8.5 16q23 37 46.5 74.5t46.5 75.5q24 38 48 77t49 78q24 39 47.5 77t46.5 77q24 38 47 75.5t47 75.5q3 5 8.5 8t12.5 4
q6 0 9 -2.5t4 -7.5l82 -629q2 -14 6.5 -22.5t10.5 -12.5q5 -5 14.5 -7t24.5 -2v0zM596 281l-32 308l-191 -308h223z" />
    <glyph glyph-name="Beta" unicode="&#x392;" horiz-adv-x="950" 
d="M715 197q-3 -15 -9 -30t-14 -30q-9 -17 -18.5 -30t-18.5 -22q-33 -27 -65 -43.5t-65 -22.5q-18 -4 -36 -6.5t-36 -3.5q-20 -2 -39.5 -2.5t-39.5 -0.5h-257q-11 0 -15 4.5t-2 14.5q6 9 12 14.5t13 5.5q23 0 39.5 3t26.5 9q3 2 6.5 6.5t6.5 10.5q1 5 2.5 11.5t3.5 14.5
l130 514q0 1 0.5 3t0.5 4q1 2 1.5 4t1.5 5q0 3 1 7t1 7q0 7 -3 12.5t-9 8.5q-6 2 -18 3.5t-30 1.5q-11 0 -14 4.5t2 13.5q1 8 6 12.5t14 4.5h297q9 0 18.5 -0.5t19.5 -1.5q10 0 19.5 -1t20.5 -1q19 -3 35.5 -9.5t30.5 -17.5q7 -8 14.5 -17.5t15.5 -21.5q6 -13 10 -27t4 -29
q0 -8 -1.5 -17t-3.5 -18q-7 -18 -15 -33.5t-17 -29.5q-10 -15 -20.5 -28.5t-20.5 -24.5q-15 -11 -30 -19.5t-30 -14.5q-15 -8 -31.5 -12.5t-32.5 -5.5v-6q30 -4 59.5 -16t56.5 -32q14 -14 21.5 -33t7.5 -43q0 -3 -0.5 -6t-0.5 -6v-5.5v-5.5q-2 -6 -3.5 -13t-2.5 -13v0z
M673 533q2 12 3.5 22.5t1.5 19.5q0 12 -1.5 22t-3.5 19q-3 7 -7 13t-7 12q-5 4 -10 8.5t-11 7.5q-7 2 -14.5 3.5t-15.5 2.5q-12 2 -23 3.5t-22 2.5h-13h-15q-7 0 -15.5 0.5t-17.5 0.5q-18 0 -30 -3t-18 -8q-7 -6 -13.5 -16.5t-12.5 -25.5l-54 -228h54h27.5t23.5 1h16.5
t12.5 1q14 0 28.5 2.5t29.5 8.5q20 6 37.5 18t32.5 30q13 18 22.5 38.5t14.5 44.5v0zM621 200q0 7 1 14.5t1 14.5q1 7 1.5 13t0.5 12q0 11 -1.5 20.5t-4.5 18.5q-3 7 -9 13.5t-15 12.5q-24 15 -55 23t-70 8h-107q-9 -32 -17.5 -63t-15.5 -62q-8 -33 -16 -63.5t-17 -59.5
q-3 -9 -4 -16.5t-1 -12.5q0 -9 3.5 -14.5t11.5 -7.5q7 -3 17.5 -4.5t25.5 -1.5h20.5t22.5 1h21.5t23.5 2q9 0 20 1.5t23 4.5q10 1 21 4t22 8q13 6 27.5 19t29.5 33q14 18 24 38.5t16 43.5v0z" />
    <glyph glyph-name="Gamma" unicode="&#x393;" horiz-adv-x="950" 
d="M752 468q-2 -8 -5.5 -12.5t-9.5 -4.5q-11 -1 -15.5 2.5t-3.5 11.5v6v6t0.5 6.5t0.5 6.5v10.5v11.5q0 47 -6 77.5t-17 45.5q-17 17 -64.5 26t-126.5 9q-24 0 -39.5 -3t-21.5 -9q-9 -8 -15.5 -20t-10.5 -29q-6 -30 -13 -59.5t-14 -59.5q-9 -32 -16.5 -63t-14.5 -61
q-11 -32 -19 -63t-14 -61q-8 -32 -16 -62t-17 -59q-5 -24 -6 -40t2 -22q0 -8 14.5 -11t41.5 -3q10 0 14 -4.5t3 -13.5q-3 -11 -10.5 -16t-17.5 -5h-223q-12 0 -16.5 4.5t-1.5 14.5q1 9 8.5 14.5t20.5 5.5q24 0 38.5 3t20.5 10q5 3 9.5 8.5t7.5 14.5q3 7 5 17t4 22l125 492
q3 16 4 28t-2 18q-2 6 -15.5 9t-39.5 3q-12 0 -16.5 4.5t-1.5 13.5q1 8 8.5 12.5t19.5 4.5h495h5h4q0 -1 -0.5 -3.5t-0.5 -5.5z" />
    <glyph glyph-name="uni0394" unicode="&#x394;" horiz-adv-x="950" 
d="M222 11q-15 0 -21.5 4t-6.5 13q0 4 4.5 17t13.5 34l395 630q3 5 6.5 8t6.5 4q2 0 3.5 -2.5t1.5 -7.5q10 -78 19 -156.5t18 -157.5q7 -81 16.5 -160.5t20.5 -157.5v-3.5v-3.5q0 -1 0.5 -3t1.5 -3v-8.5v-6.5q0 -12 -1.5 -19.5t-4.5 -11.5q-4 -5 -11 -7t-17 -2h-445zM534 46
q22 0 37 3t24 9q7 6 10 15.5t3 24.5l-52 463l-283 -456q-12 -18 -17.5 -29t-3.5 -17q2 -7 17.5 -10t44.5 -3h220z" />
    <glyph glyph-name="Epsilon" unicode="&#x395;" horiz-adv-x="950" 
d="M640 22q-3 -9 -7.5 -12.5t-9.5 -3.5h-517q-12 0 -16 4.5t-1 14.5q1 9 8.5 14.5t19.5 5.5q24 0 39 2.5t21 8.5q7 3 13.5 14.5t12.5 29.5q15 63 31 127t32 130q15 64 32 128.5t35 127.5v14.5t1 13.5q0 5 -0.5 9.5t-0.5 7.5q-2 5 -16.5 8t-41.5 3q-11 0 -15 4.5t-2 13.5
q3 9 9.5 13.5t18.5 4.5h506h3h4v-3.5v-6.5l-44 -217q-2 -9 -5.5 -13t-9.5 -4q-5 -1 -8 0t-5 4q-3 1 -4.5 4t-1.5 6q0 7 1 14.5t1 16.5v14v14q0 42 -6 69t-17 39q-21 13 -71.5 20t-129.5 7q-23 0 -37 -2.5t-20 -6.5q-8 -5 -14.5 -15.5t-10.5 -28.5l-56 -232q51 0 85 4.5
t51 13.5q13 8 28 33.5t32 69.5q5 9 11.5 14.5t14.5 5.5q6 0 8.5 -4.5t0.5 -13.5q-7 -35 -14.5 -69.5t-16.5 -68.5q-10 -36 -19 -71t-16 -68q-3 -11 -9.5 -15.5t-16.5 -4.5q-6 0 -8.5 4t-1.5 13v5.5v5.5t0.5 6t1.5 6v9v10q0 24 -5 39t-14 21q-9 7 -40.5 11.5t-85.5 4.5
l-57 -243q-5 -20 -5.5 -32t3.5 -16q2 -5 14.5 -7t35.5 -2q88 0 145.5 7t84.5 22q24 14 51.5 56.5t58.5 114.5q4 7 10.5 10.5t15.5 3.5l2.5 -2.5t2.5 -3.5v-3.5v-2.5t0.5 -1.5l0.5 -0.5z" />
    <glyph glyph-name="Zeta" unicode="&#x396;" horiz-adv-x="950" 
d="M632 20q-3 -8 -6.5 -11t-9.5 -3h-459q-5 0 -7 3t0 9q0 5 2.5 10t7.5 10l542 631h-97q-61 0 -104.5 -7t-70.5 -19q-26 -13 -52 -55t-53 -113q-3 -11 -9.5 -14.5t-15.5 -0.5q-5 0 -6.5 4t-1.5 11l73 219q1 5 5.5 8t10.5 3h433q4 0 5.5 -2.5t1.5 -6.5q-2 -6 -5 -11t-9 -10
l-550 -630h129q57 0 99 6t69 19q30 13 58.5 55t55.5 114q3 8 9.5 11.5t17.5 3.5q6 -1 8 -5t2 -10z" />
    <glyph glyph-name="Eta" unicode="&#x397;" horiz-adv-x="950" 
d="M475 6q-9 0 -12.5 4.5t-1.5 14.5q1 9 8.5 14.5t20.5 5.5q25 0 39.5 3t19.5 9q7 6 14.5 21t14.5 41l54 228h-325q-4 -14 -7.5 -28t-7.5 -28t-7.5 -28.5t-6.5 -28.5q-4 -15 -8 -29.5t-7 -28.5q-4 -15 -7 -28.5t-6 -26.5q-6 -27 -7 -42.5t3 -21.5q2 -6 15.5 -9t38.5 -3
q10 0 14 -4.5t3 -13.5q-6 -11 -12 -16t-13 -5h-225q-12 0 -17 4.5t-2 14.5q1 9 8.5 14.5t21.5 5.5q23 0 37.5 3t20.5 9q6 3 10.5 8.5t7.5 14.5q3 7 6 17t6 22q7 28 14 57t15 59q7 29 14.5 59.5t15.5 61.5q14 60 29.5 119.5t32.5 117.5q2 11 3.5 21t2.5 19q0 4 -0.5 7.5
t-0.5 6.5v5.5v4.5q-5 6 -18.5 9t-36.5 3q-12 0 -17 4.5t-2 13.5q1 9 8.5 13.5t21.5 4.5h222q10 0 14.5 -4.5t2.5 -11.5q-3 -11 -9.5 -15.5t-18.5 -4.5q-25 0 -40 -3t-20 -8q-9 -5 -15.5 -20.5t-10.5 -42.5l-51 -203h326q3 12 5.5 24t5.5 25q3 12 6 25t6 27q5 25 11.5 50.5
t15.5 49.5q4 25 6 41.5t2 22.5q-3 6 -18 9t-41 3q-12 0 -16 4.5t-1 13.5t9.5 13.5t18.5 4.5h222q12 0 16.5 -4.5t2.5 -11.5q-5 -11 -11 -15.5t-15 -4.5q-15 0 -26 -1t-17 -2q-7 -3 -13 -5t-11 -4q-6 -6 -11.5 -22t-9.5 -40l-121 -474q-6 -26 -8 -41.5t1 -21.5q3 -7 17 -10
t38 -3q11 0 15.5 -4.5t3.5 -13.5q-5 -11 -11.5 -16t-14.5 -5h-230z" />
    <glyph glyph-name="Theta" unicode="&#x398;" horiz-adv-x="950" 
d="M398 329q-11 0 -18 -2.5t-10 -6.5q-5 -6 -8.5 -11t-4.5 -10q-5 -6 -8 -12l-6 -12q-4 -6 -7.5 -9t-6.5 -3q-4 0 -5.5 2.5t0.5 8.5v4.5t1 6.5q0 3 1 6.5t2 7.5l35 125q3 18 7 27.5t9 9.5q4 0 6 -4t2 -11q-1 -5 -1 -9.5v-7.5q-1 -5 -1 -9t1 -7q0 -3 2.5 -6t7.5 -6
q3 -4 8.5 -5.5t12.5 -1.5h158q4 0 9 1.5t11 4.5q5 3 9 6t7 6q1 3 2.5 6t3.5 6q0 2 1 4t3 5q1 5 3 10t5 10q1 4 4 6.5t8 2.5q4 0 6.5 -2.5t2.5 -6.5q-1 -6 -3.5 -12.5t-6.5 -14.5q-5 -15 -8.5 -31t-6.5 -32q-4 -18 -8 -33.5t-7 -28.5l-3 -12q-5 -6 -7.5 -11t-3.5 -8
q-3 -5 -6 -6.5t-6 -1.5t-4 3t-1 10q-1 6 -1 11.5t1 11.5q0 4 -1.5 9.5t-3.5 11.5q-3 4 -9.5 7t-15.5 3h-151zM793 357q-19 -77 -58 -142t-99 -117q-57 -54 -120 -80t-131 -26q-32 0 -60.5 6.5t-53.5 21.5q-27 13 -46.5 32t-31.5 45q-12 16 -19.5 34t-10.5 37
q-5 18 -6.5 37.5t-1.5 40.5q0 25 3 52t9 57q10 36 25 71t35 69q18 33 42.5 62.5t55.5 56.5q58 54 121 81.5t131 27.5q65 0 113.5 -27.5t81.5 -81.5q18 -34 27 -71.5t9 -78.5q0 -26 -4 -53t-11 -54v0zM698 355q6 36 10 68.5t4 62.5q0 25 -3 50t-8 49q-11 22 -24.5 39.5
t-28.5 30.5q-17 12 -37.5 18t-45.5 6q-54 0 -100.5 -23.5t-86.5 -69.5q-40 -47 -68.5 -104.5t-45.5 -124.5q-8 -36 -11 -69t-3 -63q0 -28 2.5 -52.5t8.5 -45.5q15 -47 50.5 -69.5t90.5 -22.5q25 0 49 5t47 17q21 10 42.5 27.5t42.5 41.5q19 22 35.5 47.5t31.5 55.5
q13 28 25 59.5t23 66.5v0z" />
    <glyph glyph-name="Iota" unicode="&#x399;" horiz-adv-x="950" 
d="M272 6q-12 0 -16.5 4.5t-1.5 14.5q1 9 8.5 14.5t20.5 5.5q24 0 40 3t23 9q7 5 14.5 20.5t14.5 41.5q15 57 30 116t30 121q14 60 29.5 119.5t32.5 117.5q0 5 0.5 10t1.5 10q0 5 0.5 9.5t1.5 9.5q0 7 -0.5 13t-0.5 11q-2 2 -6.5 4t-13.5 5q-9 1 -19 2.5t-20 1.5
q-11 0 -15.5 4.5t-2.5 13.5q1 4 4 7.5t8 6.5l7.5 2.5t9.5 1.5h231q10 0 14 -4.5t2 -11.5q-3 -11 -9.5 -15.5t-17.5 -4.5q-27 0 -42.5 -3t-21.5 -9q-9 -7 -15.5 -22.5t-10.5 -39.5q-17 -58 -32.5 -117.5t-29.5 -119.5q-15 -62 -31 -121t-31 -116q-6 -27 -7 -42.5t3 -21.5
q2 -6 17 -9t43 -3q10 0 14 -4.5t3 -13.5q-3 -11 -10.5 -16t-17.5 -5h-231z" />
    <glyph glyph-name="Kappa" unicode="&#x39a;" horiz-adv-x="950" 
d="M745 44q4 0 5.5 -4.5t0.5 -13.5q-1 -11 -5.5 -15.5t-13.5 -4.5h-267q-6 0 -8 4.5t0 13.5q0 9 6 14.5t18 5.5q30 0 46.5 3t19.5 9q3 3 5 6.5t2 8.5q0 1 -0.5 3.5t-1.5 4.5q0 3 -1 6t-1 6l-102 275l-156 -123l-35 -123q-5 -26 -6.5 -41.5t-0.5 -21.5q3 -7 17.5 -10t40.5 -3
q10 0 14 -4.5t3 -13.5q-3 -11 -9.5 -15.5t-18.5 -4.5h-221q-5 0 -8.5 1t-6.5 4q-3 2 -4.5 5t0.5 8q6 9 12 14.5t14 5.5q13 0 23.5 0.5t18.5 3.5q6 1 12.5 3.5t12.5 5.5q3 3 6 8.5t6 14.5q2 7 4 16.5t5 21.5q16 57 32 116t31 121q14 60 28.5 119.5t29.5 117.5q1 5 2 10.5
t1 10.5q1 5 2 9.5t2 9.5v13t-1 11q-3 6 -16.5 9.5t-36.5 3.5q-5 0 -8.5 1t-6.5 4q-3 2 -3 5t3 8q1 4 3.5 7.5t6.5 6.5q3 1 6 2.5t6 1.5h230q8 0 11 -4.5t1 -11.5q-3 -11 -9.5 -15.5t-18.5 -4.5t-21 -1t-16 -2q-8 -3 -13.5 -5t-8.5 -4q-6 -6 -13 -22t-16 -41l-74 -290
q18 16 37.5 32.5t38.5 33.5q20 17 40.5 34.5t41.5 35.5q41 34 81.5 68t81.5 67q23 21 37 37.5t19 28.5q6 13 -10 20.5t-55 7.5q-10 0 -14 4.5t-2 13.5q4 9 10.5 13.5t14.5 4.5h248q6 0 8.5 -4.5t0.5 -11.5q-3 -11 -8 -15.5t-12 -4.5q-25 0 -44.5 -4.5t-32.5 -12.5
q-15 -8 -33 -21.5t-40 -32.5l-188 -167q15 -44 31.5 -87t34.5 -85q17 -44 35 -87t36 -85q2 -7 4 -12.5t5 -8.5q1 -5 4 -8.5t9 -5.5q6 -3 12.5 -4.5t12.5 -1.5q6 -2 15 -2h22v0z" />
    <glyph glyph-name="Lambda" unicode="&#x39b;" horiz-adv-x="950" 
d="M261 101q-5 -7 -7.5 -12.5t-2.5 -8.5q-2 -5 -2 -9.5v-7.5q0 -6 3 -10t11 -5q6 -3 16 -3.5t25 -0.5q10 0 14.5 -4.5t3.5 -13.5q-3 -11 -10 -15.5t-19 -4.5h-171q-9 0 -12 4.5t0 13.5q1 9 5.5 14.5t12.5 5.5q18 0 30 3t18 10l8 8l11 11t10.5 13t8.5 16q23 37 46.5 74.5
t46.5 75.5q24 38 48 77t49 78q24 39 47.5 77t46.5 77q24 38 47 75.5t47 75.5q3 5 8.5 8t12.5 4q6 0 9 -2.5t4 -7.5l82 -629q2 -14 6.5 -22.5t10.5 -12.5q5 -5 14.5 -7t24.5 -2q9 0 13 -4.5t3 -13.5q-3 -11 -9.5 -15.5t-17.5 -4.5h-211q-8 0 -10 4.5t1 13.5q1 9 6 14.5
t13 5.5q22 0 37 3t23 9q6 6 8.5 16t2.5 25l-59 492z" />
    <glyph glyph-name="Mu" unicode="&#x39c;" horiz-adv-x="950" 
d="M915 670q-27 0 -44 -3t-24 -9q-7 -7 -12.5 -22.5t-9.5 -39.5q-17 -58 -32.5 -117.5t-29.5 -119.5q-15 -62 -30 -121.5t-29 -116.5q-3 -12 -5.5 -22.5t-2.5 -18.5q-2 -9 -1.5 -14.5t2.5 -7.5q3 -7 17 -10t38 -3q10 0 13.5 -4.5t0.5 -13.5q-3 -11 -8.5 -16t-12.5 -5h-230
q-8 0 -11.5 4.5t-2.5 14.5q1 9 8.5 14.5t20.5 5.5q25 0 39.5 3t18.5 10q6 5 13.5 20t16.5 41l134 544h-2q-24 -41 -47 -81.5t-46 -81.5l-46 -82t-46 -81q-48 -83 -94.5 -165.5t-91.5 -164.5v1q-3 -6 -7 -9.5t-10 -3.5q-7 0 -10.5 2.5t-3.5 8.5l-41 648l-6 1l-134 -534
q-5 -24 -5.5 -39t2.5 -21q1 -9 14.5 -12.5t39.5 -3.5q10 0 14 -4.5t3 -13.5q-3 -11 -10 -16t-17 -5h-184q-12 0 -17 4.5t-2 14.5q1 9 8.5 14.5t21.5 5.5q24 0 38.5 3.5t20.5 11.5q6 3 10.5 9t7.5 15q1 3 2.5 7t2.5 9q1 4 2.5 8.5l3.5 10.5q14 57 29 116.5t30 121.5
q14 60 29.5 119.5t32.5 117.5q3 12 4.5 22t1.5 19v13.5v8.5q-4 6 -18.5 9.5t-39.5 3.5q-11 0 -15 4.5t-2 13.5q2 8 9 12.5t19 4.5h177q7 0 11.5 -4t5.5 -10l30 -521q18 31 36 63.5t37 65.5q18 32 37 65t38 67q36 66 71.5 130.5t70.5 129.5v-1q2 3 5 6t7 6q3 1 6.5 2t8.5 1
h178q10 0 14 -4t3 -11q-5 -11 -11 -15.5t-13 -4.5v0z" />
    <glyph glyph-name="Nu" unicode="&#x39d;" horiz-adv-x="950" 
d="M866 670q-26 0 -42.5 -4t-23.5 -10q-5 -8 -9.5 -23.5t-10.5 -37.5l-155 -590q0 -6 -4 -10t-11 -4q-10 0 -17 3t-10 11l-250 596l-124 -480q-5 -24 -5.5 -39t2.5 -22q0 -8 13.5 -11.5t40.5 -3.5q10 0 14 -4.5t3 -13.5q-3 -11 -10 -16t-17 -5h-185q-12 0 -16.5 4.5
t-1.5 14.5q1 9 8.5 14.5t21.5 5.5q24 0 38 3t20 11q6 3 10.5 8.5t7.5 14.5q3 7 6 16.5t6 21.5l121 473q4 24 5.5 39.5t0.5 23.5q-6 6 -20.5 10t-38.5 4q-10 0 -14 4.5t-2 13.5q2 8 9 12.5t19 4.5h131q5 0 10 -2.5l11 -5.5l224 -535q4 25 10 51.5t15 54.5q7 27 13.5 54
t12.5 55q9 27 16.5 54.5t13.5 54.5q5 26 12 53t16 54q1 5 2 10.5t1 10.5q1 4 2 8.5t2 9.5v12.5v10.5q-3 7 -18.5 11t-43.5 4q-8 0 -10 4.5t1 13.5q0 8 6 12.5t18 4.5h185q7 0 10 -4t2 -11q-3 -11 -8 -15.5t-13 -4.5v0z" />
    <glyph glyph-name="Xi" unicode="&#x39e;" horiz-adv-x="950" 
d="M792 703q3 0 5 -1t4 -1q1 -2 1 -5v-6l-45 -214q-2 -9 -5.5 -13t-8.5 -4q-7 -3 -10 1t-2 13q3 22 4.5 41.5t1.5 35.5q0 14 -2.5 26t-5.5 21q-5 9 -9.5 15t-8.5 9q-6 3 -15 5.5t-21 4.5q-14 1 -29 2t-33 1h-123q-38 0 -66.5 -3.5t-48.5 -9.5q-9 -3 -18.5 -14t-19.5 -30
q-12 -20 -23.5 -46t-23.5 -57q-2 -4 -4 -7l-4 -6q-3 -3 -7.5 -4t-9.5 2q-6 0 -8.5 4t-0.5 11l70 214q0 2 0.5 4t1.5 4q1 1 1.5 2.5t1.5 2.5l2.5 1t7.5 1h451zM368 320q-10 0 -17 -3t-10 -7q-5 -6 -8.5 -11t-5.5 -11q-3 -6 -7 -11t-8 -11q-6 -7 -10.5 -10t-7.5 -3t-3.5 2
t0.5 8q0 4 0.5 10t2.5 15q3 15 8 31t11 34q2 8 4.5 16t4.5 15q3 8 5 15t5 14q0 8 1.5 15.5t4.5 13.5q2 5 4.5 8t5.5 3q6 0 9 -4t3 -11q-1 -5 -1 -9.5v-7.5v-8.5v-6.5q0 -4 2 -7t6 -6q3 -4 7 -5.5t10 -1.5h201q6 0 12.5 1.5t12.5 4.5q5 3 8.5 6t6.5 6v3.5t2 5.5q0 2 0.5 4.5
t2.5 5.5q2 6 5 11t8 11q3 4 6.5 6.5t8.5 2.5q3 0 4.5 -2.5t1.5 -6.5q-1 -6 -2.5 -12.5t-3.5 -14.5q-3 -8 -5 -15.5t-5 -15.5q-2 -8 -4.5 -16t-4.5 -16q-6 -18 -10 -34.5t-5 -32.5q-3 -7 -5.5 -13t-3.5 -11q-3 -6 -7 -9t-10 -3q-5 0 -7 2.5t-2 8.5q-1 4 -1 9.5t1 11.5v3
q0 6 -1 11.5t-2 11.5q-2 4 -7 7t-12 3h-199zM135 11q-6 0 -8 3t-2 10l43 214q1 7 6.5 11.5t15.5 5.5q3 0 5.5 -1t4.5 -3q1 -3 2 -5.5t1 -4.5q-3 -12 -4 -23.5t-1 -21.5q-2 -12 -2 -21.5v-16.5q0 -29 4 -45.5t13 -20.5q16 -7 43.5 -10t65.5 -3h178q37 0 65 3t46 11
q19 6 41.5 42.5t48.5 104.5q2 8 6 11.5t10 3.5q7 -2 10.5 -5.5t2.5 -9.5q-10 -27 -19 -53.5t-17 -53.5q-9 -28 -16 -55t-13 -52q-3 -8 -9 -11.5t-15 -3.5h-506z" />
    <glyph glyph-name="Omicron" unicode="&#x39f;" horiz-adv-x="950" 
d="M776 357q-19 -77 -58 -142t-99 -117q-60 -54 -122.5 -80t-128.5 -26q-36 0 -65 6.5t-53 21.5q-24 13 -45 32t-37 45q-8 16 -14 34t-12 37q-6 18 -9 37.5t-3 40.5q0 25 4.5 52t13.5 57q9 36 23.5 71t35.5 69q19 33 42.5 62.5t50.5 56.5q58 54 121 81.5t131 27.5
q65 0 114.5 -27.5t83.5 -81.5q20 -34 30.5 -71.5t10.5 -78.5q0 -26 -4 -53t-11 -54v0zM673 355q10 36 16 68.5t6 62.5q0 25 -5 50t-14 49q-7 22 -19 39.5t-30 30.5q-18 12 -39.5 18t-45.5 6q-51 0 -96 -23.5t-85 -69.5q-40 -47 -68.5 -104.5t-45.5 -124.5q-12 -36 -17 -69
t-5 -63q0 -28 4.5 -52.5t14.5 -45.5q15 -47 48.5 -69.5t84.5 -22.5q25 0 50.5 5t49.5 17q24 10 45 27.5t41 41.5q16 22 32.5 47.5t33.5 55.5q15 28 26 59.5t18 66.5v0z" />
    <glyph glyph-name="Pi" unicode="&#x3a0;" horiz-adv-x="950" 
d="M498 669q-23 0 -39.5 -3t-26.5 -8q-8 -6 -15 -22t-13 -41q-8 -29 -15.5 -58.5t-15.5 -58.5q-7 -30 -15 -60l-16 -60q-18 -62 -32.5 -121t-26.5 -116q-9 -27 -11 -42.5t4 -21.5q4 -6 19 -9t41 -3q10 0 13 -4.5t0 -13.5q-3 -11 -8.5 -16t-12.5 -5h-238q-8 0 -10.5 4.5
t0.5 14.5q1 9 7 14.5t18 5.5q25 0 41 3t22 9q6 5 13 20.5t16 41.5l122 474q6 25 7.5 41t-1.5 22q-5 6 -21.5 9.5t-44.5 3.5q-8 0 -10.5 4.5t0.5 13.5q0 9 6.5 13.5t18.5 4.5h569q10 0 14.5 -4.5t2.5 -11.5q-3 -11 -9.5 -15.5t-17.5 -4.5q-26 0 -43 -3t-26 -9
q-7 -7 -12.5 -22.5t-9.5 -39.5l-121 -474q-6 -26 -7.5 -41.5t1.5 -21.5q3 -7 18 -10t41 -3q10 0 14 -4.5t3 -13.5q-6 -11 -12 -16t-12 -5h-239q-7 0 -10 4.5t-1 14.5q2 9 8.5 14.5t17.5 5.5q25 0 41 3t22 9q7 6 14.5 21t15.5 41q7 28 14 57t15 59q7 29 14.5 59.5t15.5 61.5
q15 60 30 119.5t32 117.5q3 11 4.5 21.5t2.5 19.5q0 8 -1 14t-3 9q-6 6 -22 9t-41 3h-99z" />
    <glyph glyph-name="Rho" unicode="&#x3a1;" horiz-adv-x="950" 
d="M771 515q-8 -20 -17 -38t-20 -34q-12 -18 -25.5 -33.5t-28.5 -28.5q-9 -9 -19 -16t-22 -12q-12 -6 -25.5 -11t-26.5 -8q-11 -4 -22.5 -6.5t-23.5 -3.5q-13 -3 -23.5 -3.5t-17.5 -0.5h-158l-50 -200q-1 -7 -1.5 -12.5t-1.5 -11.5q0 -5 -0.5 -9.5t-0.5 -7.5q-2 -9 -2 -14
t3 -8q2 -6 15.5 -9t38.5 -3q10 0 14 -4.5t3 -13.5q-6 -11 -12.5 -16t-14.5 -5h-223q-12 0 -16.5 4.5t-1.5 14.5q1 9 8.5 14.5t21.5 5.5q22 0 36.5 3t20.5 9q6 3 10.5 8t7.5 14l2.5 7.5t2.5 9.5t2.5 10.5t3.5 11.5l125 496q3 16 3 27t-3 17q-5 5 -18.5 8t-35.5 3
q-11 0 -15 4.5t-2 13.5q4 9 11.5 13.5t16.5 4.5h294q24 0 45.5 -3t42.5 -8q19 -6 36.5 -14.5t33.5 -18.5q3 -5 6 -9.5t6 -9.5t6.5 -10t6.5 -10q6 -12 9 -24.5t3 -25.5q0 -12 -2.5 -26.5t-5.5 -30.5v0zM673 513q3 15 5.5 28.5t2.5 26.5q0 22 -7 40.5t-19 33.5
q-14 13 -33.5 20t-45.5 7h-84q-20 0 -32.5 -3t-17.5 -7q-6 -3 -9.5 -7t-5.5 -9q-3 -6 -5.5 -12.5t-3.5 -13.5l-61 -257q7 -1 15.5 -1t18.5 1h17h15h34q21 0 41 1.5t38 4.5q17 3 32 9.5t27 17.5q15 8 27.5 20t23.5 27q9 14 16 32t11 41v0z" />
    <glyph glyph-name="Sigma" unicode="&#x3a3;" horiz-adv-x="950" 
d="M164 11q-9 0 -15 1.5t-9 5.5q-4 3 0.5 11t18.5 21l271 301l-124 313q-5 12 -6 20.5t2 12.5q2 3 8.5 4.5t17.5 1.5h464q2 0 4 -1t4 -1v-4.5v-6.5q-5 -27 -9.5 -53.5t-8.5 -53.5q-6 -28 -12 -55t-13 -52q-2 -8 -5.5 -12.5t-8.5 -4.5q-3 -3 -5.5 -2t-3.5 5q-1 1 -2 2.5
t-1 2.5q-1 1 -1 2.5v3.5q0 6 1 13.5t2 15.5v14v13q0 44 -9 70.5t-25 35.5q-21 9 -75.5 14.5t-141.5 5.5q-27 0 -42.5 -2.5t-19.5 -6.5q-3 -5 -2 -16t6 -29q12 -26 23 -52t23 -53q10 -28 19 -54.5t18 -51.5q1 -5 1 -9.5v-7.5q-2 -5 -5 -11t-7 -13l-254 -262
q-18 -18 -13.5 -27t31.5 -9q54 0 98.5 1.5t80.5 4.5q34 2 61 6t45 10q39 12 72 54t60 113q3 8 9 11.5t17 3.5q3 -2 4.5 -5.5t0.5 -9.5q-6 -27 -13.5 -53.5t-14.5 -53.5q-9 -28 -17.5 -55t-15.5 -52q-6 -8 -12 -11.5t-10 -3.5h-461z" />
    <glyph glyph-name="Tau" unicode="&#x3a4;" horiz-adv-x="950" 
d="M745 478q-3 -9 -9 -13.5t-15 -4.5q-5 -1 -7.5 0t-2.5 4q-2 1 -2.5 4t-0.5 6q0 5 0.5 10.5t1.5 11.5t1.5 12t1.5 12v11v11q0 5 0.5 9.5t0.5 9.5q0 25 -2.5 43t-6.5 29q-14 18 -37 27.5t-55 9.5q-20 0 -34 -2.5t-22 -5.5q-6 -3 -10 -12t-5 -22l-129 -507q-6 -25 -7 -40.5
t5 -21.5q3 -7 21.5 -10t53.5 -3q6 0 9 -5t3 -14q-3 -11 -10.5 -16t-18.5 -5h-261q-9 0 -11 4.5t1 14.5t8.5 15.5t13.5 5.5q31 0 50.5 3t25.5 10q9 5 17 20t15 40q15 63 30.5 126t31.5 126q15 63 31.5 126.5t34.5 128.5q0 3 0.5 6t0.5 6t0.5 5.5t0.5 5.5t-1 6.5t-1 6.5
q-2 0 -4 0.5t-4 1.5q-3 0 -5.5 1t-5.5 2q-8 1 -15.5 2t-15.5 1q-34 0 -61.5 -9.5t-48.5 -27.5t-43 -57.5t-45 -100.5q-3 -9 -9.5 -12.5t-15.5 -2.5q-8 0 -10.5 4t0.5 12l71 217q0 2 0.5 3.5t1.5 3.5q1 1 1.5 2t1.5 2h0.5h2.5q1 0 2.5 0.5t4.5 0.5h519h6h5v-3.5v-6.5z" />
    <glyph glyph-name="Upsilon" unicode="&#x3a5;" horiz-adv-x="950" 
d="M399 121q-9 -26 -11 -41.5t1 -21.5q6 -7 22.5 -10t44.5 -3q6 0 8 -4.5t1 -13.5q-3 -11 -8.5 -16t-11.5 -5h-237q-8 0 -11 4.5t-1 14.5q3 9 8.5 14.5t12.5 5.5q27 0 45 3t26 9q3 6 10 21t16 41l64 258q4 17 6.5 41.5t2.5 57.5v14.5v17.5q0 4 -0.5 8.5t-0.5 8.5t-0.5 8.5
t-0.5 9.5q-3 27 -10.5 48.5t-19.5 38.5q-13 15 -31 25t-42 14q-13 2 -19 5.5t-6 8.5q3 6 11 9.5t22 4.5q54 1 91.5 -13.5t58.5 -45.5q20 -33 27.5 -66t2.5 -65l10 -1q16 45 41.5 81.5t58.5 63.5q33 26 71 39.5t83 13.5q12 0 23 -5.5t20 -14.5q9 -11 12 -23.5t2 -27.5
q-3 -14 -9.5 -24.5t-15.5 -19.5q-11 -9 -23 -13.5t-27 -4.5q-7 0 -14 3.5t-13 11.5q-8 7 -10.5 15t0.5 17q0 6 3 12t8 11q4 3 9.5 8.5l12.5 12.5q-41 0 -79.5 -23.5t-74.5 -69.5q-35 -47 -59.5 -93t-37.5 -92z" />
    <glyph glyph-name="Phi" unicode="&#x3a6;" horiz-adv-x="950" 
d="M460 133q38 4 73 20.5t67 44.5q33 26 57 65t39 92q4 19 7 38t3 37q0 24 -7 44t-20 38q-20 26 -45 42.5t-55 24.5zM494 579q-20 -4 -38 -10t-36 -15q-19 -10 -36.5 -22t-33.5 -25q-14 -15 -26.5 -31.5t-22.5 -34.5q-12 -19 -22 -40t-17 -44q-6 -20 -8 -38.5t-2 -35.5
q0 -25 6 -45t19 -35q19 -29 43.5 -46t54.5 -23zM591 622q27 -3 51.5 -9t45.5 -16q21 -12 38 -26t32 -32q12 -11 20 -23t14 -26q4 -15 6.5 -31t2.5 -32q0 -18 -2.5 -35t-6.5 -35q-15 -58 -46 -104.5t-79 -81.5q-51 -36 -104 -56.5t-110 -26.5q-3 -15 -1.5 -24t7.5 -12
q4 -4 18 -5.5t37 -1.5q10 0 14 -4.5t3 -13.5q-3 -11 -10 -16t-18 -5h-231q-11 0 -15.5 4.5t-2.5 14.5q3 9 10.5 14.5t18.5 5.5h17t17 1q7 0 12.5 1t8.5 4q4 2 8 5.5t9 8.5q3 3 6 9t6 14q-26 3 -49 10.5t-44 19.5q-22 10 -41 24t-34 31q-12 11 -20.5 24.5t-11.5 28.5
q-5 14 -7 29t-2 32q0 15 2 32.5t7 35.5q4 27 15.5 52t29.5 49q17 23 37 43t43 38q48 36 100 57.5t109 27.5q3 16 1.5 26t-5.5 14q-6 3 -20 5t-36 2q-11 0 -15.5 4.5t-2.5 13.5q1 4 4 7.5t8 6.5q4 1 8.5 2.5t9.5 1.5h230q10 0 14.5 -4.5t2.5 -11.5q-3 -11 -9.5 -15.5
t-18.5 -4.5q-23 0 -36.5 -2t-18.5 -5q-10 -3 -17.5 -11.5t-11.5 -21.5z" />
    <glyph glyph-name="Chi" unicode="&#x3a7;" horiz-adv-x="950" 
d="M451 6q-11 0 -14 4.5t1 14.5q3 10 7.5 15.5t12.5 5.5q33 0 51 3.5t21 11.5q2 7 -2.5 22t-14.5 38l-71 188q-21 -23 -41.5 -45.5t-41.5 -44.5q-23 -24 -44 -47t-40 -44q-12 -11 -19.5 -19.5t-11.5 -15.5q-6 -9 -8 -15t-2 -9q0 -8 4.5 -12.5t14.5 -5.5q9 -3 21 -4t29 -1
q10 0 14 -5t2 -14q-3 -11 -10 -16t-17 -5h-212q-9 0 -12 4.5t0 14.5t7.5 15.5t12.5 5.5q12 0 21 0.5t15 3.5q6 1 12 3.5t13 5.5q3 3 9 8t15 14q7 7 16 17t19 22l214 231q-12 30 -24.5 63t-26.5 69q-15 34 -28.5 68t-23.5 67q-3 6 -6 13t-6 13q-5 5 -8 9t-5 7q-3 4 -15 6.5
t-33 2.5q-8 0 -11 4.5t-1 13.5q3 9 8.5 13.5t11.5 4.5h243q6 0 8.5 -4.5t0.5 -11.5q-3 -11 -8 -15.5t-13 -4.5q-30 0 -46.5 -3t-19.5 -8q-3 -6 -2.5 -16.5t3.5 -25.5l80 -185l168 184q2 3 4.5 5.5t4.5 5.5q3 2 5 4.5t5 5.5t5.5 7t2.5 8q0 5 -4.5 8.5t-11.5 6.5q-9 1 -22.5 2
t-31.5 1q-8 0 -10.5 4.5t0.5 13.5t7.5 13.5t12.5 4.5h211q10 0 14.5 -4.5t1.5 -11.5q-4 -11 -11.5 -15.5t-17.5 -4.5q-24 0 -39 -3t-21 -8q-6 -3 -11 -7t-9 -9q-6 -6 -12.5 -13t-15.5 -14l-212 -227l109 -267q3 -13 6.5 -23t9.5 -17q4 -9 7.5 -14t6.5 -8q6 -7 20 -10t36 -3
q7 0 10 -5t1 -14q-3 -11 -8 -16t-11 -5h-249z" />
    <glyph glyph-name="Psi" unicode="&#x3a8;" horiz-adv-x="950" 
d="M412 121q-8 -27 -9.5 -42.5t2.5 -21.5t19 -9t41 -3q10 0 14 -4.5t3 -13.5q-6 -11 -12 -16t-13 -5h-238q-8 0 -11 4.5t0 14.5q0 9 6.5 14.5t19.5 5.5q25 0 41 3t22 9q8 5 15.5 20.5t13.5 41.5l21 95q-28 3 -52.5 10t-45.5 19q-23 10 -37.5 24.5t-21.5 34.5
q-8 13 -11.5 27.5t-3.5 29.5q0 33 11 73.5t34 88.5q12 21 19.5 39t12.5 33q3 13 5.5 25t2.5 23q0 13 -5.5 20t-14.5 7q-2 -2 -4.5 -3t-4.5 -3q-2 -1 -4.5 -3t-5.5 -3q-7 -5 -12.5 -11.5t-8.5 -14.5q-3 -5 -6 -8t-6 -4q-5 -2 -8 -2.5t-6 -0.5q-6 0 -14 5t-19 17q-4 4 0 15
t16 28q4 11 17.5 17t34.5 6q2 0 4.5 -0.5t5.5 -0.5h6.5h7.5q6 -1 11.5 -2t11.5 -2q16 -3 29 -9.5t22 -15.5q9 -10 14 -20t7 -19q1 -15 -0.5 -32.5t-4.5 -38.5q-5 -21 -13 -45t-18 -49q-21 -53 -28.5 -90t-1.5 -58q6 -15 15.5 -26t23.5 -18q12 -9 27 -15t33 -9l87 340
q4 25 5.5 41t0.5 22q-5 6 -21.5 9.5t-44.5 3.5q-8 0 -11.5 4.5t-1.5 13.5q1 9 8 13.5t20 4.5h231q10 0 14 -4.5t2 -11.5q-3 -11 -9 -15.5t-16 -4.5q-27 0 -45 -3t-25 -9q-7 -7 -12.5 -22.5t-9.5 -39.5l-87 -341q13 3 29.5 9t34.5 15q18 7 33 17.5t29 24.5q17 21 29 58t20 90
q4 50 16 91t33 73q3 4 7.5 9.5t11.5 11.5q6 4 11.5 9.5l11.5 11.5q6 4 13 8t16 8q7 3 15.5 4.5t19.5 3.5q8 1 17 2t20 1q21 0 34 -6t16 -16q4 -15 2.5 -25.5t-8.5 -16.5q-25 -21 -39.5 -23t-17.5 15q-3 8 -5.5 15t-3.5 13q-3 5 -5 8t-5 4q-26 1 -41 -35.5t-21 -110.5
q-5 -74 -24.5 -129t-54.5 -91q-18 -21 -39.5 -37.5t-48.5 -26.5q-28 -12 -58.5 -18.5t-63.5 -8.5z" />
    <glyph glyph-name="uni03A9" unicode="&#x3a9;" horiz-adv-x="950" 
d="M468 176q49 6 89 27t72 57q18 18 32.5 38t26.5 42q11 21 20 43t16 45q4 10 7.5 20t5.5 21q0 9 1 18.5t1 19.5q0 24 -6.5 47.5t-18.5 44.5q-20 37 -53 56t-80 19q-50 0 -94 -18.5t-81 -54.5q-19 -18 -35 -37.5t-28 -40.5q-14 -23 -24.5 -46t-18.5 -47q-5 -19 -6.5 -38
t-1.5 -38q0 -26 3.5 -48.5t12.5 -43.5q10 -19 21.5 -34t24.5 -25q12 -12 29 -18.5t38 -8.5q-3 -22 -7 -42.5t-8 -39.5q-5 -21 -11 -41.5t-12 -41.5h-229q-10 0 -14 3t-2 10l33 171q0 3 1.5 5.5t4.5 5.5q1 1 4.5 2.5t8.5 2.5q1 0 3 -1l4 -2q1 -3 1.5 -5t0.5 -5
q-3 -45 3 -72.5t22 -36.5t43.5 -13t65.5 -4h23l18 69q-24 3 -45.5 11t-39.5 21q-20 12 -34.5 28t-23.5 37q-9 12 -15 26.5t-9 30.5q-3 15 -4.5 30t-1.5 31t1.5 34t5.5 38q7 28 19.5 55.5t30.5 54.5q17 25 38.5 49t48.5 45q55 42 115.5 64t126.5 22t116.5 -22t85.5 -64
q21 -30 32 -62t11 -68q0 -5 -0.5 -9.5t-0.5 -8.5t-0.5 -8.5t-0.5 -8.5q-2 -9 -4 -18.5t-4 -18.5q-15 -54 -43.5 -101t-70.5 -88q-43 -42 -93.5 -66.5t-107.5 -31.5l-12 -71h16q36 0 64.5 3.5t49.5 12.5t41.5 35.5t41.5 71.5q0 3 1 5.5t4 5.5l4 2t5 1t6 -1t5 -2v-4v-5
q-9 -21 -16.5 -42.5t-12.5 -42.5q-6 -23 -13 -44t-16 -42q-3 -4 -4.5 -7t-1.5 -4q-2 -3 -4.5 -3.5t-5.5 -0.5h-226z" />
    <glyph glyph-name="alpha" unicode="&#x3b1;" horiz-adv-x="950" 
d="M275 412q-23 9 -46.5 -1t-48.5 -40q-9 -14 -18 -27.5t-18 -27.5q-10 -15 -17.5 -29.5t-11.5 -27.5q-14 -28 -23.5 -56.5t-13.5 -56.5q-6 -34 0.5 -55t27.5 -30q7 -5 14.5 -6.5t13.5 -1.5q10 0 20 2.5t19 8.5q9 4 17 11.5t17 17.5q11 13 20.5 26.5t18.5 27.5q7 12 14 24.5
t14 24.5q5 12 9.5 26.5t7.5 31.5q3 15 6 31.5t6 34.5q0 3 1 6.5t2 8.5v7v8q0 24 -8 39.5t-23 22.5v0zM298 448q24 -14 36.5 -31.5t15.5 -38.5q2 -6 3.5 -11t2.5 -8q0 -5 0.5 -8.5t1.5 -6.5v-3.5v-2.5q0 -2 0.5 -3.5t0.5 -2.5v-5.5v-2.5q3 2 8 12.5t11 28.5l2.5 5l3.5 7
q0 1 0.5 2.5t1.5 3.5q1 1 1.5 2.5t1.5 3.5q6 9 11 17t8 16q2 6 5.5 13.5t8.5 16.5q7 7 16 7.5t20 -5.5h-1q6 -5 9 -11t3 -14q0 -10 -3 -21.5t-9 -23.5l-40 -63v1q-5 -12 -11.5 -23t-14.5 -23v1l-3 -4.5t-1 -2.5q-1 -1 -1.5 -2t-1.5 -2q0 -1 -0.5 -2l-0.5 -1l-9.5 -19
t-8.5 -18q-5 -9 -9 -18t-7 -18q-9 -18 -12.5 -37.5t-1.5 -40.5q3 -27 16 -39.5t37 -12.5q10 0 16.5 -2t9.5 -5q1 -5 0.5 -10.5t-2.5 -11.5q-12 -15 -28 -20t-35 -2q-21 2 -35.5 8.5t-21.5 17.5q-5 5 -8.5 10t-5.5 11q-2 2 -3.5 4.5t-3.5 5.5q-1 3 -3 6t-3 7q-3 -5 -9.5 -11
t-15.5 -13q-10 -9 -22 -17.5t-25 -17.5q-15 -12 -32 -18t-35 -6q-17 0 -32.5 6t-30.5 19q-32 21 -47.5 53.5t-15.5 77.5q3 43 16.5 85.5t37.5 83.5v-1q19 35 47.5 64.5t64.5 53.5q19 13 38 20.5t38 7.5q14 0 27.5 -4.5t27.5 -13.5h1z" />
    <glyph glyph-name="beta" unicode="&#x3b2;" horiz-adv-x="950" 
d="M464 469q-5 -26 -17 -44.5t-30 -30.5q-18 -13 -31 -22t-22 -13q3 -6 7 -12l8 -12q3 -8 8 -17t13 -18q8 -21 12.5 -45t4.5 -51q0 -18 -3.5 -36t-9.5 -34q-8 -18 -16 -35t-17 -33q-21 -32 -50 -49.5t-66 -20.5q-32 -2 -56 4t-41 21q-11 7 -19 14.5t-13 16.5q-6 7 -11.5 16
t-9.5 19q-5 -12 -8.5 -25t-5.5 -28q-3 -16 -5 -30.5t-3 -28.5q-2 -27 -6 -47.5t-11 -35.5q-9 -14 -18 -20t-19 -3q-9 1 -15 4t-8 8q-3 6 -4.5 12t-1.5 13q1 15 4 30t8 32q0 3 1.5 8t3.5 11q1 6 3.5 13.5l5.5 16.5q4 17 8 38t8 47q0 4 1 8t2 9q1 4 2 9t3 10q0 4 1 8.5t2 9.5
l2 10t3 11q5 21 11 43t12 45t12 46.5t13 47.5q12 47 27 98t34 105q15 48 37.5 79.5t51.5 46.5q18 6 34.5 10t32.5 4q15 0 31 -4t32 -11q27 -12 45 -33t28 -51q6 -19 10 -37t4 -36q0 -17 -2.5 -32.5t-6.5 -28.5v0zM410 536q2 18 -0.5 36t-8.5 36q-8 16 -20.5 28t-30.5 20
q-9 2 -15.5 3.5t-10.5 1.5q-18 0 -34 -7.5t-29 -20.5q-15 -15 -28 -35.5t-23 -46.5q-6 -27 -13.5 -55.5t-15.5 -58.5q-9 -30 -17.5 -62t-16.5 -65q-11 -33 -17 -60.5t-8 -48.5q-3 -22 -4 -37t1 -23q1 -7 3.5 -14t7.5 -14q3 -8 10.5 -16.5t18.5 -17.5q16 -15 37 -20.5
t46 -2.5q28 3 49.5 21t35.5 50q9 30 13.5 57t6.5 51q0 7 -0.5 16t-0.5 18l-2 8l-2 8l-2 8t-1 8q-3 7 -4.5 14t-2.5 14l-3.5 10.5l-2.5 7.5q-5 -1 -11 -1t-14 1q-9 0 -18 1t-18 3q-14 3 -24 8t-16 13q-8 7 -10.5 14.5t-0.5 16.5q3 16 12.5 22t26.5 2l25 -6q6 -4 11 -6t10 -2
q2 -1 4.5 -1.5t5.5 -1.5t6.5 -1.5t7.5 -0.5q9 -5 22 3t30 29q14 18 23 42t12 54v0z" />
    <glyph glyph-name="gamma" unicode="&#x3b3;" horiz-adv-x="950" 
d="M457 462q3 -5 5.5 -11.5t2.5 -13.5q0 -12 -4.5 -25t-12.5 -25q-12 -14 -22.5 -27.5t-20.5 -27.5q-12 -15 -21.5 -29.5t-18.5 -27.5q-16 -18 -28.5 -33.5t-21.5 -27.5q-11 -14 -16.5 -23.5t-6.5 -14.5q-5 -8 -9.5 -16.5t-9.5 -17.5q-6 -11 -12 -23t-11 -24l-2 -6
q-6 -13 -11.5 -25t-9.5 -22q-5 -12 -8.5 -23t-6.5 -23q-2 -4 -3 -8.5t-1 -10.5q-1 -3 -1.5 -5.5t-1.5 -5.5q0 -3 -1 -6t-1 -6q-11 -23 -22.5 -40t-23.5 -29q-13 -12 -25 -15.5t-24 1.5q-13 6 -18.5 18.5t-2.5 30.5q1 17 8 34t19 34q3 4 7 11t9 18q4 9 11 21t18 26
q15 25 22 41.5t7 23.5q1 2 2 11t2 26q0 15 0.5 38t2.5 55q0 31 -3.5 56t-12.5 45q-9 18 -22.5 30t-31.5 18q-17 2 -30.5 1.5t-22.5 -3.5q-11 -4 -18.5 -13t-11.5 -22q-11 -24 -20.5 -34.5t-16.5 -6.5q-3 7 2.5 27.5t19.5 54.5q13 33 38.5 48t64.5 12q46 -4 72 -37t32 -94
q3 -63 4 -99t0 -45q6 6 10.5 13.5t8.5 18.5q3 6 8.5 14.5t13.5 19.5q6 9 12.5 20t14.5 25q9 13 16.5 26t13.5 25q6 10 12.5 20.5t13.5 21.5q6 9 11 18.5t10 18.5q11 18 21.5 27t21.5 9q8 0 15.5 -3t15.5 -9v0z" />
    <glyph glyph-name="delta" unicode="&#x3b4;" horiz-adv-x="950" 
d="M459 475q-6 -6 -13.5 -8.5t-14.5 -2.5q-8 0 -15 6.5t-13 20.5q-8 11 -16 24t-15 28q-9 13 -19 27.5t-21 29.5q-9 10 -17 18.5t-17 15.5q-10 6 -19.5 9t-18.5 3q-8 0 -14 -4.5t-10 -13.5q-14 -20 -8.5 -45t29.5 -55q6 -9 12.5 -16.5t13.5 -14.5q6 -8 12.5 -15t12.5 -13
q5 -7 11 -14l12 -14t12 -14.5t12 -14.5q8 -9 16 -20t16 -24q6 -15 11.5 -29t10.5 -29q3 -18 5.5 -33.5t2.5 -30.5q0 -17 -2.5 -34t-6.5 -35q-14 -46 -36.5 -82t-55.5 -62q-26 -19 -52.5 -28t-53.5 -9h-10.5h-12.5q-8 0 -14.5 2t-10.5 6q-23 6 -42 15.5t-34 23.5
q-17 13 -28 29.5t-17 36.5q-11 25 -15.5 50.5t-4.5 52.5q0 16 2 34t7 38q4 18 11.5 35.5t18.5 35.5q9 16 20 30t25 26q27 24 60 36.5t72 13.5q-3 2 -5.5 5.5t-5.5 8.5q-5 3 -8 7t-5 8q-3 2 -4.5 5t-1.5 6q-1 1 -1.5 2.5t-1.5 3.5q-1 1 -1.5 3t-0.5 4q-12 15 -19.5 32.5
t-10.5 38.5q-3 18 2.5 37t19.5 39q12 21 29 32t38 11q9 0 17 -1.5t16 -4.5q16 -6 31 -13t29 -16q12 -9 25 -19.5t25 -21.5q12 -17 25.5 -39.5t28.5 -49.5q6 -11 9.5 -21.5t3.5 -20.5q0 -8 -3 -13.5t-9 -8.5v0zM326 196q4 21 6.5 43t2.5 45q0 10 -1 20.5t-1 21.5
q-1 15 -6.5 28t-14.5 24q-11 10 -23 17.5t-27 12.5q-6 1 -13 2.5t-13 1.5q-21 0 -39 -10.5t-33 -30.5q-9 -11 -17.5 -24t-15.5 -28q-9 -17 -15 -32t-9 -29q-9 -23 -12.5 -44.5t-3.5 -42.5q0 -11 0.5 -21.5t2.5 -20.5q2 -17 8 -30t16 -23q9 -11 21.5 -18.5t27.5 -11.5
q4 -4 12 -5.5t19 -1.5q21 0 39.5 9.5t33.5 30.5q9 13 17.5 27t16.5 29q6 13 11 28.5t10 32.5v0z" />
    <glyph glyph-name="epsilon" unicode="&#x3b5;" horiz-adv-x="950" 
d="M440 107q-9 -30 -25.5 -51t-39.5 -34q-27 -15 -56 -21.5t-62 -6.5q-44 0 -79 8.5t-62 26.5q-31 16 -46 42t-15 61q0 21 7.5 39t24.5 35q15 15 35 26.5t44 20.5q-21 6 -37.5 16.5t-28.5 24.5q-13 13 -19 29t-6 36q0 24 11 45t35 40q22 18 52.5 27t69.5 9q30 0 59.5 -4.5
t59.5 -12.5q24 -9 40 -28t22 -47q1 -11 -0.5 -18.5t-4.5 -13.5q-5 -7 -10.5 -11.5t-11.5 -5.5q-12 -3 -21 -1t-16 10q-8 6 -12.5 15.5t-4.5 21.5q-1 3 -2 5.5t-1 5.5q-2 1 -3.5 3t-1.5 5q-8 10 -17 17t-20 10q-12 2 -25 3.5t-27 1.5q-20 0 -35.5 -6t-27.5 -16
q-14 -12 -20 -26.5t-6 -30.5q0 -9 2.5 -17.5t8.5 -16.5q5 -9 13 -17.5t20 -17.5q6 -6 14.5 -9t18.5 -3q9 -2 20.5 -2t26.5 1h8h8q3 -1 8 -1.5t12 -0.5q7 -1 11.5 -6.5t4.5 -15.5q0 -6 -2.5 -10t-6.5 -7q-5 -3 -12.5 -4.5t-17.5 -0.5h-3.5t-3.5 1h-5.5h-4.5h-18t-6 1
q-25 -1 -45.5 -8t-36.5 -19q-18 -14 -26 -31t-8 -38q0 -23 9 -40.5t27 -30.5q17 -14 41.5 -20.5t56.5 -6.5q27 0 45.5 9t28.5 29q2 1 4.5 4.5t5.5 9.5q1 4 2 8.5t1 9.5q-1 11 1.5 21.5t8.5 20.5q4 9 14.5 12.5t25.5 0.5q9 -2 15.5 -7t12.5 -12q4 -9 5 -18t-1 -18v0z" />
    <glyph glyph-name="zeta" unicode="&#x3b6;" horiz-adv-x="950" 
d="M439 618q5 -12 2 -25t-14 -26q-12 -15 -29.5 -29t-39.5 -27q-15 -10 -34 -17.5t-42 -12.5l-16 -3q-9 -3 -16 -5t-13 -2q-8 -2 -13.5 -2.5t-8.5 -0.5q-2 -3 -4.5 -6t-5.5 -8q-3 -4 -7 -10l-8 -12q-11 -15 -23.5 -34.5t-27.5 -43.5q-23 -36 -34 -69t-11 -63q0 -12 1.5 -23
t4.5 -20q14 -45 44.5 -64.5t78.5 -13.5q24 2 42.5 -2.5t32.5 -16.5q13 -12 21.5 -30t13.5 -42q4 -33 -6 -58.5t-35 -43.5q-27 -20 -56 -29.5t-59 -9.5q-16 0 -32.5 2.5t-33.5 8.5q-16 5 -23.5 13t-7.5 19q0 9 3 15.5t11 12.5q6 6 19 7.5t33 0.5q8 -1 23.5 -4t38.5 -8
q26 -6 42.5 2.5t24.5 31.5q3 20 -8.5 30.5t-36.5 11.5q-12 0 -23 1t-21 3q-11 0 -20.5 2t-17.5 5q-33 7 -54 22t-30 39q-12 24 -17.5 46.5t-5.5 45.5q0 45 11.5 90.5t35.5 90.5v-1q7 11 14 21t13 20q6 9 12 17.5t11 16.5q4 7 8 13l8 12q3 6 6.5 10.5t6.5 9.5q-9 4 -19.5 12
t-22.5 20q-15 11 -21.5 27.5t-4.5 39.5q3 27 18 51.5t44 46.5q25 21 43 27.5t28 -2.5q6 -8 6.5 -16t-5.5 -17q-7 -10 -15.5 -19t-17.5 -18q-12 -8 -20 -16t-11 -16q-4 -9 -5.5 -16t-1.5 -12q0 -12 3.5 -20t12.5 -14q9 -5 16.5 -4.5t13.5 5.5q3 1 6.5 4t8.5 6t11 7t13 9
q3 4 10 8.5t17 9.5q7 6 16.5 13t21.5 13q10 6 23 11.5t30 11.5q9 4 19 6.5t21 2.5q9 0 17.5 -5t16.5 -14v0z" />
    <glyph glyph-name="eta" unicode="&#x3b7;" horiz-adv-x="950" 
d="M404 161q-4 -9 -8 -17.5t-7 -16.5q-5 -9 -8.5 -17t-5.5 -14q0 -6 -1 -10.5t-2 -8.5q-2 -5 -3.5 -9.5l-2.5 -7.5q-3 -6 -5 -12l-4 -12q-3 -6 -5 -11.5t-4 -11.5q-6 -12 -9.5 -25t-5.5 -28q-4 -12 -13 -29t-24 -39q-10 -19 -22 -24.5t-25 3.5q-18 9 -24 21.5t-1 27.5
q4 8 8 16.5t8 17.5q3 9 6 18.5t6 19.5l-1 -1l3 5q3 7 8 18.5t13 26.5q6 15 13 33t14 39q10 21 18.5 42.5t15.5 42.5q6 21 12.5 38.5t13.5 32.5q0 2 1 5t2 7l2 8t2 9q1 9 2.5 19.5t3.5 22.5q0 25 -9.5 43t-28.5 28q-4 0 -8.5 1.5t-9.5 4.5q-6 1 -12 2.5t-11 1.5
q-17 0 -31.5 -8.5t-26.5 -23.5q-12 -12 -22 -24.5t-17 -27.5q-9 -15 -15 -29.5t-10 -26.5q-3 -8 -5 -15.5t-3 -15.5q-2 -9 -4 -18.5t-4 -18.5q-3 -12 -7 -23.5t-8 -23.5q-6 -13 -10.5 -26.5t-7.5 -27.5q-15 -53 -32.5 -75.5t-38.5 -16.5q-12 3 -17 12t-5 24t6 36t20 50
q31 51 46 107t13 116q-3 33 -16.5 48.5t-37.5 12.5q-18 -3 -24 1.5t2 18.5v-1q7 15 20.5 22t33.5 4t36.5 -10.5t30.5 -17.5q2 -5 4.5 -9.5t5.5 -10.5q1 -7 3.5 -13t5.5 -11q13 15 32.5 30.5t45.5 32.5q12 6 26 10t29 4q14 0 31 -6t38 -16q16 -8 29 -19.5t22 -26.5
q7 -17 10 -35t1 -39q-3 -24 -7 -45.5t-9 -42.5q-3 -11 -6.5 -21.5t-6.5 -21.5t-6 -21.5t-6 -20.5v0z" />
    <glyph glyph-name="theta" unicode="&#x3b8;" horiz-adv-x="950" 
d="M324 703q41 -12 68 -46.5t40 -91.5q8 -24 12.5 -51t4.5 -55q0 -38 -7 -78t-19 -82q-19 -72 -48.5 -130.5t-69.5 -101.5q-15 -17 -30.5 -29.5t-31.5 -21.5q-18 -11 -34.5 -15.5t-31.5 -4.5q-6 0 -13 1.5t-16 6.5q-41 12 -68.5 47t-41.5 92q-6 25 -9 52t-3 56q0 17 1 36
t4 40q2 20 5 40l6 40q7 34 19 66.5t29 63.5q15 30 33 55.5t38 46.5q30 33 62 49.5t68 16.5q2 0 5.5 -0.5t7.5 -0.5t9 -0.5t11 -0.5v0zM355 385l4 22t3 21q2 11 3.5 21t3.5 20q2 19 3.5 36.5t1.5 32.5q0 26 -4 47t-11 37q-9 15 -20 24.5t-24 14.5q-33 7 -59.5 -7.5
t-47.5 -50.5q-13 -19 -23.5 -41t-19.5 -47l-19 -57t-20 -63v-2v-1q0 -1 -0.5 -2t-0.5 -2v-1v-2h230zM121 344q-16 -60 -22.5 -111t-3.5 -91q1 -40 17 -64t46 -32q27 -9 52.5 5.5t48.5 52.5q12 18 23.5 40t22.5 49q9 26 17.5 56t15.5 63q0 1 0.5 2.5t0.5 2.5q1 2 1.5 4t1.5 5
q0 4 0.5 8.5t1.5 9.5h-223z" />
    <glyph glyph-name="iota" unicode="&#x3b9;" horiz-adv-x="950" 
d="M317 84q3 -11 -5.5 -24.5t-28.5 -31.5q-21 -19 -40.5 -27t-37.5 -5t-31.5 8.5t-22.5 13.5q-10 6 -16 14.5t-7 19.5q-2 9 -2.5 18.5t-0.5 20.5v17v14q0 9 2 22.5t7 31.5q3 16 8.5 35.5t13.5 40.5q2 9 4 17.5t4 17.5q0 3 0.5 6.5t1.5 7.5t1.5 7.5t1.5 7.5q2 9 4 17.5
t5 15.5q1 6 4 11t6 9q1 6 2.5 12t3.5 12t3.5 11.5t3.5 11.5q1 5 2 9.5t2 9.5l2 8l2 8q2 6 7 10.5t13 7.5q7 1 14 1.5t15 -0.5q9 -3 15.5 -6t11.5 -7q3 -5 5 -11t2 -13q0 -8 -1 -16l-2 -16q-2 -9 -5 -18.5t-6 -18.5l-2 -4t-3 -5l-2.5 -5t-2.5 -6q-5 -8 -8.5 -16t-6.5 -16
q-2 -3 -2 -5.5v-4.5q-1 -3 -1.5 -7t-0.5 -7q-3 -7 -5.5 -13.5t-5.5 -13.5q-3 -6 -5.5 -13t-5.5 -14q-7 -15 -11.5 -29t-7.5 -26q-1 -5 -2 -8.5t-2 -7.5t-2 -7.5t-1 -6.5q-2 -4 -3.5 -8t-2.5 -8l-2 -8t-2 -7q-7 -20 0.5 -30.5t29.5 -12.5q12 -2 22.5 -2t19.5 2q8 0 15 3.5
t13 9.5q6 8 12.5 7t13.5 -11v0z" />
    <glyph glyph-name="kappa" unicode="&#x3ba;" horiz-adv-x="950" 
d="M462 400q-1 -11 -5.5 -18.5t-11.5 -13.5q-9 -6 -17.5 -9.5t-16.5 -3.5q-12 -1 -21 2t-13 10h1q-5 9 -13 11t-20 -2q-6 -3 -12.5 -13t-12.5 -27q-6 -9 -10.5 -16t-6.5 -13q-3 -6 -6 -11t-5 -8q-6 -9 -11.5 -15t-11.5 -9q-8 -4 -13 -7t-8 -5l-2 -2t-2 -1q-2 -2 -3 -2.5
l-1 -0.5q2 -3 4.5 -5.5t6.5 -5.5l6.5 -6.5t8.5 -7.5q7 -9 11.5 -20.5t4.5 -26.5q0 -27 1 -45.5t4 -28.5q2 -11 9.5 -16t19.5 -5q19 0 34 9.5t24 30.5q5 18 13 23.5t20 -0.5q5 -6 5 -18.5t-5 -31.5q-9 -21 -18.5 -36.5t-18.5 -24.5q-11 -9 -23.5 -15.5t-25.5 -10.5
q-15 -6 -29 -6.5t-28 4.5q-21 6 -32.5 18.5t-14.5 32.5q-3 9 -4 19.5t-1 21.5q-2 10 -2 20.5v21.5q0 5 -0.5 10.5t-0.5 12.5q0 6 -0.5 13t-0.5 15q-3 16 -11.5 24.5t-22.5 8.5h-24q-1 -2 -1.5 -4.5t-0.5 -5.5q-1 -4 -2.5 -6.5t-4.5 -2.5q-2 -5 -3 -9t-1 -8q-1 -3 -2 -5.5
t-2 -5.5t-2 -5.5t-1 -5.5q-3 -10 -5 -19t-3 -18q-3 -10 -5 -19.5t-3 -18.5q-3 -10 -6 -19t-6 -17q-3 -5 -5 -9t-3 -8l-3.5 -7t-2.5 -6q-4 -14 -15.5 -16.5t-30.5 5.5q-9 3 -12.5 10t-3.5 18q0 7 1 14.5t4 15.5q3 10 6.5 23.5t7.5 28.5q3 15 8.5 31.5t14.5 36.5l9 30
q0 -3 0.5 -1.5l2.5 7.5q0 2 0.5 4t0.5 4t0.5 4t1.5 5q0 2 0.5 6.5t2.5 11.5q0 6 1.5 11.5t4.5 11.5q3 11 7.5 23t9.5 24q3 11 6.5 22.5t6.5 23.5q1 12 3.5 27.5t7.5 33.5q7 15 17 22t23 5q19 -3 29 -11t10 -22q0 -3 -0.5 -6t-0.5 -6t-0.5 -6t-0.5 -6q-2 -8 -4 -17t-5 -19
q-2 -2 -3 -3.5t-1 -4.5q-2 -4 -3.5 -8t-2.5 -7q-1 -2 -2 -3.5t-2 -3.5l-2 -4t-2 -3q-3 -5 -5.5 -9.5t-2.5 -7.5q-3 -8 -4.5 -14.5t-1.5 -12.5q-2 -7 -2 -10v-3h27q13 0 25 6t23 20q9 12 20.5 29.5t25.5 38.5q12 26 26 45.5t29 31.5q13 12 29.5 15.5t36.5 0.5q9 -3 18.5 -7.5
t18.5 -11.5q8 -9 12 -20t4 -25v0z" />
    <glyph glyph-name="lambda" unicode="&#x3bb;" horiz-adv-x="950" 
d="M412 12q-8 -9 -15.5 -12.5t-15.5 -3.5q-7 0 -13 6t-12 18q-9 9 -15.5 21t-10.5 27q-5 14 -11 29t-12 32q-4 12 -7 26t-4 30q-3 15 -3.5 30t-0.5 31q-1 18 -1 35v35q-1 16 -1 29.5v24.5q-4 -6 -7.5 -12.5t-8.5 -14.5q-4 -7 -8.5 -15.5t-9.5 -17.5l-24 -40t-24 -41
q-5 -10 -9.5 -19.5t-8.5 -19.5q-5 -9 -9 -18.5t-8 -18.5q-9 -20 -16 -36.5t-11 -28.5q-9 -25 -19.5 -43t-20.5 -28q-12 -12 -25 -17t-27 -4q-11 4 -16 13t-5 21q0 3 0.5 7t2.5 10q0 4 1.5 9.5t4.5 11.5q3 14 9 27.5t14 27.5q3 6 6 11.5t6 10.5q2 5 4.5 9.5t5.5 9.5l14 22
l14 22l14 22t15 23q13 21 29.5 44.5t34.5 48.5q36 46 56.5 72.5t25.5 32.5l1 4t1 11v13.5v16.5q0 24 -8.5 43t-23.5 33q-6 6 -12 11t-13 10q-9 3 -15.5 6t-11.5 6q-2 0 -4 1.5t-5 4.5q-3 0 -5 1l-4 2l-4 2t-3 2q-5 1 -8 5t-4 11q-3 6 -3.5 11.5t-0.5 11.5q0 9 2.5 17t8.5 15
q9 7 17.5 11t16.5 4q11 0 22 -4.5t23 -12.5q24 -18 41.5 -39t28.5 -44q9 -34 12.5 -61t2.5 -48q-1 -5 -1 -8.5v-6.5t-0.5 -5t-0.5 -3v-3.5v-2.5v-5.5v-5.5q-1 -3 -1 -6v-4q-1 -3 -1 -5v-2v-2.5t0 1.5q-1 -5 -1 -10v-11v-16v-17v-12v-12q-1 -7 -1 -14.5v-15.5q-1 -21 0.5 -41
t6.5 -38q3 -19 9.5 -37t15.5 -34q4 -17 10 -32t14 -27q6 -14 12 -26t12 -21q2 -9 3.5 -18t1.5 -16q0 -8 -2.5 -14.5t-6.5 -12.5v0z" />
    <glyph glyph-name="uni03BC" unicode="&#x3bc;" horiz-adv-x="950" 
d="M464 74q0 -18 -6.5 -31.5t-19.5 -22.5q-15 -12 -31 -16t-31 2q-6 3 -13 8t-14 14q-9 7 -14 14t-6 15q-3 -3 -5.5 -5t-4.5 -4q-3 -2 -5.5 -4t-5.5 -4q-7 -6 -13 -10.5t-11 -7.5t-10 -5t-9 -3q-5 -2 -9 -3.5t-8 -2.5q-9 -3 -19 -4.5t-22 -1.5q-18 0 -33 3.5t-26 12.5
q-12 7 -20 14.5t-11 15.5q-3 -9 -7 -20.5t-8 -24.5q-5 -14 -8.5 -30.5t-5.5 -35.5q-2 -12 -4 -21.5t-4 -16.5q-3 -7 -7 -12.5t-7 -9.5l-7 -3.5t-5 -3.5q-3 -1 -5 -2t-3 -1q-4 -1 -7.5 -1t-6.5 2q-5 1 -9 5.5t-7 10.5q-5 7 -7 14t-2 15q0 12 3.5 26.5t11.5 30.5q8 21 17 39
t18 34q12 15 19.5 32.5t9.5 35.5v2t1 4q0 3 1 6.5t2 8.5q0 4 1 9.5t2 11.5t2 12.5t3 14.5q0 1 0.5 3t1.5 5q0 1 1 3.5t4 5.5q3 19 6.5 37.5t7.5 36.5q1 8 2.5 16t2.5 16t2.5 15.5t3.5 15.5q3 10 7.5 22t11.5 26q3 6 5.5 12t5.5 13t6 13.5t6 14.5q9 12 17 20.5t17 12.5
q7 3 16 1.5t20 -6.5q1 -3 2 -5t1 -4q1 -2 2 -3.5t2 -2.5q0 -4 1 -8.5t1 -9.5q0 -3 -0.5 -6.5t-0.5 -6.5q0 -4 -0.5 -7.5t-0.5 -7.5q-2 -9 -4 -18.5t-5 -18.5q-10 -20 -17.5 -37t-11.5 -32q-6 -16 -11.5 -29.5t-9.5 -23.5l-22 -49.5t-17 -40.5q-9 -20 -13.5 -32.5t-4.5 -18.5
q3 -8 10 -15.5t19 -16.5q3 -6 9 -9.5t15 -4.5q8 -2 15.5 -2t14.5 2q18 4 33 12.5t26 20.5q10 11 18 23t14 26q4 6 8 15.5t7 21.5q1 5 2.5 11t2.5 13t2.5 14t3.5 15q3 15 7 30t9 30q4 13 7.5 25.5t6.5 24.5q2 9 5 20t8 23q3 11 9 22.5t15 23.5q10 22 24 29t31 -2q6 -3 9 -11
t3 -22q0 -12 -2.5 -26t-6.5 -30q-10 -40 -22 -74t-25 -62q-3 -5 -5 -9.5t-4 -9.5q-3 -5 -5 -9.5t-4 -8.5q-6 -11 -10.5 -21t-7.5 -19q-8 -21 -9 -36t4 -22q4 -9 12.5 -13.5t20.5 -4.5q6 0 13.5 3t15.5 10q9 7 15.5 9.5t9.5 0.5q3 -3 4.5 -9.5t2.5 -15.5v0z" />
    <glyph glyph-name="nu" unicode="&#x3bd;" horiz-adv-x="950" 
d="M408 463q4 -2 6.5 -12.5t2.5 -29.5v-15.5v-16.5q0 -10 -1 -20.5t-2 -21.5q-8 -57 -27 -104.5t-49 -84.5q-33 -47 -76 -80t-95 -53q-48 -20 -76.5 -24.5t-35.5 4.5v-1q-4 6 -0.5 18.5t14.5 30.5q4 8 8 20t9 28q3 15 9 33t14 39q4 18 7.5 35t6.5 35q0 8 1 15t1 13
q1 6 1.5 11.5t0.5 10.5v18v18q-2 8 -2.5 15.5t-0.5 15.5q-3 9 -4.5 17.5t-1.5 17.5q-2 7 -3.5 15t-1.5 16q-2 13 3 23t17 16q16 4 28 -4t20 -27q12 -21 18 -47.5t5 -57.5q-1 -6 -2 -11.5t-2 -12.5q-1 -6 -2 -13l-2 -14q-3 -17 -8.5 -33t-11.5 -31q-5 -18 -8.5 -33t-5.5 -27
q-2 -4 -3 -7.5t-2 -7.5q-1 -3 -2 -6.5t-1 -6.5q-2 -4 -3 -7.5t-1 -6.5q-1 -3 -2 -5.5t-1 -4.5q6 2 13.5 5.5t16.5 9.5q9 4 17.5 9.5t17.5 13.5q12 6 23.5 14.5t23.5 18.5q10 9 19.5 19t17.5 22q19 24 33.5 46.5t25.5 45.5q9 21 14.5 42t7.5 42q2 39 9.5 57t21.5 16v0z" />
    <glyph glyph-name="xi" unicode="&#x3be;" horiz-adv-x="950" 
d="M424 538q-4 -17 -21.5 -23t-47.5 0q-33 4 -63 6.5t-55 2.5q-12 0 -21.5 -1.5t-17.5 -3.5q-9 -3 -16 -6.5t-13 -7.5q-5 -6 -9 -12t-7 -12q-4 -8 -5.5 -17t0.5 -18q2 -29 15.5 -41t39.5 -9q22 3 42.5 4.5t38.5 1.5q20 0 40 -3.5t40 -9.5q19 -7 28 -19t8 -29
q-5 -16 -19.5 -23t-38.5 -4q-26 1 -49.5 4t-45.5 8q-36 4 -65.5 -6.5t-51.5 -35.5q-9 -13 -15.5 -26.5t-12.5 -28.5q-7 -16 -9.5 -32.5t0.5 -33.5q6 -45 35 -66t80 -18q23 0 41.5 -5.5t32.5 -15.5q12 -11 21 -26.5t14 -35.5q0 -21 -3.5 -38t-11.5 -30q-9 -12 -24 -22
t-36 -17q-18 -6 -33.5 -9t-27.5 -3t-19 5t-8 16q-3 13 7.5 20t33.5 8q26 1 39.5 12t15.5 32q0 17 -10.5 25.5t-31.5 10.5q-9 0 -18 1t-18 3q-9 1 -19 3.5t-20 6.5q-29 9 -48.5 24t-30.5 36q-9 24 -12.5 47.5t-2.5 46.5q0 39 10 69t28 53q6 9 14 18.5t17 18.5q9 8 16.5 14.5
t15.5 11.5q-5 3 -8 8.5t-5 11.5q-2 2 -3.5 5t-3.5 6q-2 4 -4 7.5t-4 7.5q-8 8 -11 18.5t-3 22.5v7.5t1 9.5q0 3 2 7.5t5 9.5q5 21 12.5 35t16.5 22q7 3 12.5 6t10.5 7q3 3 5.5 6.5t3.5 7.5q0 1 2.5 14.5t5.5 38.5q3 22 21 40.5t51 33.5q14 6 28.5 8t29.5 1q10 -1 17 -3.5
t10 -5.5q3 -5 4.5 -10.5t3.5 -11.5q0 -8 -2.5 -12.5t-8.5 -6.5q-8 -3 -18.5 -4t-24.5 1q-18 1 -31.5 -1t-21.5 -7q-9 -6 -13.5 -16t-2.5 -22q0 -12 8 -15.5t25 1.5q16 3 36.5 5.5t46.5 3.5q16 0 34 -4t36 -13q14 -6 19 -16t2 -25v0z" />
    <glyph glyph-name="omicron" unicode="&#x3bf;" horiz-adv-x="950" 
d="M432 178q-6 -24 -15 -45.5t-20 -39.5q-12 -20 -28.5 -36t-35.5 -28q-14 -9 -27 -15.5t-25 -9.5q-14 -5 -26.5 -7t-24.5 -2q-14 0 -27.5 1.5t-27.5 4.5q-20 5 -37 15t-32 25q-16 14 -29.5 30.5t-25.5 36.5q-5 12 -8.5 25.5t-5.5 28.5q-3 13 -4.5 27t-1.5 28q0 15 2 32
t7 38q12 48 35.5 85.5t59.5 64.5q27 18 54.5 27t56.5 9q9 0 21.5 -2.5l27.5 -5.5q20 -6 38.5 -16t35.5 -23q16 -14 28 -31t20 -38q6 -15 11 -28.5t10 -25.5q3 -14 5.5 -28t2.5 -29q0 -17 -4 -33.5t-10 -34.5v0zM344 199q9 28 14 55t5 53v8v8q-1 3 -1.5 7.5t-0.5 10.5
q-3 15 -9 27.5t-15 23.5q-11 10 -22.5 18.5t-24.5 15.5q-7 1 -15.5 2.5t-18.5 1.5q-21 0 -38 -9.5t-30 -27.5q-21 -26 -37 -57.5t-26 -68.5q-6 -27 -9 -53.5t-3 -50.5q0 -11 0.5 -21.5t2.5 -20.5q2 -15 8 -27.5t16 -22.5q9 -11 19.5 -19t22.5 -14q8 -2 15.5 -2h14.5
q21 0 40 9t36 28q7 12 15 26t16 31q7 15 13 32t12 37v0z" />
    <glyph glyph-name="pi" unicode="&#x3c0;" horiz-adv-x="950" 
d="M465 431q-1 -5 -1.5 -9.5t-1.5 -8.5q-1 -3 -1.5 -6.5t-0.5 -5.5q-3 -6 -6 -10t-7 -6q-5 -3 -10 -5t-10 -2q-6 -2 -11.5 -2h-11.5h-6.5t-6.5 1h-8t-6 1q-6 0 -13 1t-14 1q-9 0 -13 -2.5t-4 -6.5q-1 -3 -2 -6.5t-2 -8.5t-2 -11.5t-2 -13.5q-2 -9 -4.5 -18.5t-4.5 -20.5
q-3 -11 -5.5 -23t-5.5 -25q-7 -53 -9.5 -86.5t0.5 -47.5q9 -28 21.5 -37.5t30.5 -0.5q9 3 14.5 3.5t8.5 -1.5l2.5 -7.5t1.5 -10.5q-3 -16 -13 -26.5t-27 -14.5q-16 -7 -28 -8.5t-20 2.5q-23 6 -35 18.5t-15 30.5q-2 9 -2.5 17t-0.5 17q-2 7 -2 13.5t1 12.5q0 9 2 21.5
t5 30.5q1 8 2 17.5t3 20.5q1 10 2.5 22t3.5 25q11 51 16.5 81.5t5.5 41.5q0 2 -3 3.5t-8 3.5h-14h-17q-12 -1 -19.5 -2t-11.5 -1q-6 -2 -9 -3.5t-3 -2.5q-5 -8 -8.5 -18.5t-6.5 -23.5q-3 -15 -6 -32.5t-4 -36.5q-5 -22 -9.5 -42.5t-8.5 -38.5q-3 -10 -5.5 -19.5t-5.5 -17.5
q-2 -9 -4.5 -17.5t-4.5 -15.5q-7 -27 -18 -48.5t-26 -37.5q-18 -18 -32 -20.5t-26 9.5q-5 1 -9 8t-7 19q-4 9 2 25t21 38q1 2 2.5 4.5t3.5 5.5q1 1 2.5 4.5t3.5 8.5q3 4 6 9.5t7 11.5q3 6 7 12.5t9 13.5q7 12 14.5 27.5t14.5 33.5q4 6 8 14.5t7 18.5q3 9 5 20t5 26
q4 25 5.5 38.5t1.5 16.5q-2 3 -4 4.5t-3 2.5q-2 0 -3.5 -0.5t-3.5 -0.5h-5h-5q-8 -1 -13.5 -2t-8.5 -2q-4 -2 -7.5 -3.5t-6.5 -2.5q-15 -7 -24 -15t-13 -17q-3 -5 -9.5 -3t-16.5 10q-5 3 0.5 18.5t21.5 44.5q5 12 15.5 22t27.5 16q15 5 30.5 8.5t31.5 6.5q7 -3 16 -3.5
t21 -0.5q10 -1 21 -1h23h114q15 0 30 0.5t29 3.5q13 1 25 3t23 5q15 3 21.5 -5.5t5.5 -29.5v0z" />
    <glyph glyph-name="rho" unicode="&#x3c1;" horiz-adv-x="950" 
d="M459 187q-5 -23 -12.5 -43t-18.5 -37q-12 -18 -27.5 -34t-33.5 -28q-25 -18 -52 -26t-55 -8q-11 0 -23.5 1.5t-25.5 5.5q-21 5 -38 15.5t-30 25.5q-15 14 -27 29.5t-22 32.5h-5q-2 -9 -2 -20v-23q-1 -14 -1 -27v-26v-16.5t1 -14.5v-15.5v-14.5v-21.5v-21.5
q-2 -11 -3 -21.5t-1 -22.5q-2 -22 -12 -31.5t-28 -5.5q-18 3 -26.5 19.5t-8.5 49.5q0 15 1.5 31.5t6.5 35.5q3 18 6.5 40t8.5 47q3 22 7 44l8 44q3 21 7.5 41t11.5 38q2 9 4 17t4 15q1 7 2.5 14t3.5 13q1 10 2.5 17.5t3.5 12.5q6 18 16.5 35.5t24.5 33.5q12 15 26 27.5
t29 23.5q13 6 26 11.5t26 10.5q12 3 24.5 5.5t26.5 2.5q1 0 3.5 -0.5t4.5 -0.5h6h6q6 -1 11.5 -2t11.5 -2q19 -6 37 -15.5t33 -22.5q14 -15 27 -31t25 -34q4 -12 7.5 -25.5t6.5 -26.5q2 -15 3.5 -27.5t1.5 -24.5q0 -18 -2.5 -35t-6.5 -35v0zM380 213q2 10 4 20.5t4 21.5
q1 9 2 19.5t1 21.5q0 3 -0.5 6t-0.5 6v6v6q-1 4 -2 10.5t-1 14.5v-1q-6 33 -22 53.5t-42 29.5q-30 8 -56.5 -0.5t-48.5 -32.5q-9 -12 -18 -25t-16 -28q-9 -16 -15 -32t-9 -32q-6 -21 -8 -41.5t-2 -41.5q0 -16 0.5 -29t3.5 -23v1q6 -34 22.5 -55t43.5 -28q30 -8 56 0.5
t48 34.5q21 25 35 54.5t21 63.5v0z" />
    <glyph glyph-name="sigma" unicode="&#x3c3;" horiz-adv-x="950" 
d="M415 466q16 -7 22 -16.5t3 -21.5q-6 -14 -16.5 -18.5t-25.5 0.5q-6 0 -11 1t-8 2h-11t-12 1q-3 0 -5 1t-4 1q-2 1 -3.5 1.5t-2.5 1.5q-3 0 -5.5 0.5t-3.5 1.5q-7 0 -13.5 0.5t-11.5 1.5q-5 0 -10 0.5t-8 1.5q-9 0 -16.5 -1.5t-13.5 -2.5l1 -8h2h5h3h4q2 -1 5 -1h6
q2 0 4 -1t5 -1q7 -2 13 -3t10 -2t7 -1.5t5 -0.5q40 -25 62.5 -56.5t27.5 -70.5q1 -11 2 -21t1 -19q0 -30 -7 -60.5t-19 -60.5q-11 -20 -23.5 -36t-26.5 -29q-15 -15 -31.5 -26t-34.5 -18t-35 -10t-34 -3q-21 0 -41 5t-39 17q-30 18 -51.5 46t-33.5 66q-3 7 -3.5 15t-0.5 16
v14.5v15.5q0 21 3 43.5t10 46.5q3 4 10 17t18 34q4 12 11 23.5t18 23.5q9 10 21.5 22t29.5 24q13 11 28.5 20t33.5 16q16 6 35.5 9t41.5 5h8h7q4 0 6.5 0.5t5.5 0.5h9h11q25 0 41.5 -2t24.5 -5v0zM329 159q15 27 23.5 56.5t10.5 61.5q1 30 -10 52t-35 36q-14 6 -25 9t-20 3
q-15 0 -30.5 -5.5t-30.5 -15.5q-23 -18 -42.5 -41t-35.5 -53q-6 -15 -10.5 -29.5t-7.5 -29.5q-5 -16 -7.5 -31.5t-2.5 -30.5q-4 -32 8 -54t39 -35q8 -8 18.5 -11t24.5 -3q11 0 24.5 6t29.5 18q22 19 41.5 43t37.5 54v0z" />
    <glyph glyph-name="tau" unicode="&#x3c4;" horiz-adv-x="950" 
d="M450 431q-2 -10 -4 -17.5t-5 -11.5q-5 -6 -9 -10t-8 -7t-8.5 -5t-8.5 -2q-6 -2 -12.5 -2h-13.5t-23 1.5t-40 4.5q-27 1 -41.5 0t-16.5 -5q-3 -8 -12 -32.5t-23 -66.5q-2 -3 -3 -6t-1 -6q-1 -2 -2 -4.5t-1 -4.5l-3.5 -10.5l-2.5 -7.5q-3 -12 -5 -22.5t-5 -19.5
q-2 -5 -3.5 -9t-1.5 -6l-1.5 -4.5l-0.5 -1.5q-7 -17 -10 -30.5t-3 -24.5q0 -18 6 -28.5t20 -13.5q5 -1 14 -1h21h16.5t20.5 1q16 4 24.5 0.5t8.5 -15.5q-3 -18 -15.5 -30.5t-33.5 -19.5q-10 -5 -19 -8t-18 -5q-10 -3 -17.5 -4t-11.5 -1q-33 3 -51.5 13.5t-24.5 28.5
q-9 19 -10.5 38t3.5 38q2 11 5.5 26t9.5 34q4 18 12 39.5t20 47.5q18 50 26.5 79.5t7.5 38.5q-2 3 -14.5 3.5t-34.5 -0.5q-26 -3 -42 -6.5t-22 -7.5q-13 -7 -21.5 -14t-12.5 -14q-4 -6 -8.5 -6.5t-8.5 5.5q-9 3 -6.5 20t17.5 47q15 28 43 41t69 12l1 -0.5t2 -0.5t2 -0.5
t3 -0.5q1 -2 2.5 -2h2.5q12 -1 25.5 -1h28.5h29.5h36.5h33q18 0 33 0.5t29 3.5q12 1 21.5 3t15.5 5q16 3 23.5 -5.5t6.5 -29.5v0z" />
    <glyph glyph-name="upsilon" unicode="&#x3c5;" horiz-adv-x="950" 
d="M430 321q-4 -17 -9 -34.5t-11 -35.5q-8 -19 -17 -39.5t-20 -42.5q-24 -45 -55 -79.5t-68 -58.5q-9 -8 -19.5 -13.5t-22.5 -8.5q-14 -5 -25 -6.5t-20 -1.5q-20 0 -38 4.5t-35 15.5q-18 11 -30.5 24t-18.5 28q-8 13 -11 28.5t0 32.5q1 17 4 35.5t7 38.5q3 18 8.5 39.5
t14.5 45.5q8 30 12.5 59.5t6.5 59.5q0 27 10 41t31 14q21 -2 32 -15.5t11 -37.5q0 -23 -3.5 -44t-9.5 -41q-9 -15 -15.5 -31.5t-12.5 -33.5q-7 -18 -15.5 -37.5t-18.5 -40.5q-6 -18 -8 -32.5t-2 -26.5q0 -20 8 -36t25 -29q8 -8 18.5 -11.5t24.5 -3.5q10 0 23.5 5t30.5 16
q15 9 28.5 20t25.5 26q11 13 19.5 27.5t14.5 31.5q18 36 30.5 67.5t21.5 59.5q7 27 9 49t-1 39q-3 7 -3.5 13t-0.5 12q0 18 6.5 26t21.5 8q12 -1 21 -10.5t17 -27.5q7 -12 11.5 -25.5t4.5 -27.5q0 -5 -1 -9l-2 -8q-1 -3 -2 -5.5t-1 -4.5q-1 -2 -1.5 -4.5t-0.5 -3.5v0z" />
    <glyph glyph-name="phi" unicode="&#x3c6;" horiz-adv-x="950" 
d="M440 192q-12 -44 -34.5 -77.5t-55.5 -55.5q-30 -24 -64 -34t-73 -5q-3 -12 -4 -23.5t-1 -22.5q-2 -11 -3.5 -21.5t-2.5 -21.5q-5 -22 -11.5 -36t-13.5 -20q-9 -6 -18.5 -7t-21.5 3q-6 0 -10 2t-4 6q-2 4 -2.5 9t-0.5 11q0 5 0.5 11t2.5 14q0 7 1.5 14.5t3.5 15.5
q1 6 2.5 12t3.5 12q1 6 2.5 11t3.5 8q3 5 5 10.5t4 11.5q0 2 0.5 4t1.5 5q1 2 1.5 4t1.5 5q-15 6 -28 15.5t-24 21.5q-12 12 -23.5 27t-23.5 34q-11 23 -16 48t-5 52q0 15 1.5 32t6.5 35q4 21 11.5 40.5t19.5 36.5q10 16 23.5 29.5t29.5 24.5q33 19 64 29t60 10
q15 -1 22 -5.5t6 -12.5q-3 -9 -12 -14.5t-24 -7.5q-20 -3 -38 -13.5t-34 -28.5q-18 -20 -29 -47t-17 -63q-5 -21 -7 -40.5t-2 -37.5q0 -41 12 -71.5t37 -51.5q1 14 4 28t7 29q3 13 7.5 27t10.5 29l13 52q1 9 2.5 17t2.5 16q1 7 2.5 13t3.5 12q2 9 3.5 14.5t2.5 7.5
q10 31 24.5 56t32.5 43q9 10 20 16t26 6q4 0 12.5 -3t20.5 -8v1q21 -16 38 -41t30 -58q6 -11 10 -21.5t7 -20.5q0 -6 1 -11.5t1 -10.5q1 -5 1.5 -10.5t0.5 -9.5q0 -14 -2.5 -29t-5.5 -31v0zM359 212q7 27 11 50.5t4 44.5q0 31 -10.5 57t-29.5 46q-17 10 -29.5 -2.5
t-20.5 -48.5q-6 -18 -10.5 -33t-7.5 -27q-5 -14 -8 -25.5t-4 -20.5l-35 -195q15 1 27.5 5t23.5 11q10 6 18.5 14t15.5 19q10 9 18 21t14 26q4 13 10 27.5t13 30.5v0z" />
    <glyph glyph-name="chi" unicode="&#x3c7;" horiz-adv-x="950" 
d="M438 453q6 -8 9 -14.5t3 -12.5q0 -8 -3 -15t-9 -14q-13 -16 -26.5 -28t-27.5 -20v1q-8 -6 -22 -20l-35 -35q-12 -11 -21.5 -20t-15.5 -17q-4 -5 -7.5 -9.5t-7.5 -8.5l-7.5 -7.5l-6.5 -6.5q1 -12 3.5 -22.5t6.5 -19.5q1 -6 2.5 -11.5t2.5 -10.5t2.5 -10.5t3.5 -10.5
q4 -26 13.5 -41t24.5 -21q12 -6 24.5 -2.5t26.5 15.5q8 10 15.5 12.5t14.5 -3.5q4 -7 -1 -21t-19 -35q-11 -23 -23 -35t-27 -14q-13 -1 -25 1.5t-22 8.5q-6 3 -12 8t-11 14q-6 7 -10 16.5t-6 21.5q-3 6 -6 16.5t-6 24.5q-3 6 -5.5 13t-4.5 14q-2 6 -4.5 13t-4.5 15
q-4 -7 -9.5 -14.5t-12.5 -14.5q-8 -9 -14.5 -16.5t-10.5 -13.5t-8.5 -12t-8.5 -11q-3 -3 -5 -5.5t-4 -4.5q-1 -2 -2.5 -3.5l-1.5 -1.5q-3 -4 -5 -7l-4 -6l-4 -6l-4 -6q-5 -7 -12.5 -14t-16.5 -13q-6 -9 -12.5 -13t-12.5 -4q-9 0 -15 4t-9 13q-9 12 -9 24t9 24
q10 12 21.5 25.5t25.5 27.5l1 1l3 3l1 0.5t3 2.5q9 6 19.5 16t24.5 23l28 28t34 37q-3 10 -5.5 21.5t-3.5 25.5q-2 6 -3.5 12t-3.5 12q-1 7 -3 13.5t-4 13.5q-5 26 -11.5 42.5t-13.5 22.5q-15 6 -27 5t-21 -10q-12 -9 -18 -11.5t-6 0.5q-6 7 -2.5 22t15.5 37q14 21 32 31.5
t39 10.5q20 -2 34 -10.5t22 -24.5q6 -9 9.5 -17t6.5 -15q0 -5 1 -8.5t1 -7.5q1 -3 1.5 -6t0.5 -6v-8t1 -7q0 -5 0.5 -10t2.5 -11q0 -7 0.5 -14t1.5 -13v-8v-7q0 -4 0.5 -7.5t0.5 -6.5l6 8t7 9q3 4 7 9l8 10l12 18t11 18q6 6 10.5 11t8.5 10q1 2 2.5 4t2.5 4t2 3.5t3 3.5h-1
l2 2t2 3v1v2q6 9 13 18t15 17q6 7 12.5 13t12.5 12q13 8 26 5.5t26 -14.5v0z" />
    <glyph glyph-name="psi" unicode="&#x3c8;" horiz-adv-x="950" 
d="M444 472q15 0 20 -4t2 -13q-4 -7 -12.5 -14.5t-20.5 -15.5h5q-21 -12 -34.5 -46.5t-19.5 -90.5q-3 -54 -18 -97.5t-40 -76.5q-11 -11 -21.5 -19.5t-19.5 -14.5q-11 -8 -20.5 -14t-17.5 -10q-14 -6 -25.5 -9.5t-21.5 -5.5q-12 -3 -21 -5.5t-16 -2.5q-3 -9 -4.5 -17.5
t-2.5 -17.5q-1 -5 -2 -9.5t-1 -8.5q-1 -4 -1.5 -8t-0.5 -7q-3 -22 -9.5 -40t-16.5 -31q-13 -15 -24.5 -20.5t-20.5 -2.5q-18 6 -25.5 16.5t-4.5 25.5q0 10 3 19.5t8 18.5q3 9 7.5 18.5t10.5 20.5l-1 -1l2 6t2 7t2.5 7.5t3.5 8.5l0.5 1t0.5 2q1 1 1.5 2.5t1.5 3.5q0 3 1 5
t3 5q-12 3 -23.5 9.5t-23.5 15.5q-12 8 -22.5 21.5t-17.5 33.5q-5 12 -7 25t-2 28q0 25 7.5 54.5t24.5 63.5q2 8 4 15.5t4 14.5q2 8 4 14.5t4 13.5q3 12 4.5 23t1.5 20q0 12 -3 21t-9 15q-11 6 -15.5 13t-2.5 16q0 10 8 14.5t24 3.5q9 -1 15.5 -3.5t11.5 -5.5q3 -5 7 -9
t8 -7q4 -6 7.5 -11.5t6.5 -11.5q0 -3 0.5 -6t1.5 -6q0 -3 0.5 -6t1.5 -5q3 -30 -2.5 -65t-20.5 -75q-8 -30 -11 -55t-3 -46q0 -9 0.5 -17t2.5 -14q0 -9 3.5 -16t9.5 -13q5 -7 9.5 -12.5t9.5 -8.5q2 8 4.5 15.5t4.5 15.5q3 7 5 14t4 13q1 5 2 9.5t2 7.5t1.5 5t1.5 3l0.5 2.5
t3.5 7.5q0 2 1 4.5t2 4.5l2 6l2 6q0 2 1 5t2 7q0 3 0.5 6t2.5 6q3 12 5.5 26.5t5.5 32.5q1 16 3.5 34t5.5 38q3 21 9 43t16 46q6 21 18 29.5t31 2.5q17 -8 24 -22t4 -34q-2 -10 -5 -20.5t-6 -20.5q-3 -6 -5 -12l-4 -12t-4 -11.5t-4 -10.5q-6 -20 -12 -36.5t-12 -30.5
q-7 -15 -11.5 -29t-6.5 -26q-8 -26 -12.5 -40t-4.5 -15t-1 -2.5t-1 -4.5l-2.5 -7.5t-2.5 -9.5q-3 -6 -5 -12.5t-4 -13.5l-4 -14l-4 -14q13 2 26 6.5t25 12.5q10 6 20 16.5t19 25.5q18 24 29.5 57.5t16.5 75.5q6 40 16.5 75t25.5 64q4 4 9 9.5t11 12.5q2 3 4.5 5.5t4.5 5.5
t4.5 5.5l5.5 5.5q7 3 14.5 6.5t14.5 8.5q6 3 13.5 5.5t17.5 3.5v0z" />
    <glyph glyph-name="omega" unicode="&#x3c9;" horiz-adv-x="950" 
d="M457 183q-15 -45 -32.5 -79.5t-38.5 -58.5q-21 -25 -45 -37t-49 -12q-8 0 -15 1.5t-13 6.5q-8 3 -14.5 7t-11.5 10q-9 4 -14.5 10t-8.5 12q-4 6 -7 11.5t-6 11.5q-6 -6 -13 -12t-15 -11q-9 -6 -20 -12t-23 -11q-3 -2 -6.5 -3.5t-6.5 -1.5q-5 -2 -9.5 -2.5t-9.5 -0.5
q-6 0 -12 1.5t-10 4.5q-6 2 -12.5 5.5t-13.5 8.5q-26 22 -38.5 60t-10.5 91q0 52 10 96t30 80q14 31 35.5 55t50.5 39q16 6 27 10t17 4q10 0 16.5 -5.5t9.5 -14.5q1 -7 -7.5 -18.5t-26.5 -26.5q-12 -9 -21.5 -22t-16.5 -29q-8 -18 -16 -39t-17 -46q-5 -17 -7.5 -33.5
t-2.5 -33.5q-2 -18 -2.5 -36t0.5 -34q0 -39 11.5 -55t32.5 -10q15 3 27 11.5t21 21.5q7 12 11.5 27t4.5 35q0 18 1 37t4 37q2 18 5.5 34.5t8.5 33.5q0 9 3.5 18.5t9.5 18.5q5 8 11 15.5t12 14.5q9 13 20 18.5t23 4.5q17 -6 22 -24.5t-1 -51.5q-2 -9 -3.5 -16.5t-2.5 -15.5
q-1 -7 -2 -13.5t-2 -12.5q-3 -13 -6 -23.5l-5 -17.5q-3 -5 -5.5 -10t-4.5 -10q-3 -5 -5.5 -10t-4.5 -10q-6 -11 -10 -22.5t-7 -23.5q-3 -9 -3.5 -18t-0.5 -17q0 -12 3 -21t9 -15q12 -8 22.5 -9.5t21.5 3.5q9 3 17.5 12t15.5 23q19 28 30 57t14 59q1 13 2.5 26.5t3.5 25.5
q0 6 0.5 11.5t0.5 11.5q0 5 0.5 10.5t0.5 11.5q0 12 -1 23t-1 22q-2 9 -4 18.5t-4 18.5q-3 14 -3.5 25.5t-0.5 20.5q0 10 1.5 18t5.5 14q16 11 32.5 -8.5t33.5 -69.5q8 -32 12.5 -62t4.5 -58q0 -21 -1.5 -41t-4.5 -39v0z" />
    <glyph glyph-name="uni0401" unicode="&#x401;" horiz-adv-x="950" 
d="M655 864q0 -8 -2.5 -15t-5.5 -13q-5 -8 -9 -14t-8 -10q-3 -6 -8.5 -10t-12.5 -7q-8 -4 -14.5 -5.5t-11.5 -1.5q-7 0 -14 1.5t-13 5.5q-8 3 -13.5 7t-8.5 10q-6 4 -10.5 10t-7.5 14q-5 6 -6.5 13t-1.5 15q0 7 1.5 14t6.5 15q3 6 7.5 11t10.5 10q3 6 8.5 11t13.5 8
q6 3 13 4.5t14 1.5q5 0 11.5 -1.5t14.5 -4.5q7 -3 12.5 -8t8.5 -11q2 -3 4 -5.5t4 -4.5q2 -3 4 -5.5t5 -5.5q3 -8 5.5 -15t2.5 -14v0zM438 864q0 -8 -2.5 -15t-5.5 -13q-5 -8 -8 -14l-5 -10q-6 -6 -12 -10t-13 -7q-8 -4 -14.5 -5.5t-10.5 -1.5q-9 0 -16.5 1.5t-12.5 5.5
q-6 3 -11 7t-9 10q-8 4 -12.5 10t-7.5 14q-3 6 -4.5 13t-1.5 15q0 7 1.5 14t4.5 15q3 6 7.5 11t12.5 10q4 6 9 11t11 8q5 3 12.5 4.5t16.5 1.5q4 0 10.5 -1.5t14.5 -4.5q7 -3 13 -8t12 -11q2 -5 5 -10t8 -11q3 -8 5.5 -15t2.5 -14v0zM737 -30h-516v764h503v-102h-394v-219
h378v-101h-378v-241h407v-101z" />
    <glyph glyph-name="uni0410" unicode="&#x410;" horiz-adv-x="950" 
d="M832 -29h-117l-66 189h-351q-7 -24 -14.5 -48t-16.5 -47q-5 -12 -9.5 -24t-8.5 -24q-5 -12 -9 -23.5t-8 -22.5h-113q36 98 72 195.5t72 195.5q34 96 71 194.5t76 197.5h131zM609 264l-138 357l-134 -357h272z" />
    <glyph glyph-name="uni0411" unicode="&#x411;" horiz-adv-x="950" 
d="M780 180q-3 -48 -23 -85.5t-56 -64.5q-39 -27 -81.5 -40.5t-90.5 -13.5h-312v770h507v-101h-395v-223h185q69 0 120 -18.5t83 -54.5q35 -37 50.5 -79t12.5 -90v0zM666 200q0 27 -10 48t-29 38q-21 15 -47 23.5t-57 8.5h-194v-239h187q37 0 65 8t47 25q18 16 27.5 38
t10.5 50v0z" />
    <glyph glyph-name="uni0412" unicode="&#x412;" horiz-adv-x="950" 
d="M788 180q-3 -48 -23.5 -86.5t-56.5 -66.5q-38 -28 -82 -42t-95 -14h-322v783h324q46 0 84.5 -13.5t70.5 -38.5q28 -27 44 -57.5t20 -65.5q0 -4 1 -8t1 -7v-9.5v-7.5q0 -28 -5.5 -51.5t-15.5 -41.5q-18 -24 -36.5 -41t-37.5 -26q19 -9 40.5 -24.5t45.5 -38.5
q23 -27 33.5 -63t9.5 -81v0zM637 543q0 24 -7.5 43.5t-22.5 34.5q-15 14 -39 21.5t-56 7.5h-190v-218h189q32 0 56 7.5t40 22.5q15 15 22.5 35t7.5 46v0zM669 202q0 12 -2 24.5t-5 24.5q-4 11 -11.5 20t-17.5 17q-8 9 -18 16.5t-23 13.5q-15 4 -31 7t-34 3h-205v-254h202
q19 0 35.5 2t31.5 8q13 4 23.5 11.5t18.5 16.5q10 8 17.5 18t11.5 22q3 11 5 23.5t2 26.5v0z" />
    <glyph glyph-name="uni0413" unicode="&#x413;" horiz-adv-x="950" 
d="M737 645h-403v-669h-104v770h507v-101z" />
    <glyph glyph-name="uni0414" unicode="&#x414;" horiz-adv-x="950" 
d="M792 -190h-109v156h-424v-156h-104v259h65q33 63 51 146t23 186q6 99 9 185t3 160h409v-677h77v-259zM611 69v576h-194q0 -11 -0.5 -23.5t-0.5 -26.5t-0.5 -29t-0.5 -31q-1 -18 -2 -36.5t-2 -37.5q0 -20 -1 -41t-2 -43q-3 -45 -8.5 -87t-13.5 -79q-9 -39 -22 -74t-29 -68
h276z" />
    <glyph glyph-name="uni0415" unicode="&#x415;" horiz-adv-x="950" 
d="M743 -29h-530v783h520v-104h-408v-224h385v-104h-385v-248h418v-103z" />
    <glyph glyph-name="uni0416" unicode="&#x416;" horiz-adv-x="950" 
d="M945 -29h-125l-225 336l-69 -113v-223h-109v221l-76 115q-12 -20 -24.5 -40.5t-27.5 -41.5q-15 -22 -28.5 -43.5t-25.5 -42.5q-8 -12 -15.5 -23t-14.5 -21q-7 -11 -14 -21.5t-13 -20.5q-8 -11 -14.5 -21.5t-13.5 -21.5q-7 -10 -13.5 -20t-12.5 -19h-124l282 434
q-30 43 -58.5 86t-55.5 87q-27 42 -55.5 86.5t-58.5 89.5h123l240 -372v372h109v-370q14 21 28.5 43.5t29.5 45.5q14 23 29.5 47t31.5 48q30 47 58.5 93.5t55.5 92.5h123l-220 -349z" />
    <glyph glyph-name="uni0417" unicode="&#x417;" horiz-adv-x="950" 
d="M725 188q0 -53 -18 -96t-52 -76q-38 -33 -85.5 -50t-105.5 -17q-54 0 -99 14t-81 41q-39 27 -58 67t-19 93h112q2 -25 12.5 -45.5t29.5 -35.5q18 -17 44 -24.5t61 -7.5q16 0 31 2.5t29 8.5q12 4 24.5 11.5t24.5 17.5q7 9 14 19.5t14 23.5q6 12 9 26t3 29q0 22 -6.5 41.5
t-21.5 37.5q-15 16 -31.5 27.5t-34.5 18.5q-11 3 -22 4.5t-22 2.5h-23.5h-21.5h-15v106q14 0 28 0.5t28 2.5q13 0 26 3.5t25 9.5q13 6 24.5 16.5t21.5 26.5q9 15 14 32.5t6 38.5q0 10 -1 20.5t-4 21.5q-3 9 -9 19t-13 20q-15 18 -40 28t-59 10q-18 0 -32 -2t-26 -5
q-12 -5 -21 -10t-14 -11q-9 -7 -15.5 -14.5t-10.5 -16.5q-6 -10 -9 -20.5t-3 -20.5h-111q1 45 18.5 81.5t52.5 63.5q36 27 79 41t91 14q54 0 96.5 -16.5t74.5 -48.5q35 -34 53 -72t18 -80q0 -39 -10 -70t-28 -53q-8 -12 -16 -21t-17 -15q-10 -8 -20 -13t-19 -8
q30 -12 53.5 -31t41.5 -44q17 -26 26 -55t9 -61v0z" />
    <glyph glyph-name="uni0418" unicode="&#x418;" horiz-adv-x="950" 
d="M762 -29h-104v600l-5 1q-22 -39 -43 -77t-42 -75q-21 -38 -42 -75t-41 -74q-21 -38 -42.5 -75.5t-42.5 -74.5q-21 -38 -42 -75.5t-42 -74.5h-137v783h112v-601l1 -1q21 37 42 75t42 75q21 38 42.5 75.5t42.5 75.5q42 74 84 149t85 152h132v-783z" />
    <glyph glyph-name="uni0419" unicode="&#x419;" horiz-adv-x="950" 
d="M638 899q-5 -15 -11 -27.5t-13 -23.5q-9 -12 -17.5 -22.5t-16.5 -18.5q-14 -10 -27 -17t-26 -10q-14 -5 -28 -7t-28 -2q-29 0 -54 9t-47 27q-23 18 -39.5 40.5t-26.5 51.5h78q8 -15 18 -25.5t22 -16.5q11 -8 23 -11t26 -3t27.5 3t25.5 11q11 6 21 16.5t19 25.5h74z
M760 -29h-103v594l-5 1q-42 -77 -84 -152t-83 -147l-42 -74l-42 -74t-41.5 -74t-41.5 -74h-136v775h110v-595l2 -1q21 37 41.5 74.5t41.5 74.5l42 74t42 75q41 73 83 148l84 150h132v-775z" />
    <glyph glyph-name="uni041A" unicode="&#x41a;" horiz-adv-x="950" 
d="M800 -29h-132l-292 377l-1.5 -1.5t-0.5 -1.5t-0.5 -1.5l-0.5 -0.5l-1.5 -3t-1.5 -2t-1.5 -2l-0.5 -1l-4 -4l-4 -4t-4.5 -4t-4.5 -4q-6 -5 -11.5 -10t-8.5 -11q-9 -10 -16.5 -17.5l-12.5 -12.5l-10 -10l-5 -5v-282h-113v783h113v-358q6 7 20 23t37 40q21 22 49 51t64 65
q63 68 103 113t58 66h133q-8 -12 -20 -28t-30 -36q-18 -21 -41.5 -47t-51.5 -56q-6 -5 -10 -8t-7 -6q-4 -4 -6.5 -7.5t-2.5 -6.5q-12 -13 -23.5 -25t-21.5 -22q-10 -11 -19 -20.5t-17 -17.5q-18 -18 -29 -30t-15 -19z" />
    <glyph glyph-name="uni041B" unicode="&#x41b;" horiz-adv-x="950" 
d="M745 -29h-112v679h-243v-488q0 -36 -10.5 -70t-30.5 -66q-21 -31 -55 -47.5t-82 -17.5h-12v103q26 0 44 12t27 35q6 23 10 42t4 34v567h460v-783z" />
    <glyph glyph-name="uni041C" unicode="&#x41c;" horiz-adv-x="950" 
d="M826 -29h-112v505l-6 1q-11 -32 -21.5 -64t-20.5 -63q-10 -32 -20.5 -63.5t-20.5 -62.5q-21 -64 -42 -127l-42 -126h-130l-171 506l-6 -1v-505h-109v783h129l218 -655q28 81 56 162.5t55 165.5q26 82 53.5 164t57.5 163h132v-783z" />
    <glyph glyph-name="uni041D" unicode="&#x41d;" horiz-adv-x="950" 
d="M758 -29h-104v358h-362v-358h-104v783h104v-320h362v320h104v-783z" />
    <glyph glyph-name="uni041E" unicode="&#x41e;" horiz-adv-x="950" 
d="M814 362q0 -92 -24 -166t-72 -131q-47 -57 -109 -85.5t-140 -28.5q-75 0 -137.5 28.5t-110.5 85.5q-47 57 -69.5 131t-22.5 166q0 90 22.5 164.5t69.5 132.5q48 57 110.5 86t137.5 29q78 0 140 -29t109 -86q48 -58 72 -132.5t24 -164.5v0zM698 362q0 66 -16.5 121.5
t-48.5 100.5q-14 18 -30.5 34t-36.5 29q-21 12 -45.5 18t-51.5 6q-50 0 -91 -22t-73 -65q-29 -45 -42.5 -100.5t-13.5 -121.5q0 -68 13.5 -123.5t42.5 -98.5q32 -44 73 -65.5t91 -21.5q27 0 51.5 5.5t45.5 17.5q20 11 36.5 27t30.5 37q32 43 48.5 98.5t16.5 123.5v0z" />
    <glyph glyph-name="uni041F" unicode="&#x41f;" horiz-adv-x="950" 
d="M748 -29h-112v679h-329v-679h-104v783h545v-783z" />
    <glyph glyph-name="uni0420" unicode="&#x420;" horiz-adv-x="950" 
d="M758 512q0 -51 -17 -94.5t-50 -78.5q-36 -35 -81.5 -52t-100.5 -17h-193v-299h-108v783h301q55 0 100.5 -17.5t81.5 -51.5q33 -36 50 -79t17 -94v0zM649 512q0 17 -3 32.5t-9 29.5q-6 13 -16 23.5t-22 19.5q-24 16 -49 24.5t-50 8.5h-184v-279h184q26 0 50.5 8.5
t48.5 26.5q12 7 22 18t16 25q6 12 9 28t3 35v0z" />
    <glyph glyph-name="uni0421" unicode="&#x421;" horiz-adv-x="950" 
d="M801 219q-9 -45 -32 -90.5t-61 -90.5q-21 -21 -46 -37t-53 -28q-30 -11 -61.5 -16.5t-64.5 -5.5q-78 0 -140.5 28.5t-108.5 85.5q-48 57 -72 131t-24 166q0 90 24 164.5t72 132.5q46 57 108.5 86t140.5 29q72 0 128 -23t97 -68q21 -23 36.5 -44t26.5 -41q10 -21 17 -41
t11 -38h-120q-3 4 -5.5 9.5t-4.5 11.5q-3 6 -6.5 12.5t-6.5 14.5q-9 13 -17 26t-16 25q-23 26 -57.5 39.5t-80.5 13.5q-54 0 -95.5 -22t-69.5 -64q-34 -45 -50.5 -101t-16.5 -122q0 -69 16.5 -124.5t50.5 -98.5q28 -44 69.5 -65t95.5 -21q43 0 77.5 13.5t59.5 40.5
q12 13 21.5 27t17.5 29q6 13 11.5 27t10.5 29h118z" />
    <glyph glyph-name="uni0422" unicode="&#x422;" horiz-adv-x="950" 
d="M771 650h-242v-679h-112v679h-242v104h596v-104z" />
    <glyph glyph-name="uni0423" unicode="&#x423;" horiz-adv-x="950" 
d="M740 746q-33 -81 -64.5 -165t-61.5 -169q-32 -87 -62 -171.5t-57 -165.5q-6 -15 -13.5 -28t-16.5 -23q-9 -11 -19.5 -19t-22.5 -13q-10 -6 -20.5 -10.5t-21.5 -5.5q-12 -1 -24 -1.5t-24 -0.5h-46v94h46q13 0 23.5 3.5t19.5 11.5q7 6 13 14.5t12 18.5l16 55
q-24 72 -49.5 144t-52.5 145q-28 72 -55 143.5t-52 142.5h119l143 -422q18 52 36.5 105.5t38.5 107.5q18 53 38 105.5t41 103.5h116z" />
    <glyph glyph-name="uni0424" unicode="&#x424;" horiz-adv-x="950" 
d="M828 362q0 -64 -20.5 -117.5t-60.5 -96.5q-42 -45 -96.5 -71t-121.5 -33v-78h-112v78q-66 7 -120 33t-94 70q-41 43 -61 96.5t-20 118.5q0 63 20 116.5t61 97.5q40 42 93.5 68.5t120.5 35.5v79h112v-79q67 -9 121 -35t96 -69q40 -45 61 -98t21 -116v0zM715 362
q0 45 -12.5 82t-36.5 65q-25 27 -59.5 44t-77.5 25v-432q43 6 77.5 23.5t59.5 44.5q24 26 36.5 63t12.5 85v0zM417 578q-44 -8 -78 -25t-58 -44q-26 -28 -38 -65t-12 -82q0 -48 12 -85.5t38 -64.5q24 -27 58 -43.5t78 -22.5v432z" />
    <glyph glyph-name="uni0425" unicode="&#x425;" horiz-adv-x="950" 
d="M796 -29h-122l-203 312q-26 -40 -51 -79t-49 -78q-13 -20 -25.5 -40t-25.5 -39q-12 -20 -24.5 -39t-24.5 -37h-123l264 406q-33 46 -64.5 93.5t-61.5 95.5q-32 46 -61.5 93t-57.5 95h123l181 -284q21 33 44.5 68.5t48.5 73.5q24 36 47.5 71.5t46.5 70.5h124l-246 -377z
" />
    <glyph glyph-name="uni0426" unicode="&#x426;" horiz-adv-x="950" 
d="M814 -134h-108v130h-498v759h111v-655h307v655h112v-656h76v-233z" />
    <glyph glyph-name="uni0427" unicode="&#x427;" horiz-adv-x="950" 
d="M759 -24h-104v326q-15 -22 -40.5 -38.5t-60.5 -27.5q-33 -12 -67 -17t-70 -2q-42 1 -83 16t-80 44q-39 25 -58.5 68.5t-19.5 105.5v295h112v-255q0 -53 14 -87.5t44 -49.5q32 -15 63 -22.5t61 -6.5q15 0 31.5 2.5t33.5 8.5q15 4 29.5 11.5t27.5 16.5q31 18 47 43t16 57
v282h104v-770z" />
    <glyph glyph-name="uni0428" unicode="&#x428;" horiz-adv-x="950" 
d="M815 -29h-684v783h112v-680h174v680h112v-680h178v680h108v-783z" />
    <glyph glyph-name="uni0429" unicode="&#x429;" horiz-adv-x="950" 
d="M887 -152h-104v128h-652v778h112v-675h174v675h112v-675h178v675h108v-675h72v-231z" />
    <glyph glyph-name="uni042A" unicode="&#x42a;" horiz-adv-x="950" 
d="M848 204q0 -51 -16.5 -93t-48.5 -73q-38 -31 -81.5 -46.5t-93.5 -15.5h-305v669h-209v101h321v-307h193q50 0 93.5 -17t81.5 -50q32 -30 48.5 -72t16.5 -96v0zM739 204q0 18 -3.5 33.5t-9.5 27.5q-7 11 -14 21.5t-14 19.5q-12 7 -24 12.5t-24 9.5q-13 3 -27 5t-29 2h-179
v-256h179q15 0 29 1.5t27 5.5q12 3 24 8.5t24 13.5q7 6 14 15.5t14 23.5q6 12 9.5 26t3.5 31v0z" />
    <glyph glyph-name="uni042B" unicode="&#x42b;" horiz-adv-x="950" 
d="M834 -29h-104v783h104v-783zM657 204q0 -53 -18.5 -95.5t-54.5 -73.5q-35 -32 -77.5 -48t-93.5 -16h-301v783h104v-315h197q51 0 93.5 -17.5t77.5 -50.5q36 -32 54.5 -74t18.5 -93v0zM542 204q0 36 -11.5 61.5t-32.5 40.5q-24 14 -51 21.5t-57 7.5h-174v-261h174
q31 0 58 6.5t50 21.5q21 13 32.5 38.5t11.5 63.5v0z" />
    <glyph glyph-name="uni042C" unicode="&#x42c;" horiz-adv-x="950" 
d="M753 204q0 -53 -16.5 -95.5t-48.5 -73.5q-35 -32 -79.5 -48t-99.5 -16h-301v783h112v-315h189q55 0 99.5 -17.5t79.5 -50.5q32 -32 48.5 -74t16.5 -93v0zM641 204q0 36 -12 61.5t-35 40.5q-24 14 -48.5 21.5t-51.5 7.5h-174v-261h174q13 0 27 1.5t28 6.5q13 3 24.5 8
t20.5 12q23 15 35 40.5t12 61.5v0z" />
    <glyph glyph-name="uni042D" unicode="&#x42d;" horiz-adv-x="950" 
d="M814 362q0 -92 -24 -166t-71 -131q-46 -57 -108 -85.5t-140 -28.5q-66 0 -119 15.5t-92 45.5q-40 30 -65.5 72t-37.5 96h120q7 -30 23.5 -53t43.5 -39q25 -17 56.5 -25t69.5 -8q49 0 87.5 16.5t67.5 49.5q33 36 50 83t20 104h-359v104h359q-8 57 -25.5 104t-44.5 83
q-30 36 -69 54t-86 18q-40 0 -72.5 -10.5t-56.5 -30.5q-24 -21 -39 -44.5t-21 -47.5h-123q9 45 33 85.5t63 76.5t93 55t123 19q78 0 140 -29t108 -86q48 -58 72 -132.5t24 -164.5v0z" />
    <glyph glyph-name="uni042E" unicode="&#x42e;" horiz-adv-x="950" 
d="M884 362q0 -90 -21 -163.5t-61 -130.5q-41 -57 -95.5 -85.5t-123.5 -28.5q-63 0 -115.5 24.5t-92.5 73.5q-21 24 -36.5 52t-25.5 61q-12 31 -19 67.5t-10 77.5h-110v-334h-104v770h104v-333h110q3 40 10 76.5t19 68.5q10 31 25.5 59.5t36.5 54.5q40 48 92.5 73t115.5 25
q69 0 123.5 -28.5t95.5 -85.5q40 -59 61 -132.5t21 -161.5v0zM778 362q0 33 -4 63t-10 58q-8 27 -18 51t-23 45q-12 21 -26.5 36.5t-32.5 26.5q-20 10 -40 15.5t-41 5.5t-40.5 -5.5t-37.5 -15.5q-20 -11 -35 -26.5t-26 -36.5q-29 -43 -42.5 -97t-13.5 -120
q0 -68 13.5 -122.5t42.5 -96.5q25 -43 60 -64t79 -21q43 0 78 21t62 64t41 98t14 121v0z" />
    <glyph glyph-name="uni042F" unicode="&#x42f;" horiz-adv-x="950" 
d="M722 -30h-104v318h-154q-24 -39 -49.5 -78.5t-52.5 -80.5q-28 -42 -54.5 -82t-50.5 -77h-132l214 328q-39 10 -70.5 30.5t-54.5 50.5q-9 14 -17 30.5t-14 36.5q-8 18 -11.5 37t-3.5 40q0 22 5 44.5t16 45.5q9 21 22.5 39.5t31.5 35.5q17 15 37 27t44 21q22 8 45.5 12.5
t47.5 4.5h305v-783zM618 398v251h-190q-13 0 -26.5 -2t-26.5 -5q-15 -5 -26 -10.5t-18 -12.5q-12 -9 -20.5 -18.5t-12.5 -21.5q-6 -12 -8 -26.5t-2 -29.5q0 -35 10.5 -59t32.5 -36q21 -15 45.5 -22.5t51.5 -7.5h190z" />
    <glyph glyph-name="uni0430" unicode="&#x430;" horiz-adv-x="950" 
d="M625 -19q-1 3 -2 7t-2 7l-2 8t-1 9q-3 8 -4 18.5t-1 23.5q-16 -18 -35.5 -33t-43.5 -27q-25 -14 -53 -21.5t-59 -10.5q-38 -4 -70.5 3t-59.5 25q-17 7 -28.5 18t-17.5 26q-8 13 -14.5 28.5t-10.5 33.5q-3 18 -1 35t8 33q4 15 10 29t14 27q10 12 21.5 23t24.5 20
q12 8 24.5 14t25.5 11q15 5 30 9t32 7q15 2 29 4t26 5q10 0 19 1.5t17 3.5q3 0 7 0.5t8 1.5q4 0 8.5 1t9.5 2q4 0 10.5 2t14.5 5q6 1 12 4l12 6q15 7 22.5 19.5t7.5 30.5q0 7 -2.5 15t-6.5 16l-10 14t-11 13q-8 6 -18.5 10.5t-22.5 9.5q-14 3 -27.5 5t-27.5 2q-34 0 -58 -8
t-39 -23q-16 -16 -23.5 -34t-5.5 -39h-111q0 21 4.5 41t13.5 40q9 18 21 34t29 30q15 11 34 20.5t42 18.5q22 7 45.5 11t48.5 4q46 0 87 -12.5t77 -36.5q33 -25 49.5 -58t16.5 -74v-320q0 -16 1.5 -29.5t6.5 -23.5q3 -12 6.5 -19.5t6.5 -13.5zM613 268q-7 -6 -14.5 -11
t-14.5 -8q-9 -5 -18 -8.5t-18 -4.5q-17 -5 -36 -8.5t-40 -6.5q-24 -5 -40 -9t-24 -8q-19 -6 -33.5 -15t-23.5 -20q-11 -12 -15 -26.5t-2 -31.5q3 -17 14.5 -27.5t32.5 -14.5q11 -3 21.5 -3.5t21.5 -0.5q10 0 18.5 0.5t15.5 2.5q17 2 32 6.5t29 12.5q12 6 24.5 14.5
t25.5 18.5q7 9 14.5 19.5t15.5 21.5q6 10 10 20t4 21v66z" />
    <glyph glyph-name="uni0431" unicode="&#x431;" horiz-adv-x="950" 
d="M732 259q0 -63 -17.5 -115.5t-51.5 -95.5q-38 -44 -86 -65.5t-107 -21.5q-58 0 -104.5 21.5t-80.5 65.5q-37 43 -55 95.5t-18 115.5q0 29 0.5 58t2.5 58q1 28 3 56t5 55q5 25 14 50t22 49q12 24 28 45t37 40q15 13 32 23.5t35 18.5q16 6 34.5 10t38.5 4h7.5h10.5
q4 -1 8.5 -1.5t9.5 -0.5q7 -2 16.5 -2.5t21.5 -0.5q33 0 54.5 10.5t32.5 31.5h107q-4 -21 -11.5 -38.5t-17.5 -32.5q-12 -15 -25 -25.5t-28 -14.5q-38 -13 -70 -19t-59 -6h-10.5h-7.5h-7t-7 2q-33 4 -61.5 -6.5t-52.5 -37.5q-8 -9 -15 -18.5t-13 -19.5q-8 -12 -12.5 -23
t-5.5 -22q30 25 65.5 38t75.5 13q59 0 107 -21.5t86 -63.5q34 -42 51.5 -94.5t17.5 -114.5v0zM622 259q0 40 -10.5 75.5t-30.5 65.5q-20 29 -47.5 44t-63.5 15q-33 0 -59 -15t-44 -44q-21 -30 -30.5 -65.5t-9.5 -75.5q0 -42 9.5 -77t30.5 -64q18 -30 44 -44.5t59 -14.5
q36 0 63.5 14.5t47.5 44.5q20 29 30.5 64t10.5 77v0z" />
    <glyph glyph-name="uni0432" unicode="&#x432;" horiz-adv-x="950" 
d="M694 119q-2 -18 -6 -33.5t-10 -28.5q-8 -14 -19.5 -26t-26.5 -21q-26 -20 -57.5 -29.5t-68.5 -9.5h-256v567h250q36 0 65 -9t52 -26q9 -9 18 -19.5t17 -20.5q7 -12 11 -24.5t4 -25.5q1 -13 1 -25.5v-24.5q-2 -13 -6.5 -24.5t-10.5 -20.5q-14 -21 -30.5 -35t-37.5 -20
q18 -5 36.5 -15t38.5 -25q20 -17 29 -43t7 -61v0zM550 382q0 36 -21 54t-61 18h-110v-142h110q21 0 36.5 4.5t26.5 13.5q9 8 14 21t5 31v0zM576 139q0 18 -6 33.5t-18 29.5q-12 12 -33 18.5t-49 6.5h-112v-173h110q30 0 51 5t33 17q12 10 18 26t6 37v0z" />
    <glyph glyph-name="uni0433" unicode="&#x433;" horiz-adv-x="950" 
d="M675 445h-299v-474h-105v567h404v-93z" />
    <glyph glyph-name="uni0434" unicode="&#x434;" horiz-adv-x="950" 
d="M718 -29h-94v108h-297v-108h-102v205h59q20 48 32 107t17 130v70t2 65q0 15 0.5 29t0.5 29q0 14 0.5 27.5t0.5 27.5h329v-485h52v-205zM556 176v391h-110q0 -8 -0.5 -17t-0.5 -19q0 -9 -0.5 -20t-0.5 -22q-2 -24 -3.5 -51t-2.5 -57q-6 -61 -19.5 -112t-32.5 -93h170z" />
    <glyph glyph-name="uni0435" unicode="&#x435;" horiz-adv-x="950" 
d="M327 231q0 -15 2.5 -29.5t7.5 -27.5q3 -15 11.5 -29t20.5 -26q20 -27 45.5 -40t56.5 -13q27 0 47 6t34 19q15 10 24.5 21t12.5 23h123q-3 -15 -9.5 -30t-15.5 -28q-11 -15 -22.5 -28.5t-24.5 -26.5q-27 -28 -69 -42t-99 -14t-104 22t-83 67q-39 44 -58 98t-19 117
t18.5 117t56.5 99q36 44 83 66.5t104 22.5q54 0 102.5 -22t90.5 -64q36 -39 55 -96t19 -132v-8.5v-6.5q0 -2 -0.5 -4t-0.5 -4v-4v-3h-409zM618 326q-4 29 -15 54.5t-29 48.5q-18 22 -44 33.5t-59 11.5q-14 0 -27.5 -3t-26.5 -8q-14 -6 -24.5 -14.5t-17.5 -17.5
q-9 -11 -16.5 -22.5t-13.5 -24.5q-6 -14 -10 -28.5t-5 -29.5h288z" />
    <glyph glyph-name="uni0436" unicode="&#x436;" horiz-adv-x="950" 
d="M822 -29h-114l-125 214l-54 -89v-125h-112v125l-50 89q-18 -26 -34 -53t-31 -54q-16 -29 -31 -55.5t-30 -51.5h-116l179 315l-34 62t-35 62q-19 30 -37 61t-36 63h111l144 -252v252h112v-252q17 30 35 61.5t37 64.5q18 33 36 64.5t36 61.5h115l-150 -248z" />
    <glyph glyph-name="uni0437" unicode="&#x437;" horiz-adv-x="950" 
d="M667 145q0 -39 -13.5 -71t-38.5 -58q-29 -25 -65 -37.5t-79 -12.5q-44 0 -78.5 14t-59.5 42q-27 27 -39.5 59.5t-10.5 71.5h97q0 -8 1.5 -15.5t4.5 -14.5q2 -9 6.5 -17t12.5 -14q8 -17 24 -24.5t40 -7.5q20 0 36.5 6t28.5 18q11 12 17 27t6 35q0 14 -3.5 27.5t-9.5 25.5
q-8 12 -18.5 20t-25.5 14q-5 1 -11.5 2t-13.5 2q-5 0 -9 -0.5t-7 -0.5h-7h-5h-15v100h16.5t20.5 1q9 0 17 1t14 4q10 6 18 14t14 17q4 9 7 21t3 28q0 15 -5.5 28t-14.5 25q-11 10 -25 15.5t-31 5.5q-22 0 -37 -6t-22 -18q-9 -12 -13.5 -27t-4.5 -31h-22t-22 2q-12 0 -25 1
t-27 1q0 39 12.5 70t38.5 55q27 22 58.5 33.5t67.5 11.5t66.5 -13t56.5 -37q28 -24 42.5 -52t14.5 -59q0 -30 -7.5 -55t-21.5 -43q-8 -6 -15 -11.5t-13 -10.5q-4 -3 -7.5 -6t-6.5 -5q-3 -3 -6 -5t-6 -3q21 -10 39 -24.5t33 -32.5q13 -20 20.5 -41t7.5 -45v0z" />
    <glyph glyph-name="uni0438" unicode="&#x438;" horiz-adv-x="950" 
d="M680 -29h-103v368l-5 1l-47 -94t-47 -91q-12 -24 -24 -47l-24 -46t-23.5 -46l-22.5 -45h-122v567h111v-367l2 -1q22 46 44.5 92t46.5 93q11 22 22.5 44.5t22.5 45.5q12 23 23.5 46l23.5 47h122v-567z" />
    <glyph glyph-name="uni0439" unicode="&#x439;" horiz-adv-x="950" 
d="M636 694q-5 -15 -10.5 -28.5t-12.5 -23.5q-9 -12 -17 -21.5t-17 -17.5q-14 -9 -27 -15.5t-25 -10.5q-14 -6 -28 -8t-28 -2q-28 0 -53 9t-46 27q-23 18 -39.5 40.5t-26.5 50.5h77q8 -13 18 -23t22 -17q10 -9 22 -12.5t26 -3.5t27 3.5t25 12.5q11 7 21 17t19 23h73z
M680 -29h-103v365l-5 1q-24 -47 -47 -92.5t-47 -90.5q-12 -24 -24 -47l-24 -46t-23.5 -45.5t-22.5 -44.5h-122v563h111v-365l2 -1q22 45 44.5 91t46.5 92q11 22 22.5 44.5t22.5 45.5q12 23 23.5 46l23.5 47h122v-563z" />
    <glyph glyph-name="uni043A" unicode="&#x43a;" horiz-adv-x="950" 
d="M722 -29h-126l-179 229l-49 -62v-167h-112v567h112v-249q11 15 22.5 30t24.5 31q12 16 24.5 32t25.5 33q25 33 50 63.5t51 59.5h127l-209 -256z" />
    <glyph glyph-name="uni043B" unicode="&#x43b;" horiz-adv-x="950" 
d="M677 -29h-104v474h-145v-323q0 -30 -8.5 -57t-23.5 -51q-18 -24 -47 -36.5t-71 -13.5h-28v93v0l2 1h1.5h4.5h5q19 2 32 11t20 26q4 15 6.5 28t2.5 25v390h353v-567z" />
    <glyph glyph-name="uni043C" unicode="&#x43c;" horiz-adv-x="950" 
d="M722 -29h-99v310l-6 1q-14 -39 -26.5 -78t-23.5 -78q-12 -39 -22.5 -78t-19.5 -77h-104l-88 311l-6 -1v-310h-107v567h128l123 -397q15 48 30.5 98t33.5 101q16 50 30.5 99.5t28.5 98.5h128v-567z" />
    <glyph glyph-name="uni043D" unicode="&#x43d;" horiz-adv-x="950" 
d="M690 -29h-108v249h-214v-249h-112v567h112v-224h214v224h108v-567z" />
    <glyph glyph-name="uni043E" unicode="&#x43e;" horiz-adv-x="950" 
d="M737 266q0 -63 -18 -116.5t-52 -98.5q-37 -45 -86.5 -67t-110.5 -22q-62 0 -109 22t-79 67q-38 45 -56 98.5t-18 116.5t18 117t56 99q33 44 80 66.5t108 22.5q60 0 109.5 -22.5t87.5 -66.5q34 -45 52 -99t18 -117v0zM625 266q0 42 -10.5 78t-31.5 66t-49.5 45t-63.5 15
q-32 0 -58 -15t-47 -45t-31 -66t-10 -78t10 -78.5t31 -66.5t47 -44.5t58 -14.5q35 0 63.5 14.5t49.5 44.5t31.5 66.5t10.5 78.5v0z" />
    <glyph glyph-name="uni043F" unicode="&#x43f;" horiz-adv-x="950" 
d="M688 -29h-109v474h-209v-474h-113v567h431v-567z" />
    <glyph glyph-name="uni0440" unicode="&#x440;" horiz-adv-x="950" 
d="M743 335q0 -33 -4.5 -63.5t-12.5 -57.5q-9 -29 -22.5 -53.5t-30.5 -45.5t-36.5 -37t-40.5 -26q-23 -12 -47 -17t-49 -5t-48.5 5.5t-44.5 17.5q-23 10 -43 25.5t-37 35.5v-247h-113v753h113v-63q17 20 37 35.5t43 27.5q21 10 44.5 15.5t48.5 5.5q54 0 97 -22t76 -64
q34 -44 52 -99t18 -121v0zM625 335q0 45 -10.5 81.5t-29.5 65.5q-21 27 -48.5 41.5t-61.5 14.5t-61 -14.5t-46 -41.5q-21 -29 -31 -65.5t-10 -81.5t10 -82t31 -65q21 -29 47.5 -43t59.5 -14q34 0 61.5 14t48.5 43q19 28 29.5 65t10.5 82v0z" />
    <glyph glyph-name="uni0441" unicode="&#x441;" horiz-adv-x="950" 
d="M734 155q-12 -39 -32 -72t-47 -61q-33 -30 -74.5 -45t-92.5 -15q-63 0 -111.5 22t-84.5 67t-54 98.5t-18 116.5t18 117t54 99q36 44 85 66.5t111 22.5q51 0 93.5 -16.5t77.5 -48.5q28 -32 47 -64t28 -65h-116l-6.5 13t-9.5 15q-6 6 -12 14t-10 17q-8 7 -17.5 13.5
t-21.5 11.5q-14 4 -27 6.5t-25 2.5q-36 0 -64.5 -15t-49.5 -45t-31.5 -66t-10.5 -78t10.5 -78.5t31.5 -66.5t49.5 -44.5t64.5 -14.5q11 0 22 1.5t22 6.5q10 3 20 8.5t21 13.5q5 6 11 13.5t13 16.5q6 7 10 15.5t7 17.5h119z" />
    <glyph glyph-name="uni0442" unicode="&#x442;" horiz-adv-x="950" 
d="M708 445h-179v-474h-112v474h-176v93h467v-93z" />
    <glyph glyph-name="uni0443" unicode="&#x443;" horiz-adv-x="950" 
d="M740 621l-245 -654q-6 -16 -13.5 -29t-15.5 -23q-9 -10 -20 -18t-23 -14q-10 -6 -20.5 -10.5t-21.5 -5.5q-12 -1 -24 -1.5t-24 -0.5h-46v91h46q12 0 22.5 4t18.5 13q7 9 14 17t13 16l17 58q-24 69 -50 139t-53 141q-28 69 -55 138.5t-52 138.5h121l141 -407
q18 50 36.5 101t38.5 104q18 51 37.5 101.5t39.5 100.5h118z" />
    <glyph glyph-name="uni0444" unicode="&#x444;" horiz-adv-x="950" 
d="M865 356q0 -59 -16 -109t-47 -91q-28 -42 -66.5 -62.5t-87.5 -20.5q-17 0 -33 3t-31 10q-17 6 -31 13.5t-24 18.5v-252h-112v252q-14 -11 -27.5 -18.5t-27.5 -13.5q-15 -7 -31 -10t-32 -3q-47 0 -86 20.5t-72 62.5q-30 41 -44 91t-14 109q0 58 14 108t44 92q33 41 72 62
t86 21q16 0 32 -3t31 -9q14 -6 27.5 -15t27.5 -19v266h112v-266q10 10 23.5 19t30.5 15q15 6 31.5 9t33.5 3q49 0 87.5 -21t66.5 -62q31 -42 47 -92t16 -108v0zM759 356q0 39 -7 72.5t-20 60.5v-1q-17 28 -38 42.5t-46 14.5q-28 0 -49 -14.5t-35 -42.5v1
q-16 -27 -23.5 -60.5t-7.5 -72.5t7.5 -72t23.5 -60q14 -30 35 -45t49 -15q25 0 46 15t38 45q13 27 20 60t7 72v0zM417 356q0 39 -9 72.5t-25 60.5v-1q-15 28 -36 42.5t-48 14.5q-25 0 -46 -14.5t-38 -42.5v1q-14 -27 -20.5 -60.5t-6.5 -72.5t6.5 -72t20.5 -60q17 -30 38 -45
t46 -15t46 15t38 45q16 27 25 60t9 72v0z" />
    <glyph glyph-name="uni0445" unicode="&#x445;" horiz-adv-x="950" 
d="M720 -29h-126l-123 192q-14 -24 -29 -48t-31 -48q-9 -13 -17.5 -25.5t-16.5 -24.5t-15.5 -23.5t-14.5 -22.5h-125l190 290q-23 33 -44.5 67t-42.5 69q-23 33 -45 67.5t-43 69.5h126l108 -175q14 21 28 42.5t29 45.5q6 11 13 22l14 22t14 21.5t14 21.5h125l-170 -273z" />
    <glyph glyph-name="uni0446" unicode="&#x446;" horiz-adv-x="950" 
d="M747 -29h-112v97h-370v564h110v-470h198v470h104v-471h70v-190z" />
    <glyph glyph-name="uni0447" unicode="&#x447;" horiz-adv-x="950" 
d="M688 -29h-108v216q-12 -15 -28.5 -27t-35.5 -21q-21 -9 -44 -13.5t-48 -4.5q-30 2 -60 14t-61 33q-29 21 -42.5 55.5t-13.5 84.5v226h108v-205q0 -30 7.5 -52t23.5 -34q17 -14 37 -20t43 -5q23 0 42.5 9t36.5 26q17 16 26 32.5t9 32.5v216h108v-563z" />
    <glyph glyph-name="uni0448" unicode="&#x448;" horiz-adv-x="950" 
d="M725 -29h-508v563h112v-470h88v470h112v-470h92v470h104v-563z" />
    <glyph glyph-name="uni0449" unicode="&#x449;" horiz-adv-x="950" 
d="M792 -29h-104v97h-472v564h112v-470h89v470h112v-470h92v470h104v-471h67v-190z" />
    <glyph glyph-name="uni044A" unicode="&#x44a;" horiz-adv-x="950" 
d="M783 136q-3 -40 -19 -70.5t-46 -51.5q-27 -21 -61 -32t-74 -11h-258v474h-156v93h260v-209h149q51 0 90 -15t68 -43q25 -30 36.5 -63.5t10.5 -71.5v0zM667 150q0 18 -6 34t-16 28q-12 12 -32 18t-49 6h-135v-173h134q29 0 49.5 6t32.5 18q10 11 16 26.5t6 36.5v0z" />
    <glyph glyph-name="uni044B" unicode="&#x44b;" horiz-adv-x="950" 
d="M618 136q-3 -40 -19 -70.5t-46 -51.5q-27 -21 -61.5 -32t-74.5 -11h-250v567h110v-209h136q51 0 90 -15t68 -43q25 -30 36.5 -63.5t10.5 -71.5v0zM791 -29h-112v563h112v-563zM501 150q0 18 -5.5 34t-15.5 28q-12 12 -32.5 18t-49.5 6h-121v-173h120q30 0 50 6t32 18
q10 11 15.5 26.5t6.5 36.5v0z" />
    <glyph glyph-name="uni044C" unicode="&#x44c;" horiz-adv-x="950" 
d="M708 136q-2 -40 -16.5 -70.5t-41.5 -51.5q-32 -21 -66.5 -32t-73.5 -11h-260v567h111v-209h141q54 0 94.5 -15t67.5 -43q23 -30 34 -63.5t10 -71.5v0zM594 150q0 18 -6 34t-17 28q-12 12 -32 18t-47 6h-131v-173h130q27 0 47 6t32 18q11 11 17 26.5t7 36.5v0z" />
    <glyph glyph-name="uni044D" unicode="&#x44d;" horiz-adv-x="950" 
d="M724 266q0 -65 -16.5 -119.5t-49.5 -97.5q-38 -44 -86.5 -65.5t-108.5 -21.5q-46 0 -86 14t-73 43q-30 27 -50.5 61t-32.5 74h113q6 -20 17.5 -35.5t29.5 -27.5q16 -13 36.5 -19t44.5 -6q32 0 57.5 10t43.5 31q17 19 29 46.5t19 62.5h-161v98h162q-8 36 -20.5 64
t-29.5 49q-18 19 -43 29.5t-57 10.5q-25 0 -46 -7t-37 -20q-18 -14 -29 -29t-17 -31h-112q12 36 32 69t49 63q33 30 73 45t88 15q60 0 108.5 -22.5t86.5 -65.5q33 -45 49.5 -99.5t16.5 -118.5v0z" />
    <glyph glyph-name="uni044E" unicode="&#x44e;" horiz-adv-x="950" 
d="M827 256q0 -63 -18 -116.5t-52 -96.5q-33 -45 -78 -67t-102 -22q-27 0 -50 5t-44 14q-22 10 -41 23t-35 31q-17 17 -30 37.5t-23 44.5q-11 22 -17 47.5t-7 53.5h-86v-234h-112v562h112v-224h87q5 52 24.5 95.5t54.5 79.5q29 34 71 51.5t96 17.5q57 0 102 -22.5t78 -66.5
q34 -44 52 -97t18 -116v0zM715 256q0 42 -10 77.5t-28 65.5q-20 27 -45 41.5t-55 14.5q-36 0 -63 -14.5t-45 -41.5q-20 -30 -29 -65.5t-9 -77.5t9 -77.5t29 -64.5q18 -30 45 -44.5t63 -14.5q30 0 55 14.5t45 44.5q18 29 28 64.5t10 77.5v0z" />
    <glyph glyph-name="uni044F" unicode="&#x44f;" horiz-adv-x="950" 
d="M662 -29h-112v229h-89q-9 -15 -18 -29.5t-17 -28.5q-9 -14 -17 -28.5t-16 -28.5q-18 -30 -35 -58.5t-34 -55.5h-121l140 233q-12 4 -24 10t-22 15q-12 7 -23 16t-20 21q-6 10 -12 22t-11 26q-6 12 -8.5 26t-2.5 29q0 36 13.5 67t41.5 55q25 23 57 35t71 12h259v-567z
M550 294v151h-131q-7 0 -14.5 -1.5t-14.5 -2.5q-9 -3 -15.5 -6.5t-12.5 -7.5q-9 -5 -14.5 -11t-8.5 -12q-3 -8 -4.5 -17t-1.5 -18q0 -21 6 -35t19 -22q12 -9 27 -13.5t34 -4.5h131z" />
    <glyph glyph-name="uni0451" unicode="&#x451;" horiz-adv-x="950" 
d="M647 670q0 -8 -2 -14.5t-5 -12.5q-3 -4 -5 -7l-4 -6q-2 -2 -3.5 -4.5t-2.5 -4.5q-5 -6 -10.5 -9.5t-11.5 -6.5q-8 -3 -14 -4.5t-10 -1.5q-17 0 -30 5t-22 17q-11 10 -16 22t-5 27q0 14 5 26.5t16 24.5q9 10 22 15.5t30 5.5q4 0 10 -1.5t14 -4.5q6 -3 11.5 -7.5t10.5 -8.5
q3 -6 6.5 -11.5t8.5 -11.5q3 -7 5 -14t2 -13v0zM440 670q0 -8 -2 -14.5t-5 -12.5q-5 -7 -9 -12.5t-7 -9.5q-4 -6 -9.5 -9.5t-11.5 -6.5q-8 -3 -14 -4.5t-10 -1.5q-17 0 -30 5t-22 17q-11 10 -16 22t-5 27q0 14 5 26.5t16 24.5q9 10 22 15.5t30 5.5q4 0 10 -1.5t14 -4.5
q6 -3 11.5 -7.5t9.5 -8.5q1 -3 3 -6l4 -6t4 -5.5t5 -5.5q3 -7 5 -14t2 -13v0zM331 225q0 -15 2 -29t7 -27q3 -14 11 -27.5t20 -26.5q19 -27 44.5 -39.5t55.5 -12.5q27 0 47 6t34 18q15 10 23.5 21t11.5 22h121q-8 -29 -26 -56.5t-46 -53.5q-27 -27 -68 -41t-96 -14
q-56 0 -101.5 21.5t-81.5 65.5q-39 43 -57.5 95.5t-18.5 115.5q0 61 18 113.5t56 97.5q34 43 80 65t103 22q54 0 101 -21t88 -63q36 -39 54.5 -95t18.5 -131v-6v-6q-1 -4 -1 -7.5v-6.5h-400zM615 317q-3 27 -14 52t-29 49q-12 9 -23.5 17.5t-23.5 14.5q-13 6 -26.5 9
t-27.5 3q-13 0 -25 -3t-24 -8q-13 -6 -25 -13.5t-22 -16.5q-8 -11 -15 -22.5t-13 -23.5q-8 -14 -11 -28.5t-3 -29.5h282z" />
    <glyph glyph-name="uni2015" unicode="&#x2015;" horiz-adv-x="950" 
d="M947 315h-947v94h947v-94z" />
    <glyph glyph-name="quoteleft" unicode="&#x2018;" horiz-adv-x="200" 
d="M132 645q-26 0 -40.5 15.5t-17.5 33.5q-2 10 -2 22t2 24q12 50 42 73t46 33q7 2 11 1t6 -7q1 -5 -1.5 -10.5t-6.5 -8.5q-14 -5 -28 -18t-24 -46q2 0 7.5 0.5t13.5 0.5q21 0 33.5 -16t12.5 -45q-3 -49 -54 -52z" />
    <glyph glyph-name="quoteright" unicode="&#x2019;" horiz-adv-x="200" 
d="M64 850q26 0 40.5 -15.5t17.5 -33.5q2 -10 2 -22t-2 -24q-12 -50 -42 -73t-46 -33q-7 -2 -11 -1t-6 7q-1 5 1.5 10.5t6.5 8.5q14 5 28 18t24 46q-2 0 -7.5 -0.5t-13.5 -0.5q-21 0 -33.5 16t-12.5 45q3 49 54 52z" />
    <glyph glyph-name="quotedblleft" unicode="&#x201c;" horiz-adv-x="350" 
d="M283 645q-26 0 -40.5 15.5t-17.5 33.5q-2 10 -2 22t2 24q12 50 42 73t46 33q7 2 11 1t6 -7q1 -5 -1.5 -10.5t-6.5 -8.5q-14 -5 -28 -18t-24 -46q2 0 7.5 0.5t13.5 0.5q21 0 33.5 -16t12.5 -45q-3 -49 -54 -52zM143 645q-26 0 -40.5 15.5t-17.5 33.5q-2 10 -2 22t2 24
q12 50 42 73t46 33q7 2 11 1t6 -7q1 -5 -1.5 -10.5t-6.5 -8.5q-14 -5 -28 -18t-24 -46q2 0 7.5 0.5t13.5 0.5q21 0 33.5 -16t12.5 -45q-3 -49 -54 -52z" />
    <glyph glyph-name="quotedblright" unicode="&#x201d;" horiz-adv-x="350" 
d="M204 850q26 0 40.5 -15.5t17.5 -33.5q2 -10 2 -22t-2 -24q-12 -50 -42 -73t-46 -33q-7 -2 -11 -1t-6 7q-1 5 1.5 10.5t6.5 8.5q14 5 28 18t24 46q-2 0 -7.5 -0.5t-13.5 -0.5q-21 0 -33.5 16t-12.5 45q3 49 54 52zM64 850q26 0 40.5 -15.5t17.5 -33.5q2 -10 2 -22t-2 -24
q-12 -50 -42 -73t-46 -33q-7 -2 -11 -1t-6 7q-1 5 1.5 10.5t6.5 8.5q14 5 28 18t24 46q-2 0 -7.5 -0.5t-13.5 -0.5q-21 0 -33.5 16t-12.5 45q3 49 54 52z" />
    <glyph glyph-name="dagger" unicode="&#x2020;" horiz-adv-x="950" 
d="M494 615q5 -1 14.5 -0.5t23.5 3.5q12 1 25 4.5t26 8.5q17 5 34 6.5t34 -1.5q14 -3 21.5 -12t7.5 -24q0 -8 -2 -14t-5 -10q-4 -5 -9.5 -8.5t-12.5 -4.5q-18 -3 -35 -2.5t-33 6.5q-3 0 -6 1l-6 2q-3 0 -6.5 1t-6.5 3q-5 0 -8.5 0.5t-6.5 1.5t-5.5 1.5t-3.5 1.5q-7 0 -13 1
t-11 3q-6 0 -11 0.5t-8 0.5q0 -14 1 -27t4 -26q1 -14 4.5 -25t8.5 -20q2 -4 5 -7t6 -4q2 -3 3.5 -5t3.5 -3q0 -2 0.5 -3t1.5 -1q1 -1 1.5 -2t1.5 -1q-3 -3 -9 -15t-15 -32q-10 -30 -14.5 -91t-3.5 -152v-17v-15q0 -8 0.5 -15t0.5 -14v-28v-23v-40v-34q-1 -15 -2 -27.5
t-1 -21.5q-3 -21 -7 -32t-10 -11t-9 11t-4 32v275q0 75 -5.5 126t-14.5 77q-11 21 -16 32.5t-5 14.5v1.5t1 4.5l0.5 1t1.5 2t1.5 2t2.5 3q1 2 3.5 5t5.5 7q8 9 13 20.5t8 26.5q0 6 1 12.5t1 13.5q1 6 1.5 12.5t0.5 12.5q-8 0 -18.5 -0.5t-25.5 -3.5t-27 -6.5t-21 -6.5
q-11 -3 -20 -4.5t-16 -1.5q-9 -1 -18 -0.5t-18 2.5q-17 3 -24.5 12.5t-7.5 24.5t7.5 24t24.5 12q18 3 36 1.5t36 -6.5q9 -5 21 -8.5t27 -4.5q14 -3 25 -3.5t19 0.5v8v13q-1 6 -2 13t-1 15l-5.5 33t-5.5 27q-3 10 -4.5 21.5t-1.5 23.5v7v7v6t2 10q3 19 11 29.5t20 10.5
q14 0 22.5 -10t11.5 -29q3 -20 1.5 -39t-6.5 -37v-5q-1 -11 -2.5 -24.5l-3.5 -31.5q-3 -15 -4 -26.5t1 -18.5z" />
    <glyph glyph-name="daggerdbl" unicode="&#x2021;" horiz-adv-x="950" 
d="M458 594q-8 1 -18.5 0.5t-24.5 -3.5q-15 -4 -27 -7t-20 -6q-18 -6 -35.5 -6.5t-34.5 2.5q-17 2 -24.5 11t-7.5 25q0 14 7.5 23t24.5 12q17 2 34.5 0.5t35.5 -5.5q3 -2 8.5 -3.5t13.5 -2.5q6 -2 13 -3.5t14 -1.5q2 -1 4.5 -1.5t4.5 -1.5q3 -1 6 -1.5t7 -0.5q6 -2 11 -2.5
t8 -0.5v12v13q-1 6 -2 12.5t-1 14.5q-2 6 -3 13t-1 15q-2 6 -3.5 12.5t-2.5 12.5q-3 9 -4.5 20.5t-1.5 23.5v7v7v6t2 10q3 19 10.5 29t19.5 10q14 0 22 -10t11 -28q3 -20 1.5 -38.5t-5.5 -36.5q0 -3 -0.5 -6.5t-0.5 -6.5t-0.5 -6t-0.5 -6q-1 -4 -1.5 -8t-1.5 -7
q0 -4 -0.5 -7.5t-0.5 -6.5q-2 -8 -2 -14.5v-12.5q-1 -7 -1 -13v-11q3 0 7 0.5t9 2.5q2 0 4.5 0.5t5.5 1.5t7 1.5t9 1.5q2 0 4.5 0.5t5.5 1.5q3 0 6.5 1t7.5 2q6 1 12.5 2.5t12.5 3.5q15 4 31.5 5.5t34.5 -0.5q13 -3 20.5 -12t7.5 -23q0 -16 -7.5 -25t-20.5 -11
q-18 -3 -34.5 -2.5t-31.5 6.5l-26 6t-26 7q-15 3 -24.5 3.5t-14.5 -0.5v-111h7t9 2q4 0 10.5 0.5t15.5 2.5q2 0 4.5 0.5t5.5 1.5q3 0 6.5 1t7.5 2q6 1 12.5 2t12.5 1q15 6 31.5 8t34.5 0q13 -5 20.5 -13.5t7.5 -21.5q0 -15 -7.5 -24t-20.5 -12q-18 -3 -34.5 -2.5t-31.5 6.5
l-26 6l-26 6q-15 2 -24.5 3t-14.5 1q0 -13 0.5 -26.5t3.5 -26.5q1 -15 4.5 -25.5t8.5 -17.5q10 -11 15.5 -18t5.5 -10q-2 0 -4 -3t-4 -7l-7 -14t-7 -17q-4 -16 -7 -35.5t-6 -41.5q-3 -24 -4.5 -50t-0.5 -54v-64v-32v-29q0 -7 -0.5 -13.5t-0.5 -12.5v-11.5v-9.5
q-2 -21 -6.5 -32t-10.5 -11q-3 0 -5 2.5t-3 7.5q-3 6 -4 14t-1 19v172q0 59 -5 104t-14 77q-6 9 -10 16.5t-6 13.5q-3 5 -4.5 8l-1.5 3q0 3 0.5 6t3.5 6q1 2 3.5 5t6.5 6q3 2 6 5t6 7q4 6 7 16t5 24q1 12 2 24.5t1 24.5q-8 0 -18.5 -1t-24.5 -3q-15 -3 -27 -6t-20 -6
q-18 -6 -35.5 -6.5t-34.5 2.5t-24.5 12t-7.5 24q0 13 7.5 21.5t24.5 13.5q17 2 34.5 0t35.5 -8q3 0 8.5 -1t13.5 -2q6 -2 13 -3.5t14 -1.5q4 -2 9.5 -2.5t12.5 -0.5q6 -2 11 -2h8v111z" />
    <glyph glyph-name="twodotenleader" unicode="&#x2025;" horiz-adv-x="950" 
d="M774 297h-123v130h123v-130zM295 297h-123v130h123v-130z" />
    <glyph glyph-name="ellipsis" unicode="&#x2026;" horiz-adv-x="950" 
d="M831 297h-123v130h123v-130zM537 297h-124v130h124v-130zM242 297h-123v130h123v-130z" />
    <glyph glyph-name="perthousand" unicode="&#x2030;" horiz-adv-x="950" 
d="M631 764h37q-66 -95 -133 -191t-136 -193q-36 -50 -70.5 -98t-68.5 -96q-35 -48 -68.5 -94.5t-66.5 -92.5h-35zM544 308q19 -14 29 -36t10 -52q0 -33 -10.5 -63.5t-30.5 -60.5q-9 -16 -20 -29t-23 -22q-14 -11 -26.5 -18.5t-24.5 -11.5q-15 -6 -26 -8t-20 -2
q-14 0 -26 2.5t-21 8.5q-20 15 -29.5 38.5t-9.5 56.5q0 31 10.5 62t31.5 62q19 30 43 50.5t53 31.5q9 4 20.5 7t24.5 3t24.5 -5t20.5 -14v0zM530 285q-9 5 -16.5 8t-13.5 3q-5 0 -9.5 -1t-10.5 -2q-7 -3 -12.5 -5t-9.5 -4q-9 -6 -18 -13t-18 -16q-11 -9 -20.5 -19.5
t-18.5 -22.5h1q-18 -26 -28 -50t-11 -48q-3 -26 3.5 -43.5t23.5 -26.5q1 -3 3.5 -5t7.5 -2q3 -2 8 -2h11q10 0 24 5.5t31 17.5q16 10 29.5 25t25.5 35q9 10 15.5 22t11.5 26q3 12 5.5 24.5t4.5 24.5q2 24 -2.5 41t-16.5 28v0zM828 308q19 -13 28 -35.5t9 -53.5
q0 -32 -10.5 -63t-29.5 -61h1q-12 -15 -24.5 -28t-24.5 -22q-14 -11 -27.5 -19t-26.5 -12q-6 -3 -11.5 -5t-9.5 -2q-5 -2 -11 -2.5t-12 -0.5q-12 0 -25 3t-25 9q-20 15 -29 38.5t-9 55.5q0 31 10.5 62t31.5 62h-1q19 29 44.5 49.5t56.5 32.5q9 4 20.5 7t25.5 3q12 0 24 -4.5
t25 -13.5v0zM806 284q-7 4 -14 7t-13 3q-15 0 -29.5 -6t-28.5 -16q-15 -12 -29 -27t-26 -33h1q-20 -25 -30.5 -49.5t-11.5 -48.5q-2 -26 4 -43.5t21 -26.5q3 -3 6 -5t6 -2q3 -2 6 -2h8q15 0 29.5 5t29.5 17q13 10 27.5 25t29.5 36q18 24 27.5 48.5t12.5 48.5q0 24 -6.5 41.5
t-19.5 27.5v0zM333 744q21 -14 31.5 -37t10.5 -55q-2 -33 -12.5 -63.5t-29.5 -60.5q-21 -30 -44.5 -50.5t-50.5 -31.5q-9 -3 -15.5 -5.5t-10.5 -3.5q-6 -3 -10.5 -3.5t-8.5 -0.5q-14 0 -27.5 4.5t-25.5 14.5q-18 13 -26.5 35.5t-8.5 55.5q0 31 10.5 62t31.5 62q18 28 42 49
t54 34q3 2 8.5 4t12.5 4q6 0 11.5 1t11.5 1q13 0 25 -4.5t21 -11.5v0zM319 717l-16.5 5.5t-13.5 2.5q-3 0 -5 -0.5t-5 -0.5q-2 0 -4.5 -0.5t-5.5 -0.5q-7 -2 -11.5 -3.5t-7.5 -3.5q-11 -6 -20.5 -13t-18.5 -16q-11 -9 -20.5 -20.5t-18.5 -24.5h1q-18 -24 -28 -47.5
t-11 -47.5q-2 -12 -0.5 -22t6.5 -19q3 -10 8.5 -17.5t12.5 -13.5q4 -4 11.5 -5.5t18.5 -1.5q10 0 24 5.5t31 17.5q16 11 29.5 26t25.5 35q9 11 15.5 23t11.5 25q3 12 5.5 24.5t4.5 24.5q2 24 -2.5 40.5t-16.5 27.5v0z" />
    <glyph glyph-name="minute" unicode="&#x2032;" horiz-adv-x="950" 
d="M233 839q-28 -35 -53.5 -68.5t-48.5 -65.5q-12 -17 -24.5 -33.5t-24.5 -33.5q-13 -16 -25.5 -33t-24.5 -34v21q9 30 19 61t22 63q10 30 22 60.5t26 62.5h112z" />
    <glyph glyph-name="second" unicode="&#x2033;" horiz-adv-x="950" 
d="M375 839q-24 -35 -48 -68.5t-47 -65.5q-24 -33 -49.5 -66.5t-52.5 -67.5v21q13 30 25 61t24 63l10 30t11 30q5 16 11 31.5t12 31.5h104zM223 839q-26 -35 -50 -68.5t-46 -65.5q-24 -33 -48.5 -66.5t-48.5 -67.5v5.5t1 5.5v4.5v5.5q9 30 19 61t22 63q10 30 22 60.5
t26 62.5h103z" />
    <glyph glyph-name="uni203B" unicode="&#x203b;" horiz-adv-x="950" 
d="M539 604q0 -15 -5 -27t-14 -21q-11 -11 -23 -15.5t-26 -4.5q-12 0 -21.5 4.5t-18.5 15.5q-10 9 -14.5 20.5t-4.5 26.5q0 13 4.5 25t14.5 23q9 9 18.5 14t21.5 5q14 0 26 -5t23 -14q9 -10 14 -22t5 -25v0zM778 622l-252 -260q28 -33 58.5 -66t62.5 -66q31 -34 63.5 -66.5
t66.5 -63.5q-9 -8 -16 -15t-12 -13q-6 -8 -13 -15.5t-15 -13.5l-250 265l-60 -66l-60 -66q-32 -34 -64.5 -67t-65.5 -66q-7 6 -13.5 13.5t-12.5 15.5q-7 6 -13.5 13t-12.5 15l251 262q-30 32 -60 65t-61 66q-32 33 -64.5 65t-65.5 64q6 9 13 16.5t14 13.5q3 2 6 5t6 7t6.5 8
t7.5 9l249 -268q33 34 65 68t64 67q30 33 60.5 66t60.5 66zM763 362q0 -17 -4.5 -29t-11.5 -20q-9 -9 -20 -13.5t-23 -4.5q-15 0 -27.5 4.5t-21.5 13.5q-10 8 -14.5 20t-4.5 28q0 13 4.5 25t13.5 23q9 9 21 14t29 5q12 0 23 -5t20 -14q7 -10 11.5 -22t4.5 -25v0zM307 362
q0 -17 -4.5 -29t-11.5 -20q-9 -9 -20.5 -13.5t-24.5 -4.5q-15 0 -27 4.5t-21 13.5q-10 8 -14.5 20t-4.5 28q0 13 4.5 25t14.5 23q9 9 21 14t27 5q12 0 23.5 -5t20.5 -14q8 -10 12.5 -22t4.5 -25v0zM539 121q0 -15 -5 -26.5t-14 -20.5q-11 -11 -23 -15.5t-26 -4.5
q-12 0 -21.5 4.5t-18.5 15.5q-10 9 -14.5 20.5t-4.5 25.5q0 13 4.5 25t14.5 23q9 9 18.5 14.5t21.5 5.5q14 0 26 -5t23 -14q9 -11 14 -23t5 -25v0z" />
    <glyph glyph-name="uni2074" unicode="&#x2074;" horiz-adv-x="950" 
d="M342 584h-36v-39h-50v39h-124v52q17 22 33 45t31 47q14 22 29 44.5l31 46.5h50v-191h36v-44zM256 628v113l-76 -113h76z" />
    <glyph glyph-name="uni207F" unicode="&#x207f;" horiz-adv-x="950" 
d="M343 545h-51v168q0 35 -12.5 53t-36.5 18q-17 0 -29.5 -5.5t-20.5 -14.5q-9 -11 -13 -26t-4 -34v-159h-51v272h57v-29q7 8 17 15.5t22 13.5q10 6 22.5 8t27.5 2q16 -3 30 -12.5t26 -25.5q7 -15 11.5 -29t4.5 -27v-188z" />
    <glyph glyph-name="uni2081" unicode="&#x2081;" horiz-adv-x="950" 
d="M256 -64h-48v185h-60v39q12 0 24 3t24 11q3 2 5.5 5.5t5.5 9.5q1 4 2.5 9t2.5 11h44v-273z" />
    <glyph glyph-name="uni2082" unicode="&#x2082;" horiz-adv-x="950" 
d="M328 -64h-197q0 13 4.5 27t13.5 29q7 15 19 28.5t29 27.5l47 32q3 5 8 11t13 13q6 6 10 14t5 17q0 8 -3 15.5t-9 15.5q-8 6 -16 10t-17 4q-14 0 -23.5 -4t-15.5 -10q-7 -8 -10 -17t-3 -19h-47q0 15 6.5 30t21.5 30q13 14 31 21.5t41 7.5q9 0 18 -2t19 -5q9 -5 15.5 -9.5
t11.5 -8.5q7 -6 12.5 -13t8.5 -14q3 -8 4.5 -16t1.5 -15q0 -17 -4.5 -29.5t-12.5 -21.5q-9 -10 -17.5 -18t-15.5 -14l-57 -39q-6 -5 -10 -9.5t-7 -8.5l-6 -10t-4 -11h135v-39z" />
    <glyph glyph-name="uni2083" unicode="&#x2083;" horiz-adv-x="950" 
d="M333 15q0 -17 -7 -31.5t-20 -26.5q-14 -12 -31.5 -18t-38.5 -6q-13 0 -23.5 1.5t-19.5 4.5q-10 3 -17 6.5t-11 8.5q-8 6 -13.5 13t-9.5 14q-6 7 -8 16t-1 20h48q0 -11 3 -18.5t11 -13.5q6 -5 16.5 -7.5t24.5 -2.5q9 0 17.5 2.5t16.5 7.5q6 6 10 13t5 17q0 6 -2 12.5
t-6 12.5q-6 6 -13 9.5t-14 6.5q-3 0 -6.5 1t-8.5 2h-11h-8v43q12 0 21 1.5t16 4.5q1 1 3 2.5t5 3.5q2 1 4 3l5 5t5.5 8t3.5 11q0 6 -2.5 12.5t-8.5 13.5q-7 6 -15 9.5t-17 3.5q-14 0 -22.5 -3t-12.5 -8q-6 -6 -8 -13t0 -15h-52q2 16 9.5 30t21.5 26q12 10 28 16t36 6
t36.5 -6t29.5 -16q12 -12 18 -25t6 -28q0 -14 -4 -24t-10 -17q-8 -9 -14 -13.5t-10 -5.5v-6q7 -3 15 -8.5t16 -14.5q6 -9 10 -19.5t4 -20.5v0z" />
    <glyph glyph-name="uni2084" unicode="&#x2084;" horiz-adv-x="950" 
d="M342 -25h-36v-39h-50v39h-124v51q17 22 33 45t31 46l14 22t15 23q7 11 15 23l16 24h50v-191h36v-43zM256 18v113l-76 -113h76z" />
    <glyph glyph-name="Euro" unicode="&#x20ac;" horiz-adv-x="950" 
d="M756 231q-7 -39 -27.5 -77.5t-54.5 -75.5q-33 -39 -81 -58.5t-111 -19.5q-70 0 -124.5 24.5t-93.5 75.5q-18 22 -32.5 48t-23.5 55h-110v100h90q-2 12 -2.5 25.5t-0.5 28.5q0 18 0.5 35t3.5 34h-91v97h115q9 24 21.5 47t29.5 44q39 49 93.5 74.5t124.5 25.5
q65 0 113 -19.5t80 -58.5q33 -39 53.5 -74t26.5 -65h-97q-8 20 -21.5 41t-33.5 44q-21 21 -51 31.5t-68 10.5q-47 0 -84 -18t-65 -54q-3 -4 -5 -7.5t-4 -7.5q-3 -4 -5 -7.5t-3 -6.5h157v-97h-185q-3 -17 -4 -34t-1 -35q0 -15 0.5 -28.5t2.5 -25.5h187v-100h-162
q4 -12 9.5 -22t12.5 -19q28 -39 65 -58.5t84 -19.5q18 0 35 3t32 11q14 6 27 15t25 21q9 11 17.5 23t17.5 24q7 12 13 24t9 25z" />
    <glyph glyph-name="uni2103" unicode="&#x2103;" horiz-adv-x="950" 
d="M297 677q0 -23 -8.5 -43t-23.5 -36q-14 -17 -31.5 -25t-39.5 -8q-23 0 -41.5 8t-33.5 25q-18 16 -26.5 36t-8.5 43q0 22 8.5 41.5t26.5 37.5q15 15 33.5 23.5t41.5 8.5q22 0 39.5 -8.5t31.5 -23.5q15 -18 23.5 -37.5t8.5 -41.5v0zM846 186q-7 -39 -27.5 -77.5
t-54.5 -75.5q-33 -39 -81 -59t-111 -20q-70 0 -124 25t-93 76q-40 49 -59.5 113.5t-19.5 143.5q0 78 19.5 142t59.5 115q39 49 93 74.5t124 25.5q65 0 113 -19.5t80 -58.5q33 -39 53.5 -74t26.5 -65h-97q-7 20 -20.5 41t-33.5 44q-21 21 -51 31.5t-69 10.5q-46 0 -83.5 -18
t-65.5 -54q-26 -38 -38 -86.5t-12 -108.5t12 -109t38 -86q28 -39 65.5 -58.5t83.5 -19.5q18 0 35 3t32 11q13 6 26.5 15t26.5 21q4 5 8 11l8 12t8.5 12t9.5 12q7 12 13 24t9 25zM246 677q0 11 -4.5 20.5t-11.5 18.5q-9 7 -18 11t-18 4q-14 0 -24 -4t-16 -11
q-8 -9 -11.5 -18.5t-3.5 -20.5q0 -12 3.5 -22t11.5 -17q6 -9 16 -13t24 -4q9 0 18 4t18 13q7 7 11.5 17t4.5 22v0z" />
    <glyph glyph-name="uni2109" unicode="&#x2109;" horiz-adv-x="950" 
d="M195 816q23 0 42.5 -9t36.5 -26q14 -18 21.5 -39t7.5 -44q0 -24 -7.5 -44.5t-21.5 -38.5q-17 -18 -36.5 -26.5t-42.5 -8.5q-24 0 -44 8.5t-35 26.5q-17 18 -25 38.5t-8 44.5q0 23 8 44t25 39q15 17 35 26t44 9v0zM195 766q-15 0 -27 -5.5t-21 -14.5q-11 -11 -15.5 -23
t-4.5 -25q0 -15 4.5 -27t15.5 -21q9 -11 21 -15.5t27 -4.5q12 0 22.5 4.5t20.5 15.5q9 9 13.5 21t4.5 27q0 13 -4.5 25t-13.5 23q-10 9 -20.5 14.5t-22.5 5.5v0zM349 684h458v-44h-401v-278h355v-42h-355v-321h-57v685z" />
    <glyph glyph-name="uni2113" unicode="&#x2113;" horiz-adv-x="950" 
d="M500 82q-21 -42 -52.5 -69t-73.5 -40q-12 -3 -22 -4t-16 -1q-33 0 -65.5 21t-65.5 63q-12 -5 -25.5 -8.5t-26.5 -5.5q-15 -3 -28 -4t-25 -1q-4 11 -7 22t-5 23q-3 10 -5.5 21.5t-3.5 23.5h6h14t17 1q7 0 20 1.5t31 4.5q-24 58 -35.5 125.5t-11.5 142.5v12.5t1 15.5v14.5
t1 14.5q1 45 8 86.5t19 79.5q11 37 28 68.5t40 57.5q28 30 54.5 45.5t50.5 15.5q7 0 17.5 -3t22.5 -9q30 -21 50.5 -58t30.5 -91q1 -10 2 -19.5t2 -18.5l2 -18t2 -17q0 -9 0.5 -18t0.5 -17q0 -9 0.5 -17t0.5 -16q0 -69 -11 -126.5t-32 -104.5q-35 -72 -64.5 -116.5
t-53.5 -61.5q19 -30 39.5 -39.5t41.5 0.5q20 11 35 31t24 50zM347 658q-6 28 -13 42t-14 14q-11 0 -22 -9t-23 -25q-34 -50 -50.5 -115.5t-16.5 -146.5q0 -41 3 -76t9 -65q5 -30 12.5 -55.5t16.5 -44.5q29 22 52 71.5t41 125.5q6 21 10.5 41t7.5 40q2 19 3.5 38.5t1.5 39.5
q0 16 -1 32l-2 32q-3 15 -6.5 30.5t-8.5 30.5v0z" />
    <glyph glyph-name="uni2116" unicode="&#x2116;" horiz-adv-x="950" 
d="M454 0h-99l-231 554l-6 -1v-553h-76v698h93l236 -554l6 1v553h77v-698zM853 232q0 -50 -12.5 -92t-36.5 -78t-57 -53.5t-75 -17.5t-76 17.5t-59 53.5q-14 17 -24 36.5t-16 41.5q-7 21 -10 44t-3 48q0 24 3 46.5t10 45.5q6 21 16 40t24 35q25 36 59 55t76 19t75 -19
t57 -55q24 -34 36.5 -76t12.5 -91v0zM936 24q0 -11 -4 -20t-10 -17q-8 -8 -17.5 -12t-20.5 -4q-14 0 -24 4t-17 12q-8 8 -11.5 17t-3.5 20q0 12 3.5 23.5t11.5 20.5q7 9 17 13.5t24 4.5q11 0 20.5 -4.5t17.5 -13.5q6 -9 10 -20.5t4 -23.5v0zM782 232q0 34 -7.5 63.5
t-20.5 54.5q-18 24 -38 36.5t-44 12.5q-26 0 -46 -12.5t-35 -36.5q-17 -25 -24.5 -54.5t-7.5 -63.5q0 -37 7.5 -67t24.5 -53q13 -25 33.5 -37t47.5 -12q24 0 44.5 12t37.5 37q13 23 20.5 53t7.5 67v0z" />
    <glyph glyph-name="uni2121" unicode="&#x2121;" horiz-adv-x="950" 
d="M903 -1h-82v694h82v-694zM489 619h-194v-621h-82v621h-186v74h462v-74zM438 199q0 -33 8.5 -59t24.5 -46q18 -21 39 -31.5t45 -10.5q13 0 25 1.5t21 4.5q9 2 15.5 5.5t11.5 9.5q6 4 11 9.5t11 11.5q4 5 7 10.5t6 11.5h82q-7 -23 -21 -45t-35 -43q-24 -24 -58 -35.5
t-76 -11.5q-45 0 -80.5 18t-62.5 55q-29 34 -43 77t-14 94q0 49 13.5 91.5t41.5 78.5q25 35 61 53t83 18q42 0 79 -17.5t70 -51.5q28 -32 42 -81.5t13 -116.5h-320zM673 263q-1 13 -2.5 26.5t-4.5 26.5q-4 12 -10.5 21.5t-15.5 18.5q-8 10 -17 17.5t-19 13.5q-11 4 -23.5 7
t-26.5 3q-26 0 -45.5 -9t-33.5 -26q-15 -18 -24 -43t-11 -56h233z" />
    <glyph glyph-name="trademark" unicode="&#x2122;" horiz-adv-x="950" 
d="M550 426h-45v210l-5 1q-4 -27 -8.5 -53.5t-10.5 -51.5q-7 -27 -13 -53.5t-10 -52.5h-46l-40 211l-6 -1v-210h-44v344h59l50 -238h10q3 14 5.5 28.5t5.5 28.5l6 30t6 31q5 30 11.5 60t15.5 60h59v-344zM298 713h-81v-287h-50v287h-81v57h212v-57z" />
    <glyph glyph-name="Omega" unicode="&#x2126;" horiz-adv-x="950" 
d="M675 459q0 -59 -13 -109t-37 -91q-26 -42 -57.5 -70.5t-67.5 -44.5v-75h107v-70h-151q-16 0 -25 5t-10 17q-2 3 -2.5 8t-0.5 11q-1 5 -1 9.5v9.5v90q0 15 2.5 26t8.5 18q4 6 7.5 9.5l6.5 6.5q33 10 59.5 31t47.5 54q19 31 29.5 73t10.5 94q0 28 -3.5 53.5t-9.5 49.5
q-7 22 -17.5 42t-23.5 38q-32 33 -70.5 50.5t-83.5 17.5t-81 -18t-63 -53q-32 -36 -47 -82.5t-15 -102.5q0 -50 9 -89.5t29 -69.5q18 -31 44 -52t60 -33q7 -2 13 -8.5t9 -18.5q4 -14 6.5 -25.5t2.5 -20.5v-23.5v-23.5q-1 -12 -1 -24v-23q-1 -3 -1.5 -6t-0.5 -6
q-2 -4 -3 -8.5t-1 -8.5q-3 -9 -8 -13t-13 -4h-153v70h99v71q-18 6 -34.5 17t-32.5 26q-17 14 -32.5 31t-28.5 37q-11 19 -20 41.5t-16 48.5q-9 25 -13 53t-4 60q-1 70 19.5 130t62.5 111q41 51 94.5 77.5t119.5 26.5q65 0 118 -24.5t95 -72.5q40 -48 60.5 -109t20.5 -134v0z
" />
    <glyph glyph-name="uni212B" unicode="&#x212b;" horiz-adv-x="691" 
d="M523 -28l-50 136h-249q-9 -17 -15.5 -34t-11.5 -33q-6 -18 -13 -35t-14 -33q-9 0 -19.5 -0.5t-20.5 -0.5h-22.5h-19.5q24 72 50.5 142.5t53.5 141.5q27 69 54 139.5t54 142.5h96q25 -71 51 -141.5t53 -140.5q26 -71 53.5 -142t56.5 -142h-87zM346 444l-93 -256h191z
M453 687q0 -23 -8.5 -43t-24.5 -36q-14 -17 -32 -25t-40 -8q-23 0 -41 8t-33 25q-18 16 -26 36t-8 43q0 22 8 41.5t26 37.5q15 15 33 23.5t41 8.5q22 0 40 -8.5t32 -23.5q16 -18 24.5 -37.5t8.5 -41.5v0zM401 687q0 11 -4.5 20.5t-11.5 18.5q-9 7 -18 11t-19 4q-12 0 -22 -4
t-17 -11q-8 -9 -11.5 -18.5t-3.5 -20.5q0 -12 3.5 -22.5t11.5 -17.5q7 -9 17 -12.5t22 -3.5q10 0 19 3.5t18 12.5q7 7 11.5 17.5t4.5 22.5v0z" />
    <glyph glyph-name="onethird" unicode="&#x2153;" horiz-adv-x="950" 
d="M521 425h-72v286h-93v58q9 0 19 1.5t21 4.5q9 2 16.5 5t13.5 8q8 4 14 10t11 14q3 6 5 14t2 17h63v-418zM814 340h-682v44h682v-44zM625 -4q0 -26 -10.5 -48t-31.5 -40q-22 -18 -50 -27.5t-62 -9.5q-15 0 -29 2.5t-28 7.5q-15 5 -27.5 11.5t-21.5 15.5q-12 9 -20.5 19.5
t-12.5 22.5q-5 12 -7 25t-2 27h68q-2 -15 4 -28t19 -22q12 -9 25.5 -13.5t30.5 -4.5q18 0 32 4.5t25 13.5q10 9 15.5 20.5t7.5 23.5q0 11 -2 21.5t-8 19.5q-7 8 -17 14t-23 10q-5 2 -11 3.5t-13 1.5h-14.5h-8.5h-6v63q6 0 14 0.5t18 2.5q9 0 15 2t10 5q8 3 14.5 8.5
t11.5 12.5q4 6 7 14t5 17q0 4 -1 9.5t-2 11.5q-2 4 -5 9l-6 10l-12 8t-11 7q-6 3 -15 4.5t-20 1.5q-16 0 -28 -5t-19 -14q-9 -10 -13.5 -21.5t-4.5 -23.5h-72q0 25 9.5 46t30.5 39q19 18 43.5 27t53.5 9q32 0 57.5 -9t45.5 -26q19 -17 29 -37t10 -43q0 -11 -2.5 -19.5
t-5.5 -15.5q-5 -9 -9.5 -15.5t-8.5 -12.5q-3 -6 -8 -11.5t-11 -8.5q-8 -5 -14 -8t-10 -4q18 -6 32.5 -16t26.5 -23q11 -15 17 -30.5t6 -33.5v0z" />
    <glyph glyph-name="twothirds" unicode="&#x2154;" horiz-adv-x="950" 
d="M620 425h-294q0 21 4.5 42.5t14.5 44.5q9 21 27 43t45 45q10 6 19.5 13t18.5 14q8 6 18 12.5t22 14.5l-1 -1l1.5 1t4.5 4t6 6.5t7 7.5q3 4 7 7.5t8 8.5q6 7 10 17.5t5 24.5q0 13 -3.5 25.5t-11.5 24.5q-9 10 -22.5 15.5t-30.5 5.5t-29.5 -6t-21.5 -17q-10 -12 -14.5 -26
t-4.5 -30h-72q0 25 9 48.5t28 44.5q18 21 44.5 32.5t60.5 11.5q33 0 60 -10t48 -29q18 -20 27 -42.5t9 -46.5t-7.5 -43t-22.5 -32q-5 -8 -11 -14t-13 -11q-8 -6 -14 -12t-10 -11l-84 -62q-9 -7 -16.5 -14.5t-13.5 -16.5q-6 -10 -10.5 -18.5t-7.5 -14.5h211v-57zM814 340
h-682v44h682v-44zM625 -4q0 -26 -10.5 -48t-31.5 -40q-22 -18 -50 -27.5t-62 -9.5q-15 0 -29 2.5t-28 7.5q-15 5 -27.5 11.5t-21.5 15.5q-12 9 -20.5 19.5t-12.5 22.5q-5 12 -7 25t-2 27h68q-2 -15 4 -28t19 -22q12 -9 25.5 -13.5t30.5 -4.5q18 0 32 4.5t25 13.5
q10 9 15.5 20.5t7.5 23.5q0 11 -2 21.5t-8 19.5q-7 8 -17 14t-23 10q-5 2 -11 3.5t-13 1.5h-14.5h-8.5h-6v63q6 0 14 0.5t18 2.5q9 0 15 2t10 5q8 3 14.5 8.5t11.5 12.5q4 6 7 14t5 17q0 4 -1 9.5t-2 11.5q-2 4 -5 9l-6 10l-12 8t-11 7q-6 3 -15 4.5t-20 1.5q-16 0 -28 -5
t-19 -14q-9 -10 -13.5 -21.5t-4.5 -23.5h-72q0 25 9.5 46t30.5 39q19 18 43.5 27t53.5 9q32 0 57.5 -9t45.5 -26q19 -17 29 -37t10 -43q0 -11 -2.5 -19.5t-5.5 -15.5q-5 -9 -9.5 -15.5t-8.5 -12.5q-3 -6 -8 -11.5t-11 -8.5q-8 -5 -14 -8t-10 -4q18 -6 32.5 -16t26.5 -23
q11 -15 17 -30.5t6 -33.5v0z" />
    <glyph glyph-name="oneeighth" unicode="&#x215b;" horiz-adv-x="950" 
d="M521 425h-72v286h-93v58q9 0 19 1.5t21 4.5q9 2 16.5 5t13.5 8q8 4 14 10t11 14q3 6 5 14t2 17h63v-418zM814 340h-682v44h682v-44zM633 -5q0 -27 -12 -49t-36 -40q-23 -18 -51 -27.5t-62 -9.5q-32 0 -59 9.5t-51 27.5q-24 19 -35.5 41t-11.5 48q0 15 5 30.5t17 30.5
q10 13 23 24.5t29 20.5q-13 9 -23.5 19.5t-18.5 23.5q-9 12 -13 24.5t-4 26.5q0 23 10.5 43t32.5 38q21 16 45.5 24.5t53.5 8.5q32 0 59 -8.5t48 -24.5q21 -18 32 -38t11 -43q0 -14 -4.5 -26.5t-13.5 -24.5q-10 -13 -22 -23.5t-27 -18.5q17 -9 31 -21t26 -25
q10 -15 15.5 -30.5t5.5 -30.5v0zM545 189q0 11 -4.5 21t-13.5 19q-9 7 -23 11.5t-32 4.5t-30.5 -4.5t-20.5 -11.5q-9 -9 -13.5 -19t-4.5 -21q0 -14 4.5 -24t13.5 -17q8 -8 20.5 -11.5t30.5 -3.5t32 3.5t23 11.5q9 7 13.5 17t4.5 24v0zM563 -4q0 15 -6 27.5t-18 22.5
q-13 9 -29.5 14t-37.5 5t-37.5 -5t-26.5 -14q-12 -10 -17.5 -22.5t-5.5 -27.5q0 -12 5.5 -23.5t17.5 -20.5q10 -9 26.5 -14t37.5 -5t37.5 5t29.5 14q12 9 18 20.5t6 23.5v0z" />
    <glyph glyph-name="threeeighths" unicode="&#x215c;" horiz-adv-x="950" 
d="M625 543q0 -27 -10.5 -50t-31.5 -41q-22 -20 -50 -29.5t-62 -9.5q-15 0 -29 2.5t-28 8.5q-15 5 -27.5 12t-21.5 16q-12 9 -20.5 19.5t-12.5 23.5q-5 12 -7 24.5t-2 27.5h68q-2 -17 4 -29t19 -21q12 -10 25.5 -14.5t30.5 -4.5q18 0 32 4.5t25 14.5q10 9 15.5 20t7.5 26
q0 10 -2 20t-8 19q-7 8 -17 14t-23 10q-5 2 -11 3.5t-13 1.5h-14.5h-8.5h-6v63q6 0 14 0.5t18 2.5q9 0 15 2t10 5q8 3 14.5 8.5t11.5 12.5q4 6 7 14t5 17q0 4 -1 9.5t-2 11.5q-2 4 -5 9l-6 10l-12 8t-11 7q-6 3 -15 4.5t-20 1.5q-16 0 -28 -5t-19 -14q-9 -10 -13.5 -21.5
t-4.5 -23.5h-72q0 25 9.5 46t30.5 39q19 18 43.5 27t53.5 9q32 0 57.5 -9t45.5 -26q19 -17 29 -37t10 -43q0 -11 -2.5 -19.5t-5.5 -15.5q-5 -9 -9.5 -15.5t-8.5 -12.5q-3 -7 -8 -12t-11 -8q-8 -5 -14 -8t-10 -4q18 -6 32.5 -16t26.5 -23q11 -15 17 -30.5t6 -31.5v0zM814 340
h-682v44h682v-44zM633 -5q0 -27 -12 -49t-36 -40q-23 -18 -51 -27.5t-62 -9.5q-32 0 -59 9.5t-51 27.5q-24 19 -35.5 41t-11.5 48q0 15 5 30.5t17 30.5q10 13 23 24.5t29 20.5q-13 9 -23.5 19.5t-18.5 23.5q-9 12 -13 24.5t-4 26.5q0 23 10.5 43t32.5 38q21 16 45.5 24.5
t53.5 8.5q32 0 59 -8.5t48 -24.5q21 -18 32 -38t11 -43q0 -14 -4.5 -26.5t-13.5 -24.5q-10 -13 -22 -23.5t-27 -18.5q17 -9 31 -21t26 -25q10 -15 15.5 -30.5t5.5 -30.5v0zM545 189q0 11 -4.5 21t-13.5 19q-9 7 -23 11.5t-32 4.5t-30.5 -4.5t-20.5 -11.5q-9 -9 -13.5 -19
t-4.5 -21q0 -14 4.5 -24t13.5 -17q8 -8 20.5 -11.5t30.5 -3.5t32 3.5t23 11.5q9 7 13.5 17t4.5 24v0zM563 -4q0 15 -6 27.5t-18 22.5q-13 9 -29.5 14t-37.5 5t-37.5 -5t-26.5 -14q-12 -10 -17.5 -22.5t-5.5 -27.5q0 -12 5.5 -23.5t17.5 -20.5q10 -9 26.5 -14t37.5 -5t37.5 5
t29.5 14q12 9 18 20.5t6 23.5v0z" />
    <glyph glyph-name="fiveeighths" unicode="&#x215d;" horiz-adv-x="950" 
d="M614 561q0 -18 -4 -33t-10 -28q-8 -14 -16 -26t-17 -21q-13 -9 -25.5 -16.5t-24.5 -12.5q-13 -6 -27 -8.5t-29 -2.5q-32 0 -57.5 10t-45.5 31q-12 10 -20 20.5t-11 21.5q-5 9 -8 19t-4 21h67q2 -14 8.5 -24.5t17.5 -17.5q9 -9 22 -12.5t29 -3.5q18 0 32 5t26 17
q10 10 16.5 25t8.5 34q0 18 -5.5 34t-15.5 28q-11 12 -26 18t-33 6q-9 0 -17 -1.5t-16 -4.5q-9 -4 -15.5 -8.5t-9.5 -9.5h-80q3 27 7 54.5t9 54.5q3 26 8 53t11 56h232v-63h-174l-15 -98q7 4 16 8t20 7q9 2 20 3.5t23 1.5q2 0 4 -0.5t4 -0.5h4h5q1 -1 3 -1.5t4 -0.5
q2 -1 4 -1.5t5 -0.5q16 -6 33.5 -16t35.5 -25q15 -16 23 -38.5t8 -52.5v0zM814 340h-682v44h682v-44zM633 -5q0 -27 -12 -49t-36 -40q-23 -18 -51 -27.5t-62 -9.5q-32 0 -59 9.5t-51 27.5q-24 19 -35.5 41t-11.5 48q0 15 5 30.5t17 30.5q10 13 23 24.5t29 20.5
q-13 9 -23.5 19.5t-18.5 23.5q-9 12 -13 24.5t-4 26.5q0 23 10.5 43t32.5 38q21 16 45.5 24.5t53.5 8.5q32 0 59 -8.5t48 -24.5q21 -18 32 -38t11 -43q0 -14 -4.5 -26.5t-13.5 -24.5q-10 -13 -22 -23.5t-27 -18.5q17 -9 31 -21t26 -25q10 -15 15.5 -30.5t5.5 -30.5v0z
M545 189q0 11 -4.5 21t-13.5 19q-9 7 -23 11.5t-32 4.5t-30.5 -4.5t-20.5 -11.5q-9 -9 -13.5 -19t-4.5 -21q0 -14 4.5 -24t13.5 -17q8 -8 20.5 -11.5t30.5 -3.5t32 3.5t23 11.5q9 7 13.5 17t4.5 24v0zM563 -4q0 15 -6 27.5t-18 22.5q-13 9 -29.5 14t-37.5 5t-37.5 -5
t-26.5 -14q-12 -10 -17.5 -22.5t-5.5 -27.5q0 -12 5.5 -23.5t17.5 -20.5q10 -9 26.5 -14t37.5 -5t37.5 5t29.5 14q12 9 18 20.5t6 23.5v0z" />
    <glyph glyph-name="seveneighths" unicode="&#x215e;" horiz-adv-x="950" 
d="M622 762q-8 -9 -18.5 -21t-23.5 -28q-15 -18 -27.5 -39.5t-23.5 -47.5q-15 -28 -26 -55.5t-18 -54.5q-8 -29 -12 -51.5t-4 -39.5h-81q0 13 4 32.5t12 43.5q6 24 17.5 50.5t28.5 56.5q15 27 29.5 51t28.5 45q10 10 18 19t14 18q5 7 9.5 13l7.5 10h-227v65h292v-67z
M814 340h-682v44h682v-44zM633 -5q0 -27 -12 -49t-36 -40q-23 -18 -51 -27.5t-62 -9.5q-32 0 -59 9.5t-51 27.5q-24 19 -35.5 41t-11.5 48q0 15 5 30.5t17 30.5q10 13 23 24.5t29 20.5q-13 9 -23.5 19.5t-18.5 23.5q-9 12 -13 24.5t-4 26.5q0 23 10.5 43t32.5 38
q21 16 45.5 24.5t53.5 8.5q32 0 59 -8.5t48 -24.5q21 -18 32 -38t11 -43q0 -14 -4.5 -26.5t-13.5 -24.5q-10 -13 -22 -23.5t-27 -18.5q17 -9 31 -21t26 -25q10 -15 15.5 -30.5t5.5 -30.5v0zM545 189q0 11 -4.5 21t-13.5 19q-9 7 -23 11.5t-32 4.5t-30.5 -4.5t-20.5 -11.5
q-9 -9 -13.5 -19t-4.5 -21q0 -14 4.5 -24t13.5 -17q8 -8 20.5 -11.5t30.5 -3.5t32 3.5t23 11.5q9 7 13.5 17t4.5 24v0zM563 -4q0 15 -6 27.5t-18 22.5q-13 9 -29.5 14t-37.5 5t-37.5 -5t-26.5 -14q-12 -10 -17.5 -22.5t-5.5 -27.5q0 -12 5.5 -23.5t17.5 -20.5
q10 -9 26.5 -14t37.5 -5t37.5 5t29.5 14q12 9 18 20.5t6 23.5v0z" />
    <glyph glyph-name="uni2160" unicode="&#x2160;" horiz-adv-x="950" 
d="M529 -29h-112v783h112v-783z" />
    <glyph glyph-name="uni2161" unicode="&#x2161;" horiz-adv-x="950" 
d="M701 -29h-113v783h113v-783zM359 -29h-109v783h109v-783z" />
    <glyph glyph-name="uni2162" unicode="&#x2162;" horiz-adv-x="950" 
d="M743 -29h-112v783h112v-783zM529 -29h-112v783h112v-783zM315 -29h-108v783h108v-783z" />
    <glyph glyph-name="uni2163" unicode="&#x2163;" horiz-adv-x="950" 
d="M826 754q-13 -50 -26 -99.5t-26 -98.5t-26 -97.5t-25 -96.5q-27 -98 -51.5 -195.5t-47.5 -195.5h-130q-26 98 -51.5 195.5t-50.5 195.5q-27 96 -51.5 194.5t-48.5 197.5h115l145 -622h6q18 77 36.5 155t38.5 156q18 77 36.5 155t38.5 156h118zM256 -29h-104v783h104v-783
z" />
    <glyph glyph-name="uni2164" unicode="&#x2164;" horiz-adv-x="950" 
d="M801 754q-32 -99 -63.5 -197.5t-63.5 -194.5q-33 -98 -66 -195.5t-66 -195.5h-131q-36 98 -69.5 195.5t-65.5 195.5q-33 96 -65.5 194.5t-62.5 197.5h114l211 -650q27 80 54 161t54 164q25 81 51.5 162.5t55.5 162.5h113z" />
    <glyph glyph-name="uni2165" unicode="&#x2165;" horiz-adv-x="950" 
d="M800 -29h-104v783h104v-783zM659 754q-13 -50 -26 -99.5t-26 -98.5t-26 -97.5t-25 -96.5q-27 -98 -51.5 -195.5t-47.5 -195.5h-131q-26 98 -51.5 195.5t-50.5 195.5q-27 96 -51.5 194.5t-47.5 197.5h115l145 -622h6q18 77 37 155l38 156q18 78 36.5 155.5t39.5 155.5h117
z" />
    <glyph glyph-name="uni2166" unicode="&#x2166;" horiz-adv-x="950" 
d="M842 -29h-95v783h95v-783zM693 -29h-104v783h104v-783zM556 754q-23 -99 -44.5 -197.5t-42.5 -194.5q-22 -98 -44 -195.5t-43 -195.5h-130q-23 98 -44 195.5t-41 195.5q-11 48 -21.5 96.5t-21.5 97.5t-21.5 98.5t-20.5 99.5h115l121 -617h6q12 75 27 152t32 155
q15 77 31 154.5t31 155.5h111z" />
    <glyph glyph-name="uni2167" unicode="&#x2167;" horiz-adv-x="950" 
d="M890 -29h-93v783h93v-783zM750 -29h-92v783h92v-783zM609 -29h-98v783h98v-783zM480 754q-10 -50 -19.5 -99.5t-19.5 -98.5q-9 -49 -18.5 -97.5t-18.5 -96.5q-20 -98 -39.5 -195.5t-37.5 -195.5h-129q-20 96 -39 193.5t-37 196.5q-10 48 -20 97l-20 98t-20 98.5t-20 99.5
h109l105 -617h6q15 75 28.5 152t27.5 155q12 77 26.5 154.5t30.5 155.5h105z" />
    <glyph glyph-name="uni2168" unicode="&#x2168;" horiz-adv-x="950" 
d="M834 -29h-121l-166 291q-21 -36 -41.5 -73t-40.5 -74q-21 -39 -42 -75t-41 -69h-121l230 399q-30 48 -58 96t-53 96q-14 23 -27 47t-27 48q-13 24 -26.5 48t-26.5 49h117l157 -276q18 33 38 67.5t41 70.5q20 34 40 68.5t41 69.5h120l-216 -384zM221 -29h-100v783h100
v-783z" />
    <glyph glyph-name="uni2169" unicode="&#x2169;" horiz-adv-x="950" 
d="M789 -29h-122l-187 309q-25 -39 -49.5 -77.5t-48.5 -77.5q-25 -41 -47.5 -79.5t-43.5 -74.5h-124l250 406q-14 23 -28 46.5t-28 46.5l-28 48l-28 48q-30 46 -58.5 93t-56.5 95h115l175 -279q20 31 41 65.5t44 72.5q21 37 42.5 72.5t42.5 68.5h116l-226 -377z" />
    <glyph glyph-name="uni2170" unicode="&#x2170;" horiz-adv-x="950" 
d="M529 640h-112v114h112v-114zM529 -29h-112v567h112v-567z" />
    <glyph glyph-name="uni2171" unicode="&#x2171;" horiz-adv-x="950" 
d="M700 640h-112v114h112v-114zM358 640h-108v114h108v-114zM700 -29h-112v567h112v-567zM358 -29h-108v567h108v-567z" />
    <glyph glyph-name="uni2172" unicode="&#x2172;" horiz-adv-x="950" 
d="M747 640h-112v114h112v-114zM529 640h-112v114h112v-114zM306 640h-104v114h104v-114zM747 -29h-112v567h112v-567zM529 -29h-112v567h112v-567zM306 -29h-104v567h104v-567z" />
    <glyph glyph-name="uni2173" unicode="&#x2173;" horiz-adv-x="950" 
d="M272 640h-108v114h108v-114zM815 538q-27 -72 -51.5 -142t-47.5 -139q-24 -70 -47 -140.5t-44 -140.5h-130q-12 35 -24.5 70t-24.5 70l-24 70t-24 71q-25 69 -49 139.5t-48 141.5h116l139 -433q16 53 34 107t37 110q9 27 17.5 54t17.5 54l18 54l18 54h117zM272 -29h-108
v567h108v-567z" />
    <glyph glyph-name="uni2174" unicode="&#x2174;" horiz-adv-x="950" 
d="M725 538q-12 -36 -24 -71.5t-24 -70.5l-24 -70t-23 -69q-24 -70 -47 -140.5t-45 -140.5h-129q-12 35 -24.5 70t-24.5 70l-24 70t-24 71q-25 69 -49 139.5t-48 141.5h118l137 -433q16 53 34 107t37 110q9 27 17.5 54t17.5 54l18 54l18 54h113z" />
    <glyph glyph-name="uni2175" unicode="&#x2175;" horiz-adv-x="950" 
d="M791 640h-112v114h112v-114zM650 538q-27 -72 -51.5 -142t-47.5 -139q-24 -70 -47.5 -140.5t-45.5 -140.5h-128l-24 70l-24 70l-24 70t-23 71q-24 69 -49 139.5t-50 141.5h117l138 -433q16 53 34 107t37 110q9 27 17.5 54t17.5 54l18 54l18 54h117zM791 -29h-112v567h112
v-567z" />
    <glyph glyph-name="uni2176" unicode="&#x2176;" horiz-adv-x="950" 
d="M833 640h-96v114h96v-114zM679 640h-96v114h96v-114zM548 538q-11 -36 -21.5 -71.5t-20.5 -70.5q-11 -35 -21 -70t-20 -69q-11 -35 -21.5 -70t-20.5 -71q-10 -35 -20.5 -70t-20.5 -70h-129q-11 35 -21.5 70t-20.5 70q-11 35 -21 70t-20 71q-21 69 -42 139.5t-42 141.5
h113l122 -432q12 52 27 106.5t33 110.5l32 108t31 107h104zM833 -29h-96v567h96v-567zM679 -29h-96v567h96v-567z" />
    <glyph glyph-name="uni2177" unicode="&#x2177;" horiz-adv-x="950" 
d="M880 640h-91v114h91v-114zM741 640h-94v114h94v-114zM595 640h-95v114h95v-114zM465 538q-19 -72 -37 -142t-35 -139q-18 -70 -36 -140.5t-36 -140.5h-128q-20 70 -38 140t-36 141q-18 69 -37.5 139.5t-39.5 141.5h109l100 -427h6q15 54 28.5 107t25.5 107
q11 52 24.5 105.5t28.5 107.5h101zM880 -29h-91v567h91v-567zM741 -29h-94v567h94v-567zM595 -29h-95v567h95v-567z" />
    <glyph glyph-name="uni2178" unicode="&#x2178;" horiz-adv-x="950" 
d="M282 640h-113v114h113v-114zM800 -29h-122l-121 191q-13 -24 -27.5 -47.5t-30.5 -47.5q-18 -26 -32.5 -50t-26.5 -46h-122l182 290q-22 33 -43.5 68t-42.5 71q-23 34 -44.5 68.5t-42.5 69.5h121l109 -179q12 21 26.5 43.5t31.5 46.5q15 23 28.5 45.5t25.5 43.5h123
l-170 -277zM282 -29h-113v567h113v-567z" />
    <glyph glyph-name="uni2179" unicode="&#x2179;" horiz-adv-x="950" 
d="M731 -24h-126l-133 195q-14 -26 -29.5 -50.5t-32.5 -48.5q-9 -13 -18 -25t-17 -24q-9 -12 -17 -24t-16 -23h-126l196 288q-24 32 -46.5 66t-44.5 70q-24 35 -48 69.5t-48 68.5h130l117 -181q7 10 14.5 21.5t14.5 22.5q8 11 16 23t17 24q16 23 30.5 45.5t27.5 44.5h126
l-179 -274z" />
    <glyph glyph-name="arrowleft" unicode="&#x2190;" horiz-adv-x="950" 
d="M922 323h-698q12 -13 25 -26t27 -25q12 -14 26 -26.5t29 -24.5q-21 9 -41.5 18t-39.5 18q-11 4 -20.5 8t-19.5 8t-19 8l-18 8q-10 4 -19 9l-18 10t-18 9.5t-18 9.5q-18 8 -37.5 17t-38.5 18q18 8 36.5 17t37.5 18t37.5 18t38.5 18q18 9 37.5 17.5t39.5 17.5q19 9 39 18
t41 18l-109 -103h700v-78z" />
    <glyph glyph-name="arrowup" unicode="&#x2191;" horiz-adv-x="950" 
d="M605 511l-95 110v-733h-79v733q-9 -12 -19.5 -25.5t-22.5 -28.5q-13 -15 -26 -29.5t-26 -27.5l18 42t18 41t17.5 39.5t17.5 39.5q15 37 31 78t32 86z" />
    <glyph glyph-name="arrowright" unicode="&#x2192;" horiz-adv-x="950" 
d="M917 362q-19 -9 -38 -17.5t-39 -17.5q-19 -9 -38.5 -17.5t-38.5 -17.5q-21 -10 -40 -19l-38 -18t-36.5 -17.5t-34.5 -16.5l99 102h-698v78h700l-24.5 24.5t-25.5 26.5q-15 12 -28 25t-23 27z" />
    <glyph glyph-name="arrowdown" unicode="&#x2193;" horiz-adv-x="950" 
d="M607 205q-9 -21 -18 -41.5t-17 -40.5q-9 -20 -17 -39t-16 -37q-18 -38 -35 -76.5t-33 -80.5q-15 40 -31 79.5t-32 77.5q-9 18 -17.5 37.5t-17.5 38.5q-9 20 -17.5 40t-17.5 41l93 -103v737h79v-736z" />
    <glyph glyph-name="arrowboth" unicode="&#x2194;" horiz-adv-x="950" 
d="M928 362q-33 -17 -67.5 -34t-70.5 -33q-19 -9 -36.5 -18t-35.5 -17q-17 -9 -33.5 -17t-32.5 -16l92 96h-537q8 -12 19 -24.5t25 -25.5q6 -7 12 -13.5t12 -12.5q5 -6 10.5 -11.5t10.5 -9.5q-38 17 -73 34t-68 34l-34 16t-35 17q-17 8 -35 17l-36 18q36 17 71 34t70 35
q16 8 33.5 16t34.5 16l36 16t36 17l-89 -94h537q-13 10 -25 22t-24 26q-13 12 -23.5 23.5t-19.5 22.5z" />
    <glyph glyph-name="arrowupdn" unicode="&#x2195;" horiz-adv-x="950" 
d="M611 186q-9 -21 -18 -40.5t-18 -38.5t-17.5 -37.5t-16.5 -36.5q-9 -18 -17.5 -37t-17.5 -38q-9 -20 -17.5 -39.5t-17.5 -39.5q-8 18 -16 37l-16 38l-16 38t-16 39q-17 37 -35 76t-37 78l97 -109v572q-10 -14 -21 -28t-23 -27q-13 -15 -26.5 -29t-26.5 -27q19 40 37 79
t35 76q7 18 15 36.5t16 37.5q8 20 16 39.5t17 40.5q17 -40 34.5 -79t35.5 -76q17 -39 34.5 -77t35.5 -77l-102 111v-572z" />
    <glyph glyph-name="uni2196" unicode="&#x2196;" horiz-adv-x="950" 
d="M914 -46q-8 -6 -14.5 -13t-12.5 -14q-7 -7 -14 -14.5t-13 -14.5l-693 723v-179q-18 50 -35.5 98.5t-32.5 95.5q-9 22 -17 45.5t-17 47.5q-8 24 -16.5 48.5t-17.5 50.5q46 -21 91.5 -39.5t90.5 -35.5q43 -18 89 -37t96 -37h-176z" />
    <glyph glyph-name="uni2197" unicode="&#x2197;" horiz-adv-x="950" 
d="M915 827q-20 -50 -38.5 -98t-35.5 -95q-18 -48 -35 -96t-32 -96v176q-88 -90 -175 -180.5t-172 -180.5q-44 -46 -87 -91.5t-86 -90.5l-86 -90t-85 -89q-6 7 -12 14.5t-13 14.5q-9 7 -15.5 14t-10.5 15l685 724h-175z" />
    <glyph glyph-name="uni2198" unicode="&#x2198;" horiz-adv-x="950" 
d="M917 -102q-48 19 -94 37t-91 36l-46 18t-47 18q-23 9 -46 18.5t-46 19.5h168q-86 90 -171.5 180.5t-169.5 181.5q-43 45 -85.5 90t-85.5 90t-85.5 90.5t-84.5 91.5q4 7 10.5 14t14.5 15q7 6 13 13t12 15l693 -725v183z" />
    <glyph glyph-name="uni2199" unicode="&#x2199;" horiz-adv-x="950" 
d="M915 768l-691 -725h175q-26 -10 -50 -19.5t-47 -18.5q-24 -9 -46.5 -17.5t-43.5 -17.5q-44 -18 -89 -36t-91 -36q9 24 17.5 48.5t17.5 48.5q8 24 16.5 48t17.5 48q15 47 32.5 95t35.5 98v-182q85 90 171.5 180t174.5 182q87 90 173.5 181t172.5 181z" />
    <glyph glyph-name="arrowdblright" unicode="&#x21d2;" horiz-adv-x="950" 
d="M747 459q-20 12 -39.5 25.5t-38.5 27.5q-20 12 -38.5 26t-35.5 29q2 3 5 7t8 8l6.5 6.5t6.5 7.5q40 -30 81 -59.5t82 -57.5q19 -15 39.5 -29.5t40.5 -29.5t40.5 -29.5t41.5 -29.5q-42 -30 -82.5 -59.5t-79.5 -57.5q-21 -15 -41.5 -29.5t-40.5 -29.5t-40.5 -29.5
t-40.5 -29.5q-3 3 -6.5 7t-6.5 8q-5 3 -8 6t-5 8l155 110h-750v34h793l86 62l-87 64h-792v34h747z" />
    <glyph glyph-name="arrowdblboth" unicode="&#x21d4;" horiz-adv-x="950" 
d="M748 459q-21 12 -40.5 25.5t-37.5 27.5q-20 13 -38.5 27t-36.5 29q2 3 5 7t8 8l6.5 6.5t6.5 7.5q40 -30 81 -59.5t82 -57.5q19 -15 39.5 -29.5t40.5 -29.5t40.5 -29.5t41.5 -29.5q-42 -30 -82.5 -59.5t-79.5 -57.5q-21 -15 -41.5 -29.5t-40.5 -29.5t-40.5 -29.5
t-40.5 -29.5q-3 3 -6.5 7t-6.5 8q-5 3 -8 6t-5 8l153 109h-546q18 -14 36.5 -27.5t38.5 -26.5q9 -8 18.5 -15t18.5 -14q8 -7 16.5 -13.5t17.5 -12.5q-2 -3 -3.5 -5t-2.5 -4t-2 -3.5t-2 -2.5q-2 -2 -3 -4l-2 -4t-2 -3.5t-1 -2.5q-21 15 -41.5 29.5t-41.5 29.5
q-20 15 -40.5 29.5t-40.5 29.5q-42 28 -83.5 57.5t-81.5 59.5q40 30 81.5 59t83.5 59q40 28 81 57.5t83 59.5q1 -5 3 -8t5 -6q2 -4 4.5 -8t5.5 -7l-146 -109h546zM792 299l87 63l-87 63h-637l-87 -63l87 -63h637z" />
    <glyph glyph-name="universal" unicode="&#x2200;" horiz-adv-x="950" 
d="M291 520h405q9 27 20 54.5t23 55.5q11 27 23.5 54.5t26.5 55.5h42q-21 -48 -41 -95.5t-40 -94.5q-20 -48 -40 -94.5t-39 -92.5q-40 -94 -79.5 -188t-78.5 -188h-46q-20 47 -39.5 94t-38.5 94q-20 47 -39 94l-38 94q-20 46 -39.5 93t-38.5 94t-38.5 94.5t-38.5 95.5h42z
M678 486h-378l193 -455z" />
    <glyph glyph-name="partialdiff" unicode="&#x2202;" horiz-adv-x="950" 
d="M581 367q-19 0 -39 -2t-41 -5q-22 -5 -43 -15.5t-42 -26.5q-14 -9 -23 -18t-15 -18q-7 -11 -11.5 -21.5t-6.5 -20.5q-3 -11 -3.5 -20t1.5 -17q1 -9 4 -16.5t8 -13.5q10 -15 25 -18t35 5q19 7 37 18t34 26q10 10 18.5 20.5t14.5 21.5q2 5 4.5 10t5.5 10t5.5 10l5.5 11
q6 10 11.5 20.5t8.5 21.5q1 4 2 8.5t2 8.5q1 5 2 9l2 8zM453 525q-26 -5 -45.5 -15.5t-32.5 -25.5q-14 -15 -23.5 -21t-13.5 -1q0 -1 9.5 11l28.5 36q20 24 51 35.5t73 10.5q39 -2 66.5 -19t44.5 -49q7 -18 11.5 -39t4.5 -45q0 -18 -2.5 -37.5t-5.5 -40.5q-12 -35 -28 -63.5
t-36 -50.5q-21 -24 -45.5 -40t-51.5 -25q-20 -6 -34.5 -8.5t-23.5 -2.5q-34 0 -55 18t-29 56q-2 6 -1 14t4 19q1 10 4.5 21.5t9.5 24.5q14 27 45.5 48t79.5 35q17 4 33.5 6.5t31.5 4.5h14h13q7 0 12.5 0.5t11.5 0.5h9q0 6 -0.5 12t-0.5 12t-0.5 12.5t-0.5 13.5
q-2 12 -5.5 25t-8.5 27q-8 9 -16.5 17.5t-17.5 14.5q-10 6 -20.5 9t-21.5 3q-12 0 -21.5 -1.5t-16.5 -2.5v0z" />
    <glyph glyph-name="existential" unicode="&#x2203;" horiz-adv-x="950" 
d="M724 739v-753h-516v33h475v341h-443v34h443v310h-466v35h507z" />
    <glyph glyph-name="gradient" unicode="&#x2207;" horiz-adv-x="950" 
d="M471 36q-23 40 -45 80t-44 79q-22 40 -44 79.5t-43 79.5q-44 78 -87.5 157.5t-86.5 160.5h710zM176 639l298 -529l287 529h-585z" />
    <glyph glyph-name="element" unicode="&#x2208;" horiz-adv-x="950" 
d="M163 345q0 -21 4.5 -40t13.5 -37q7 -20 17.5 -39t22.5 -37q29 -37 74 -55t107 -18h399v-34h-388q-67 0 -119.5 19.5t-90.5 58.5q-39 41 -58.5 90.5t-19.5 108.5q0 57 19.5 106.5t58.5 90.5q38 39 90.5 59.5t119.5 20.5h388v-34h-399q-61 0 -106 -19t-75 -55
q-12 -20 -22.5 -38.5t-17.5 -36.5q-9 -20 -13.5 -39t-4.5 -38h637v-34h-637z" />
    <glyph glyph-name="suchthat" unicode="&#x220b;" horiz-adv-x="950" 
d="M147 345v34h641q-3 37 -19.5 75t-46.5 77q-28 36 -72.5 55t-104.5 19h-399v34h392q64 0 116 -20.5t93 -59.5q38 -41 57.5 -90t19.5 -107q0 -59 -19.5 -109t-57.5 -90q-41 -39 -93 -58.5t-116 -19.5h-392v34h399q60 0 104.5 18t72.5 55q13 18 25 36.5t21 38.5
q9 18 13.5 37.5t6.5 40.5h-641z" />
    <glyph glyph-name="product" unicode="&#x220f;" horiz-adv-x="950" 
d="M797 684v-45h-171v-640h-43v640h-219v-640h-44v640h-171v45h648z" />
    <glyph glyph-name="summation" unicode="&#x2211;" horiz-adv-x="950" 
d="M750 684v-232h-46v187h-460q31 -38 65 -75t70 -73q35 -38 68.5 -75.5t66.5 -73.5l-270 -297h464v188h46v-234h-548q-6 0 -11.5 1t-9.5 4q-6 1 -9 4.5t-3 9.5q-2 7 1 14.5t10 14.5l11 11l11 11q28 33 58 67t63 70q31 34 63 68t65 68q-34 34 -67 69.5t-65 71.5
q-33 35 -64 70t-60 71v60h551z" />
    <glyph glyph-name="radical" unicode="&#x221a;" horiz-adv-x="950" 
d="M89 220q12 7 22.5 14t20.5 15q9 6 17.5 13.5t17.5 15.5l90 -180q13 67 26 136t25 139q11 69 21.5 138t20.5 138h488v-35h-462l-99 -603q-1 -2 -2.5 -2.5t-3.5 -0.5h-5t-2 2l-106 218q-6 -5 -12 -9.5t-12 -8.5q-4 -3 -7.5 -6t-6.5 -5q-3 -3 -6 -5t-5 -4z" />
    <glyph glyph-name="proportional" unicode="&#x221d;" horiz-adv-x="950" 
d="M156 362q0 -37 12 -67t36 -54q22 -26 51 -38t64 -12q48 0 83 20.5t56 62.5q10 19 18 34.5t14 27.5q2 5 3.5 9t3.5 7q1 3 2 5.5t1 4.5q0 1 -1 3t-2 6q-2 3 -3.5 7.5l-3.5 10.5q-3 5 -6.5 11.5t-7.5 13.5q-4 8 -8.5 16.5t-9.5 19.5q-21 41 -56 62t-83 21q-35 0 -64 -13
t-51 -37q-14 -15 -23.5 -29t-13.5 -28q-6 -15 -8.5 -31t-2.5 -33v0zM813 509q-11 6 -21.5 11t-19.5 8q-11 2 -23 3.5t-27 1.5q-52 0 -87.5 -21t-53.5 -62q-20 -40 -29.5 -62t-9.5 -26q0 -5 9.5 -27t29.5 -61q18 -42 53.5 -62.5t87.5 -20.5q14 0 26.5 1.5t23.5 5.5q10 3 20 7
t21 10q2 -6 4.5 -9.5t5.5 -5.5q1 -2 2 -3.5t2 -3.5t2.5 -3.5t3.5 -2.5q-15 -9 -27.5 -15t-24.5 -9q-12 -5 -27 -6.5t-32 -1.5q-27 0 -50.5 4.5t-41.5 15.5q-20 9 -34 23t-23 33q-13 17 -22 32t-14 29l-10 20t-4 11q-2 -5 -5.5 -12.5t-9.5 -17.5q-4 -6 -8 -13t-10 -15
q-5 -7 -11 -16l-12 -18q-24 -39 -60.5 -57.5t-87.5 -18.5q-42 0 -77.5 15t-65.5 45q-27 30 -40 66.5t-13 80.5q0 42 13 79t40 67q30 30 66 45.5t77 15.5q50 0 86.5 -19.5t60.5 -56.5q12 -21 21 -36l15 -25q6 -11 9.5 -16.5t4.5 -5.5h10l3 6t9 17q4 10 13.5 25t23.5 35
q9 18 23.5 32t34.5 25q18 9 40.5 14t48.5 5q16 0 31 -2.5t29 -5.5q12 -5 25 -11t25 -13z" />
    <glyph glyph-name="infinity" unicode="&#x221e;" horiz-adv-x="950" 
d="M474 405q-1 -2 1 1t7 9q4 6 8.5 14t10.5 20q0 1 1 2t2 3q1 1 2 3t3 4q1 3 4 6.5t8 7.5q9 15 22.5 26.5t30.5 20.5q16 7 35 11.5t42 4.5q31 0 61 -13t59 -37q24 -27 37 -58.5t13 -67.5q0 -38 -13 -69.5t-37 -56.5q-29 -27 -59 -39.5t-61 -12.5q-23 0 -42 4.5t-35 13.5
q-17 8 -30.5 19t-22.5 25q-5 4 -8 8t-4 9q-3 3 -5 6t-3 6q-5 10 -9.5 18t-7.5 14q-5 4 -7.5 7t-2.5 5h-6q0 -1 -0.5 -1.5t-1.5 -2.5q0 -1 -1 -2.5t-1 -3.5q-2 -3 -4 -7l-4 -8q-3 -5 -5.5 -9.5t-5.5 -9.5q-3 -3 -5 -6l-4 -6q-3 -3 -6 -7.5t-5 -9.5q-21 -32 -53.5 -47
t-76.5 -15q-33 0 -63 12.5t-57 39.5q-26 25 -38 56.5t-12 69.5q0 36 12 67.5t38 58.5q27 24 57 37t63 13q21 0 41 -4.5t38 -11.5q17 -9 29.5 -20.5t21.5 -26.5q1 -3 4 -6.5t7 -6.5q1 -3 2.5 -5t2.5 -3q1 -2 2 -3l2 -2q3 -6 5.5 -10.5t4.5 -8.5t4 -7t4 -5q1 -6 2.5 -9.5
t2.5 -3.5h6zM167 362q0 -29 9.5 -53.5t29.5 -45.5q18 -21 40.5 -31t48.5 -10q39 0 68.5 16.5t48.5 49.5q16 33 25 51t11 23q-2 1 -5 6.5t-7 15.5q-6 9 -12 21t-12 29q-19 33 -48.5 50.5t-68.5 17.5q-26 0 -48.5 -10.5t-40.5 -30.5q-20 -21 -29.5 -46t-9.5 -53v0zM784 362
q0 28 -10.5 53t-29.5 46q-20 20 -43 30.5t-50 10.5q-39 0 -67 -17.5t-46 -50.5q-5 -9 -9 -16t-7 -13q-4 -6 -6.5 -11.5t-4.5 -9.5q-6 -10 -8.5 -15.5t-2.5 -6.5q0 -3 2.5 -8t8.5 -14q4 -9 11 -22.5t16 -29.5q18 -33 46 -49.5t67 -16.5q27 0 50 10t43 31q19 20 29.5 44.5
t10.5 54.5v0z" />
    <glyph glyph-name="angle" unicode="&#x2220;" horiz-adv-x="950" 
d="M209 79h605v-34h-652q-6 0 -10 2t-6 7q0 2 2 5.5t6 8.5q1 1 2.5 3t2.5 3q1 2 2 3t3 2q69 76 138.5 151.5t140.5 150.5q69 74 141 149t146 152l23 -27z" />
    <glyph glyph-name="uni2225" unicode="&#x2225;" horiz-adv-x="950" 
d="M367 845h44v-965h-44v965zM538 845h44v-965h-44v965z" />
    <glyph glyph-name="logicaland" unicode="&#x2227;" horiz-adv-x="950" 
d="M471 642q-34 -77 -69.5 -154t-71.5 -153q-38 -78 -73 -155t-68 -153q-6 2 -10.5 4t-6.5 4q-3 0 -5.5 2.5t-4.5 5.5q36 79 73 159t74 161q36 80 73 160t76 160q0 2 1 5t4 7q2 3 4 4.5t4 1.5q4 0 7 -1.5t6 -3.5q0 -2 1 -3.5t2 -3.5q1 -1 2 -3t2 -3q37 -81 74 -161t73 -159
q35 -80 72.5 -160t77.5 -160q-5 -3 -8.5 -5.5t-6.5 -2.5q-5 -2 -9 -4t-7 -4z" />
    <glyph glyph-name="logicalor" unicode="&#x2228;" horiz-adv-x="950" 
d="M471 84q35 76 71 153t74 155q36 76 71.5 153t69.5 154q3 -3 7 -5t9 -3q1 -1 2.5 -2t3.5 -2l4 -2t5 -2q-39 -80 -76.5 -160t-73.5 -160q-37 -81 -74 -161t-73 -159q-3 -3 -5 -6t-5 -6t-6 -4.5t-4 -1.5q-2 0 -4 1.5t-4 4.5q-3 3 -4 6t-1 6q-39 80 -76.5 160t-72.5 160
q-36 79 -73 159t-74 161q2 2 4.5 4t5.5 4q1 0 2.5 1t3.5 2t5 2t6 3z" />
    <glyph glyph-name="intersection" unicode="&#x2229;" horiz-adv-x="950" 
d="M466 692q-35 0 -71 -15t-75 -45t-57.5 -78t-18.5 -115v-424h-36v413q0 69 19.5 124t60.5 96q37 40 83 60.5t100 20.5q55 0 103 -20.5t88 -60.5q37 -41 56.5 -96t19.5 -124v-413h-32v424q0 33 -5.5 61.5t-14.5 53.5q-11 24 -26 43.5t-35 34.5q-19 13 -38 24t-37 20
q-20 7 -37.5 11.5t-32.5 4.5h-14z" />
    <glyph glyph-name="union" unicode="&#x222a;" horiz-adv-x="950" 
d="M463 32q18 0 37 3.5t40 12.5q19 7 38 17.5t38 25.5q18 15 32 34.5t25 44.5q9 24 14.5 53t5.5 62v424h28v-413q0 -70 -18 -125.5t-54 -95.5q-39 -40 -86.5 -59.5t-104.5 -19.5q-56 0 -101.5 19.5t-81.5 59.5q-39 40 -57.5 95.5t-18.5 125.5v413h32v-424q0 -69 18 -117.5
t54 -76.5q38 -30 76.5 -44.5t77.5 -14.5h6z" />
    <glyph glyph-name="integral" unicode="&#x222b;" horiz-adv-x="950" 
d="M458 488q0 30 4 57t11 53q6 24 12.5 45.5t14.5 40.5q6 18 15 33t21 27q10 10 21.5 17.5t25.5 10.5q15 3 25.5 -1t16.5 -14q6 -11 6.5 -20t-3.5 -16q-6 -14 -14 -18.5t-18 1.5q-9 9 -17.5 12t-15.5 1q-25 -9 -38 -33t-14 -63l-2 -36t-1 -36q-1 -10 -1.5 -19t-1.5 -18
q0 -9 -0.5 -18t-0.5 -17q-2 -15 -2.5 -28.5t-0.5 -25.5q-1 -13 -1 -23.5v-19.5v-15.5v-10.5v-11v-8q-1 -8 -1.5 -17.5t-0.5 -21.5q-2 -13 -3.5 -28t-2.5 -31q-9 -60 -20.5 -109.5t-25.5 -86.5q-15 -38 -36 -59.5t-47 -27.5q-15 -3 -26.5 0t-17.5 14q-3 4 -4 8.5t-1 9.5
q-1 5 -0.5 9t3.5 9q7 12 15 16t16 -1v1q13 -9 21.5 -12t13.5 0q12 5 21 14t15 21q4 12 7 27t5 33q0 18 1.5 36.5t4.5 37.5q0 9 0.5 17.5t1.5 17.5q1 8 1.5 16.5t1.5 17.5q0 21 1 39t3 34q0 15 0.5 27.5t1.5 22.5v3.5t1 6.5v5v5q0 15 2 39.5t7 59.5v0z" />
    <glyph glyph-name="uni222C" unicode="&#x222c;" horiz-adv-x="950" 
d="M583 488q5 60 16 109t29 88q16 37 36.5 59t45.5 28q15 3 25.5 -1t15.5 -14q6 -11 7 -20t-2 -16q-6 -13 -14.5 -17t-18.5 1v-1q-9 9 -17.5 12t-15.5 1q-25 -9 -38 -33t-14 -63l-2 -36t-1 -36q-1 -10 -1.5 -19t-1.5 -18q0 -9 -0.5 -18t-0.5 -17q-2 -20 -2.5 -36.5
t-0.5 -31.5q-2 -16 -2.5 -29t-0.5 -22v-6v-6v-7v-4q0 -16 -1.5 -40.5t-4.5 -57.5q-7 -60 -18.5 -109.5t-26.5 -86.5q-17 -38 -38 -59.5t-46 -27.5q-17 -3 -27.5 0t-15.5 14q-9 10 -10 19t7 17q6 13 14 17.5t17 -1.5q12 -9 20.5 -12t14.5 0q12 5 21 14t15 21q5 12 8 27t4 33
q3 18 4.5 36.5t3.5 37.5q0 18 0.5 35t2.5 34q0 21 1 39t3 34q0 15 0.5 27.5t1.5 22.5v2.5t1 6.5v5.5v5.5q0 7 1 17t2 22q0 13 1 27.5t3 32.5v0zM328 488q2 30 6.5 57t10.5 53q5 24 11.5 45.5t15.5 40.5q6 18 14 33t20 27q10 10 23 17.5t28 10.5q12 3 22.5 -1t19.5 -14
q4 -11 4 -20t-3 -16q-7 -13 -16 -17t-19 1v-1q-9 9 -18 12t-18 1q-24 -10 -36 -34t-12 -62l-2 -36t-1 -36q-2 -19 -2.5 -37t-0.5 -35v-28.5v-25.5q-1 -7 -1.5 -13t-0.5 -11v-10v-9q-1 -5 -1.5 -8.5t-0.5 -6.5v-6.5v-4.5q-1 -6 -1 -11v-8q-1 -8 -1.5 -18t-0.5 -22
q-2 -14 -3.5 -28.5t-2.5 -29.5q-4 -30 -8.5 -57t-9.5 -51q-6 -26 -13.5 -48.5t-14.5 -41.5q-11 -18 -21 -32t-19 -25q-11 -11 -22 -18t-21 -10q-15 -3 -26 0t-18 14q-5 4 -7 8.5t-2 9.5q-1 5 -0.5 9t3.5 9q10 12 19 16t16 -1v1q12 -9 20.5 -12t13.5 0q12 5 21 14t15 21
q5 12 8 27t5 33q0 9 0.5 18t0.5 18q1 9 1.5 18.5t1.5 19.5q0 18 0.5 35t2.5 34q1 28 2.5 51t3.5 41q1 18 2 30.5t2 20.5v-1v1v2t0.5 2.5t0.5 3.5v4.5t1 5.5q0 3 0.5 7t0.5 9q1 4 1.5 8.5t1.5 10.5v9.5t1 11.5q0 5 1 11.5t2 13.5v0z" />
    <glyph glyph-name="uni222E" unicode="&#x222e;" horiz-adv-x="950" 
d="M565 374q0 12 -3 22.5t-8 21.5q-6 9 -13.5 17.5t-14.5 15.5q-3 -10 -5.5 -19t-5.5 -17q-5 -9 -8 -19t-6 -19q-1 -2 -1 -4v-4v-5v-2q-3 -11 -6 -21.5t-6 -19.5q-3 -11 -7.5 -21.5t-10.5 -20.5h1q11 0 21 1.5t19 6.5q7 3 14.5 8.5t13.5 12.5q3 6 7.5 13.5t9.5 16.5
q4 8 6.5 17t2.5 19v0zM381 374q0 -13 3 -24t10 -20q6 -11 12 -19t14 -14q0 4 1.5 8.5t3.5 9.5q0 1 1 3t2 5q0 2 1 5.5t3 7.5q3 5 6 11l6 12q1 6 2.5 12t3.5 12l2 6t1 6q1 3 2 6.5t2 6.5q0 6 1 12t4 12q0 2 1 4.5t2 4.5q0 2 1 4.5t2 5.5q1 4 2.5 8.5t3.5 9.5h-3
q-17 0 -32.5 -7t-28.5 -20q-15 -15 -22 -32t-7 -36v0zM378 160q1 5 3 10.5t4 10.5l4 12t5 12q4 10 8 21t7 23q-18 9 -31.5 21.5t-22.5 29.5q-11 15 -15.5 34t-4.5 40q0 29 9.5 54t30.5 46t45 32t51 11h7h6q1 -1 3.5 -1.5t5.5 -0.5q6 24 12.5 44t14.5 38q7 16 13 30.5
t11 26.5q12 18 24.5 30.5t25.5 20.5q12 6 23 8t23 0q21 -5 33.5 -15t16.5 -26q1 -16 -4 -26.5t-17 -16.5q-6 -4 -12 -5t-13 2q-8 1 -13 6t-7 14q-3 3 -3.5 7t-0.5 9l-0.5 0.5l-0.5 0.5v1.5v1.5q-1 0 -1.5 0.5t-1.5 0.5q0 1 -1 1.5t-2 1.5q-5 2 -9.5 -2t-9.5 -13
q-6 -11 -11.5 -24.5t-10.5 -28.5q-2 -3 -2.5 -5.5t-0.5 -5.5q-1 -2 -1.5 -3.5t-1.5 -2.5q0 -2 -0.5 -3t-0.5 -2q-6 -11 -10 -21t-7 -19q-3 -10 -5.5 -20.5t-3.5 -20.5q15 -10 28 -23t24 -29q9 -17 14.5 -35.5t5.5 -37.5q0 -30 -10.5 -55t-30.5 -45q-20 -21 -44.5 -31.5
t-54.5 -10.5h-5h-3h-4t-1 1q-18 -50 -32.5 -86t-24.5 -58q-13 -19 -25 -31t-22 -17q-12 -6 -25 -9t-28 -3q-22 5 -33.5 15.5t-12.5 26.5q-2 17 3 27.5t17 14.5q6 4 13 6t15 1q6 -2 11.5 -7t10.5 -14q1 -5 2.5 -9t1.5 -7v-3t1 -1q0 -2 0.5 -3.5t2.5 -3.5q1 -1 3 0.5t5 4.5
q1 2 4.5 5.5t9.5 8.5l5 10t6 14q2 6 4 13t5 15v4t1 4v3.5t2 5.5v0z" />
    <glyph glyph-name="therefore" unicode="&#x2234;" horiz-adv-x="950" 
d="M711 162q10 0 18.5 -3.5t14.5 -9.5q5 -7 8 -15t3 -17q0 -10 -3 -18t-8 -14q-6 -8 -14.5 -11t-18.5 -3q-7 0 -14 3t-14 11q-8 6 -11.5 14t-3.5 18q0 9 3.5 17t11.5 15q7 6 14 9.5t14 3.5v0zM235 162q7 0 14 -3.5t15 -9.5q6 -7 10 -15t4 -17q0 -10 -4 -18t-10 -14
q-8 -8 -15 -11t-14 -3q-11 0 -19 3t-13 11q-6 6 -9 14t-3 18q0 9 3 17t9 15q5 6 13 9.5t19 3.5v0zM471 641q10 0 18.5 -3.5t14.5 -9.5q5 -8 8 -16t3 -17q0 -10 -3 -18t-8 -14q-6 -8 -14.5 -11t-18.5 -3q-7 0 -14 3t-14 11q-9 6 -12.5 14t-3.5 18q0 9 3.5 17t12.5 16
q7 6 14 9.5t14 3.5v0z" />
    <glyph glyph-name="uni2235" unicode="&#x2235;" horiz-adv-x="950" 
d="M711 560q-7 0 -14 3t-14 11q-8 6 -11.5 14t-3.5 18q0 7 3.5 15t11.5 16q7 7 14 11t14 4q10 0 18.5 -4t14.5 -11q5 -8 8 -16t3 -15q0 -10 -3 -18t-8 -14q-6 -8 -14.5 -11t-18.5 -3v0zM235 560q-11 0 -19 3t-13 11q-6 6 -9 14t-3 18q0 7 3 15t9 16q5 7 13 11t19 4
q7 0 14 -4t15 -11q6 -8 10 -16t4 -15q0 -10 -4 -18t-10 -14q-8 -8 -15 -11t-14 -3v0zM471 79q-7 0 -14 3.5t-14 11.5q-9 7 -12.5 15.5t-3.5 18.5q0 9 3.5 17t12.5 16q7 6 14 9.5t14 3.5q10 0 18.5 -3.5t14.5 -9.5q5 -8 8 -16t3 -17q0 -10 -3 -18.5t-8 -15.5
q-6 -8 -14.5 -11.5t-18.5 -3.5v0z" />
    <glyph glyph-name="similar" unicode="&#x223c;" horiz-adv-x="950" 
d="M843 486q-4 -23 -10 -44.5t-15 -40.5q-9 -21 -20 -40.5t-23 -37.5q-31 -39 -72 -55t-92 -10q-51 4 -90 26.5t-67 64.5q-33 42 -65.5 65t-64.5 26q-34 1 -56.5 -8t-34.5 -29q-9 -11 -15 -22.5t-9 -23.5q-4 -14 -7 -27t-4 -25h-99q3 22 8.5 44t13.5 44q7 21 18.5 40
t27.5 37q16 17 34.5 29.5t39.5 21.5q20 7 41.5 10.5t45.5 2.5q23 -3 45.5 -10.5t43.5 -17.5q21 -12 39 -28t34 -36q27 -43 57 -65.5t65 -23.5q30 -3 54 7.5t42 33.5q16 21 26.5 44.5t15.5 47.5h93z" />
    <glyph glyph-name="uni223D" unicode="&#x223d;" horiz-adv-x="950" 
d="M692 580q15 -1 31 -4t34 -9q16 -6 31.5 -16t30.5 -22q27 -27 41.5 -66.5t14.5 -91.5q-1 -38 -14 -70.5t-38 -60.5q-26 -29 -59 -42.5t-75 -13.5q-14 0 -25.5 1t-21.5 4q-11 1 -20 4t-16 8q-5 1 -8.5 2.5t-4.5 3.5q-3 0 -5.5 1t-3.5 3q-1 0 -1.5 1t-0.5 2q-2 0 -3 0.5
t-1 1.5l2.5 7.5t3.5 9.5q0 4 1.5 7.5t4.5 6.5q0 -1 1 -1h3l3.5 -1t9.5 -2q1 -2 2.5 -3t4.5 -1q1 -2 3 -3t5 -1q4 -4 11.5 -7t17.5 -4q9 -3 19.5 -3.5t23.5 -0.5q28 0 53 11t46 34q20 21 30.5 46.5t12.5 55.5q0 37 -9.5 68.5t-29.5 57.5q-21 25 -47.5 38.5t-59.5 16.5
q-48 2 -82.5 -14t-55.5 -50q-22 -33 -37.5 -62t-24.5 -53q-5 -11 -11.5 -23.5t-15.5 -26.5q-9 -15 -21 -31.5t-25 -33.5q-26 -39 -65.5 -56t-93.5 -12q-32 2 -64 16t-63 41q-12 12 -21.5 28.5t-16.5 36.5q-8 19 -11.5 41t-2.5 46q0 35 12 68t36 63q24 29 58 44t76 15
q27 0 48 -4.5t35 -12.5q4 -2 7.5 -3.5t6.5 -3.5q3 -1 5.5 -2t4.5 -1l4.5 -4.5t2.5 -1.5q-3 -5 -4.5 -8t-1.5 -6l-4 -8t-4 -7q-2 0 -5 1.5t-6 4.5q-5 1 -9.5 3t-7.5 5q-16 6 -35 10t-41 4q-28 0 -53 -11t-46 -32q-23 -22 -34.5 -49t-11.5 -59q-1 -39 9 -71.5t31 -56.5
q20 -26 47 -39.5t62 -14.5q44 -3 79 14.5t62 55.5q9 19 18.5 35.5t18.5 30.5q8 12 13 22t7 16q6 12 14.5 26.5t18.5 29.5q4 7 9 14.5l11 16.5q6 8 12.5 16.5t13.5 17.5q22 36 60.5 53t93.5 14v0z" />
    <glyph glyph-name="uni2252" unicode="&#x2252;" horiz-adv-x="950" 
d="M132 467h682v-40h-682v40zM132 297h682v-40h-682v40zM282 679q7 0 15 -4t17 -11q7 -8 11 -17t4 -18q0 -11 -4 -19.5t-11 -15.5q-9 -8 -17 -11.5t-15 -3.5q-12 0 -21 3.5t-14 11.5q-6 7 -9 15.5t-3 19.5q0 9 3 18t9 17q5 7 14 11t21 4v0zM667 146q10 0 18.5 -4t14.5 -11
q6 -8 9 -17t3 -18q0 -11 -3 -19.5t-9 -15.5q-6 -8 -14.5 -11.5t-18.5 -3.5q-9 0 -17 3.5t-14 11.5q-8 7 -11.5 15.5t-3.5 19.5q0 9 3.5 18t11.5 17q6 7 14 11t17 4v0z" />
    <glyph glyph-name="notequal" unicode="&#x2260;" horiz-adv-x="950" 
d="M824 193h-366q-8 -24 -15.5 -48t-14.5 -48q-9 -24 -18.5 -48t-18.5 -48l-96 18l66 174h-215v88h240l57 163h-297v88h322q9 23 17 47t16 50q6 24 14.5 49t18.5 50q9 -3 19.5 -5.5t22.5 -4.5q5 -2 10.5 -3.5t12.5 -3.5q6 -1 12.5 -3t13.5 -3l-55 -173h254v-88h-282
l-53 -163h335v-88z" />
    <glyph glyph-name="equivalence" unicode="&#x2261;" horiz-adv-x="950" 
d="M132 538h682v-33h-682v33zM132 379h682v-34h-682v34zM132 219h682v-34h-682v34z" />
    <glyph glyph-name="lessequal" unicode="&#x2264;" horiz-adv-x="950" 
d="M802 253q-6 -11 -10 -20t-7 -18q-4 -10 -9.5 -20t-11.5 -19q-38 16 -75.5 33t-75.5 34l-78 34t-78 35q-81 34 -158 68t-150 68q-5 1 -8.5 3t-6.5 5q-3 2 -4.5 4t-1.5 5q0 2 1.5 4t4.5 5q1 0 2.5 1t3.5 2t4.5 2t5.5 3h-1q74 33 150 67t154 68l152 66t151 68q3 -11 8 -20.5
t11 -18.5q4 -10 8.5 -20t8.5 -19l-473 -207zM823 28h-698v87h698v-87z" />
    <glyph glyph-name="greaterequal" unicode="&#x2265;" horiz-adv-x="950" 
d="M828 465q0 -3 -1.5 -5t-4.5 -4q-3 -3 -7 -5t-8 -3q-77 -35 -153.5 -69t-154.5 -67q-79 -34 -156.5 -68t-152.5 -68q-8 9 -12.5 19t-7.5 20q-2 4 -4 8.5t-4 9.5q-2 4 -4 9t-4 11l483 213q-29 12 -58 25l-58 26q-29 12 -58.5 25t-58.5 27q-60 25 -120 51t-118 53q1 9 5 19
t10 20q4 9 8.5 18.5t9.5 20.5q73 -33 149 -67t155 -67q39 -18 77.5 -35t76.5 -34t75.5 -33.5t74.5 -32.5l4 -2l4 -2t3.5 -2t3.5 -1q3 -3 4.5 -5.5t1.5 -4.5v0zM832 28h-701v87h701v-87z" />
    <glyph glyph-name="uni226A" unicode="&#x226a;" horiz-adv-x="950" 
d="M592 719q2 -4 5 -7t7 -6q1 -2 2.5 -4t2.5 -4t2.5 -3.5t3.5 -2.5l-452 -330q57 -42 113 -83.5t113 -82.5q55 -42 112 -83.5t116 -82.5q-3 -5 -6 -8t-6 -5q-4 -3 -7 -6l-6 -6q-56 42 -112.5 84.5t-113.5 85.5q-59 42 -117.5 84t-117.5 85q-2 0 -3 0.5t-1 1.5q-2 0 -2 0.5
v2.5q-5 3 -6.5 6.5t-1.5 6.5q0 2 0.5 4t3.5 4q1 0 3.5 2.5t5.5 6.5zM824 719l2 -4t2 -3q1 -2 2 -3.5t2 -2.5q0 -4 2 -7.5t5 -6.5l-452 -330q57 -42 114 -83.5t115 -82.5q28 -21 56.5 -42t56.5 -42t56 -41.5t56 -40.5q-2 -3 -3.5 -5t-2.5 -3l-1.5 -3t-0.5 -2l-4 -6t-5 -6
q-30 21 -59 42l-58 42t-58 42.5t-58 43.5q-59 42 -116 84t-112 85q-2 0 -3 0.5t-1 1.5q-2 0 -2.5 0.5t-0.5 2.5q-8 3 -11.5 6.5t-3.5 6.5q0 2 1.5 4t6.5 4q3 0 6.5 2.5t6.5 6.5z" />
    <glyph glyph-name="uni226B" unicode="&#x226b;" horiz-adv-x="950" 
d="M815 380q2 -3 5 -5t7 -4q3 -3 4.5 -5.5t1.5 -3.5q0 -3 -1 -4.5t-2 -2.5q-3 -2 -5 -3.5t-3 -2.5t-2 -1.5l-1 -0.5q-2 -2 -3 -2.5l-1 -0.5q-59 -43 -117 -85t-115 -84q-59 -43 -117.5 -85.5t-115.5 -84.5q-3 3 -5.5 6t-4.5 7q-3 3 -5 6t-2 6l454 332q-59 40 -116 81.5
t-112 83.5q-56 41 -112.5 82t-113.5 83q1 3 3 7t5 7q0 1 1 2t2 3q1 1 2.5 3t3.5 5zM583 380q2 -3 5.5 -5t8.5 -4l5.5 -5.5t2.5 -3.5q0 -3 -1.5 -4.5t-3.5 -2.5q-3 -2 -6 -3.5t-4 -2.5t-2 -1.5l-1 -0.5q-2 -2 -3 -2.5l-1 -0.5q-59 -43 -116 -85t-112 -84
q-57 -43 -114.5 -85.5t-115.5 -84.5q-3 3 -5 6t-4 7l-6 6t-5 6l450 332q-28 20 -55.5 40.5t-55.5 40.5q-28 21 -56.5 42t-56.5 42q-58 41 -114 82t-110 83q2 3 4.5 7t5.5 7q0 1 1 2t2 3q1 1 2 3t3 5z" />
    <glyph glyph-name="propersubset" unicode="&#x2282;" horiz-adv-x="950" 
d="M162 357q0 -39 12.5 -79t39.5 -79q30 -41 76.5 -60.5t111.5 -19.5h399v-34h-388q-67 0 -119.5 19.5t-90.5 58.5q-39 41 -58.5 90.5t-19.5 108.5q0 57 19.5 106.5t58.5 90.5q38 39 90.5 59.5t119.5 20.5h388v-34h-399q-64 0 -111 -20.5t-77 -60.5q-27 -41 -39.5 -80
t-12.5 -77v-10z" />
    <glyph glyph-name="propersuperset" unicode="&#x2283;" horiz-adv-x="950" 
d="M789 367q0 37 -14.5 76.5t-42.5 80.5q-31 40 -77.5 60.5t-109.5 20.5h-399v34h392q64 0 116 -20.5t93 -59.5q38 -41 57.5 -90t19.5 -107q0 -59 -19.5 -109t-57.5 -90q-41 -39 -93 -58.5t-116 -19.5h-392v34h399q63 0 110 19.5t77 60.5q28 40 42.5 79.5t14.5 78.5v10z" />
    <glyph glyph-name="reflexsubset" unicode="&#x2286;" horiz-adv-x="950" 
d="M125 79h698v-34h-698v34zM160 442q0 -39 13 -74t40 -66q30 -32 77 -47.5t111 -15.5h399v-35h-388q-76 0 -130 17.5t-87 53.5q-36 34 -53 75.5t-17 91.5q0 48 17 89.5t53 77.5q33 34 87 52t130 18h388v-34h-399q-65 0 -112 -16.5t-77 -49.5q-27 -30 -39.5 -64.5
t-12.5 -72.5v0z" />
    <glyph glyph-name="reflexsuperset" unicode="&#x2287;" horiz-adv-x="950" 
d="M823 79v-34h-698v34h698zM790 442q0 37 -14.5 71.5t-42.5 65.5q-30 33 -77.5 49.5t-110.5 16.5h-404v34h397q70 0 123 -18t89 -52q36 -36 54.5 -77.5t18.5 -89.5q0 -49 -18 -91t-54 -76q-36 -36 -89 -53.5t-124 -17.5h-397v35h404q63 0 110 15.5t78 47.5q28 31 42.5 66
t14.5 74v0z" />
    <glyph glyph-name="uni2299" unicode="&#x2299;" horiz-adv-x="950" 
d="M472 767q79 0 148.5 -30t128.5 -89q56 -60 84.5 -131.5t28.5 -155.5t-28.5 -156t-84.5 -131q-60 -60 -129.5 -90t-147.5 -30q-79 0 -146.5 29.5t-124.5 89.5q-59 58 -88 130t-29 158q0 84 29 156t88 132q57 58 125 88t146 30v0zM472 726q-71 0 -133 -27t-115 -79
q-50 -54 -74.5 -119t-24.5 -140q0 -76 24.5 -140.5t74.5 -118.5q53 -54 115 -80t133 -26q74 0 135.5 26t109.5 80q53 53 80 117.5t27 141.5q0 37 -7 72t-19 68q-14 31 -34 61t-47 57q-26 25 -54 44.5t-58 34.5q-32 13 -65 20.5t-68 7.5v0zM472 521q33 0 60.5 -12t50.5 -36
q21 -24 31.5 -52.5t10.5 -60.5q0 -33 -10.5 -61.5t-31.5 -52.5q-23 -23 -50.5 -34t-60.5 -11q-30 0 -56 11t-47 34q-23 24 -34 52.5t-11 61.5q0 32 11 60.5t34 52.5q22 24 47.5 36t55.5 12v0z" />
    <glyph glyph-name="perpendicular" unicode="&#x22a5;" horiz-adv-x="950" 
d="M155 79h301v580h38v-580h298v-34h-637v34z" />
    <glyph glyph-name="uni2312" unicode="&#x2312;" horiz-adv-x="950" 
d="M133 385q12 63 41 116.5t76 97.5q46 43 101.5 65.5t119.5 22.5q63 0 120 -22.5t108 -65.5q46 -44 74.5 -97.5t40.5 -116.5h-40q-8 27 -18 53.5t-22 50.5q-14 24 -30.5 45t-36.5 40q-42 37 -91.5 56.5t-104.5 19.5q-54 0 -101.5 -19.5t-89.5 -56.5q-20 -19 -37 -40
t-31 -45q-15 -24 -25.5 -50.5t-14.5 -53.5h-39z" />
    <glyph glyph-name="uni2460" unicode="&#x2460;" horiz-adv-x="950" 
d="M861 362q0 85 -28.5 157.5t-84.5 132.5q-60 60 -129 90t-148 30q-78 0 -145 -30t-124 -90q-59 -60 -88 -132.5t-29 -157.5q0 -86 29 -158.5t88 -131.5q57 -60 124 -89.5t145 -29.5q79 0 148 29.5t129 89.5q56 59 84.5 131.5t28.5 158.5v0zM535 57h-86v432h-128v73
q11 0 24 1.5t28 6.5q13 3 25 9t21 15q10 5 17.5 13t13.5 20q4 10 7 21t4 23h74v-614zM913 362q0 -96 -32.5 -177.5t-96.5 -148.5q-65 -67 -143 -100.5t-170 -33.5q-90 0 -166.5 33.5t-139.5 100.5q-65 67 -96.5 148.5t-31.5 177.5q0 94 31.5 175.5t96.5 150.5
q63 67 139.5 101t166.5 34q92 0 170 -34t143 -101q64 -68 96.5 -149.5t32.5 -176.5v0z" />
    <glyph glyph-name="uni2461" unicode="&#x2461;" horiz-adv-x="950" 
d="M861 362q0 85 -28.5 157.5t-84.5 132.5q-60 60 -129 90t-148 30q-78 0 -145 -30t-124 -90q-59 -60 -88 -132.5t-29 -157.5q0 -86 29 -158.5t88 -131.5q57 -60 124 -89.5t145 -29.5q79 0 148 29.5t129 89.5q56 59 84.5 131.5t28.5 158.5v0zM669 70h-392q0 30 5 61t17 62
q8 15 19 30t26 32q13 15 30 31t38 33l96 77q15 10 28.5 22.5t25.5 27.5q10 13 15.5 31t5.5 39q0 24 -6 44t-18 37q-12 15 -31.5 23t-44.5 8q-33 0 -54.5 -10t-31.5 -29q-12 -18 -17.5 -38.5t-5.5 -44.5h-84q0 36 10.5 69.5t32.5 65.5q24 31 62 47t89 16q46 0 81.5 -14.5
t59.5 -42.5q21 -29 32 -61t11 -68t-9 -65t-27 -50q-8 -11 -16 -20.5t-17 -18.5q-11 -10 -21.5 -19t-20.5 -16l-101 -83q-15 -9 -27.5 -19.5t-24.5 -23.5q-13 -14 -20.5 -28t-8.5 -28h294v-77zM913 362q0 -96 -32.5 -177.5t-96.5 -148.5q-65 -67 -143 -100.5t-170 -33.5
q-90 0 -166.5 33.5t-139.5 100.5q-65 67 -96.5 148.5t-31.5 177.5q0 94 31.5 175.5t96.5 150.5q63 67 139.5 101t166.5 34q92 0 170 -34t143 -101q64 -68 96.5 -149.5t32.5 -176.5v0z" />
    <glyph glyph-name="uni2462" unicode="&#x2462;" horiz-adv-x="950" 
d="M861 362q0 85 -28.5 157.5t-84.5 132.5q-60 60 -129 90t-148 30q-78 0 -145 -30t-124 -90q-59 -60 -88 -132.5t-29 -157.5q0 -86 29 -158.5t88 -131.5q57 -60 124 -89.5t145 -29.5q79 0 148 29.5t129 89.5q56 59 84.5 131.5t28.5 158.5v0zM674 227q0 -20 -3.5 -38.5
t-9.5 -34.5q-8 -18 -18 -33t-23 -28q-17 -14 -34 -24t-35 -16q-18 -8 -38.5 -11.5t-42.5 -3.5q-44 0 -80 14t-64 43q-32 27 -45.5 62t-9.5 77h84q-3 -23 3 -42.5t21 -35.5q16 -18 38.5 -27t51.5 -9q28 0 50 7.5t37 23.5q13 15 20.5 34t8.5 43q0 18 -5 33.5t-15 29.5
q-12 12 -25.5 21t-28.5 14l-16 2t-17 1h-19.5h-14.5h-13v83h23.5t23.5 1q10 0 19 3t17 9q27 12 41.5 34t16.5 55q0 8 -1.5 16.5t-4.5 17.5q-5 8 -10 15.5t-11 15.5q-5 6 -12 11.5t-16 10.5q-10 3 -22 5.5t-27 2.5q-27 0 -47 -8.5t-33 -24.5q-11 -16 -15.5 -33.5t-2.5 -35.5
h-84q-1 19 2 37t9 35q5 16 14 30t23 26q27 24 60.5 37t73.5 13t74.5 -13t63.5 -38q27 -27 40.5 -57t13.5 -61q0 -32 -8.5 -55.5t-24.5 -39.5q-6 -9 -12.5 -16t-13.5 -12q-9 -6 -16 -11.5t-11 -9.5q22 -8 40 -22t33 -33q13 -21 20 -43.5t7 -46.5v0zM913 362
q0 -96 -32.5 -177.5t-96.5 -148.5q-65 -67 -143 -100.5t-170 -33.5q-90 0 -166.5 33.5t-139.5 100.5q-65 67 -96.5 148.5t-31.5 177.5q0 94 31.5 175.5t96.5 150.5q63 67 139.5 101t166.5 34q92 0 170 -34t143 -101q64 -68 96.5 -149.5t32.5 -176.5v0z" />
    <glyph glyph-name="uni2463" unicode="&#x2463;" horiz-adv-x="950" 
d="M861 362q0 85 -28.5 157.5t-84.5 132.5q-60 60 -129 90t-148 30q-78 0 -145 -30t-124 -90q-59 -60 -88 -132.5t-29 -157.5q0 -86 29 -158.5t88 -131.5q57 -60 124 -89.5t145 -29.5q79 0 148 29.5t129 89.5q56 59 84.5 131.5t28.5 158.5v0zM675 153h-84v-100h-85v100h-265
v94q30 52 63 105t69 107q34 52 67 103t65 102h86v-431h84v-80zM506 233v292l-184 -292h184zM913 362q0 -96 -32.5 -177.5t-96.5 -148.5q-65 -67 -143 -100.5t-170 -33.5q-90 0 -166.5 33.5t-139.5 100.5q-65 67 -96.5 148.5t-31.5 177.5q0 94 31.5 175.5t96.5 150.5
q63 67 139.5 101t166.5 34q92 0 170 -34t143 -101q64 -68 96.5 -149.5t32.5 -176.5v0z" />
    <glyph glyph-name="uni2464" unicode="&#x2464;" horiz-adv-x="950" 
d="M861 362q0 85 -28.5 157.5t-84.5 132.5q-60 60 -129 90t-148 30q-78 0 -145 -30t-124 -90q-59 -60 -88 -132.5t-29 -157.5q0 -86 29 -158.5t88 -131.5q57 -60 124 -89.5t145 -29.5q79 0 148 29.5t129 89.5q56 59 84.5 131.5t28.5 158.5v0zM458 112q31 -1 52 7.5t32 26.5
q4 7 8.5 14.5t10.5 14.5q4 6 7 12l6 12q0 2 1 6.5t2 10.5v5v7q0 3 0.5 6.5t0.5 8.5v5.5v10.5q0 2 -0.5 4.5t-0.5 5.5v4.5v5.5q-2 31 -20.5 53.5t-52.5 37.5q-11 4 -22.5 6.5t-23.5 2.5q-14 0 -25 -3t-19 -9q-20 -12 -31 -21.5t-14 -15.5h-89q6 41 12 81.5t13 81.5
q6 39 12 79.5t12 81.5h317v-85h-248l-25 -155q11 9 23 15.5t24 10.5q11 3 21.5 5t20.5 3q47 1 85.5 -12.5t68.5 -42.5q25 -30 38 -68t13 -84q0 -45 -14.5 -82t-42.5 -67q-32 -30 -69 -45t-79 -15q-19 0 -36.5 3t-32.5 11q-17 6 -32 14t-28 19q-29 27 -47 58t-25 67h85
q1 -11 8 -24.5t21 -31.5q13 -18 33.5 -27t49.5 -9v0zM913 362q0 -96 -32.5 -177.5t-96.5 -148.5q-65 -67 -143 -100.5t-170 -33.5q-90 0 -166.5 33.5t-139.5 100.5q-65 67 -96.5 148.5t-31.5 177.5q0 94 31.5 175.5t96.5 150.5q63 67 139.5 101t166.5 34q92 0 170 -34
t143 -101q64 -68 96.5 -149.5t32.5 -176.5v0z" />
    <glyph glyph-name="uni2465" unicode="&#x2465;" horiz-adv-x="950" 
d="M861 362q0 85 -28.5 157.5t-84.5 132.5q-60 60 -129 90t-148 30q-78 0 -145 -30t-124 -90q-59 -60 -88 -132.5t-29 -157.5q0 -86 29 -158.5t88 -131.5q57 -60 124 -89.5t145 -29.5q79 0 148 29.5t129 89.5q56 59 84.5 131.5t28.5 158.5v0zM678 246q0 -43 -13.5 -79.5
t-39.5 -66.5q-28 -32 -63 -47t-77 -15t-76 12t-61 38q-24 24 -41 52.5t-26 63.5q-5 16 -9 35t-7 40q-4 20 -5.5 42.5t-0.5 46.5q0 48 8 89t23 75q12 36 31 64t44 49q24 20 55 30.5t69 10.5q39 0 72 -13.5t60 -40.5q12 -13 21.5 -26.5t16.5 -28.5q6 -15 10 -31t7 -31h-80
q-3 15 -10.5 31t-17.5 31q-14 16 -34 24.5t-46 8.5q-15 0 -27.5 -2.5t-21.5 -5.5q-10 -5 -17 -10.5t-11 -12.5q-8 -6 -14 -12.5t-11 -14.5q-6 -9 -10 -17.5t-5 -17.5q-7 -19 -11.5 -36.5t-6.5 -33.5q-3 -18 -4 -30.5t0 -21.5q12 12 28 23.5t34 22.5q17 9 39.5 12.5t49.5 1.5
q39 -1 71 -16t56 -43q25 -30 38 -67.5t13 -82.5v0zM589 246q0 30 -7.5 53.5t-21.5 40.5q-15 15 -35.5 23.5t-44.5 8.5q-29 0 -50 -8.5t-34 -23.5q-15 -17 -22 -40.5t-7 -53.5q0 -28 7 -50.5t22 -39.5q13 -18 34 -26.5t50 -8.5q24 0 44.5 8.5t35.5 26.5q14 17 21.5 39.5
t7.5 50.5v0zM913 362q0 -96 -32.5 -177.5t-96.5 -148.5q-65 -67 -143 -100.5t-170 -33.5q-90 0 -166.5 33.5t-139.5 100.5q-65 67 -96.5 148.5t-31.5 177.5q0 94 31.5 175.5t96.5 150.5q63 67 139.5 101t166.5 34q92 0 170 -34t143 -101q64 -68 96.5 -149.5t32.5 -176.5v0z
" />
    <glyph glyph-name="uni2466" unicode="&#x2466;" horiz-adv-x="950" 
d="M861 362q0 85 -28.5 157.5t-84.5 132.5q-60 60 -129 90t-148 30q-78 0 -145 -30t-124 -90q-59 -60 -88 -132.5t-29 -157.5q0 -86 29 -158.5t88 -131.5q57 -60 124 -89.5t145 -29.5q79 0 148 29.5t129 89.5q56 59 84.5 131.5t28.5 158.5v0zM669 554q-10 -14 -24 -34
t-32 -47q-19 -28 -38 -61t-37 -72q-20 -42 -35.5 -84t-27.5 -83q-6 -21 -9 -39t-4 -33q-3 -17 -3.5 -32.5t-0.5 -29.5h-99q1 22 6.5 51t14.5 65q9 35 23.5 74.5t35.5 84.5q9 19 18.5 39t21.5 41q10 19 21.5 36.5t24.5 33.5q1 2 3 4.5t3 4.5q2 2 3.5 4.5t3.5 5.5q1 4 3.5 7.5
t5.5 6.5l8 10t7 10q4 4 7 8.5t6 8.5q2 3 4 6.5t3 5.5q2 3 3.5 5.5t3.5 4.5h-314v88h394v-90zM913 362q0 -96 -32.5 -177.5t-96.5 -148.5q-65 -67 -143 -100.5t-170 -33.5q-90 0 -166.5 33.5t-139.5 100.5q-65 67 -96.5 148.5t-31.5 177.5q0 94 31.5 175.5t96.5 150.5
q63 67 139.5 101t166.5 34q92 0 170 -34t143 -101q64 -68 96.5 -149.5t32.5 -176.5v0z" />
    <glyph glyph-name="uni2467" unicode="&#x2467;" horiz-adv-x="950" 
d="M861 362q0 85 -28.5 157.5t-84.5 132.5q-60 60 -129 90t-148 30q-78 0 -145 -30t-124 -90q-59 -60 -88 -132.5t-29 -157.5q0 -86 29 -158.5t88 -131.5q57 -60 124 -89.5t145 -29.5q79 0 148 29.5t129 89.5q56 59 84.5 131.5t28.5 158.5v0zM693 223q0 -39 -17.5 -72
t-50.5 -60q-30 -28 -69 -41.5t-85 -13.5q-45 0 -82.5 13.5t-67.5 41.5q-35 27 -51.5 60t-16.5 72q0 24 7.5 46.5t22.5 43.5q15 20 33.5 36.5t42.5 30.5q-19 12 -34 27t-25 33q-12 17 -17 36.5t-5 40.5q0 35 13.5 65t41.5 54q27 24 61.5 36.5t76.5 12.5q40 0 75.5 -12.5
t67.5 -36.5q27 -25 40.5 -55t13.5 -64q0 -21 -5.5 -40t-15.5 -36q-12 -18 -27 -33t-34 -27q22 -14 41.5 -30.5t35.5 -37.5q15 -21 22.5 -43.5t7.5 -46.5v0zM583 513q0 18 -7 34.5t-19 30.5q-14 12 -35.5 19t-50.5 7q-27 0 -47 -7t-32 -19q-13 -14 -19 -30.5t-6 -34.5
q0 -20 6 -36t19 -28q12 -14 32 -20.5t47 -6.5q29 0 50.5 6.5t35.5 20.5q12 12 19 28t7 36v0zM598 226q0 22 -8 41.5t-23 36.5q-16 15 -40 23t-56 8q-29 0 -52 -8t-40 -23q-18 -17 -26.5 -36.5t-8.5 -41.5q0 -23 8.5 -42t26.5 -34q17 -16 40 -23.5t52 -7.5q32 0 56 7.5
t40 23.5q15 15 23 34t8 42v0zM913 362q0 -96 -32.5 -177.5t-96.5 -148.5q-65 -67 -143 -100.5t-170 -33.5q-90 0 -166.5 33.5t-139.5 100.5q-65 67 -96.5 148.5t-31.5 177.5q0 94 31.5 175.5t96.5 150.5q63 67 139.5 101t166.5 34q92 0 170 -34t143 -101q64 -68 96.5 -149.5
t32.5 -176.5v0z" />
    <glyph glyph-name="uni2468" unicode="&#x2468;" horiz-adv-x="950" 
d="M861 362q0 85 -28.5 157.5t-84.5 132.5q-60 60 -129 90t-148 30q-78 0 -145 -30t-124 -90q-59 -60 -88 -132.5t-29 -157.5q0 -86 29 -158.5t88 -131.5q57 -60 124 -89.5t145 -29.5q79 0 148 29.5t129 89.5q56 59 84.5 131.5t28.5 158.5v0zM674 519q6 -17 11 -35t8 -37
q2 -21 3 -44t1 -47q0 -51 -7.5 -92t-21.5 -74q-12 -36 -30 -64.5t-42 -47.5q-26 -21 -57 -31t-68 -10q-41 0 -74 13.5t-60 40.5q-12 12 -21 26.5t-16 29.5q-8 15 -13 29t-6 29h82q3 -15 9.5 -29.5t18.5 -29.5q12 -17 32.5 -24.5t47.5 -7.5q14 0 26 1.5t23 6.5q9 3 16 8
t13 12q9 6 15 13t11 16q3 7 6 15.5t6 17.5q9 19 13.5 37t6.5 35v29v24q-8 -5 -14 -10t-12 -11q-7 -6 -16 -12t-19 -10q-8 -6 -17.5 -9.5t-19.5 -6.5q-12 -3 -24.5 -4.5t-26.5 -1.5q-21 0 -39.5 4t-34.5 13q-18 7 -32 18t-24 26q-26 30 -38.5 67.5t-11.5 81.5q0 45 14 81.5
t41 65.5q25 30 59.5 45.5t78.5 15.5q20 0 39 -3t37 -9q16 -7 31 -15.5t29 -18.5q10 -12 20 -24.5t21 -27.5q9 -15 15.5 -31.5t10.5 -33.5v0zM589 475q0 28 -7.5 51.5t-21.5 41.5q-15 16 -35.5 25t-44.5 9q-28 0 -49 -9t-35 -25q-15 -18 -22 -41.5t-7 -51.5q0 -31 7 -54.5
t22 -39.5q14 -18 35 -26t49 -8q24 0 44.5 8t35.5 26q14 16 21.5 39.5t7.5 54.5v0zM913 362q0 -96 -32.5 -177.5t-96.5 -148.5q-65 -67 -143 -100.5t-170 -33.5q-90 0 -166.5 33.5t-139.5 100.5q-65 67 -96.5 148.5t-31.5 177.5q0 94 31.5 175.5t96.5 150.5q63 67 139.5 101
t166.5 34q92 0 170 -34t143 -101q64 -68 96.5 -149.5t32.5 -176.5v0z" />
    </font>
</defs>
</svg>
