<svg width="13" height="15" viewBox="0 0 13 15" fill="none" xmlns="http://www.w3.org/2000/svg">
<path d="M12.1619 12.4756H1.35452C1.02445 12.4756 0.756104 12.746 0.756104 13.074V13.8726C0.756104 14.2026 1.02657 14.471 1.35452 14.471H12.1576C12.4877 14.471 12.756 14.2005 12.756 13.8726V13.074C12.7624 12.7418 12.492 12.4756 12.1619 12.4756Z" fill="#5566C4"/>
<path d="M6.33971 11.4041C6.45685 11.5212 6.61018 11.5808 6.76136 11.5808C6.91469 11.5808 7.06801 11.5212 7.18301 11.4041L11.276 7.31112C11.5081 7.07901 11.5081 6.69995 11.276 6.46356L10.7095 5.89711C10.4774 5.66498 10.0983 5.66498 9.86196 5.89711L7.75798 8.00323V1.09841C7.75798 0.768321 7.48752 0.5 7.1596 0.5H6.36101C6.03095 0.5 5.7626 0.766177 5.7626 1.09841V8.00534L3.65651 5.89922C3.42437 5.66712 3.0432 5.66712 2.80895 5.89922L2.2425 6.46568C2.01039 6.69778 2.01039 7.07898 2.2425 7.31323L6.33971 11.4041Z" fill="#5566C4"/>
</svg>
