<svg width="17" height="11" viewBox="0 0 17 11" fill="none" xmlns="http://www.w3.org/2000/svg">
<path d="M8.58536 0.5C5.52839 0.5 2.75617 2.1725 0.710549 4.88908C0.543627 5.11164 0.543627 5.42257 0.710549 5.64514C2.75617 8.36499 5.52839 10.0375 8.58536 10.0375C11.6423 10.0375 14.4145 8.36499 16.4602 5.64841C16.6271 5.42585 16.6271 5.11491 16.4602 4.89235C14.4145 2.1725 11.6423 0.5 8.58536 0.5ZM8.80465 8.62683C6.7754 8.75447 5.09963 7.08198 5.22727 5.04945C5.33201 3.37368 6.6903 2.01539 8.36607 1.91066C10.3953 1.78301 12.0711 3.45551 11.9434 5.48803C11.8354 7.16053 10.4771 8.51882 8.80465 8.62683ZM8.70319 7.07543C7.61001 7.14417 6.70666 6.24409 6.77867 5.15092C6.83431 4.24757 7.56746 3.51769 8.4708 3.45878C9.56398 3.39005 10.4673 4.29012 10.3953 5.3833C10.3364 6.28992 9.60326 7.01979 8.70319 7.07543Z" fill="#5566C4"/>
</svg>
