<svg width="27" height="34" viewBox="0 0 27 34" fill="none" xmlns="http://www.w3.org/2000/svg">
<path fill-rule="evenodd" clip-rule="evenodd" d="M2.12618 17.7266C0.825879 18.9628 0 20.4856 0 22.2099C0 24.7045 1.72843 26.7772 4.12122 28.1709C6.53881 29.5791 9.81274 30.418 13.375 30.418C13.9273 30.418 14.375 29.9703 14.375 29.418C14.375 28.8657 13.9273 28.418 13.375 28.418C10.1027 28.418 7.18911 27.6433 5.12785 26.4427C3.04178 25.2276 2 23.6963 2 22.2099C2 21.0362 2.64963 19.8344 3.95011 18.7825L2.12618 17.7266ZM22.9031 18.8675L24.7176 17.817C25.9637 19.0368 26.75 20.5274 26.75 22.2099C26.75 23.5771 26.1744 24.7615 25.5268 25.6498C24.8788 26.5387 24.1023 27.2103 23.5521 27.5746C23.0916 27.8795 22.4712 27.7534 22.1662 27.293C21.8613 26.8325 21.9874 26.212 22.4479 25.9071C22.8144 25.6644 23.4129 25.1545 23.9107 24.4716C24.4089 23.7883 24.75 23.0107 24.75 22.2099C24.75 21.0677 24.1348 19.8989 22.9031 18.8675Z" fill="black"/>
<path d="M10.8344 26.396L10.6225 26.5833L10.8344 26.7706L13.5832 29.2002L13.5832 29.7998L10.8344 32.2294L10.6225 32.4167L10.8344 32.604L11.4944 33.1873L11.66 33.3337L11.8255 33.1873L15.7853 29.6873L15.9973 29.5L15.7853 29.3127L11.8255 25.8127L11.66 25.6663L11.4944 25.8127L10.8344 26.396Z" fill="black" stroke="black" stroke-width="0.5"/>
<path d="M13.374 0L22.874 5.5V16.5L13.374 22L3.87402 16.5V5.5L13.374 0ZM5.87402 6.65311V6.65788L13.374 11V19.689L20.874 15.3469V6.65311L13.374 2.311L5.87402 6.65311Z" fill="black"/>
</svg>
