<svg width="123" height="19" viewBox="0 0 123 19" fill="none" xmlns="http://www.w3.org/2000/svg">
<path d="M20.4769 6.40283V6.44992C19.6681 6.75737 19.7678 8.54948 19.7678 9.27795V15.391C19.7678 16.1223 19.6709 17.3022 20.4769 17.6097V17.6568H17.4023V17.6097C18.2139 17.3189 18.1142 16.1223 18.1142 15.391V9.27795C18.1142 8.53286 18.2278 6.75737 17.4023 6.44992V6.40283C17.4023 6.40283 18.7928 7.00666 20.4769 6.40283Z" fill="#AAAEB5"/>
<path d="M9.89065 17.6873H8.37C7.55843 17.6873 6.8161 17.3798 6.52527 16.9892L2.93276 12.1503L5.0517 9.31949C5.58629 8.55778 6.55574 7.55509 5.47549 7.0676V7.02051H8.40047V7.03713L4.66392 11.8262L7.94621 16.114C8.44756 16.776 9.06524 17.233 9.88788 17.6346V17.6845M3.45072 17.6845H0.345703V17.6346C1.17112 17.3272 1.07418 16.1306 1.07418 15.4021V9.28626C1.07418 8.55778 1.17112 7.37782 0.345703 7.0676V7.02051H3.45349V7.0676C2.62807 7.3612 2.72502 8.55778 2.72502 9.28626V15.4021C2.72502 16.1444 2.62807 17.3272 3.45349 17.6346V17.6845H3.45072Z" fill="#AAAEB5"/>
<path d="M28.8565 14.8509C28.8565 16.5848 27.0478 18.2024 24.5216 18.2024C23.5356 18.2024 22.5467 18.0556 21.6271 17.715L21.1562 15.693C22.1146 16.5184 23.4358 17.0363 24.6989 17.0363C25.624 17.0363 27.0145 16.4851 27.0145 15.3523C27.0145 12.8289 21.4471 13.2804 21.4471 9.83469C21.4471 7.79607 23.5356 7.02051 25.5077 7.02051C26.3165 7.02051 27.1419 7.13407 27.9203 7.37782V9.20593C27.2887 8.55778 26.2833 8.18662 25.3775 8.18662C24.4718 8.18662 23.289 8.54393 23.289 9.66019C23.289 11.8927 28.8537 11.8595 28.8537 14.8537L28.8565 14.8509Z" fill="#AAAEB5"/>
<path d="M18.7107 2.52797C18.2093 2.83265 17.5556 2.67477 17.2482 2.17343C16.9435 1.67208 17.1014 1.01839 17.6027 0.710938H17.5833C16.2372 1.53082 15.8161 3.28691 16.6333 4.63029C17.1263 5.44186 17.9628 5.91828 18.8436 5.98753C19.4225 6.03462 20.0208 5.90443 20.5526 5.58036L20.5665 5.56928C21.2063 5.17873 21.511 4.45025 21.3919 3.75225C21.3531 3.53897 21.2783 3.32569 21.1564 3.12903C21.09 3.01823 21.0124 2.91852 20.9265 2.82711C20.4141 2.28976 19.6109 2.1208 18.9212 2.42825C18.9212 2.42825 18.8048 2.4698 18.7079 2.52797H18.7107Z" fill="#AAAEB5"/>
<path d="M31.9144 7.00668V7.05376C32.4712 7.30582 32.4656 7.56065 32.3133 8.01491L29.103 16.4852C28.9479 16.8896 28.7125 17.3881 28.0449 17.6374V17.6817H31.2081V17.6319C30.6957 17.5515 30.8092 16.9117 30.8979 16.6458L31.4297 14.9756H33.2661V13.6156H31.7538L33.2661 9.49955V7.00668H31.9172H31.9144ZM37.4237 16.4824L34.2134 8.01214C34.0611 7.55788 34.0555 7.30305 34.6123 7.05099V7.00391H33.2633V9.49678L34.7757 13.6128H33.2633V14.9728H35.0998L35.6316 16.643C35.7202 16.9089 35.8338 17.5488 35.3214 17.6291V17.679H38.4845V17.6346C37.817 17.3854 37.5816 16.8868 37.4264 16.4824H37.4237Z" fill="#AAAEB5"/>
<path d="M17.6181 15.8458L16.7955 17.7237C16.0365 18.0811 15.1779 18.2112 14.3386 18.2112C10.5189 18.2112 8.15625 16.0729 8.15625 12.6106C8.15625 9.14824 10.5162 7.0293 13.8345 7.0293C14.8233 7.0293 15.826 7.20934 16.7955 7.4337V9.29505C15.8897 8.72722 14.8538 8.37268 13.7874 8.37268C11.5521 8.37268 9.99821 10.0235 9.99821 12.3696C9.99821 14.7157 11.6158 16.8679 14.1087 16.8679C15.3219 16.8679 16.5545 16.4302 17.571 15.8458H17.6181Z" fill="#AAAEB5"/>
<path d="M44.8721 4.93802V4.46714C44.8721 4.15415 44.8084 3.83561 44.6893 3.52262H46.3623V4.93802H48.7056V5.80499H47.5644C48.2347 6.3922 48.5643 7.13175 48.5643 8.02365C48.5643 8.83245 48.2762 9.53322 47.6973 10.1149C47.1184 10.6993 46.4315 10.9902 45.6282 10.9902C44.825 10.9902 44.1381 10.6993 43.5592 10.1149C42.9803 9.53322 42.6922 8.83245 42.6922 8.02365C42.6922 7.14283 43.0246 6.40051 43.6949 5.80499H42.5703V4.93802H44.8693M47.1794 8.02642C47.1794 7.45029 47.027 6.94894 46.714 6.52792C46.4093 6.10967 46.0465 5.89639 45.6282 5.89639C45.21 5.89639 44.8638 6.11244 44.5591 6.52792C44.2488 6.94894 44.0937 7.45029 44.0937 8.02642C44.0937 8.60255 44.2488 9.09005 44.5591 9.51107C44.8638 9.92654 45.2266 10.1398 45.6282 10.1398C46.0299 10.1398 46.4093 9.92654 46.714 9.51107C47.027 9.08728 47.1794 8.59147 47.1794 8.02642ZM51.7413 17.4412H46.0243C45.8803 17.4412 45.7529 17.383 45.6421 17.275C45.5313 17.1587 45.4704 17.0312 45.4704 16.8928V14.1395C45.4704 13.5523 45.3485 13.0565 45.0881 12.6493H46.9024V16.577H51.7358V17.4412M53.503 7.77159H51.6638V11.9319C51.6638 12.3003 51.4727 12.4831 51.0987 12.4831H50.2318V5.02943C50.2318 4.33142 50.0711 3.77468 49.7443 3.37305H51.6665V6.9157H53.5057V7.77159H53.503Z" fill="#AAAEB5"/>
<path d="M61.2627 8.94267C61.379 8.21143 61.4344 6.79603 61.4344 4.69924H56.155V3.83228H62.8941C62.8858 6.32515 62.7113 8.03139 62.3734 8.94267H65.038V9.80687H60.127V12.4826H58.695V9.80687H53.7812V8.94267H61.2627ZM62.6642 16.9697C62.6642 17.3381 62.4759 17.5182 62.0964 17.5182H61.2322V13.3495H56.1523V12.4826H62.6642V16.967V16.9697Z" fill="#AAAEB5"/>
<path d="M76.9786 11.2112H72.5357V13.6625C72.5357 14.0226 72.3557 14.2054 71.99 14.2054H71.1065V11.2112H65.7246V10.3442H76.9813V11.2112M74.6824 17.4296H68.5831C68.4308 17.4296 68.3034 17.3742 68.187 17.2606C68.0762 17.1498 68.0208 17.0224 68.0208 16.8839V14.7511C68.0208 14.1667 67.8934 13.6653 67.6386 13.2609H69.4473V16.5598H74.6824V17.4268M74.6076 8.52998H68.6607C68.5111 8.52998 68.3781 8.47736 68.2673 8.36933C68.1566 8.26131 68.0984 8.13666 68.0984 7.98432V5.4582C68.0984 4.86822 67.9737 4.36688 67.7189 3.96802H74.6076V8.53275M73.1783 7.66579V4.83498H69.5249V7.66579H73.1783Z" fill="#AAAEB5"/>
<path d="M85.8715 11.6799V5.02943C85.8715 4.33142 85.7053 3.77468 85.3785 3.37305H87.3035V7.87408H89.1372V8.74381H87.3035V14.9815C87.3035 15.3472 87.1207 15.53 86.7523 15.53H85.8715V12.3252C84.47 12.6244 83.0213 12.7684 81.5201 12.7684H77.6367V11.9042H80.6753V10.1371C80.0742 9.99025 79.5756 9.70219 79.174 9.2507C78.7724 8.80752 78.5729 8.29509 78.5729 7.72727C78.5729 6.95448 78.9192 6.31464 79.6144 5.80499H78.1851V4.94079H80.6088V4.61672C80.6088 4.27048 80.534 3.95472 80.401 3.66942H82.1073V4.94079H84.5254V5.80499H83.11C83.7997 6.30356 84.1404 6.94617 84.1404 7.72727C84.1404 8.29509 83.9382 8.80752 83.5421 9.2507C83.1404 9.69942 82.6391 9.99025 82.0408 10.1371V11.9042H82.5588C83.9354 11.9042 85.0406 11.8294 85.8743 11.6771M82.7637 7.73281C82.7637 7.30348 82.6225 6.92401 82.3455 6.59163C82.063 6.25648 81.7389 6.09028 81.3677 6.09028C80.9966 6.09028 80.6614 6.25648 80.3789 6.59163C80.0991 6.92401 79.9579 7.30348 79.9579 7.73281C79.9579 8.16214 80.0991 8.53884 80.3789 8.874C80.6642 9.20638 80.991 9.37811 81.3677 9.37811C81.7444 9.37811 82.0657 9.20915 82.3455 8.874C82.6225 8.53884 82.7637 8.1566 82.7637 7.73281Z" fill="#AAAEB5"/>
<path d="M93.9811 7.64687C95.1278 8.3975 95.9865 9.00133 96.5681 9.45559L95.3355 10.4583C94.8896 9.96248 94.2331 9.25893 93.3745 8.34488C92.6543 9.11767 91.7513 9.8683 90.6683 10.5995L90.0312 10.0151C90.8484 9.46113 91.5713 8.77698 92.1917 7.96541C92.8814 7.06243 93.2886 6.18438 93.4077 5.33404H90.4412V4.46707H95.3051C95.2552 5.51962 94.812 6.58047 93.9838 7.6441M99.3518 14.5937C99.3518 15.4025 99.0388 16.0922 98.4156 16.66C97.7924 17.2278 97.039 17.5104 96.1554 17.5104C95.2718 17.5104 94.524 17.2278 93.898 16.66C93.2775 16.0894 92.9645 15.4025 92.9645 14.5937C92.9645 13.7849 93.2775 13.0924 93.898 12.5191C94.524 11.9457 95.2774 11.6604 96.1554 11.6604C97.0335 11.6604 97.7924 11.9457 98.4156 12.5191C99.0388 13.0924 99.3518 13.7821 99.3518 14.5937ZM97.8921 14.5937C97.8921 14.0037 97.7176 13.5079 97.3742 13.1035C97.0307 12.6991 96.6263 12.4941 96.1554 12.4941C95.6845 12.4941 95.2885 12.6963 94.9394 13.1035C94.596 13.5079 94.4243 14.0037 94.4243 14.5937C94.4243 15.1837 94.5932 15.6629 94.9394 16.07C95.2885 16.4744 95.6901 16.6794 96.1554 16.6794C96.6208 16.6794 97.0307 16.4744 97.3742 16.07C97.7176 15.6656 97.8921 15.1726 97.8921 14.5937ZM99.5153 10.3641C99.5153 10.7297 99.3297 10.9098 98.9585 10.9098H98.0611V7.45852H95.7178V6.59155H98.0611V5.02381C98.0611 4.34796 97.8949 3.79676 97.557 3.36743H99.518V10.3613L99.5153 10.3641Z" fill="#AAAEB5"/>
<path d="M104.629 5.97674H108.582V4.94358C108.582 4.48932 108.501 4.08769 108.338 3.74146H110.014V9.88778H107.319V12.5164H112.232V13.4H100.979V12.5164H105.892V9.88778H103.748C103.604 9.88778 103.477 9.82962 103.369 9.71882C103.258 9.60803 103.197 9.47507 103.197 9.31996V5.17071C103.197 4.66382 103.095 4.20956 102.884 3.81901H104.632V5.97674M108.585 6.86032H104.632V9.0042H108.585V6.86032Z" fill="#AAAEB5"/>
<path d="M123 17.43H117.053C116.904 17.43 116.771 17.3719 116.66 17.2639C116.546 17.1475 116.494 17.0201 116.494 16.8816V14.1284C116.494 13.5605 116.361 13.0647 116.098 12.6382H117.937V16.5659H123V17.43Z" fill="#AAAEB5"/>
<path d="M119.636 6.01511C119.636 6.74912 119.35 7.37234 118.788 7.89031C118.223 8.4055 117.539 8.6631 116.738 8.6631C115.938 8.6631 115.259 8.4055 114.691 7.89031C114.129 7.37234 113.844 6.74912 113.844 6.01511C113.844 5.2811 114.126 4.65511 114.691 4.1316C115.259 3.61087 115.943 3.35327 116.738 3.35327C117.533 3.35327 118.223 3.61087 118.788 4.1316C119.353 4.65234 119.636 5.27833 119.636 6.01511ZM118.312 6.01511C118.312 5.48053 118.154 5.03181 117.843 4.66342C117.53 4.29503 117.165 4.11221 116.738 4.11221C116.312 4.11221 115.952 4.2978 115.636 4.66342C115.323 5.03181 115.171 5.48053 115.171 6.01511C115.171 6.54969 115.326 6.98456 115.636 7.35295C115.952 7.71858 116.317 7.90416 116.738 7.90416C117.159 7.90416 117.53 7.71858 117.843 7.35295C118.154 6.98456 118.312 6.53861 118.312 6.01511Z" fill="#AAAEB5"/>
<path d="M112.922 9.07886V9.94583H116.104V12.1229H116.888C117.212 12.1229 117.373 11.9401 117.373 11.58V9.94583H120.558V9.07886H112.925H112.922Z" fill="#AAAEB5"/>
<path d="M121.294 3.36426C121.569 3.79913 121.704 4.37526 121.704 5.09819V6.58838H120.184V7.45535H121.704V12.1669H122.433C122.809 12.1669 122.998 11.9868 122.998 11.624V3.36426H121.294Z" fill="#AAAEB5"/>
</svg>
