<svg width="24" height="24" viewBox="0 0 24 24" fill="none" xmlns="http://www.w3.org/2000/svg">
<g clip-path="url(#clip0_649_22394)">
<path d="M11.4833 19.4339L11.4834 19.4339C11.655 19.4446 11.8259 19.45 11.9964 19.45C15.836 19.45 19.3996 16.7441 20.9809 12.5804L20.9806 12.5803L20.9809 12.5803C21.0805 12.3177 21.0689 12.0273 20.9675 11.7855C19.4692 7.87364 16.1575 5.19531 12.5163 4.96587L12.5163 4.96587C8.49115 4.71466 4.6805 7.4639 3.02573 11.8022C3.00967 11.8424 2.99607 11.8839 2.98502 11.9264C2.96169 12.0156 2.95032 12.1068 2.95012 12.1971C2.94988 12.2794 2.95891 12.3625 2.97783 12.4443C2.99025 12.4982 3.00674 12.5508 3.02712 12.6013C4.52301 16.5202 7.83807 19.2043 11.4833 19.4339ZM4.63423 12.1994C6.09341 8.76911 9.18423 6.63106 12.4301 6.83595L12.4302 6.83595C15.3623 7.02026 18.0484 9.10789 19.3654 12.2005C17.9063 15.6308 14.8168 17.7696 11.5695 17.5639L11.5695 17.5639C8.63733 17.3796 5.95123 15.2919 4.63423 12.1994Z" fill="white" stroke="white" stroke-width="0.1"/>
<path d="M12.0008 15.0219C10.5121 15.0219 9.30078 13.811 9.30078 12.3222C9.30078 10.8335 10.5121 9.62256 12.0008 9.62256C13.4895 9.62256 14.7008 10.8335 14.7008 12.3222C14.7008 13.811 13.4895 15.0219 12.0008 15.0219Z" stroke="white" stroke-width="1.8"/>
</g>
<defs>
<clipPath id="clip0_649_22394">
<rect width="24" height="24" fill="white"/>
</clipPath>
</defs>
</svg>
