<?xml version="1.0" encoding="UTF-8"?>
<svg id="_레이어_2" data-name="레이어 2" xmlns="http://www.w3.org/2000/svg" viewBox="0 0 8.29 10.48">
  <defs>
    <style>
      .cls-1 {
        fill: #fff;
        stroke-width: 0px;
      }
    </style>
  </defs>
  <g id="_레이어_1-2" data-name="레이어 1">
    <path class="cls-1" d="M7.89,9.92V.42c0-.23-.19-.42-.42-.42H.8c-.23,0-.42.19-.42.42v9.5h-.38v.57h8.29v-.57h-.4ZM2.28,1.61h1.12v1.12h-1.12v-1.12ZM2.28,3.44h1.12v1.12h-1.12v-1.12ZM2.28,5.36h1.12v1.12h-1.12v-1.12ZM4.9,7.7v2.06s-.04.08-.08.08h-1.34s-.08-.04-.08-.08v-2.09s.04-.08.08-.08h1.34s.08.04.08.08v.03ZM6.02,6.48h-1.12v-1.12h1.12v1.12ZM6.02,4.57h-1.12v-1.12h1.12v1.12ZM6.02,2.74h-1.12v-1.12h1.12v1.12Z"/>
  </g>
</svg>