<svg width="24" height="24" viewBox="0 0 24 24" fill="none" xmlns="http://www.w3.org/2000/svg">
<path d="M0 13.2001C0 13.8599 0.26919 14.4601 0.699895 14.8983L9.07452 23.298C9.50522 23.73 10.1092 24 10.7676 24C11.4254 24 12.0238 23.73 12.4545 23.298L23.2221 12.4981C23.659 12.0661 23.9282 11.4659 23.9282 10.7999V2.40017C23.9282 1.0738 22.8571 0 21.5352 0H13.1606C12.5028 0 11.9044 0.269998 11.4675 0.701994L0.706064 11.4957C0.26919 11.9339 0 12.5341 0 13.2001ZM17.946 4.20015C17.946 3.20397 18.7474 2.40017 19.7406 2.40017C20.7338 2.40017 21.5352 3.20397 21.5352 4.20015C21.5352 5.19633 20.7338 6.00014 19.7406 6.00014C18.7474 6.00014 17.946 5.19633 17.946 4.20015Z" fill="#3C50BE"/>
</svg>
