<?xml version="1.0" encoding="UTF-8"?>
<svg id="_레이어_2" data-name="레이어 2" xmlns="http://www.w3.org/2000/svg" viewBox="0 0 10.47 8.79">
  <defs>
    <style>
      .cls-1 {
        fill: #fff;
        stroke-width: 0px;
      }
    </style>
  </defs>
  <g id="_레이어_1-2" data-name="레이어 1">
    <g>
      <path class="cls-1" d="M4.07.73c.83,0,1.51.68,1.51,1.51s-.68,1.51-1.51,1.51-1.51-.68-1.51-1.51.68-1.51,1.51-1.51M4.07,0C2.84,0,1.83,1,1.83,2.24s1,2.24,2.24,2.24,2.24-1,2.24-2.24S5.31,0,4.07,0h0Z"/>
      <path class="cls-1" d="M7.91,8.79h-.72v-1.02c0-1.48-1.15-1.64-1.64-1.64h-3.19c-1.03,0-1.64.61-1.64,1.64v1.02h-.72v-1.02c0-1.44.93-2.36,2.36-2.36h3.19c1.46,0,2.36.91,2.36,2.36v1.02Z"/>
      <path class="cls-1" d="M8.67,2.24C8.67,1.07,7.77.12,6.63.02v.73c.74.1,1.31.73,1.31,1.49s-.57,1.39-1.31,1.49v.73c1.14-.1,2.04-1.05,2.04-2.22Z"/>
      <path class="cls-1" d="M8.49,5.44v.73c.54.09,1.25.43,1.25,1.6v1.02h.72v-1.02c0-1.32-.75-2.18-1.98-2.33Z"/>
    </g>
  </g>
</svg>