<?xml version="1.0" encoding="UTF-8"?>
<svg id="_레이어_2" data-name="레이어 2" xmlns="http://www.w3.org/2000/svg" viewBox="0 0 11.33 11.32">
  <defs>
    <style>
      .cls-1 {
        fill: #fff;
        stroke-width: 0px;
      }
    </style>
  </defs>
  <g id="_레이어_1-2" data-name="레이어 1">
    <path class="cls-1" d="M8.61,4.65V1.7l-2.93-1.7-2.93,1.7v2.95l-2.75,1.59v3.39l2.93,1.7,2.74-1.58,2.74,1.58,2.93-1.7v-3.39l-2.73-1.58ZM7.99,4.73l-2,1.16v-2.32l2-1.16v2.32ZM5.68.71l2.01,1.16-2.01,1.16-2.01-1.16,2.01-1.16ZM.92,6.41l2.01-1.16,2.01,1.16-2.01,1.16-2.01-1.16ZM5.24,9.27l-2,1.16v-2.32l2-1.16v2.32ZM6.4,6.41l2.01-1.16,2.01,1.16-2.01,1.16-2.01-1.16ZM10.72,9.27l-2,1.16v-2.32l2-1.16v2.32Z"/>
  </g>
</svg>