<svg width="15" height="13" viewBox="0 0 15 13" fill="none" xmlns="http://www.w3.org/2000/svg">
<path d="M13.3448 1.67436C12.6466 0.917075 11.6886 0.5 10.647 0.5C9.86837 0.5 9.15534 0.74615 8.52761 1.23155C8.21087 1.47657 7.92387 1.77634 7.67082 2.12621C7.41788 1.77644 7.13078 1.47657 6.81393 1.23155C6.18631 0.74615 5.47328 0.5 4.6947 0.5C3.65309 0.5 2.69494 0.917075 1.99673 1.67436C1.30685 2.42279 0.926819 3.44525 0.926819 4.55354C0.926819 5.69425 1.35192 6.73843 2.26459 7.83973C3.08104 8.82484 4.25447 9.82487 5.61333 10.9829C6.07733 11.3783 6.60328 11.8266 7.1494 12.3041C7.29368 12.4304 7.4788 12.5 7.67082 12.5C7.86274 12.5 8.04797 12.4304 8.19204 12.3043C8.73816 11.8267 9.26442 11.3782 9.72862 10.9826C11.0873 9.82477 12.2607 8.82484 13.0772 7.83962C13.9898 6.73843 14.4148 5.69425 14.4148 4.55344C14.4148 3.44525 14.0348 2.42279 13.3448 1.67436Z" fill="#5566C4"/>
</svg>
