<svg width="18" height="18" viewBox="0 0 18 18" fill="none" xmlns="http://www.w3.org/2000/svg">
<g clip-path="url(#clip0_1548_1508)">
<path fill-rule="evenodd" clip-rule="evenodd" d="M12.8926 11.6088L17.7343 16.4506C17.9045 16.6209 18.0001 16.8518 18 17.0926C17.9999 17.3333 17.9042 17.5642 17.7339 17.7344C17.5636 17.9046 17.3327 18.0001 17.0919 18C16.8511 18 16.6203 17.9042 16.4501 17.7339L11.6083 12.8922C10.1609 14.0132 8.34083 14.5408 6.51828 14.3675C4.69573 14.1942 3.00764 13.3332 1.79742 11.9595C0.587202 10.5857 -0.054236 8.80258 0.00359653 6.97273C0.0614291 5.14287 0.814188 3.40377 2.10874 2.10923C3.40329 0.814676 5.14238 0.0619174 6.97224 0.00408481C8.80209 -0.0537478 10.5853 0.58769 11.959 1.79791C13.3327 3.00813 14.1937 4.69622 14.367 6.51877C14.5403 8.34132 14.0127 10.1614 12.8917 11.6088H12.8926ZM7.20033 12.5997C8.63244 12.5997 10.0059 12.0308 11.0185 11.0181C12.0312 10.0055 12.6001 8.63203 12.6001 7.19992C12.6001 5.76782 12.0312 4.39437 11.0185 3.38172C10.0059 2.36908 8.63244 1.80017 7.20033 1.80017C5.76823 1.80017 4.39479 2.36908 3.38214 3.38172C2.36949 4.39437 1.80059 5.76782 1.80059 7.19992C1.80059 8.63203 2.36949 10.0055 3.38214 11.0181C4.39479 12.0308 5.76823 12.5997 7.20033 12.5997Z" fill="white"/>
</g>
<defs>
<clipPath id="clip0_1548_1508">
<rect width="18" height="17.9998" fill="white"/>
</clipPath>
</defs>
</svg>
