<svg width="32" height="32" viewBox="0 0 32 32" fill="none" xmlns="http://www.w3.org/2000/svg">
<path fill-rule="evenodd" clip-rule="evenodd" d="M13.7056 21.7005C18.1211 21.7005 21.7005 18.1211 21.7005 13.7056C21.7005 9.29011 18.1211 5.71066 13.7056 5.71066C9.29011 5.71066 5.71066 9.29011 5.71066 13.7056C5.71066 18.1211 9.29011 21.7005 13.7056 21.7005ZM13.7056 27.4112C21.275 27.4112 27.4112 21.275 27.4112 13.7056C27.4112 6.1362 21.275 0 13.7056 0C6.1362 0 0 6.1362 0 13.7056C0 21.275 6.1362 27.4112 13.7056 27.4112Z" fill="white"/>
<path fill-rule="evenodd" clip-rule="evenodd" d="M27.9614 32.0005L17.9678 22.0068L22.0058 17.9688L31.9995 27.9624L27.9614 32.0005Z" fill="white"/>
</svg>
