<?xml version="1.0" encoding="UTF-8"?>
<svg id="_레이어_2" data-name="레이어 2" xmlns="http://www.w3.org/2000/svg" xmlns:xlink="http://www.w3.org/1999/xlink" viewBox="0 0 1127.8 272.55">
  <defs>
    <style>
      .cls-1 {
        fill: url(#_무제_그라디언트_1779-3);
      }

      .cls-1, .cls-2, .cls-3, .cls-4 {
        stroke-width: 0px;
      }

      .cls-2 {
        fill: url(#_무제_그라디언트_1779);
      }

      .cls-3 {
        fill: #333;
      }

      .cls-4 {
        fill: url(#_무제_그라디언트_1779-2);
      }
    </style>
    <linearGradient id="_무제_그라디언트_1779" data-name="무제 그라디언트 1779" x1="97.71" y1="245.54" x2="23.46" y2="120.75" gradientUnits="userSpaceOnUse">
      <stop offset="0" stop-color="#5094cf"/>
      <stop offset="0" stop-color="#4f94cf"/>
      <stop offset=".1" stop-color="#38a2db"/>
      <stop offset=".21" stop-color="#27ace4"/>
      <stop offset=".33" stop-color="#1eb3e9"/>
      <stop offset=".48" stop-color="#1bb5eb"/>
      <stop offset=".93" stop-color="#5dc4f1"/>
      <stop offset="1" stop-color="#67c7f2"/>
    </linearGradient>
    <linearGradient id="_무제_그라디언트_1779-2" data-name="무제 그라디언트 1779" x1="28.83" y1="69.6" x2="223.99" y2="73.02" xlink:href="#_무제_그라디언트_1779"/>
    <linearGradient id="_무제_그라디언트_1779-3" data-name="무제 그라디언트 1779" x1="249.16" y1="99.17" x2="155.31" y2="235.77" xlink:href="#_무제_그라디언트_1779"/>
  </defs>
  <g id="_레이어_1-2" data-name="레이어 1">
    <g>
      <g>
        <path class="cls-2" d="M98.5,126.53L0,69.66v145.91l89.82,51.85c16.25,9.38,36.56-2.35,36.56-21.11v-71.49c0-19.92-10.63-38.33-27.88-48.29Z"/>
        <path class="cls-4" d="M115.61,2.89L0,69.66l126.38,72.97h0l126.38-72.98L137.15,2.89c-6.67-3.85-14.88-3.85-21.54,0Z"/>
        <path class="cls-1" d="M252.58,69.8l-100.52,58.01c-15.88,9.17-25.67,26.11-25.67,44.45v78.38c0,16.84,18.23,27.37,32.82,18.95l93.36-53.9c.12-.07.19-.2.19-.34V69.66l-.18.14Z"/>
      </g>
      <g>
        <path class="cls-3" d="M445.39,38.1h-32.11v41.95c16.39-.05,26.86-.48,39.06-2.7l.96,7.62c-12.92,2.31-24.2,2.89-42.14,2.89h-7.14V30.48h41.37v7.62ZM470.08,109.07h-9.16V22.47h9.16v86.59Z"/>
        <path class="cls-3" d="M538.45,83.03l-5.01,7.14c-10.17-4.48-18.27-13.98-22.28-25.55-4,12.34-12.15,22.85-22.18,27.77l-5.3-7.23c13.02-6.08,22.66-22.37,22.76-37.22v-9.16h-19.77v-7.62h48.7v7.62h-19.67v9.16c0,14.46,9.45,29.41,22.76,35.1ZM555.42,108.88h-9.16V22.47h9.16v86.4Z"/>
        <path class="cls-3" d="M613.08,35.01h-30.47v7.91h27.97v6.94h-27.97v8.78c14.8-.05,23.77-.29,34.52-2.02l.77,7.33c-11.67,1.83-21.31,2.03-37.9,2.03h-6.46V27.58h39.54v7.43ZM641.14,93.45h-47.16v7.43h50.24v7.14h-59.4v-21.41h47.25v-6.94h-47.44v-7.14h56.51v20.92ZM641.14,68.86h-9.06v-19.67h-15.72v-7.33h15.72v-19.38h9.06v46.38Z"/>
        <path class="cls-3" d="M733.52,73.58h-34.33v16.78h-9.06v-16.78h-35.68v-7.42h79.07v7.42ZM724.75,107.04h-60.46v-24.88h9.16v17.45h51.3v7.43ZM723.3,57.19h-58.73v-30.67h58.73v30.67ZM673.54,49.96h40.69v-16.2h-40.69v16.2Z"/>
        <path class="cls-3" d="M761.78,85.06v-8.78c-9.74-1.35-16.1-7.23-16.01-15.62-.1-9.74,8.29-16.2,20.64-16.2s20.73,6.46,20.83,16.2c-.1,8.39-6.56,14.32-16.3,15.72v8.29c7.67-.29,15.38-.92,22.56-1.93l.58,6.75c-18.71,3.37-38.96,3.47-53.81,3.47l-1.45-7.62c6.8,0,14.71,0,22.95-.29ZM792.25,40.02h-51.78v-7.33h21.31v-10.03h9.16v10.03h21.31v7.33ZM754.35,60.66c0,5.5,4.82,8.87,12.05,8.87s12.05-3.37,12.05-8.87-4.82-9.06-12.05-9.06-12.05,3.57-12.05,9.06ZM807.58,58.64h13.02v7.71h-13.02v42.53h-9.16V22.47h9.16v36.16Z"/>
        <path class="cls-3" d="M877.4,83.03l-5.21,7.14c-9.69-4.68-17.36-14.42-21.22-25.75-4,12.39-12.1,23.05-21.99,27.97l-5.4-7.23c13.11-6.27,22.66-22.57,22.66-37.22v-9.16h-19.48v-7.62h47.35v7.62h-18.8v9.16c0,13.69,8.97,28.93,22.08,35.1ZM892.54,56.71h13.89v7.71h-13.89v44.46h-9.16V22.47h9.16v34.23Z"/>
        <path class="cls-3" d="M966.11,59.41l.58,6.56c-7.38,1.21-15.14,2.02-22.76,2.51v16.88h-9.16v-16.39c-8.39.39-16.44.43-23.43.39l-1.16-7.33c16.01-.1,37.51-.29,55.93-2.6ZM959.84,41.08c0,9.16-8.78,15.04-21.41,15.04s-21.5-5.88-21.5-15.04,8.68-15.24,21.5-15.24,21.41,6.08,21.41,15.24ZM984.53,107.04h-62.39v-25.36h9.06v17.94h53.33v7.43ZM925.61,41.08c-.1,5.11,5.11,8.29,12.83,8.29s12.63-3.18,12.73-8.29c-.1-5.21-5.3-8.49-12.73-8.39-7.71-.1-12.92,3.18-12.83,8.39ZM982.41,88.05h-9.16v-8.29h-17.36v-6.46h17.36V22.57h9.16v65.48Z"/>
        <path class="cls-3" d="M496.29,208.5h-96.91v-9.16h38.88v-19.98h11.06v19.98h46.97v9.16ZM485,237.04c-.12,12.37-14.63,19.74-37.69,19.62-22.83.12-37.45-7.25-37.45-19.62s14.63-19.74,37.45-19.74,37.57,7.25,37.69,19.74ZM484.16,164.51c0,8.56,0,17.36-2.97,28.3l-11.06-1.19c2.85-10.88,2.85-18.73,2.85-26.99h-62.31v-9.04h73.48v8.92ZM421.15,237.04c-.12,6.9,9.99,10.94,26.16,10.94s26.4-4.04,26.52-10.94c-.12-7.02-10.23-11.18-26.52-11.18s-26.28,4.16-26.16,11.18Z"/>
        <path class="cls-3" d="M601.76,211.24h-97.26v-9.04h43.16v-11.29h-31.03v-35.67h73.13v8.92h-61.95v17.72h62.66v9.04h-31.87v11.29h43.16v9.04ZM589.75,237.52c0,12.37-13.79,19.26-36.74,19.38-23.07-.12-36.98-7.02-36.98-19.38s13.91-19.38,36.98-19.38,36.74,7.02,36.74,19.38ZM527.45,237.52c0,6.78,9.27,10.58,25.56,10.46,16.05.12,25.45-3.69,25.45-10.46s-9.39-10.58-25.45-10.58-25.56,3.8-25.56,10.58Z"/>
        <path class="cls-3" d="M636.84,202.68v-5.95c-12.25-1.13-19.86-6-19.74-14.03-.12-8.68,9.87-13.79,25.33-13.79s25.33,5.11,25.33,13.79c0,7.97-7.55,12.84-19.62,14.03v5.59c9.51-.48,19.14-1.25,28.06-2.5l.95,7.37c-22.95,3.8-48.16,3.92-66.94,3.92l-1.19-8.09c8.26,0,17.84,0,27.82-.36ZM673.22,165.82h-61.47v-7.85h25.09v-8.56h11.3v8.56h25.09v7.85ZM693.56,239.89h-58.86v8.09h62.78v7.85h-74.08v-23.19h58.98v-7.13h-59.21v-7.85h70.39v22.23ZM627.8,182.7c0,4.28,5.47,6.9,14.62,6.9s14.51-2.62,14.51-6.9c0-4.04-5.47-6.42-14.51-6.42s-14.62,2.38-14.62,6.42ZM693.56,176.88h15.22v9.63h-15.22v26.63h-11.3v-62.78h11.3v26.52Z"/>
        <path class="cls-3" d="M812.11,211.48h-97.14v-9.16h23.3v-14.39c-8.2-3.33-12.84-8.68-12.84-15.7,0-12.6,14.63-19.98,38.05-19.98s38.05,7.37,38.05,19.98c0,7.02-4.7,12.43-12.96,15.7v14.39h23.54v9.16ZM800.22,237.64c0,12.37-13.79,19.02-36.74,19.02s-36.98-6.66-36.98-19.02,13.79-18.91,36.98-18.91,36.74,6.78,36.74,18.91ZM737.08,172.24c-.12,7.13,9.87,11.18,26.4,11.18s26.4-4.04,26.4-11.18-9.87-11.3-26.4-11.3-26.52,4.16-26.4,11.3ZM737.91,237.64c0,6.66,9.27,10.46,25.56,10.35,16.05.12,25.45-3.69,25.45-10.35s-9.39-10.23-25.45-10.23-25.56,3.68-25.56,10.23ZM777.39,202.32v-11.41c-4.16.71-8.86,1.07-13.91,1.07s-9.63-.36-13.79-.95v11.3h27.7Z"/>
        <path class="cls-3" d="M917.34,206.01h-97.14v-8.92h97.14v8.92ZM908.18,162.13h-15.46v18.43h14.98v8.68h-78.12v-8.68h15.1v-18.43h-15.58v-8.56h79.07v8.56ZM905.09,238.7h-62.07v8.56h65.04v8.56h-76.1v-25.09h61.95v-7.97h-62.07v-8.44h73.24v24.38ZM881.43,180.56v-18.43h-25.56v18.43h25.56Z"/>
        <path class="cls-3" d="M970.37,189h-29.25v14.15c13.2-.12,23.25-.71,34.96-3.09l1.19,8.92c-13.32,2.74-24.26,3.21-40.07,3.21h-7.02v-31.51h29.37v-13.08h-29.61v-9.16h40.43v30.56ZM1021.74,247.62l-4.52,8.8c-16.35-2.56-30.44-10.46-36.98-21.76-6.66,11.3-20.69,19.2-36.98,21.76l-4.52-8.8c19.98-2.85,35.79-14.27,35.79-27.35v-2.5h11.3v2.5c0,13.08,15.81,24.49,35.91,27.35ZM1016.27,222.77h-10.7v-35.91h-13.08v26.75h-10.58v-61.23h10.58v25.21h13.08v-27.11h10.7v72.29Z"/>
        <path class="cls-3" d="M1127.8,212.43h-97.14v-9.04h42.81v-11.06h-33.41v-9.16h15.1v-20.33h-15.58v-9.16h79.07v9.16h-15.46v20.33h14.98v9.16h-33.41v11.06h43.04v9.04ZM1115.91,255.59h-73.6v-33.89h73.6v33.89ZM1053.49,246.43h51.49v-15.93h-51.49v15.93ZM1091.89,183.18v-20.33h-25.56v20.33h25.56Z"/>
      </g>
    </g>
  </g>
</svg>