<svg width="115" height="23" viewBox="0 0 115 23" fill="none" xmlns="http://www.w3.org/2000/svg">
<path d="M18.037 10.94C16.0473 9.58622 13.4982 10.1403 12.1608 12.1736C11.0445 13.8739 9.35511 14.0841 8.70281 14.0841C6.57396 14.0841 5.11651 12.5857 4.68529 11.0355C4.68256 11.0191 4.67983 11.0082 4.67437 10.9918C4.67164 10.9754 4.66618 10.9563 4.66072 10.94C4.49151 10.2931 4.44784 9.9847 4.44784 9.29692C4.44784 5.59053 8.24975 1.46384 13.7274 1.46384C19.2051 1.46384 22.5458 5.73246 23.3728 8.10695C23.3591 8.06601 23.3455 8.02234 23.3318 7.9814C21.7352 3.34159 17.3356 0.00366211 12.1554 0.00366211C5.63508 0.00366211 0.345703 5.29031 0.345703 11.8133C0.345703 17.6431 4.54882 22.6323 10.3813 22.6323C15.0321 22.6323 18.1598 20.0231 19.5927 16.4286C20.3787 14.4635 19.822 12.1518 18.0343 10.9372L18.037 10.94Z" fill="#AAAEB5"/>
<path d="M23.4439 8.33624C22.7534 6.02179 19.5192 1.46387 13.7249 1.46387C8.24722 1.46387 4.44531 5.59056 4.44531 9.29695C4.44531 9.98473 4.48898 10.2931 4.6582 10.94C4.58724 10.6561 4.54903 10.3723 4.54903 10.0966C4.54903 6.23741 8.41371 3.5627 12.3876 3.5627C17.767 3.5627 22.1257 7.92138 22.1257 13.2981C22.1257 17.5149 19.6994 21.1612 16.1758 22.9161C20.7201 21.2731 23.9652 16.9226 23.9652 11.8106C23.9652 10.6016 23.8015 9.5344 23.4467 8.33624H23.4439Z" fill="#AAAEB5"/>
<path d="M40.4446 11.83V13.1291H35.8076V14.9577H34.3119V13.1291H29.582V11.83H40.4446ZM30.4554 10.6236V6.07935H39.5713V10.6236H30.4554ZM31.9265 13.9616V16.2542H39.7159V17.5533H30.4554V13.9616H31.9265ZM38.1138 7.33755H31.8992V9.40363H38.1138V7.33755Z" fill="#AAAEB5"/>
<path d="M49.384 16.5707H41.6328V15.2852H44.7469V13.8141C44.605 13.7787 44.4713 13.735 44.3485 13.6831C43.9964 13.5412 43.6852 13.3529 43.4205 13.1127C43.1558 12.8643 42.9483 12.5805 42.7982 12.2557C42.6481 11.9337 42.5717 11.5925 42.5717 11.2295C42.5717 10.8665 42.6481 10.5281 42.7982 10.2115C42.9483 9.89214 43.1558 9.61103 43.4205 9.36266C43.6852 9.11429 43.9937 8.92324 44.343 8.78678C44.6924 8.65031 45.0663 8.58208 45.462 8.58208C45.8578 8.58208 46.2317 8.65031 46.5756 8.78678C46.9222 8.92324 47.2197 9.11429 47.479 9.36266C47.7437 9.61103 47.9539 9.89214 48.1067 10.2115C48.2623 10.5281 48.3387 10.8692 48.3387 11.2295C48.3387 11.5898 48.2623 11.9337 48.1067 12.2557C47.9539 12.5778 47.7437 12.8643 47.479 13.1127C47.2224 13.3502 46.9222 13.5412 46.5756 13.6831C46.4364 13.7459 46.289 13.795 46.1389 13.8305V15.288H49.384V16.5735V16.5707ZM44.6405 7.11099V5.85278H46.2317V7.11099H49.1056V8.36919H41.7665V7.11099H44.6405ZM46.9058 11.2186C46.9058 10.8283 46.7639 10.498 46.48 10.2197C46.1962 9.94127 45.8523 9.80208 45.4484 9.80208C45.0444 9.80208 44.6978 9.94127 44.414 10.2197C44.1328 10.498 43.9909 10.831 43.9909 11.2186C43.9909 11.6061 44.1356 11.9418 44.414 12.2257C44.6978 12.5095 45.0417 12.6487 45.4484 12.6487C45.855 12.6487 46.1989 12.5068 46.48 12.2257C46.7639 11.9418 46.9058 11.6089 46.9058 11.2186ZM51.6739 17.7498H50.2165V5.93193H51.6739V11.0603H53.1832V12.4768H51.6739V17.7498Z" fill="#AAAEB5"/>
<path d="M53.8367 8.37164V7.11343H56.3395V5.85522H57.8897V7.11343H60.2478V8.37164H57.5704L60.3788 15.8035L59.0933 16.2402L57.12 10.888L55.1468 16.333L53.8203 15.91L56.6424 8.37164H53.834H53.8367ZM61.2276 5.94529H62.5923V17.684H61.2276V11.9743H59.691V10.637H61.2276V5.94529ZM63.7058 5.93164H65.1223V17.7495H63.7058V5.93164Z" fill="#AAAEB5"/>
<path d="M76.5556 14.1361V17.7797H75.0845V15.3943H67.1614V14.1361H69.0419L69.0555 12.7578H66.5664V11.4859H77.429V12.7578H74.9235V14.1361H76.5529H76.5556ZM74.9126 8.36089C74.9126 8.73207 74.8334 9.08142 74.6751 9.40621C74.5168 9.73373 74.3067 10.0258 74.0529 10.2796C73.7881 10.517 73.4797 10.7108 73.1249 10.8555C72.7701 11.0001 72.3962 11.0738 72.0004 11.0738C71.6047 11.0738 71.2253 11.0028 70.8678 10.8555C70.5102 10.7081 70.1991 10.517 69.9344 10.2796C69.6805 10.023 69.4704 9.73373 69.3121 9.40621C69.1538 9.07869 69.0719 8.72934 69.0719 8.36089C69.0719 7.99243 69.1538 7.64035 69.3121 7.31284C69.4704 6.98532 69.6778 6.69602 69.9344 6.43946C70.1991 6.1911 70.5102 5.99459 70.8678 5.84994C71.2253 5.70528 71.6047 5.63159 72.0004 5.63159C72.3962 5.63159 72.7728 5.70528 73.1249 5.84994C73.477 5.99459 73.7854 6.19383 74.0529 6.43946C74.3094 6.69602 74.5168 6.98805 74.6751 7.31284C74.8334 7.64035 74.9126 7.9897 74.9126 8.36089ZM70.3956 14.1361H73.5752V12.7578H70.4093L70.3956 14.1361ZM73.4715 8.36089C73.4715 7.96241 73.3269 7.62398 73.0403 7.34559C72.7537 7.0672 72.4071 6.92801 72.0004 6.92801C71.5938 6.92801 71.2444 7.0672 70.9524 7.34559C70.6604 7.62398 70.513 7.96241 70.513 8.36089C70.513 8.75937 70.6604 9.0978 70.9524 9.38165C71.2444 9.66276 71.591 9.80469 72.0004 9.80469C72.4098 9.80469 72.7537 9.66276 73.0403 9.38165C73.3269 9.10053 73.4715 8.75937 73.4715 8.36089Z" fill="#AAAEB5"/>
<path d="M86.0021 11.5922V12.8777H78.9414V11.5922H81.3241V9.02116H82.716V11.5922H86.0021ZM84.1626 10.5059V7.48457H79.2744V6.17178H85.5927V10.5032H84.1626V10.5059ZM80.9447 13.8165V16.2156H89.119V17.512H79.4736V13.8165H80.9447ZM88.7996 13.2871H87.3313V5.93433H88.7996V8.82192H90.3089V10.2248H88.7996V13.2871Z" fill="#AAAEB5"/>
<path d="M93.6979 11.0083V8.70203H95.0871V11.0083H98.3732V12.2392H91.3125V11.0083H93.6979ZM96.5336 9.94932V7.47112H91.6428V6.17198H97.9611V9.94659H96.5309L96.5336 9.94932ZM100.112 15.4079C100.112 15.79 100.03 16.1394 99.8743 16.4614C99.716 16.7835 99.5031 17.0728 99.2384 17.3293C98.9818 17.5777 98.6761 17.7742 98.3268 17.9189C97.972 18.0663 97.5926 18.1372 97.186 18.1372C96.7793 18.1372 96.3999 18.0635 96.0478 17.9189C95.693 17.7742 95.3846 17.5777 95.1199 17.3293C94.8551 17.0755 94.645 16.7862 94.4921 16.4614C94.3366 16.1394 94.2601 15.79 94.2601 15.4079C94.2601 15.0258 94.3393 14.6737 94.4921 14.3408C94.645 14.0105 94.8551 13.7158 95.1199 13.4592C95.3846 13.219 95.6958 13.028 96.0478 12.8833C96.3999 12.7387 96.7793 12.665 97.186 12.665C97.5926 12.665 97.972 12.7387 98.3268 12.8833C98.6789 13.028 98.9818 13.2217 99.2384 13.4592C99.5031 13.7158 99.716 14.0078 99.8743 14.3408C100.033 14.671 100.112 15.0285 100.112 15.4079ZM98.668 15.3943C98.668 14.9876 98.5233 14.6437 98.2313 14.3544C97.9392 14.0678 97.5899 13.9232 97.186 13.9232C96.782 13.9232 96.4272 14.0651 96.1324 14.3544C95.8377 14.641 95.6903 14.9876 95.6903 15.3943C95.6903 15.8009 95.8377 16.1421 96.1324 16.4205C96.4272 16.6989 96.7793 16.8381 97.186 16.8381C97.5926 16.8381 97.9392 16.6989 98.2313 16.4205C98.5233 16.1421 98.668 15.8009 98.668 15.3943ZM101.171 12.4412H99.7024V5.93726H101.171V8.34995H102.683V9.72825H101.171V12.4439V12.4412Z" fill="#AAAEB5"/>
<path d="M103.482 13.3964H114.345V14.6955H109.642V17.7414H108.171V14.6955H103.482V13.3964ZM105.8 7.61846H112.014V6.1228H113.472V11.8052H104.359V6.1228H105.802V7.61846H105.8ZM112.014 8.89031H105.8V10.5197H112.014V8.89031Z" fill="#AAAEB5"/>
</svg>
