<svg width="120" height="33" viewBox="0 0 120 33" fill="none" xmlns="http://www.w3.org/2000/svg">
<path d="M19.6955 6.06885V6.11492C18.9042 6.41572 19.0018 8.16902 19.0018 8.88173V14.8625C19.0018 15.5779 18.9069 16.7323 19.6955 17.0331V17.0792H16.6875V17.0331C17.4815 16.7486 17.3839 15.5779 17.3839 14.8625V8.88173C17.3839 8.15276 17.4951 6.41572 16.6875 6.11492V6.06885C16.6875 6.06885 18.0479 6.65961 19.6955 6.06885Z" fill="#28264B"/>
<path d="M9.33833 17.1091H7.85059C7.05659 17.1091 6.33034 16.8083 6.0458 16.4262L2.53105 11.692L4.60413 8.92244C5.12714 8.17721 6.07561 7.19623 5.01874 6.71929V6.67322H7.8804V6.68948L4.22474 11.3749L7.43598 15.5698C7.92647 16.2175 8.53078 16.6646 9.33562 17.0576V17.1064M3.0378 17.1064H0V17.0576C0.807552 16.7568 0.712705 15.5861 0.712705 14.8734V8.88992C0.712705 8.17721 0.807552 7.0228 0 6.71929V6.67322H3.04051V6.71929C2.23296 7.00654 2.32781 8.17721 2.32781 8.88992V14.8734C2.32781 15.5996 2.23296 16.7568 3.04051 17.0576V17.1064H3.0378Z" fill="#28264B"/>
<path d="M27.8929 14.3341C27.8929 16.0305 26.1233 17.6131 23.6519 17.6131C22.6872 17.6131 21.7197 17.4695 20.8201 17.1362L20.3594 15.1579C21.297 15.9655 22.5896 16.4722 23.8253 16.4722C24.7305 16.4722 26.0908 15.933 26.0908 14.8246C26.0908 12.3559 20.6439 12.7976 20.6439 9.42648C20.6439 7.43199 22.6872 6.67322 24.6166 6.67322C25.4079 6.67322 26.2155 6.78432 26.977 7.0228V8.81133C26.3591 8.17721 25.3754 7.81409 24.4893 7.81409C23.6031 7.81409 22.446 8.16367 22.446 9.25576C22.446 11.4399 27.8902 11.4074 27.8902 14.3368L27.8929 14.3341Z" fill="#28264B"/>
<path d="M17.9672 2.2777C17.4767 2.57579 16.8372 2.42132 16.5364 1.93083C16.2383 1.44034 16.3928 0.800799 16.8833 0.5H16.8643C15.5473 1.30213 15.1354 3.02021 15.9348 4.33451C16.4171 5.12852 17.2355 5.59462 18.0973 5.66237C18.6637 5.70844 19.249 5.58107 19.7693 5.26401L19.7829 5.25317C20.4088 4.87108 20.7069 4.15837 20.5904 3.47547C20.5525 3.26681 20.4793 3.05815 20.3601 2.86575C20.295 2.75735 20.2191 2.65979 20.1351 2.57037C19.6338 2.04465 18.8479 1.87934 18.1732 2.18014C18.1732 2.18014 18.0594 2.22079 17.9645 2.2777H17.9672Z" fill="#D72829"/>
<path d="M30.8853 6.65957V6.70564C31.43 6.95224 31.4246 7.20155 31.2756 7.64598L28.1348 15.9329C27.983 16.3285 27.7527 16.8163 27.0996 17.0602V17.1035H30.1943V17.0548C29.693 16.9762 29.8041 16.3502 29.8908 16.09L30.4111 14.456H32.2078V13.1254H30.7282L32.2078 9.09848V6.65957H30.8881H30.8853ZM36.2753 15.9302L33.1346 7.64327C32.9855 7.19884 32.9801 6.94953 33.5248 6.70293V6.65686H32.2051V9.09577L33.6847 13.1227H32.2051V14.4533H34.0017L34.522 16.0873C34.6088 16.3475 34.7199 16.9735 34.2185 17.0521V17.1008H37.3132V17.0575C36.6602 16.8136 36.4298 16.3258 36.2781 15.9302H36.2753Z" fill="#28264B"/>
<path d="M16.8996 15.3069L16.0948 17.1442C15.3523 17.4938 14.5122 17.6212 13.6911 17.6212C9.95413 17.6212 7.64258 15.5291 7.64258 12.1417C7.64258 8.75435 9.95142 6.68127 13.1979 6.68127C14.1653 6.68127 15.1463 6.85742 16.0948 7.07692V8.89798C15.2086 8.34245 14.1951 7.99558 13.1518 7.99558C10.9649 7.99558 9.44466 9.61068 9.44466 11.906C9.44466 14.2013 11.0272 16.3069 13.4662 16.3069C14.6531 16.3069 15.859 15.8787 16.8535 15.3069H16.8996Z" fill="#28264B"/>
<path d="M43.5625 4.63534V4.17466C43.5625 3.86844 43.5001 3.5568 43.3836 3.25058H45.0204V4.63534H47.313V5.48354H46.1965C46.8523 6.05804 47.1748 6.78159 47.1748 7.65418C47.1748 8.44547 46.8929 9.13108 46.3266 9.70016C45.7602 10.2719 45.0882 10.5565 44.3023 10.5565C43.5164 10.5565 42.8444 10.2719 42.278 9.70016C41.7116 9.13108 41.4298 8.44547 41.4298 7.65418C41.4298 6.79243 41.755 6.06617 42.4108 5.48354H41.3105V4.63534H43.5598M45.8198 7.65689C45.8198 7.09323 45.6708 6.60274 45.3646 6.19083C45.0665 5.78163 44.7115 5.57297 44.3023 5.57297C43.8931 5.57297 43.5543 5.78434 43.2563 6.19083C42.9527 6.60274 42.801 7.09323 42.801 7.65689C42.801 8.22055 42.9527 8.69749 43.2563 9.1094C43.5543 9.51588 43.9093 9.72455 44.3023 9.72455C44.6952 9.72455 45.0665 9.51588 45.3646 9.1094C45.6708 8.69478 45.8198 8.20971 45.8198 7.65689ZM50.283 16.8679H44.6898C44.5489 16.8679 44.4242 16.8109 44.3158 16.7053C44.2074 16.5914 44.1478 16.4668 44.1478 16.3313V13.6376C44.1478 13.0631 44.0286 12.5781 43.7738 12.1797H45.5488V16.0224H50.2776V16.8679M52.0065 7.40758H50.2072V11.4779C50.2072 11.8383 50.0202 12.0171 49.6543 12.0171H48.8061V4.72477C48.8061 4.04188 48.649 3.49718 48.3292 3.10425H50.2099V6.57022H52.0093V7.40758H52.0065Z" fill="#28264B"/>
<path d="M59.5987 8.55385C59.7126 7.83844 59.7668 6.45367 59.7668 4.40228H54.6017V3.55408H61.1949C61.1868 5.99299 61.016 7.66229 60.6854 8.55385H63.2923V9.39934H58.4877V12.0171H57.0867V9.39934H52.2793V8.55385H59.5987ZM60.97 16.4072C60.97 16.7676 60.7857 16.9437 60.4144 16.9437H59.5689V12.8653H54.599V12.0171H60.97V16.4044V16.4072Z" fill="#28264B"/>
<path d="M74.9752 10.7733H70.6285V13.1716C70.6285 13.5238 70.4524 13.7027 70.0947 13.7027H69.2302V10.7733H63.9648V9.92509H74.9779V10.7733M72.7287 16.857H66.7615C66.6124 16.857 66.4878 16.8028 66.3739 16.6917C66.2656 16.5833 66.2114 16.4587 66.2114 16.3232V14.2365C66.2114 13.6648 66.0867 13.1743 65.8374 12.7786H67.607V16.0061H72.7287V16.8543M72.6555 8.1501H66.8373C66.691 8.1501 66.5609 8.09861 66.4525 7.99293C66.3441 7.88724 66.2872 7.7653 66.2872 7.61625V5.14482C66.2872 4.56761 66.1653 4.07712 65.916 3.68689H72.6555V8.15281M71.2572 7.30461V4.53509H67.6828V7.30461H71.2572Z" fill="#28264B"/>
<path d="M83.6737 11.2313V4.72477C83.6737 4.04188 83.5111 3.49718 83.1914 3.10425H85.0748V7.50784H86.8687V8.35875H85.0748V14.4615C85.0748 14.8192 84.8959 14.998 84.5355 14.998H83.6737V11.8627C82.3025 12.1553 80.8852 12.2962 79.4165 12.2962H75.6172V11.4508H78.59V9.72183C78.0019 9.57821 77.5141 9.29638 77.1212 8.85467C76.7282 8.42108 76.5331 7.91975 76.5331 7.36422C76.5331 6.60815 76.8719 5.98217 77.5521 5.48354H76.1537V4.63805H78.5249V4.321C78.5249 3.98226 78.4517 3.67333 78.3217 3.39421H79.991V4.63805H82.3567V5.48354H80.972C81.6467 5.97133 81.98 6.60002 81.98 7.36422C81.98 7.91975 81.7822 8.42108 81.3947 8.85467C81.0018 9.29367 80.5113 9.57821 79.9259 9.72183V11.4508H80.4327C81.7795 11.4508 82.8608 11.3776 83.6764 11.2285M80.6332 7.36964C80.6332 6.9496 80.495 6.57835 80.224 6.25316C79.9476 5.92526 79.6306 5.76266 79.2674 5.76266C78.9043 5.76266 78.5764 5.92526 78.3 6.25316C78.0263 6.57835 77.8881 6.9496 77.8881 7.36964C77.8881 7.78967 78.0263 8.15822 78.3 8.48612C78.5791 8.81131 78.8989 8.97932 79.2674 8.97932C79.636 8.97932 79.9503 8.81402 80.224 8.48612C80.495 8.15822 80.6332 7.78425 80.6332 7.36964Z" fill="#28264B"/>
<path d="M91.6085 7.28556C92.7304 8.01994 93.5704 8.6107 94.1395 9.05513L92.9336 10.0361C92.4973 9.55104 91.8551 8.86272 91.015 7.96845C90.3104 8.72452 89.427 9.4589 88.3674 10.1743L87.7441 9.60253C88.5436 9.06054 89.2508 8.3912 89.8579 7.5972C90.5326 6.71377 90.931 5.85473 91.0475 5.02279H88.1452V4.17459H92.9038C92.855 5.20435 92.4214 6.24224 91.6112 7.28285M96.863 14.082C96.863 14.8733 96.5567 15.5481 95.947 16.1036C95.3373 16.6591 94.6002 16.9355 93.7357 16.9355C92.8713 16.9355 92.1396 16.6591 91.5272 16.1036C90.9201 15.5453 90.6139 14.8733 90.6139 14.082C90.6139 13.2907 90.9201 12.6132 91.5272 12.0523C92.1396 11.4913 92.8767 11.2122 93.7357 11.2122C94.5948 11.2122 95.3373 11.4913 95.947 12.0523C96.5567 12.6132 96.863 13.288 96.863 14.082ZM95.4348 14.082C95.4348 13.5048 95.2641 13.0197 94.9281 12.6241C94.5921 12.2284 94.1964 12.0279 93.7357 12.0279C93.275 12.0279 92.8875 12.2257 92.5461 12.6241C92.2101 13.0197 92.042 13.5048 92.042 14.082C92.042 14.6592 92.2074 15.128 92.5461 15.5264C92.8875 15.922 93.2805 16.1226 93.7357 16.1226C94.191 16.1226 94.5921 15.922 94.9281 15.5264C95.2641 15.1307 95.4348 14.6484 95.4348 14.082ZM97.0228 9.94397C97.0228 10.3017 96.8413 10.4778 96.4782 10.4778H95.6001V7.10128H93.3076V6.25308H95.6001V4.71928C95.6001 4.05806 95.4376 3.51879 95.1069 3.09875H97.0256V9.94126L97.0228 9.94397Z" fill="#28264B"/>
<path d="M102.025 5.65149H105.892V4.6407C105.892 4.19627 105.813 3.80334 105.653 3.4646H107.293V9.47788H104.656V12.0496H109.463V12.914H98.4531V12.0496H103.26V9.47788H101.163C101.022 9.47788 100.897 9.42097 100.792 9.31257C100.683 9.20418 100.624 9.0741 100.624 8.92235V4.86291C100.624 4.367 100.523 3.92257 100.318 3.54048H102.027V5.65149M105.895 6.51595H102.027V8.61342H105.895V6.51595Z" fill="#28264B"/>
<path d="M119.999 16.857H114.181C114.035 16.857 113.905 16.8 113.796 16.6944C113.685 16.5805 113.634 16.4559 113.634 16.3204V13.6268C113.634 13.0712 113.504 12.5861 113.246 12.1688H115.045V16.0115H119.999V16.857Z" fill="#28264B"/>
<path d="M116.707 5.68942C116.707 6.40755 116.428 7.01728 115.878 7.52403C115.325 8.02807 114.656 8.28009 113.873 8.28009C113.09 8.28009 112.426 8.02807 111.87 7.52403C111.32 7.01728 111.041 6.40755 111.041 5.68942C111.041 4.9713 111.317 4.35886 111.87 3.84669C112.426 3.33723 113.095 3.08521 113.873 3.08521C114.651 3.08521 115.325 3.33723 115.878 3.84669C116.431 4.35615 116.707 4.96859 116.707 5.68942ZM115.412 5.68942C115.412 5.16641 115.258 4.72741 114.954 4.36699C114.648 4.00657 114.29 3.82772 113.873 3.82772C113.456 3.82772 113.103 4.00928 112.794 4.36699C112.488 4.72741 112.339 5.16641 112.339 5.68942C112.339 6.21243 112.491 6.63789 112.794 6.99831C113.103 7.35601 113.461 7.53758 113.873 7.53758C114.285 7.53758 114.648 7.35601 114.954 6.99831C115.258 6.63789 115.412 6.20159 115.412 5.68942Z" fill="#28264B"/>
<path d="M110.139 8.68665V9.53485H113.252V11.6648H114.019C114.336 11.6648 114.493 11.486 114.493 11.1337V9.53485H117.61V8.68665H110.141H110.139Z" fill="#28264B"/>
<path d="M118.331 3.09607C118.599 3.52152 118.732 4.08518 118.732 4.79247V6.2504H117.244V7.0986H118.732V11.7081H119.445C119.813 11.7081 119.997 11.532 119.997 11.177V3.09607H118.331Z" fill="#28264B"/>
<path d="M104.224 25.8994C104.049 25.8994 103.754 25.987 103.619 25.987C103.476 25.987 102.942 25.7402 102.831 25.6685C102.831 25.4853 102.894 25.35 102.934 25.35C103.069 25.35 103.722 25.4057 104.184 25.4057H106.486C106.677 25.4057 106.971 25.3181 107.115 25.3181C107.25 25.3181 107.68 25.3898 107.744 25.4057C107.839 25.4376 107.831 25.8198 107.72 25.8994H104.224ZM108.938 28.8458C109.01 28.9653 108.978 29.2281 108.922 29.3156H103.579C103.34 29.3156 102.862 29.4431 102.783 29.4431C102.624 29.4431 102.05 29.2201 101.771 29.0608C101.779 28.9493 101.827 28.7423 101.907 28.7423C102.066 28.7423 102.902 28.8219 103.579 28.8219H105.084C105.068 28.6866 105.052 28.5193 105.052 28.4238V28.0176H104.009C103.85 28.0176 103.635 28.0734 103.5 28.0734C103.356 28.0734 102.902 27.8663 102.791 27.7947C102.791 27.5717 102.87 27.4761 102.91 27.4761C103.046 27.4761 103.563 27.5239 104.025 27.5239H104.073C104.057 27.1098 103.961 26.5763 103.882 26.2339C104.001 26.1543 104.391 26.0826 104.455 26.1941C104.638 26.4967 104.766 27.2054 104.758 27.5239H106.096L106.151 26.5126C106.159 26.425 106.024 26.3215 105.968 26.2817C105.984 26.1702 106.04 26.0667 106.111 26.0667C106.334 26.0667 106.653 26.1224 106.764 26.1543C106.844 26.1781 106.932 26.2339 106.932 26.3135C106.932 26.3931 106.916 26.4807 106.892 26.5763L106.701 27.5239H106.764C106.916 27.5239 107.139 27.4523 107.282 27.4523C107.378 27.4523 107.768 27.508 107.831 27.5239C107.935 27.5399 107.919 27.938 107.808 28.0176H105.769L105.761 28.3441C105.761 28.4556 105.737 28.6627 105.705 28.8219H107.346C107.68 28.8219 108.015 28.6786 108.174 28.6786C108.413 28.6786 108.891 28.7662 108.938 28.8458ZM107.601 32.0231C107.632 32.063 107.593 32.3098 107.569 32.3974H104.168C104.137 32.485 104.089 32.5726 104.017 32.6363H103.754C103.667 32.485 103.579 32.3019 103.547 31.9355L103.444 30.6375C103.436 30.5499 103.213 30.4624 103.125 30.3986C103.141 30.2872 103.221 30.0881 103.261 30.0881C103.46 30.0881 103.977 30.104 104.184 30.104H106.446C106.581 30.104 106.804 30.0403 106.876 30.0403C106.995 30.0403 107.242 30.0722 107.33 30.0881C107.433 30.112 107.505 30.2155 107.497 30.3349L107.362 31.7444L107.298 31.9117L107.601 32.0231ZM106.693 31.9196L106.701 30.5659H104.2V31.9196H106.693Z" fill="#28264B"/>
<path d="M99.2779 29.6421C99.2142 29.5227 99.1584 29.244 99.1345 28.9254C98.2904 29.2041 97.0084 29.4829 96.3156 29.4988C96.0448 29.5067 95.6148 29.021 95.6148 28.8538L95.6068 27.8345C95.6068 27.6752 95.4078 27.5956 95.3281 27.5478C95.3441 27.4602 95.3918 27.277 95.4635 27.277C95.5909 27.277 96.1643 27.3089 96.3633 27.3169H97.5658C97.5737 27.078 97.5817 26.7037 97.5817 26.4409H96.6421C96.3952 26.4409 96.1802 26.5205 96.0448 26.5205C95.9174 26.5205 95.5272 26.3374 95.3281 26.2179C95.3281 26.0985 95.3918 25.9074 95.4715 25.9074C95.6068 25.9153 96.228 25.9551 96.5226 25.9551H97.2711C97.4463 25.9551 97.6932 25.8755 97.7649 25.8755C97.8684 25.8755 98.1232 25.9153 98.2427 25.9313C98.3621 25.9472 98.4099 26.0348 98.4019 26.1542C98.386 26.3453 98.2586 27.1178 98.2188 27.3407C98.3223 27.3726 98.3621 27.4522 98.3621 27.5558C98.3621 27.6752 98.2904 27.7628 98.1551 27.7628H96.3554V28.8617C96.9447 28.8936 98.2745 28.7263 99.1266 28.5034V26.0587C99.1266 25.9551 99.0708 25.8994 99.0151 25.8516L98.5692 25.5012C98.593 25.3818 98.6886 25.2146 98.7603 25.2146C98.9514 25.2146 99.5327 25.3738 99.7397 25.4614C99.8273 25.5012 99.8512 25.5411 99.8512 25.6287C99.8512 25.7083 99.8273 25.9392 99.8273 26.0666L99.8194 27.3806H100.687V25.6605C100.687 25.557 100.632 25.5012 100.576 25.4535L100.138 25.1031C100.162 24.9757 100.249 24.8164 100.321 24.8164C100.512 24.8164 101.109 24.9757 101.316 25.0633C101.396 25.1031 101.428 25.1429 101.428 25.2305C101.428 25.3101 101.404 25.5411 101.404 25.6685L101.388 28.9812C101.38 29.5147 101.229 30.104 101.109 30.2712H100.839C100.759 30.1199 100.687 29.674 100.687 29.236V27.8584H99.8114V28.368C99.8114 28.8936 99.6601 29.4749 99.5407 29.6421H99.2779ZM101.619 32.1505C101.667 32.262 101.404 32.4691 101.301 32.5248C100.6 31.9992 99.8751 31.4657 99.1425 30.956C98.3621 31.7922 97.4065 32.5089 96.6341 32.5168C96.5863 32.4929 96.3872 32.2461 96.427 32.2381C97.1278 32.1107 98.1152 31.2188 98.7682 30.3907C98.824 30.311 98.7842 30.2712 98.7523 30.2234C98.7125 30.1757 98.5851 30.0243 98.5373 29.9766C98.5771 29.9049 98.6886 29.7695 98.7682 29.7695C98.8558 29.7695 99.4451 30.0243 99.5725 30.1119C99.6681 30.1757 99.7318 30.2553 99.6283 30.3907L99.4371 30.6216L100.218 31.1392C100.448 31.2825 100.751 31.3622 101.022 31.5533C101.277 31.7444 101.571 32.055 101.619 32.1505Z" fill="#28264B"/>
<path d="M90.3744 25.8214C90.1992 25.8214 89.9046 25.9011 89.7692 25.9011C89.6259 25.9011 89.0923 25.6622 88.9808 25.5905C88.9808 25.4073 89.0445 25.272 89.0844 25.272C89.2197 25.272 89.8727 25.3277 90.3346 25.3277H92.636C92.8271 25.3277 93.1217 25.2401 93.265 25.2401C93.4004 25.2401 93.8304 25.3118 93.8941 25.3277C93.9897 25.3596 93.9817 25.7418 93.8703 25.8214H90.3744ZM90.1594 27.7007C90.0001 27.7007 89.7851 27.7565 89.6497 27.7565C89.5064 27.7565 89.0525 27.5494 88.941 27.4778C88.941 27.2628 89.0207 27.1592 89.0605 27.1592C89.1958 27.1592 89.7134 27.215 90.1753 27.215H90.2231C90.1992 26.8566 90.1116 26.4505 90.032 26.14C90.1514 26.0603 90.5416 25.9887 90.6053 26.1001C90.7885 26.4027 90.9159 26.9204 90.9079 27.215H92.2457L92.3015 26.4187C92.3095 26.339 92.1741 26.2276 92.1183 26.1877C92.1343 26.0763 92.19 25.9727 92.2617 25.9727C92.4846 25.9727 92.8032 26.0285 92.9147 26.0603C92.9943 26.0842 93.0819 26.14 93.0819 26.2196C93.0819 26.3072 93.066 26.3868 93.0421 26.4824L92.851 27.215H92.9147C93.066 27.215 93.2889 27.1354 93.4323 27.1354C93.5278 27.1354 93.918 27.1911 93.9817 27.207C94.0853 27.2309 94.0693 27.6211 93.9578 27.7007H90.1594ZM95.0966 28.4573C95.1682 28.5767 95.1364 28.8156 95.0727 28.9032H89.7294C89.4905 28.9032 89.0127 29.0306 88.9331 29.0306C88.7738 29.0306 88.2084 28.8156 87.9297 28.6563C87.9297 28.5448 87.9775 28.3537 88.0571 28.3537C88.2164 28.3537 89.0525 28.4334 89.7294 28.4334H93.5039C93.8384 28.4334 94.1649 28.29 94.3241 28.29C94.563 28.29 95.0408 28.3776 95.0966 28.4573ZM93.48 31.8018C93.6791 31.8018 94.0136 31.8337 94.0932 31.9133C94.1729 31.9929 94.1728 32.3274 94.0295 32.4229H90.2709C89.7692 32.4229 89.4984 32.2079 89.4984 31.7938V31.1647C89.4984 31.109 89.4905 31.0612 89.4347 31.0214L89.1879 30.8701C89.1879 30.8064 89.2595 30.6392 89.3073 30.6392C89.4347 30.6392 89.9125 30.679 90.0559 30.679H92.9067C92.9226 30.5436 92.9306 30.1773 92.9306 29.9543H90.47C90.2709 29.9543 90.0161 30.018 89.9364 30.018C89.7373 30.018 89.1879 29.7871 89.1242 29.7393C89.1242 29.6119 89.1799 29.4367 89.2357 29.4367C89.3392 29.4367 90.0957 29.4765 90.47 29.4765H92.5484C92.6758 29.4765 92.9943 29.4049 93.0819 29.4049C93.1695 29.4049 93.4243 29.4367 93.5358 29.4606C93.6712 29.4845 93.7269 29.5482 93.7269 29.6438C93.7269 29.7553 93.6234 30.249 93.5995 30.5277C93.5915 30.5516 93.5676 30.6392 93.5438 30.687C93.6791 30.7108 93.7508 30.8064 93.7508 30.9179C93.7508 31.0134 93.6871 31.1409 93.496 31.1409H90.247V31.7461C90.247 31.8974 90.3585 31.9372 90.462 31.9372H92.6837C92.9226 31.9372 93.3606 31.8018 93.48 31.8018Z" fill="#28264B"/>
<path d="M84.6052 27.9315C83.4665 27.9315 82.7179 27.3502 82.7179 26.53C82.7179 25.7098 83.4665 25.1205 84.6052 25.1205C85.744 25.1205 86.4925 25.7098 86.4925 26.53C86.4925 27.3502 85.744 27.9315 84.6052 27.9315ZM84.6052 25.654C83.9124 25.654 83.4108 25.9964 83.4108 26.53C83.4108 27.0635 83.9124 27.4059 84.6052 27.4059C85.306 27.4059 85.8077 27.0635 85.8077 26.53C85.8077 25.9964 85.306 25.654 84.6052 25.654ZM88.1728 28.895C88.2444 29.0145 88.2126 29.2693 88.1489 29.3569H82.8055C82.5666 29.3569 82.0889 29.4843 82.0092 29.4843C81.85 29.4843 81.2846 29.2614 81.0059 29.1021C81.0059 28.9906 81.0536 28.7915 81.1333 28.7915C81.2925 28.7915 82.1287 28.8712 82.8055 28.8712H83.14V28.4173C83.14 28.3376 83.1002 28.2819 83.0604 28.25L82.9409 28.1784C82.9409 28.1067 82.9967 27.9076 83.0683 27.9076C83.1878 27.9076 83.6098 27.9474 83.7293 27.9793C83.8089 28.0032 83.8248 28.0509 83.8248 28.1306C83.8248 28.2022 83.8089 28.3137 83.8089 28.4252L83.793 28.8712H85.5369L85.5449 28.4491C85.5449 28.3535 85.5369 28.2819 85.4971 28.25L85.3856 28.1624C85.3856 28.0828 85.4493 27.9076 85.521 27.9076C85.6564 27.9076 85.9988 27.9474 86.1262 27.9872C86.2058 28.0111 86.2377 28.0509 86.2377 28.1385C86.2377 28.2182 86.2138 28.3695 86.2058 28.4571L86.1899 28.8712H86.5801C86.9146 28.8712 87.2411 28.7278 87.4003 28.7278C87.6392 28.7278 88.117 28.8154 88.1728 28.895ZM84.6849 29.8108C85.8395 29.8108 86.5881 30.4081 86.5881 31.2283C86.5881 32.0485 85.8395 32.6378 84.6849 32.6378C83.5382 32.6378 82.7817 32.0485 82.7817 31.2283C82.7817 30.4081 83.5382 29.8108 84.6849 29.8108ZM84.6849 32.1281C85.4016 32.1281 85.9192 31.7857 85.9192 31.2283C85.9192 30.6708 85.4016 30.3284 84.6849 30.3284C83.9682 30.3284 83.4506 30.6708 83.4506 31.2283C83.4506 31.7857 83.9682 32.1281 84.6849 32.1281Z" fill="#28264B"/>
<path d="M81.3971 27.5876C81.4687 27.6513 81.4687 27.9619 81.3971 28.0893H79.9717V28.3043C79.9637 28.8299 79.8124 29.4191 79.6929 29.5864H79.4063C79.3585 29.4908 79.3107 29.2838 79.2789 29.0289C78.2516 29.2758 76.643 29.4988 75.6556 29.5545C75.3211 29.5704 75.0106 29.6501 74.8593 29.6501C74.7239 29.6501 74.2302 29.4032 74.0391 29.2758C74.0391 29.1245 74.1028 28.9652 74.1665 28.9652C74.2222 28.9652 74.6045 29.021 74.923 29.0369C75.0424 29.0369 75.3052 29.0449 75.4963 29.0369C75.7193 29.0369 75.9741 29.021 76.2528 29.0051C76.2369 28.8936 76.2289 28.7662 76.2289 28.6865V28.575C75.4724 28.4874 75.0106 28.0893 75.0106 27.5956C75.0106 27.0381 75.5999 26.5922 76.5475 26.5922C77.4951 26.5922 78.0764 27.0381 78.0764 27.5956C78.0764 28.0734 77.6464 28.4636 76.9217 28.5671V28.6467C76.9138 28.7184 76.8979 28.8458 76.874 28.9493C77.7021 28.8697 78.602 28.7423 79.255 28.583V28.5591V25.6605C79.255 25.557 79.1992 25.5012 79.1435 25.4535L78.7055 25.1031C78.7214 24.9757 78.817 24.8164 78.8887 24.8164C79.0877 24.8164 79.6929 24.9757 79.9 25.0633C79.9876 25.1031 80.0115 25.1429 80.0115 25.2305C80.0115 25.3101 79.9876 25.5411 79.9876 25.6685L79.9717 27.6513H80.0672C80.3698 27.6513 80.6804 27.4841 80.8317 27.4841C81.0228 27.4841 81.3095 27.5319 81.3971 27.5876ZM77.4553 25.5888C77.0969 25.6127 76.3882 25.6366 76.0936 25.6207C75.9423 25.6127 75.4804 25.334 75.3211 25.2225C75.345 25.1349 75.4247 24.9518 75.4724 24.9597C75.5919 24.9836 76.0617 25.0553 76.3165 25.0633L77.4553 25.127C77.5429 25.1349 77.5827 25.4455 77.4553 25.5888ZM75.5919 26.3613C75.4326 26.3613 75.1858 26.4568 75.0504 26.4568C74.9071 26.4568 74.4133 26.2179 74.3019 26.1463C74.3098 26.0507 74.3656 25.8755 74.4054 25.8755C74.5407 25.8835 75.1539 25.9313 75.5521 25.9313H77.3358C77.5588 25.9313 77.8216 25.8357 77.957 25.8357C78.0923 25.8357 78.4348 25.8994 78.4985 25.9313C78.5861 25.9711 78.5861 26.2896 78.4746 26.3613H75.5919ZM75.6476 27.5956C75.6476 27.93 76.0299 28.1371 76.5475 28.1371C77.0651 28.1371 77.4473 27.93 77.4473 27.5956C77.4473 27.2611 77.0651 27.0541 76.5475 27.0541C76.0299 27.0541 75.6476 27.2611 75.6476 27.5956ZM79.7089 31.8001C79.908 31.8001 80.2424 31.84 80.322 31.9196C80.4017 31.9992 80.4017 32.3257 80.2743 32.4213H76.8182C76.3165 32.4213 76.0458 32.2063 76.0458 31.7922V31.394C76.0458 31.3383 76.0378 31.2905 75.9821 31.2586L75.7352 31.1073C75.7352 31.0436 75.8069 30.8764 75.8547 30.8764C75.9821 30.8764 76.4599 30.9162 76.6032 30.9162H79.0639C79.0798 30.8207 79.0957 30.542 79.0957 30.4225H77.0173C76.8182 30.4225 76.5634 30.4942 76.4838 30.4942C76.2847 30.4942 75.7352 30.2632 75.6715 30.2155C75.6715 30.0881 75.7273 29.9129 75.783 29.9129C75.8865 29.9129 76.643 29.9527 77.0173 29.9527H78.6975C78.825 29.9527 79.1435 29.881 79.2311 29.881C79.3187 29.881 79.5735 29.9129 79.685 29.9368C79.8204 29.9606 79.8761 30.0243 79.8761 30.1199C79.8761 30.2234 79.7965 30.5818 79.7567 30.7968C79.7407 30.8366 79.7089 30.8923 79.6929 30.9242C79.8283 30.9481 79.9 31.0357 79.9 31.1551C79.9 31.2507 79.8363 31.3701 79.6452 31.3701H76.7864V31.7603C76.7864 31.9037 76.8819 31.9355 76.9855 31.9355H78.9126C79.1514 31.9355 79.5894 31.8001 79.7089 31.8001Z" fill="#28264B"/>
<path d="M74.3231 28.7652C74.3948 28.8847 74.363 29.1474 74.2993 29.235H68.9559C68.717 29.235 68.2392 29.3625 68.1596 29.3625C68.0003 29.3625 67.435 29.1395 67.1562 28.9802C67.1562 28.8687 67.204 28.6617 67.2837 28.6617C67.4429 28.6617 68.2791 28.7413 68.9559 28.7413H70.453C70.4371 28.6059 70.4291 28.4467 70.4212 28.3511L70.4132 27.8096L69.4098 27.8176C68.9241 27.8176 68.6215 27.5946 68.6135 27.1646L68.5976 26.002C68.5976 25.9462 68.5737 25.8825 68.518 25.8268C68.4941 25.8029 68.3428 25.6834 68.2233 25.6197C68.2154 25.5162 68.295 25.3092 68.3667 25.3092C68.4861 25.3092 69.0833 25.341 69.3302 25.3649H71.5042C71.8147 25.3649 72.2209 25.2455 72.3801 25.2534C72.6349 25.2694 72.8579 25.2853 72.9216 25.3729C72.9853 25.4605 72.9774 25.771 72.8738 25.8586H69.3541V27.0611C69.3541 27.2602 69.4815 27.3159 69.6408 27.3159H71.4882C71.7988 27.3159 72.2447 27.1726 72.404 27.1805C72.6429 27.1965 72.9216 27.2044 72.9853 27.292C73.049 27.3796 73.0411 27.7141 72.9375 27.8017L71.1617 27.8096L71.1538 28.2795C71.1458 28.383 71.1219 28.5821 71.0901 28.7413H72.7305C73.065 28.7413 73.3914 28.598 73.5507 28.598C73.7896 28.598 74.2674 28.6856 74.3231 28.7652ZM70.8353 29.7526C71.9979 29.7526 72.7544 30.3499 72.7544 31.194C72.7544 32.0301 71.9979 32.6353 70.8353 32.6353C69.6806 32.6353 68.9241 32.0301 68.9241 31.194C68.9241 30.3499 69.6806 29.7526 70.8353 29.7526ZM70.8353 32.1257C71.5599 32.1257 72.0855 31.7673 72.0855 31.194C72.0855 30.6206 71.5599 30.2623 70.8353 30.2623C70.1186 30.2623 69.593 30.6206 69.593 31.194C69.593 31.7673 70.1186 32.1257 70.8353 32.1257Z" fill="#28264B"/>
<path d="M62.9679 25.9302C62.6254 25.9302 62.4025 26.0417 62.2352 26.0417C62.0202 26.0417 61.3513 25.7391 61.2956 25.6993C61.2956 25.6276 61.3274 25.3728 61.4071 25.3728C61.5186 25.3728 62.4104 25.4365 62.9679 25.4365H64.9507C65.1896 25.4365 65.4922 25.3489 65.5798 25.3489C65.747 25.3489 66.0178 25.3967 66.1054 25.4205C66.2169 25.4444 66.2487 25.548 66.2487 25.5957C66.2169 26.185 65.978 27.276 65.6754 27.7856C65.6116 27.8891 65.2453 27.8971 65.1339 27.8653C65.2772 27.3158 65.3887 26.4876 65.4126 25.9302H62.9679ZM67.3954 28.4466C67.4671 28.566 67.4352 28.8288 67.3715 28.9164H62.0282C61.7893 28.9164 61.3115 29.0438 61.2319 29.0438C61.0726 29.0438 60.5072 28.8208 60.2285 28.6616C60.2285 28.5421 60.2763 28.343 60.3559 28.343C60.5152 28.343 61.3513 28.4227 62.0282 28.4227H63.1351V27.4591C63.1351 27.3476 63.1192 27.3078 63.0555 27.26L62.7927 27.1008C62.7927 27.0132 62.8723 26.8221 62.9519 26.8221C63.1431 26.8221 63.6288 26.8858 63.7562 26.9256C63.8438 26.9574 63.8757 27.0052 63.8757 27.0928C63.8757 27.1725 63.8518 27.3476 63.8438 27.5149L63.8279 28.4227H65.8028C66.1372 28.4227 66.4637 28.2793 66.623 28.2793C66.8619 28.2793 67.3397 28.3669 67.3954 28.4466ZM63.9075 29.5853C65.0781 29.5853 65.8426 30.2224 65.8426 31.1063C65.8426 31.9822 65.0781 32.6273 63.9075 32.6273C62.7449 32.6273 61.9725 31.9822 61.9725 31.1063C61.9725 30.2224 62.7449 29.5853 63.9075 29.5853ZM63.9075 32.1096C64.6401 32.1096 65.1737 31.7115 65.1737 31.1063C65.1737 30.5011 64.6401 30.1029 63.9075 30.1029C63.1749 30.1029 62.6493 30.5011 62.6493 31.1063C62.6493 31.7115 63.1749 32.1096 63.9075 32.1096Z" fill="#28264B"/>
<path d="M57.4855 25.6605C57.4855 25.557 57.4297 25.5012 57.374 25.4535L56.936 25.1031C56.9519 24.9757 57.0475 24.8164 57.1192 24.8164C57.3182 24.8164 57.9155 24.9757 58.1225 25.0633C58.2101 25.1031 58.234 25.1429 58.234 25.2305C58.234 25.3101 58.2101 25.5411 58.2101 25.6685L58.1942 29.5943C58.1942 30.1279 58.0349 30.7331 57.9155 30.9003H57.6368C57.5651 30.7649 57.5014 30.3588 57.4855 29.9606L56.7528 29.9766C56.6493 29.9766 56.3786 30.0482 56.2751 30.0482C56.1636 30.0482 55.7893 29.8412 55.646 29.7456C55.646 29.6023 55.6937 29.4908 55.7574 29.4908C55.8132 29.4908 56.3865 29.5306 56.7528 29.5227L57.4855 29.5067V25.6605ZM54.5869 27.9937C53.5676 27.9937 52.8827 27.4124 52.8827 26.6081C52.8827 25.7959 53.5676 25.2225 54.5869 25.2225C55.6141 25.2225 56.2989 25.7959 56.2989 26.6081C56.2989 27.4124 55.6141 27.9937 54.5869 27.9937ZM54.5869 25.7401C53.9976 25.7401 53.5596 26.0746 53.5596 26.6081C53.5596 27.1337 53.9976 27.4682 54.5869 27.4682C55.1841 27.4682 55.6141 27.1337 55.6141 26.6081C55.6141 26.0746 55.1841 25.7401 54.5869 25.7401ZM54.1807 29.0528C53.91 29.0767 53.6631 29.0927 53.4481 29.1086C53.1296 29.1325 52.819 29.2041 52.6677 29.2041C52.5323 29.2041 52.0466 28.9652 51.8555 28.8378C51.8555 28.6865 51.9271 28.5352 51.9908 28.5352C52.0466 28.5352 52.4129 28.591 52.7314 28.5989C52.8588 28.6069 53.1057 28.6069 53.2968 28.6069C54.1887 28.583 55.861 28.4556 56.7528 28.2486C56.8006 28.3043 56.8564 28.5352 56.8564 28.6706C56.3627 28.7821 55.6221 28.8936 54.8974 28.9812V29.2678C54.8974 29.6342 54.7222 30.1358 54.4356 30.3508L54.0692 30.2792C54.1409 30.0243 54.1807 29.5227 54.1807 29.2838V29.0528ZM58.5605 31.7922C58.6322 31.8718 58.6322 32.1983 58.5286 32.3018H55.1443C54.5869 32.3018 54.3002 32.0231 54.3002 31.5851V31.0835C54.3002 31.0038 54.2843 30.9799 54.2444 30.956L53.9498 30.7809C53.9498 30.6933 54.0215 30.5021 54.0931 30.5021C54.3161 30.5021 54.6585 30.526 54.8178 30.542C54.9452 30.5579 55.0646 30.5977 55.0646 30.7251L55.0567 30.972V31.5533C55.0567 31.7364 55.1443 31.8161 55.3991 31.8161H57.0475C57.366 31.8161 57.7244 31.6648 57.8836 31.6648C58.1225 31.6648 58.4888 31.7126 58.5605 31.7922Z" fill="#28264B"/>
<path d="M52.3226 27.8584C52.4102 27.9141 52.4022 28.2406 52.3226 28.376H50.8414L50.8335 31.187C50.8335 31.7364 50.6742 32.3576 50.5547 32.5248H50.2601C50.1805 32.3735 50.1088 31.8798 50.1088 31.4418V25.6605C50.1088 25.557 50.0531 25.5012 49.9973 25.4535L49.5593 25.1031C49.5832 24.9677 49.6708 24.8164 49.7425 24.8164C49.9416 24.8164 50.5547 24.9757 50.7618 25.0633C50.8494 25.1031 50.8733 25.1429 50.8733 25.2305C50.8733 25.3101 50.8494 25.5411 50.8494 25.6685L50.8414 27.9141H50.9449C51.2635 27.9141 51.582 27.7469 51.7413 27.7469C51.9403 27.7469 52.2429 27.7946 52.3226 27.8584ZM49.1054 29.1643C49.2806 29.3714 49.4558 29.6899 49.5195 29.8253C49.5753 29.9288 49.2886 30.104 49.1134 30.1438C48.6675 29.6262 48.0702 28.9493 47.5685 28.3999C46.7563 29.3554 45.7927 30.1836 45.0601 30.3349C44.9168 30.2553 44.7097 30.0642 44.8531 30.0084C45.7051 29.7297 47.4013 27.7469 48.0304 26.4728H46.6687C46.5174 26.4728 46.2466 26.5604 46.1829 26.5604C45.9998 26.5604 45.4344 26.3055 45.3309 26.2418C45.3309 26.0985 45.4025 25.9233 45.4503 25.9233C45.5061 25.9233 46.2944 25.979 46.5015 25.979H47.9667C48.0861 25.979 48.3091 25.8994 48.4445 25.8994C48.556 25.8994 48.7391 25.9313 48.8188 25.9551C48.9223 25.979 49.0099 26.0348 49.0099 26.1224C49.0099 26.1781 48.978 26.2737 48.9223 26.3772C48.6993 26.8709 48.325 27.4522 47.8871 28.0176L48.3728 28.5113C48.5878 28.7263 48.9701 28.9971 49.1054 29.1643Z" fill="#28264B"/>
<path d="M45.3717 28.3043C45.4434 28.36 45.4434 28.6706 45.3717 28.806H43.9542L43.9463 31.187C43.9463 31.7364 43.787 32.3576 43.6676 32.5248H43.3809C43.3012 32.3735 43.2296 31.8798 43.2296 31.4418V30.3031C42.2023 30.5499 40.6097 30.7729 39.6302 30.8286C39.2958 30.8446 38.9852 30.9242 38.8339 30.9242C38.6985 30.9242 38.2048 30.6773 38.0137 30.5499C38.0137 30.3907 38.0774 30.2394 38.1411 30.2394C38.1968 30.2394 38.5791 30.2871 38.8976 30.3031C39.017 30.311 39.2798 30.311 39.4709 30.311C39.7019 30.3031 39.9726 30.2951 40.2752 30.2712C40.2593 30.1438 40.2434 30.0005 40.2434 29.9049V29.5067C39.455 29.4112 38.9772 28.9175 38.9772 28.3043C38.9772 27.6115 39.5824 27.078 40.5619 27.078C41.5493 27.078 42.1386 27.6115 42.1386 28.3043C42.1386 28.9015 41.7006 29.3793 40.9441 29.4988L40.9362 29.8412C40.9362 29.9288 40.9123 30.0801 40.8884 30.2155C41.7006 30.1358 42.5846 30.0084 43.2296 29.8571V25.6605C43.2296 25.557 43.1738 25.5012 43.1181 25.4535L42.6801 25.1031C42.704 24.9677 42.7916 24.8164 42.8633 24.8164C43.0624 24.8164 43.6676 24.9757 43.8746 25.0633C43.9622 25.1031 43.9861 25.1429 43.9861 25.2305C43.9861 25.3101 43.9622 25.5411 43.9622 25.6685L43.9542 28.36H44.0418C44.3444 28.36 44.655 28.1928 44.8063 28.1928C44.9974 28.1928 45.2841 28.2486 45.3717 28.3043ZM41.4856 25.8596C41.1114 25.8914 40.4026 25.9153 40.0921 25.8914C39.9408 25.8755 39.455 25.557 39.2958 25.4455C39.3196 25.3579 39.3993 25.1748 39.4471 25.1827C39.5745 25.1986 40.0602 25.2942 40.3389 25.3101L41.4856 25.3659C41.5971 25.3738 41.613 25.7561 41.4856 25.8596ZM39.5984 26.7754C39.4311 26.7754 39.1683 26.863 39.033 26.863C38.8896 26.863 38.3641 26.6241 38.2526 26.5524C38.2605 26.4409 38.3242 26.2498 38.3641 26.2498C38.4994 26.2577 39.1365 26.3055 39.5585 26.3055H41.3503C41.5812 26.3055 41.8519 26.2179 41.9953 26.2179C42.1307 26.2179 42.489 26.2737 42.5527 26.3055C42.6483 26.3453 42.6483 26.6957 42.5368 26.7754H39.5984ZM39.6222 28.3043C39.6222 28.7582 40.0124 29.0449 40.5619 29.0449C41.1114 29.0449 41.5016 28.7582 41.5016 28.3043C41.5016 27.8504 41.1114 27.5637 40.5619 27.5637C40.0124 27.5637 39.6222 27.8504 39.6222 28.3043Z" fill="#28264B"/>
<path d="M32.6778 26.1213C32.6619 25.9938 32.3991 25.8266 32.3274 25.7709C32.3673 25.6514 32.4628 25.4364 32.5026 25.4364C32.6938 25.4364 33.2114 25.4762 33.4184 25.4762H35.8153C36.0303 25.4762 36.1737 25.3966 36.2453 25.3966C36.4046 25.3966 36.6674 25.4285 36.747 25.4364C36.8585 25.4444 36.9541 25.6036 36.9461 25.739L36.7789 27.3078L36.7072 27.5069C36.7789 27.5467 36.8665 27.6104 36.9063 27.6343C36.9381 27.6502 36.8983 27.8891 36.8744 27.9926H33.4104C33.3706 28.0563 33.3069 28.1121 33.2353 28.1598H32.9486C32.853 27.9926 32.7973 27.7776 32.7813 27.5706L32.6778 26.1213ZM36.1418 25.954H33.4343L33.4582 27.5148H36.094L36.1418 25.954ZM38.2919 28.7969C38.3636 28.9163 38.3317 29.1632 38.268 29.2508H35.3216L35.3137 30.0232C35.3137 30.3497 35.1942 30.716 35.0748 30.8434H34.7403C34.6686 30.732 34.589 30.4134 34.589 30.1268V29.2508H32.9247C32.6858 29.2508 32.208 29.3782 32.1284 29.3782C31.9691 29.3782 31.4037 29.1632 31.125 29.0039C31.125 28.8925 31.1728 28.6934 31.2524 28.6934C31.4117 28.6934 32.2478 28.773 32.9247 28.773H36.6993C37.0337 28.773 37.3602 28.6217 37.5195 28.6217C37.7584 28.6217 38.2362 28.7093 38.2919 28.7969ZM36.548 31.6557C36.7868 31.6557 37.1532 31.7035 37.2248 31.7831C37.2965 31.8627 37.2965 32.1972 37.193 32.3007H33.5697C33.0123 32.3007 32.7256 32.022 32.7256 31.584V30.6842C32.7256 30.6045 32.7097 30.5807 32.6699 30.5568L32.3752 30.3816C32.3752 30.294 32.4469 30.1029 32.5186 30.1029C32.7415 30.1029 33.084 30.1268 33.2432 30.1427C33.3706 30.1586 33.4901 30.1984 33.4901 30.3258L33.4821 30.5727V31.5442C33.4821 31.7353 33.5697 31.807 33.8245 31.807H35.7118C36.0303 31.807 36.3887 31.6557 36.548 31.6557Z" fill="#28264B"/>
<path d="M28.0517 26.9983C28.0517 26.855 28.0995 26.7435 28.1632 26.7435C28.211 26.7435 28.7844 26.7833 29.1347 26.7754L29.8116 26.7594V25.6605C29.8116 25.557 29.7559 25.5012 29.7001 25.4535L29.2622 25.111C29.2781 24.9836 29.3736 24.8164 29.4453 24.8164C29.6444 24.8164 30.2576 24.9757 30.4646 25.0712C30.5522 25.111 30.5761 25.1509 30.5761 25.2385C30.5761 25.3181 30.5522 25.549 30.5522 25.6764L30.5363 27.8185C30.5283 28.3441 30.377 28.9254 30.2576 29.0927H29.9629C29.8833 28.9414 29.8116 28.5113 29.8116 28.0734V27.2213L29.1347 27.2372C29.0312 27.2372 28.7684 27.3009 28.6729 27.3009C28.5614 27.3009 28.1871 27.0939 28.0517 26.9983ZM28.5375 28.153C28.6251 28.145 28.7047 28.3123 28.7127 28.5273C28.004 28.7901 26.0609 29.0528 25.4318 29.0528C25.2487 29.0528 24.8983 28.6387 24.8983 28.4476L24.8824 26.194C24.8824 26.1383 24.8585 26.0985 24.8187 26.0746C24.7311 26.0109 24.6116 25.9392 24.4922 25.8596C24.5081 25.7162 24.6196 25.5411 24.6913 25.5411C24.7868 25.5411 25.2487 25.5729 25.3522 25.5729H26.905C27.1439 25.5729 27.3749 25.4694 27.566 25.4694C27.7093 25.4694 28.0677 25.5012 28.1553 25.557C28.2668 25.6525 28.2508 25.9313 28.1314 26.0746H25.623V26.9107H26.5626C26.8015 26.9107 26.9608 26.8152 27.1599 26.8152C27.2793 26.8152 27.574 26.8311 27.7332 26.8789C27.8606 26.9187 27.8606 27.2452 27.7253 27.3885H25.623V28.4237C26.3317 28.4476 27.789 28.3521 28.5375 28.153ZM30.8468 31.9116C30.9265 31.9913 30.9265 32.3257 30.7991 32.4213H27.343C26.8413 32.4213 26.5706 32.2063 26.5706 31.7922V31.1631C26.5706 31.1073 26.5626 31.0596 26.5069 31.0198L26.26 30.8684C26.26 30.8047 26.3317 30.6375 26.3795 30.6375C26.5069 30.6375 26.9847 30.6773 27.128 30.6773H29.5886C29.6046 30.542 29.6205 30.1756 29.6205 29.9527H27.5421C27.343 29.9527 27.0882 30.0164 27.0086 30.0164C26.8095 30.0164 26.26 29.7855 26.1963 29.7377C26.1963 29.6103 26.2521 29.4351 26.3078 29.4351C26.4113 29.4351 27.1678 29.4749 27.5421 29.4749H29.2223C29.3498 29.4749 29.6683 29.4032 29.7559 29.4032C29.8435 29.4032 30.0983 29.4351 30.2098 29.459C30.3452 29.4829 30.4009 29.5466 30.4009 29.6421C30.4009 29.7536 30.3053 30.2473 30.2735 30.526L30.2177 30.6853C30.3531 30.7092 30.4248 30.7968 30.4248 30.9162C30.4248 31.0118 30.3611 31.1392 30.17 31.1392H27.3112V31.7444C27.3112 31.8957 27.4227 31.9355 27.5262 31.9355H29.4373C29.6762 31.9355 30.1142 31.8001 30.2337 31.8001C30.4327 31.8001 30.7672 31.832 30.8468 31.9116Z" fill="#28264B"/>
<path d="M23.4132 25.0633C23.5008 25.1031 23.5247 25.1429 23.5247 25.2305C23.5247 25.3101 23.5008 25.5411 23.5008 25.6685L23.4849 31.187C23.4849 31.7364 23.3256 32.3576 23.2062 32.5248H22.9115C22.8319 32.3735 22.7602 31.8798 22.7602 31.4418V25.6605C22.7602 25.557 22.7045 25.5012 22.6488 25.4535L22.2108 25.1031C22.2347 24.9677 22.3223 24.8164 22.3939 24.8164C22.593 24.8164 23.2062 24.9757 23.4132 25.0633ZM21.5976 29.1643C21.7728 29.3714 21.948 29.6899 22.0117 29.8253C22.0674 29.9288 21.7808 30.104 21.6056 30.1438C21.1596 29.6262 20.5624 28.9493 20.0607 28.3999C19.2485 29.3554 18.2849 30.1836 17.5523 30.3349C17.409 30.2553 17.2019 30.0642 17.3453 30.0084C18.1973 29.7297 19.8935 27.7469 20.5226 26.4728H19.1609C19.0096 26.4728 18.7388 26.5604 18.6751 26.5604C18.492 26.5604 17.9266 26.3055 17.8231 26.2418C17.8231 26.0985 17.8947 25.9233 17.9425 25.9233C17.9982 25.9233 18.7866 25.979 18.9936 25.979H20.4589C20.5783 25.979 20.8013 25.8994 20.9367 25.8994C21.0482 25.8994 21.2313 25.9313 21.3109 25.9551C21.4145 25.979 21.5021 26.0348 21.5021 26.1224C21.5021 26.1781 21.4702 26.2737 21.4145 26.3772C21.1915 26.8709 20.8172 27.4522 20.3792 28.0176L20.865 28.5113C21.08 28.7263 21.4622 28.9971 21.5976 29.1643Z" fill="#28264B"/>
<path d="M16.4904 25.0633C16.578 25.1031 16.6019 25.1429 16.6019 25.2305C16.6019 25.3101 16.578 25.5411 16.578 25.6685L16.5621 31.187C16.5621 31.7364 16.4028 32.3576 16.2834 32.5248H15.9887C15.9091 32.3735 15.8374 31.8798 15.8374 31.4418V29.3953C14.8978 29.6899 12.7079 30.104 11.9036 30.104C11.7125 30.104 11.3143 29.6421 11.3143 29.4669L11.2984 26.5683C11.2984 26.5205 11.2745 26.4728 11.2347 26.4568L10.9082 26.2339C10.9241 26.1303 11.0117 25.9233 11.0993 25.9233C11.2028 25.9233 11.6727 25.9551 11.7762 25.9551H13.2574C13.5122 25.9551 13.9661 25.8437 14.1015 25.8437C14.2766 25.8437 14.5633 25.8676 14.635 25.9472C14.7226 26.0587 14.7067 26.3294 14.5952 26.4489H12.031V29.459C12.9547 29.459 15.0093 29.1404 15.8374 28.9334V25.6605C15.8374 25.557 15.7817 25.5012 15.7259 25.4535L15.288 25.1031C15.3119 24.9677 15.3995 24.8164 15.4711 24.8164C15.6702 24.8164 16.2834 24.9757 16.4904 25.0633Z" fill="#28264B"/>
</svg>
