<svg width="170" height="46" viewBox="0 0 170 46" fill="none" xmlns="http://www.w3.org/2000/svg">
<path d="M27.9019 8.22266V8.28792C26.781 8.71405 26.9192 11.1979 26.9192 12.2076V20.6803C26.9192 21.6938 26.7848 23.3292 27.9019 23.7554V23.8206H23.6406V23.7554C24.7655 23.3523 24.6273 21.6938 24.6273 20.6803V12.2076C24.6273 11.1749 24.7847 8.71405 23.6406 8.28792V8.22266C23.6406 8.22266 25.5678 9.05957 27.9019 8.22266Z" fill="white"/>
<path d="M13.2293 23.8627H11.1217C9.99684 23.8627 8.96798 23.4366 8.56488 22.8953L3.58566 16.1885L6.52251 12.265C7.26345 11.2093 8.60711 9.81955 7.10989 9.14388V9.07861H11.1639V9.10165L5.98505 15.7393L10.5343 21.6822C11.2292 22.5997 12.0853 23.2331 13.2255 23.7898V23.8589M4.30355 23.8589H0V23.7898C1.14403 23.3637 1.00967 21.7052 1.00967 20.6955V12.2189C1.00967 11.2093 1.14403 9.57385 0 9.14388V9.07861H4.30739V9.14388C3.16336 9.55081 3.29773 11.2093 3.29773 12.2189V20.6955C3.29773 21.7244 3.16336 23.3637 4.30739 23.7898V23.8589H4.30355Z" fill="white"/>
<path d="M39.5143 19.9316C39.5143 22.3348 37.0074 24.5768 33.5062 24.5768C32.1395 24.5768 30.769 24.3733 29.4944 23.9011L28.8418 21.0986C30.1701 22.2427 32.0013 22.9606 33.7519 22.9606C35.0342 22.9606 36.9613 22.1966 36.9613 20.6264C36.9613 17.1291 29.2449 17.7548 29.2449 12.9791C29.2449 10.1535 32.1395 9.07861 34.8729 9.07861C35.9939 9.07861 37.1379 9.23601 38.2167 9.57385V12.1076C37.3414 11.2093 35.9478 10.6948 34.6925 10.6948C33.4371 10.6948 31.7979 11.1901 31.7979 12.7372C31.7979 15.8315 39.5105 15.7854 39.5105 19.9354L39.5143 19.9316Z" fill="white"/>
<path d="M25.4526 2.8519C24.7577 3.27419 23.8517 3.05537 23.4256 2.3605C23.0033 1.66564 23.2221 0.759629 23.917 0.333496H23.8901C22.0243 1.46985 21.4408 3.9038 22.5733 5.76573C23.2566 6.89056 24.416 7.55087 25.6368 7.64685C26.4392 7.71211 27.2684 7.53168 28.0055 7.08251L28.0247 7.06716C28.9115 6.52585 29.3338 5.51619 29.1688 4.54875C29.115 4.25315 29.0114 3.95754 28.8424 3.68497C28.7503 3.53141 28.6428 3.3932 28.5238 3.26652C27.8136 2.52174 26.7003 2.28756 25.7443 2.7137C25.7443 2.7137 25.5831 2.77128 25.4487 2.8519H25.4526Z" fill="#D72829"/>
<path d="M43.7538 9.0595V9.12477C44.5254 9.47412 44.5177 9.82731 44.3066 10.4569L39.8571 22.1967C39.6421 22.7572 39.3158 23.4482 38.3906 23.7937V23.8551H42.7748V23.786C42.0646 23.6747 42.222 22.7879 42.3448 22.4193L43.0819 20.1044H45.6272V18.2194H43.5311L45.6272 12.5146V9.0595H43.7576H43.7538ZM51.3896 22.1928L46.9401 10.4531C46.729 9.82347 46.7213 9.47028 47.493 9.12093V9.05566H45.6234V12.5108L47.7195 18.2156H45.6234V20.1006H48.1686L48.9057 22.4155C49.0286 22.784 49.186 23.6709 48.4758 23.7822V23.8513H52.8599V23.7899C51.9347 23.4444 51.6084 22.7533 51.3934 22.1928H51.3896Z" fill="white"/>
<path d="M23.9403 21.31L22.8001 23.9128C21.7482 24.4081 20.5581 24.5885 19.3949 24.5885C14.1009 24.5885 10.8262 21.6248 10.8262 16.826C10.8262 12.0272 14.097 9.09033 18.6962 9.09033C20.0667 9.09033 21.4565 9.33987 22.8001 9.65083V12.2307C21.5447 11.4437 20.1089 10.9523 18.6309 10.9523C15.5328 10.9523 13.3791 13.2403 13.3791 16.492C13.3791 19.7436 15.6211 22.7266 19.0763 22.7266C20.7577 22.7266 22.4661 22.12 23.875 21.31H23.9403Z" fill="white"/>
<path d="M61.7117 6.192V5.53937C61.7117 5.10556 61.6234 4.66407 61.4583 4.23026H63.7771V6.192H67.0249V7.39362H65.4433C66.3723 8.20749 66.8292 9.23252 66.8292 10.4687C66.8292 11.5897 66.4299 12.561 65.6275 13.3672C64.8252 14.1772 63.8731 14.5803 62.7598 14.5803C61.6465 14.5803 60.6944 14.1772 59.892 13.3672C59.0897 12.561 58.6904 11.5897 58.6904 10.4687C58.6904 9.24787 59.1511 8.21901 60.0801 7.39362H58.5215V6.192H61.7079M64.9096 10.4725C64.9096 9.674 64.6985 8.97914 64.2647 8.39561C63.8424 7.81591 63.3395 7.52031 62.7598 7.52031C62.1801 7.52031 61.7002 7.81975 61.2779 8.39561C60.8479 8.97914 60.633 9.674 60.633 10.4725C60.633 11.271 60.8479 11.9467 61.2779 12.5302C61.7002 13.1061 62.2031 13.4017 62.7598 13.4017C63.3164 13.4017 63.8424 13.1061 64.2647 12.5302C64.6985 11.9429 64.9096 11.2557 64.9096 10.4725ZM71.2325 23.5214H63.3088C63.1091 23.5214 62.9325 23.4408 62.779 23.291C62.6254 23.1298 62.541 22.9532 62.541 22.7613V18.9453C62.541 18.1314 62.372 17.4442 62.0112 16.8799H64.5257V22.3236H71.2248V23.5214M73.6741 10.1193H71.125V15.8856C71.125 16.3961 70.8601 16.6495 70.3419 16.6495H69.1402V6.31869C69.1402 5.35125 68.9176 4.57961 68.4646 4.02295H71.1289V8.93307H73.678V10.1193H73.6741Z" fill="white"/>
<path d="M84.4317 11.7432C84.593 10.7297 84.6697 8.76792 84.6697 5.86177H77.3526V4.66016H86.6929C86.6814 8.11528 86.4395 10.4801 85.9712 11.7432H89.6643V12.9409H82.8577V16.6495H80.8729V12.9409H74.0625V11.7432H84.4317ZM86.3743 22.8687C86.3743 23.3793 86.1132 23.6288 85.5873 23.6288H84.3895V17.8511H77.3487V16.6495H86.3743V22.8648V22.8687Z" fill="white"/>
<path d="M106.215 14.8872H100.057V18.2848C100.057 18.7838 99.8078 19.0372 99.3011 19.0372H98.0764V14.8872H90.6172V13.6856H106.219V14.8872M103.033 23.5058H94.5791C94.3679 23.5058 94.1913 23.4291 94.0301 23.2717C93.8765 23.1181 93.7997 22.9415 93.7997 22.7495V19.7935C93.7997 18.9835 93.6232 18.2886 93.27 17.7281H95.7768V22.3004H103.033V23.502M102.929 11.171H94.6866C94.4793 11.171 94.295 11.0981 94.1414 10.9484C93.9879 10.7986 93.9072 10.6259 93.9072 10.4147V6.91354C93.9072 6.09583 93.7345 5.40097 93.3813 4.84814H102.929V11.1749M100.948 9.97325V6.04976H95.8843V9.97325H100.948Z" fill="white"/>
<path d="M118.538 15.5362V6.31869C118.538 5.35125 118.308 4.57961 117.855 4.02295H120.523V10.2614H123.065V11.4668H120.523V20.1123C120.523 20.6191 120.27 20.8725 119.759 20.8725H118.538V16.4307C116.596 16.8453 114.588 17.0449 112.507 17.0449H107.125V15.8472H111.336V13.3979C110.503 13.1944 109.812 12.7951 109.256 12.1694C108.699 11.5551 108.423 10.8449 108.423 10.0579C108.423 8.98682 108.902 8.1 109.866 7.39362H107.885V6.19584H111.244V5.74667C111.244 5.2668 111.141 4.82915 110.956 4.43373H113.321V6.19584H116.673V7.39362H114.711C115.667 8.08464 116.139 8.9753 116.139 10.0579C116.139 10.8449 115.859 11.5551 115.31 12.1694C114.753 12.7913 114.058 13.1944 113.229 13.3979V15.8472H113.947C115.855 15.8472 117.387 15.7435 118.542 15.5324M114.231 10.0656C114.231 9.47054 114.035 8.94459 113.651 8.4839C113.26 8.01938 112.811 7.78904 112.296 7.78904C111.782 7.78904 111.317 8.01938 110.926 8.4839C110.538 8.94459 110.342 9.47054 110.342 10.0656C110.342 10.6606 110.538 11.1827 110.926 11.6473C111.321 12.108 111.774 12.346 112.296 12.346C112.818 12.346 113.264 12.1118 113.651 11.6473C114.035 11.1827 114.231 10.653 114.231 10.0656Z" fill="white"/>
<path d="M129.779 9.94644C131.369 10.9868 132.559 11.8237 133.365 12.4533L131.656 13.8431C131.038 13.1559 130.128 12.1808 128.938 10.9139C127.94 11.985 126.689 13.0253 125.188 14.0388L124.305 13.2288C125.437 12.461 126.439 11.5128 127.299 10.3879C128.255 9.13641 128.819 7.91943 128.984 6.74085H124.873V5.53923H131.614C131.545 6.99806 130.931 8.46841 129.783 9.9426M137.223 19.5747C137.223 20.6957 136.789 21.6516 135.925 22.4387C135.062 23.2257 134.017 23.6172 132.793 23.6172C131.568 23.6172 130.532 23.2257 129.664 22.4387C128.804 21.6478 128.37 20.6957 128.37 19.5747C128.37 18.4537 128.804 17.494 129.664 16.6993C130.532 15.9046 131.576 15.5092 132.793 15.5092C134.01 15.5092 135.062 15.9046 135.925 16.6993C136.789 17.494 137.223 18.4499 137.223 19.5747ZM135.2 19.5747C135.2 18.757 134.958 18.0698 134.482 17.5093C134.006 16.9488 133.445 16.6647 132.793 16.6647C132.14 16.6647 131.591 16.945 131.107 17.5093C130.631 18.0698 130.393 18.757 130.393 19.5747C130.393 20.3924 130.628 21.0566 131.107 21.6209C131.591 22.1814 132.148 22.4655 132.793 22.4655C133.438 22.4655 134.006 22.1814 134.482 21.6209C134.958 21.0604 135.2 20.3771 135.2 19.5747ZM137.45 13.7125C137.45 14.2193 137.192 14.4688 136.678 14.4688H135.434V9.68539H132.186V8.48377H135.434V6.31088C135.434 5.37415 135.204 4.61019 134.735 4.01514H137.453V13.7087L137.45 13.7125Z" fill="white"/>
<path d="M144.536 7.6313H150.015V6.19934C150.015 5.56974 149.903 5.01308 149.677 4.5332H151.999V13.052H148.264V16.6953H155.075V17.9199H139.477V16.6953H146.287V13.052H143.316C143.116 13.052 142.939 12.9714 142.79 12.8178C142.636 12.6643 142.552 12.48 142.552 12.265V6.51414C142.552 5.8116 142.41 5.182 142.118 4.6407H144.54V7.6313M150.019 8.85595H144.54V11.8274H150.019V8.85595Z" fill="white"/>
<path d="M170 23.5058H161.758C161.551 23.5058 161.366 23.4252 161.213 23.2754C161.056 23.1142 160.983 22.9376 160.983 22.7457V18.9297C160.983 18.1427 160.798 17.4555 160.434 16.8643H162.983V22.308H170V23.5058Z" fill="white"/>
<path d="M165.336 7.6854C165.336 8.70275 164.941 9.56653 164.161 10.2844C163.378 10.9985 162.43 11.3555 161.32 11.3555C160.211 11.3555 159.27 10.9985 158.483 10.2844C157.704 9.56653 157.309 8.70275 157.309 7.6854C157.309 6.66806 157.7 5.80044 158.483 5.07486C159.27 4.35312 160.219 3.99609 161.32 3.99609C162.422 3.99609 163.378 4.35312 164.161 5.07486C164.944 5.7966 165.336 6.66422 165.336 7.6854ZM163.501 7.6854C163.501 6.94447 163.282 6.32255 162.852 5.81196C162.418 5.30136 161.912 5.04799 161.32 5.04799C160.729 5.04799 160.23 5.3052 159.792 5.81196C159.359 6.32255 159.147 6.94447 159.147 7.6854C159.147 8.42634 159.362 9.02906 159.792 9.53966C160.23 10.0464 160.737 10.3036 161.32 10.3036C161.904 10.3036 162.418 10.0464 162.852 9.53966C163.282 9.02906 163.501 8.41098 163.501 7.6854Z" fill="white"/>
<path d="M156.029 11.9312V13.1328H160.44V16.1502H161.527C161.976 16.1502 162.199 15.8969 162.199 15.3978V13.1328H166.614V11.9312H156.033H156.029Z" fill="white"/>
<path d="M167.635 4.01123C168.015 4.61396 168.203 5.41248 168.203 6.41446V8.47986H166.096V9.68148H168.203V16.2117H169.213C169.735 16.2117 169.996 15.9621 169.996 15.4592V4.01123H167.635Z" fill="white"/>
<path d="M147.654 36.3162C147.406 36.3162 146.989 36.4403 146.797 36.4403C146.594 36.4403 145.838 36.0906 145.68 35.989C145.68 35.7296 145.77 35.5378 145.827 35.5378C146.019 35.5378 146.944 35.6168 147.598 35.6168H150.858C151.129 35.6168 151.546 35.4927 151.749 35.4927C151.941 35.4927 152.55 35.5942 152.641 35.6168C152.776 35.6619 152.765 36.2034 152.607 36.3162H147.654ZM154.333 40.4903C154.434 40.6595 154.389 41.0318 154.31 41.1558H146.741C146.402 41.1558 145.725 41.3363 145.612 41.3363C145.387 41.3363 144.575 41.0205 144.18 40.7948C144.191 40.6369 144.259 40.3436 144.371 40.3436C144.597 40.3436 145.782 40.4564 146.741 40.4564H148.873C148.85 40.2646 148.828 40.0277 148.828 39.8924V39.317H147.35C147.124 39.317 146.819 39.396 146.628 39.396C146.425 39.396 145.782 39.1027 145.624 39.0011C145.624 38.6853 145.737 38.5499 145.793 38.5499C145.985 38.5499 146.718 38.6176 147.372 38.6176H147.44C147.417 38.031 147.282 37.2751 147.169 36.79C147.338 36.6772 147.891 36.5757 147.981 36.7336C148.241 37.1623 148.421 38.1663 148.41 38.6176H150.305L150.384 37.1849C150.396 37.0608 150.204 36.9141 150.125 36.8577C150.147 36.6998 150.226 36.5531 150.328 36.5531C150.644 36.5531 151.095 36.6321 151.253 36.6772C151.366 36.711 151.49 36.79 151.49 36.9028C151.49 37.0156 151.467 37.1397 151.434 37.2751L151.163 38.6176H151.253C151.467 38.6176 151.783 38.516 151.986 38.516C152.122 38.516 152.674 38.595 152.765 38.6176C152.911 38.6401 152.889 39.2042 152.731 39.317H149.843L149.832 39.7795C149.832 39.9375 149.798 40.2308 149.753 40.4564H152.077C152.55 40.4564 153.024 40.2534 153.25 40.2534C153.588 40.2534 154.265 40.3774 154.333 40.4903ZM152.438 44.9915C152.483 45.0479 152.426 45.3976 152.392 45.5217H147.575C147.53 45.6458 147.463 45.7699 147.361 45.8601H146.989C146.865 45.6458 146.741 45.3863 146.695 44.8674L146.549 43.0285C146.537 42.9044 146.222 42.7803 146.097 42.6901C146.12 42.5322 146.233 42.2501 146.289 42.2501C146.571 42.2501 147.305 42.2727 147.598 42.2727H150.802C150.994 42.2727 151.309 42.1824 151.411 42.1824C151.58 42.1824 151.93 42.2276 152.054 42.2501C152.201 42.284 152.302 42.4306 152.291 42.5998L152.099 44.5966L152.009 44.8335L152.438 44.9915ZM151.151 44.8448L151.163 42.927H147.62V44.8448H151.151Z" fill="white"/>
<path d="M140.644 41.6182C140.554 41.4489 140.475 41.0541 140.441 40.6028C139.245 40.9977 137.429 41.3925 136.448 41.4151C136.064 41.4264 135.455 40.7382 135.455 40.5013L135.444 39.0573C135.444 38.8317 135.162 38.7189 135.049 38.6512C135.071 38.5271 135.139 38.2676 135.241 38.2676C135.421 38.2676 136.233 38.3128 136.515 38.324H138.219C138.23 37.9856 138.241 37.4554 138.241 37.0831H136.91C136.561 37.0831 136.256 37.1959 136.064 37.1959C135.884 37.1959 135.331 36.9365 135.049 36.7672C135.049 36.598 135.139 36.3273 135.252 36.3273C135.444 36.3385 136.324 36.395 136.741 36.395H137.801C138.05 36.395 138.399 36.2821 138.501 36.2821C138.648 36.2821 139.009 36.3385 139.178 36.3611C139.347 36.3837 139.415 36.5078 139.403 36.677C139.381 36.9477 139.2 38.042 139.144 38.3579C139.291 38.403 139.347 38.5158 139.347 38.6625C139.347 38.8317 139.245 38.9558 139.054 38.9558H136.504V40.5126C137.339 40.5577 139.223 40.3208 140.43 40.0049V36.5416C140.43 36.395 140.351 36.316 140.272 36.2483L139.64 35.7519C139.674 35.5827 139.81 35.3458 139.911 35.3458C140.182 35.3458 141.005 35.5714 141.299 35.6955C141.423 35.7519 141.457 35.8083 141.457 35.9324C141.457 36.0452 141.423 36.3724 141.423 36.5529L141.411 38.4143H142.641V35.9775C142.641 35.8309 142.562 35.7519 142.483 35.6842L141.863 35.1879C141.897 35.0074 142.021 34.7817 142.122 34.7817C142.393 34.7817 143.239 35.0074 143.532 35.1315C143.645 35.1879 143.69 35.2443 143.69 35.3684C143.69 35.4812 143.656 35.8083 143.656 35.9888L143.634 40.6818C143.623 41.4377 143.408 42.2725 143.239 42.5094H142.855C142.743 42.295 142.641 41.6633 142.641 41.0428V39.0912H141.4V39.8132C141.4 40.5577 141.186 41.3813 141.017 41.6182H140.644ZM143.961 45.1717C144.029 45.3297 143.656 45.623 143.51 45.702C142.517 44.9574 141.49 44.2016 140.453 43.4796C139.347 44.6641 137.993 45.6794 136.899 45.6907C136.831 45.6568 136.549 45.3071 136.606 45.2958C137.598 45.1153 138.997 43.8518 139.922 42.6786C140.001 42.5658 139.945 42.5094 139.9 42.4417C139.843 42.374 139.663 42.1597 139.595 42.092C139.652 41.9904 139.81 41.7987 139.922 41.7987C140.046 41.7987 140.881 42.1597 141.062 42.2838C141.197 42.374 141.287 42.4868 141.141 42.6786L140.87 43.0057L141.976 43.739C142.303 43.9421 142.731 44.0549 143.115 44.3257C143.476 44.5964 143.893 45.0364 143.961 45.1717Z" fill="white"/>
<path d="M128.032 36.2054C127.784 36.2054 127.366 36.3182 127.174 36.3182C126.971 36.3182 126.215 35.9797 126.057 35.8782C126.057 35.6187 126.148 35.427 126.204 35.427C126.396 35.427 127.321 35.5059 127.975 35.5059H131.236C131.506 35.5059 131.924 35.3818 132.127 35.3818C132.319 35.3818 132.928 35.4834 133.018 35.5059C133.153 35.5511 133.142 36.0926 132.984 36.2054H128.032ZM127.727 38.8677C127.501 38.8677 127.197 38.9467 127.005 38.9467C126.802 38.9467 126.159 38.6534 126.001 38.5519C126.001 38.2473 126.114 38.1006 126.17 38.1006C126.362 38.1006 127.095 38.1796 127.75 38.1796H127.817C127.784 37.6719 127.659 37.0966 127.547 36.6566C127.716 36.5438 128.269 36.4423 128.359 36.6002C128.618 37.0289 128.799 37.7622 128.788 38.1796H130.683L130.762 37.0515C130.773 36.9386 130.581 36.7807 130.502 36.7243C130.525 36.5664 130.604 36.4197 130.705 36.4197C131.021 36.4197 131.472 36.4987 131.63 36.5438C131.743 36.5776 131.867 36.6566 131.867 36.7694C131.867 36.8935 131.845 37.0063 131.811 37.1417L131.54 38.1796H131.63C131.845 38.1796 132.161 38.0668 132.364 38.0668C132.499 38.0668 133.052 38.1457 133.142 38.1683C133.289 38.2021 133.266 38.7549 133.108 38.8677H127.727ZM134.721 39.9395C134.823 40.1087 134.778 40.4471 134.688 40.5712H127.118C126.779 40.5712 126.103 40.7517 125.99 40.7517C125.764 40.7517 124.963 40.4471 124.568 40.2215C124.568 40.0635 124.636 39.7928 124.749 39.7928C124.974 39.7928 126.159 39.9056 127.118 39.9056H132.465C132.939 39.9056 133.402 39.7025 133.627 39.7025C133.966 39.7025 134.642 39.8266 134.721 39.9395ZM132.431 44.6776C132.713 44.6776 133.187 44.7227 133.3 44.8355C133.413 44.9483 133.413 45.4221 133.21 45.5575H127.885C127.174 45.5575 126.791 45.2529 126.791 44.6663V43.7751C126.791 43.6961 126.779 43.6284 126.701 43.572L126.351 43.3577C126.351 43.2674 126.452 43.0305 126.52 43.0305C126.701 43.0305 127.377 43.0869 127.58 43.0869H131.619C131.642 42.8951 131.653 42.3762 131.653 42.0603H128.167C127.885 42.0603 127.524 42.1506 127.411 42.1506C127.129 42.1506 126.351 41.8234 126.261 41.7557C126.261 41.5752 126.34 41.327 126.418 41.327C126.565 41.327 127.637 41.3834 128.167 41.3834H131.111C131.292 41.3834 131.743 41.2819 131.867 41.2819C131.991 41.2819 132.352 41.327 132.51 41.3609C132.702 41.3947 132.781 41.485 132.781 41.6204C132.781 41.7783 132.634 42.4777 132.601 42.8726C132.589 42.9064 132.555 43.0305 132.522 43.0982C132.713 43.132 132.815 43.2674 132.815 43.4253C132.815 43.5607 132.725 43.7412 132.454 43.7412H127.851V44.5986C127.851 44.8129 128.009 44.8693 128.156 44.8693H131.303C131.642 44.8693 132.262 44.6776 132.431 44.6776Z" fill="white"/>
<path d="M119.859 39.1947C118.246 39.1947 117.185 38.3711 117.185 37.2092C117.185 36.0472 118.246 35.2124 119.859 35.2124C121.472 35.2124 122.533 36.0472 122.533 37.2092C122.533 38.3711 121.472 39.1947 119.859 39.1947ZM119.859 35.9682C118.877 35.9682 118.167 36.4533 118.167 37.2092C118.167 37.965 118.877 38.4501 119.859 38.4501C120.852 38.4501 121.562 37.965 121.562 37.2092C121.562 36.4533 120.852 35.9682 119.859 35.9682ZM124.913 40.5597C125.014 40.7289 124.969 41.0899 124.879 41.214H117.309C116.971 41.214 116.294 41.3945 116.181 41.3945C115.956 41.3945 115.155 41.0786 114.76 40.853C114.76 40.6951 114.827 40.413 114.94 40.413C115.166 40.413 116.35 40.5259 117.309 40.5259H117.783V39.8828C117.783 39.77 117.727 39.691 117.67 39.6459L117.501 39.5444C117.501 39.4429 117.58 39.1608 117.682 39.1608C117.851 39.1608 118.449 39.2172 118.618 39.2624C118.731 39.2962 118.753 39.3639 118.753 39.4767C118.753 39.5782 118.731 39.7362 118.731 39.8941L118.708 40.5259H121.179L121.19 39.928C121.19 39.7926 121.179 39.691 121.122 39.6459L120.964 39.5218C120.964 39.409 121.055 39.1608 121.156 39.1608C121.348 39.1608 121.833 39.2172 122.014 39.2736C122.126 39.3075 122.172 39.3639 122.172 39.488C122.172 39.6008 122.138 39.8151 122.126 39.9392L122.104 40.5259H122.657C123.13 40.5259 123.593 40.3228 123.819 40.3228C124.157 40.3228 124.834 40.4469 124.913 40.5597ZM119.972 41.857C121.607 41.857 122.668 42.7031 122.668 43.8651C122.668 45.0271 121.607 45.8619 119.972 45.8619C118.347 45.8619 117.275 45.0271 117.275 43.8651C117.275 42.7031 118.347 41.857 119.972 41.857ZM119.972 45.1399C120.987 45.1399 121.72 44.6548 121.72 43.8651C121.72 43.0754 120.987 42.5903 119.972 42.5903C118.956 42.5903 118.223 43.0754 118.223 43.8651C118.223 44.6548 118.956 45.1399 119.972 45.1399Z" fill="white"/>
<path d="M115.314 38.7076C115.416 38.7979 115.416 39.2378 115.314 39.4183H113.295V39.7229C113.284 40.4675 113.07 41.3023 112.9 41.5392H112.494C112.426 41.4038 112.359 41.1105 112.314 40.7495C110.858 41.0992 108.58 41.4151 107.181 41.4941C106.707 41.5166 106.267 41.6294 106.053 41.6294C105.861 41.6294 105.161 41.2797 104.891 41.0992C104.891 40.8849 104.981 40.6593 105.071 40.6593C105.15 40.6593 105.692 40.7382 106.143 40.7608C106.312 40.7608 106.684 40.7721 106.955 40.7608C107.271 40.7608 107.632 40.7382 108.027 40.7157C108.004 40.5577 107.993 40.3772 107.993 40.2644V40.1065C106.921 39.9824 106.267 39.4183 106.267 38.7189C106.267 37.9292 107.102 37.2975 108.444 37.2975C109.787 37.2975 110.61 37.9292 110.61 38.7189C110.61 39.3958 110.001 39.9485 108.974 40.0952V40.208C108.963 40.3095 108.941 40.49 108.907 40.6367C110.08 40.5239 111.355 40.3434 112.28 40.1178V40.0839V35.9775C112.28 35.8309 112.201 35.7519 112.122 35.6842L111.501 35.1879C111.524 35.0074 111.659 34.7817 111.761 34.7817C112.043 34.7817 112.9 35.0074 113.194 35.1315C113.318 35.1879 113.352 35.2443 113.352 35.3684C113.352 35.4812 113.318 35.8083 113.318 35.9888L113.295 38.7979H113.431C113.859 38.7979 114.299 38.5609 114.514 38.5609C114.784 38.5609 115.19 38.6286 115.314 38.7076ZM109.73 35.876C109.223 35.9099 108.219 35.9437 107.801 35.9211C107.587 35.9099 106.933 35.515 106.707 35.3571C106.741 35.233 106.854 34.9735 106.921 34.9848C107.09 35.0186 107.756 35.1202 108.117 35.1315L109.73 35.2217C109.854 35.233 109.911 35.673 109.73 35.876ZM107.09 36.9703C106.865 36.9703 106.515 37.1057 106.323 37.1057C106.12 37.1057 105.421 36.7672 105.263 36.6657C105.274 36.5303 105.353 36.2821 105.41 36.2821C105.601 36.2934 106.47 36.3611 107.034 36.3611H109.561C109.877 36.3611 110.249 36.2257 110.441 36.2257C110.633 36.2257 111.118 36.316 111.208 36.3611C111.332 36.4175 111.332 36.8688 111.174 36.9703H107.09ZM107.169 38.7189C107.169 39.1927 107.711 39.486 108.444 39.486C109.177 39.486 109.719 39.1927 109.719 38.7189C109.719 38.2451 109.177 37.9518 108.444 37.9518C107.711 37.9518 107.169 38.2451 107.169 38.7189ZM112.923 44.6754C113.205 44.6754 113.679 44.7318 113.792 44.8446C113.904 44.9574 113.904 45.4199 113.724 45.5553H108.828C108.117 45.5553 107.733 45.2507 107.733 44.6641V44.1C107.733 44.0211 107.722 43.9534 107.643 43.9082L107.294 43.6939C107.294 43.6037 107.395 43.3667 107.463 43.3667C107.643 43.3667 108.32 43.4232 108.523 43.4232H112.009C112.032 43.2878 112.054 42.8929 112.054 42.7237H109.11C108.828 42.7237 108.467 42.8252 108.354 42.8252C108.072 42.8252 107.294 42.4981 107.203 42.4304C107.203 42.2499 107.282 42.0017 107.361 42.0017C107.508 42.0017 108.58 42.0581 109.11 42.0581H111.49C111.671 42.0581 112.122 41.9566 112.246 41.9566C112.37 41.9566 112.731 42.0017 112.889 42.0356C113.081 42.0694 113.16 42.1597 113.16 42.295C113.16 42.4417 113.047 42.9493 112.991 43.2539C112.968 43.3103 112.923 43.3893 112.9 43.4344C113.092 43.4683 113.194 43.5924 113.194 43.7616C113.194 43.897 113.103 44.0662 112.833 44.0662H108.783V44.619C108.783 44.822 108.918 44.8672 109.065 44.8672H111.795C112.133 44.8672 112.754 44.6754 112.923 44.6754Z" fill="white"/>
<path d="M105.294 40.376C105.395 40.5452 105.35 40.9174 105.26 41.0415H97.6902C97.3517 41.0415 96.6749 41.222 96.5621 41.222C96.3364 41.222 95.5355 40.9062 95.1406 40.6805C95.1406 40.5226 95.2083 40.2293 95.3211 40.2293C95.5467 40.2293 96.7313 40.3421 97.6902 40.3421H99.811C99.7885 40.1503 99.7772 39.9247 99.7659 39.7893L99.7546 39.0222L98.3332 39.0335C97.6451 39.0335 97.2164 38.7176 97.2051 38.1084L97.1825 36.4614C97.1825 36.3824 97.1487 36.2921 97.0697 36.2132C97.0359 36.1793 96.8215 36.0101 96.6523 35.9199C96.641 35.7732 96.7538 35.4799 96.8554 35.4799C97.0246 35.4799 97.8707 35.525 98.2204 35.5589H101.3C101.74 35.5589 102.315 35.3896 102.541 35.4009C102.902 35.4235 103.218 35.4461 103.308 35.5701C103.398 35.6942 103.387 36.1342 103.241 36.2583H98.2542V37.9618C98.2542 38.2438 98.4347 38.3228 98.6604 38.3228H101.278C101.718 38.3228 102.349 38.1197 102.575 38.131C102.913 38.1535 103.308 38.1648 103.398 38.2889C103.489 38.413 103.477 38.8868 103.331 39.0109L100.815 39.0222L100.804 39.6878C100.793 39.8345 100.759 40.1165 100.714 40.3421H103.037C103.511 40.3421 103.974 40.139 104.199 40.139C104.538 40.139 105.215 40.2631 105.294 40.376ZM100.353 41.7748C102 41.7748 103.071 42.6209 103.071 43.8167C103.071 45.0013 102 45.8586 100.353 45.8586C98.7168 45.8586 97.6451 45.0013 97.6451 43.8167C97.6451 42.6209 98.7168 41.7748 100.353 41.7748ZM100.353 45.1366C101.379 45.1366 102.124 44.629 102.124 43.8167C102.124 43.0045 101.379 42.4968 100.353 42.4968C99.3372 42.4968 98.5927 43.0045 98.5927 43.8167C98.5927 44.629 99.3372 45.1366 100.353 45.1366Z" fill="white"/>
<path d="M89.205 36.3597C88.7199 36.3597 88.404 36.5176 88.1671 36.5176C87.8625 36.5176 86.9149 36.0889 86.8359 36.0325C86.8359 35.931 86.881 35.57 86.9938 35.57C87.1518 35.57 88.4153 35.6602 89.205 35.6602H92.014C92.3524 35.6602 92.7811 35.5361 92.9052 35.5361C93.1421 35.5361 93.5257 35.6038 93.6498 35.6377C93.8077 35.6715 93.8528 35.8182 93.8528 35.8859C93.8077 36.7207 93.4693 38.2662 93.0406 38.9882C92.9503 39.1348 92.4314 39.1461 92.2735 39.101C92.4765 38.3226 92.6345 37.1493 92.6683 36.3597H89.205ZM95.4773 39.9245C95.5789 40.0937 95.5337 40.466 95.4435 40.5901H87.8738C87.5353 40.5901 86.8585 40.7706 86.7456 40.7706C86.52 40.7706 85.7191 40.4547 85.3242 40.2291C85.3242 40.0599 85.3919 39.7779 85.5047 39.7779C85.7303 39.7779 86.9149 39.8907 87.8738 39.8907H89.4419V38.5257C89.4419 38.3677 89.4193 38.3113 89.329 38.2436L88.9568 38.018C88.9568 37.8939 89.0696 37.6232 89.1824 37.6232C89.4531 37.6232 90.1413 37.7134 90.3218 37.7698C90.4459 37.8149 90.491 37.8826 90.491 38.0067C90.491 38.1195 90.4572 38.3677 90.4459 38.6046L90.4233 39.8907H93.2211C93.6949 39.8907 94.1574 39.6876 94.383 39.6876C94.7215 39.6876 95.3984 39.8117 95.4773 39.9245ZM90.5361 41.5377C92.1945 41.5377 93.2775 42.4402 93.2775 43.6925C93.2775 44.9334 92.1945 45.8472 90.5361 45.8472C88.8891 45.8472 87.7948 44.9334 87.7948 43.6925C87.7948 42.4402 88.8891 41.5377 90.5361 41.5377ZM90.5361 45.1139C91.574 45.1139 92.3299 44.5498 92.3299 43.6925C92.3299 42.8351 91.574 42.271 90.5361 42.271C89.4983 42.271 88.7537 42.8351 88.7537 43.6925C88.7537 44.5498 89.4983 45.1139 90.5361 45.1139Z" fill="white"/>
<path d="M81.4407 35.9775C81.4407 35.8309 81.3617 35.7519 81.2827 35.6842L80.6623 35.1879C80.6848 35.0074 80.8202 34.7817 80.9217 34.7817C81.2038 34.7817 82.0499 35.0074 82.3432 35.1315C82.4673 35.1879 82.5011 35.2443 82.5011 35.3684C82.5011 35.4812 82.4673 35.8083 82.4673 35.9888L82.4447 41.5505C82.4447 42.3063 82.2191 43.1637 82.0499 43.4006H81.655C81.5535 43.2088 81.4632 42.6335 81.4407 42.0694L80.4028 42.092C80.2561 42.092 79.8726 42.1935 79.7259 42.1935C79.568 42.1935 79.0378 41.9002 78.8347 41.7648C78.8347 41.5618 78.9024 41.4038 78.9926 41.4038C79.0716 41.4038 79.8839 41.4602 80.4028 41.4489L81.4407 41.4264V35.9775ZM77.3343 39.2829C75.8903 39.2829 74.9201 38.4594 74.9201 37.32C74.9201 36.1693 75.8903 35.3571 77.3343 35.3571C78.7896 35.3571 79.7598 36.1693 79.7598 37.32C79.7598 38.4594 78.7896 39.2829 77.3343 39.2829ZM77.3343 36.0904C76.4995 36.0904 75.879 36.5642 75.879 37.32C75.879 38.0646 76.4995 38.5384 77.3343 38.5384C78.1804 38.5384 78.7896 38.0646 78.7896 37.32C78.7896 36.5642 78.1804 36.0904 77.3343 36.0904ZM76.759 40.7833C76.3754 40.8172 76.0257 40.8398 75.7211 40.8623C75.2698 40.8962 74.8299 40.9977 74.6155 40.9977C74.4237 40.9977 73.7356 40.6593 73.4648 40.4788C73.4648 40.2644 73.5664 40.0501 73.6566 40.0501C73.7356 40.0501 74.2545 40.129 74.7058 40.1403C74.8863 40.1516 75.236 40.1516 75.5067 40.1516C76.7702 40.1178 79.1393 39.9373 80.4028 39.6439C80.4705 39.7229 80.5495 40.0501 80.5495 40.2419C79.85 40.3998 78.8009 40.5577 77.7743 40.6818V41.0879C77.7743 41.6069 77.5261 42.3176 77.12 42.6222L76.601 42.5207C76.7026 42.1597 76.759 41.4489 76.759 41.1105V40.7833ZM82.9636 44.6641C83.0652 44.7769 83.0652 45.2394 82.9185 45.3861H78.124C77.3343 45.3861 76.9282 44.9912 76.9282 44.3708V43.6601C76.9282 43.5472 76.9056 43.5134 76.8492 43.4796L76.4318 43.2314C76.4318 43.1073 76.5333 42.8365 76.6349 42.8365C76.9507 42.8365 77.4358 42.8704 77.6615 42.8929C77.842 42.9155 78.0112 42.9719 78.0112 43.1524L77.9999 43.5021V44.3257C77.9999 44.5851 78.124 44.6979 78.485 44.6979H80.8202C81.2715 44.6979 81.7791 44.4836 82.0047 44.4836C82.3432 44.4836 82.8621 44.5513 82.9636 44.6641Z" fill="white"/>
<path d="M74.1249 39.0912C74.249 39.1701 74.2378 39.6327 74.1249 39.8244H72.0266L72.0154 43.8067C72.0154 44.5851 71.7897 45.4651 71.6205 45.702H71.2031C71.0903 45.4876 70.9888 44.7882 70.9888 44.1677V35.9775C70.9888 35.8309 70.9098 35.7519 70.8308 35.6842L70.2104 35.1879C70.2442 34.9961 70.3683 34.7817 70.4698 34.7817C70.7519 34.7817 71.6205 35.0074 71.9138 35.1315C72.0379 35.1879 72.0718 35.2443 72.0718 35.3684C72.0718 35.4812 72.0379 35.8083 72.0379 35.9888L72.0266 39.1701H72.1733C72.6245 39.1701 73.0758 38.9332 73.3014 38.9332C73.5834 38.9332 74.0121 39.0009 74.1249 39.0912ZM69.5673 40.9413C69.8155 41.2346 70.0637 41.6858 70.154 41.8776C70.2329 42.0243 69.8268 42.2725 69.5786 42.3289C68.9469 41.5956 68.1008 40.6367 67.39 39.8583C66.2394 41.212 64.8743 42.3853 63.8365 42.5996C63.6334 42.4868 63.3401 42.2161 63.5432 42.1371C64.7502 41.7423 67.1531 38.9332 68.0444 37.1282H66.1153C65.9009 37.1282 65.5174 37.2523 65.4271 37.2523C65.1676 37.2523 64.3667 36.8913 64.22 36.8011C64.22 36.598 64.3216 36.3498 64.3892 36.3498C64.4682 36.3498 65.5851 36.4288 65.8784 36.4288H67.9541C68.1233 36.4288 68.4392 36.316 68.631 36.316C68.7889 36.316 69.0484 36.3611 69.1612 36.395C69.3079 36.4288 69.432 36.5078 69.432 36.6319C69.432 36.7108 69.3868 36.8462 69.3079 36.9929C68.992 37.6923 68.4618 38.5158 67.8413 39.3168L68.5295 40.0162C68.8341 40.3208 69.3755 40.7044 69.5673 40.9413Z" fill="white"/>
<path d="M64.2774 39.7229C64.3789 39.8019 64.3789 40.2418 64.2774 40.4336H62.2693L62.258 43.8067C62.258 44.5851 62.0324 45.4651 61.8632 45.702H61.4571C61.3443 45.4876 61.2427 44.7882 61.2427 44.1677V42.5545C59.7874 42.9042 57.5312 43.2201 56.1436 43.2991C55.6698 43.3216 55.2298 43.4344 55.0155 43.4344C54.8237 43.4344 54.1243 43.0847 53.8535 42.9042C53.8535 42.6786 53.9438 42.4643 54.034 42.4643C54.113 42.4643 54.6545 42.5319 55.1057 42.5545C55.275 42.5658 55.6472 42.5658 55.918 42.5658C56.2451 42.5545 56.6287 42.5432 57.0574 42.5094C57.0348 42.3289 57.0123 42.1258 57.0123 41.9904V41.4264C55.8954 41.291 55.2185 40.5916 55.2185 39.7229C55.2185 38.7414 56.0759 37.9856 57.4635 37.9856C58.8624 37.9856 59.6972 38.7414 59.6972 39.7229C59.6972 40.569 59.0767 41.2459 58.005 41.4151L57.9937 41.9002C57.9937 42.0243 57.9599 42.2386 57.926 42.4304C59.0767 42.3176 60.3289 42.1371 61.2427 41.9228V35.9775C61.2427 35.8309 61.1638 35.7519 61.0848 35.6842L60.4643 35.1879C60.4982 34.9961 60.6223 34.7817 60.7238 34.7817C61.0058 34.7817 61.8632 35.0074 62.1565 35.1315C62.2806 35.1879 62.3144 35.2443 62.3144 35.3684C62.3144 35.4812 62.2806 35.8083 62.2806 35.9888L62.2693 39.8019H62.3934C62.8221 39.8019 63.2621 39.565 63.4764 39.565C63.7472 39.565 64.1533 39.6439 64.2774 39.7229ZM58.7721 36.2596C58.2419 36.3047 57.2379 36.3385 56.7979 36.3047C56.5836 36.2821 55.8954 35.8309 55.6698 35.673C55.7036 35.5489 55.8164 35.2894 55.8841 35.3007C56.0646 35.3232 56.7528 35.4586 57.1476 35.4812L58.7721 35.5601C58.9301 35.5714 58.9526 36.1129 58.7721 36.2596ZM56.0985 37.5569C55.8616 37.5569 55.4893 37.681 55.2975 37.681C55.0945 37.681 54.3499 37.3426 54.192 37.241C54.2032 37.0831 54.2935 36.8124 54.3499 36.8124C54.5417 36.8236 55.4442 36.8913 56.0421 36.8913H58.5804C58.9075 36.8913 59.2911 36.7672 59.4941 36.7672C59.6859 36.7672 60.1936 36.8462 60.2838 36.8913C60.4192 36.9477 60.4192 37.4441 60.2613 37.5569H56.0985ZM56.1323 39.7229C56.1323 40.3659 56.6851 40.7721 57.4635 40.7721C58.2419 40.7721 58.7947 40.3659 58.7947 39.7229C58.7947 39.0799 58.2419 38.6738 57.4635 38.6738C56.6851 38.6738 56.1323 39.0799 56.1323 39.7229Z" fill="white"/>
<path d="M46.2975 36.6301C46.2749 36.4496 45.9027 36.2127 45.8011 36.1337C45.8575 35.9645 45.9929 35.6599 46.0493 35.6599C46.3201 35.6599 47.0533 35.7163 47.3467 35.7163H50.7423C51.0469 35.7163 51.25 35.6035 51.3515 35.6035C51.5771 35.6035 51.9494 35.6486 52.0622 35.6599C52.2201 35.6712 52.3555 35.8968 52.3442 36.0886L52.1073 38.311L52.0058 38.593C52.1073 38.6494 52.2314 38.7397 52.2878 38.7735C52.333 38.7961 52.2765 39.1345 52.2427 39.2812H47.3354C47.279 39.3714 47.1887 39.4504 47.0872 39.5181H46.6811C46.5457 39.2812 46.4667 38.9766 46.4441 38.6833L46.2975 36.6301ZM51.2048 36.3932H47.3692L47.4031 38.6043H51.1371L51.2048 36.3932ZM54.2508 40.4206C54.3523 40.5898 54.3072 40.9395 54.2169 41.0636H50.0429L50.0316 42.1579C50.0316 42.6204 49.8624 43.1394 49.6931 43.3199H49.2193C49.1178 43.1619 49.005 42.7107 49.005 42.3046V41.0636H46.6472C46.3088 41.0636 45.6319 41.2441 45.5191 41.2441C45.2935 41.2441 44.4925 40.9395 44.0977 40.7139C44.0977 40.556 44.1653 40.2739 44.2782 40.2739C44.5038 40.2739 45.6883 40.3868 46.6472 40.3868H51.9945C52.4683 40.3868 52.9309 40.1724 53.1565 40.1724C53.4949 40.1724 54.1718 40.2965 54.2508 40.4206ZM51.7802 44.4706C52.1186 44.4706 52.6375 44.5382 52.7391 44.6511C52.8406 44.7639 52.8406 45.2377 52.694 45.3843H47.561C46.7713 45.3843 46.3652 44.9895 46.3652 44.369V43.0942C46.3652 42.9814 46.3426 42.9476 46.2862 42.9137L45.8688 42.6656C45.8688 42.5415 45.9703 42.2707 46.0719 42.2707C46.3877 42.2707 46.8728 42.3046 47.0985 42.3271C47.279 42.3497 47.4482 42.4061 47.4482 42.5866L47.4369 42.9363V44.3126C47.4369 44.5834 47.561 44.6849 47.922 44.6849H50.5956C51.0469 44.6849 51.5545 44.4706 51.7802 44.4706Z" fill="white"/>
<path d="M39.7419 37.8728C39.7419 37.6697 39.8096 37.5118 39.8999 37.5118C39.9676 37.5118 40.7798 37.5682 41.2762 37.5569L42.2351 37.5344V35.9775C42.2351 35.8309 42.1561 35.7519 42.0771 35.6842L41.4567 35.1991C41.4792 35.0186 41.6146 34.7817 41.7161 34.7817C41.9982 34.7817 42.8668 35.0074 43.1601 35.1427C43.2842 35.1991 43.3181 35.2555 43.3181 35.3796C43.3181 35.4925 43.2842 35.8196 43.2842 36.0001L43.2617 39.0348C43.2504 39.7793 43.036 40.6028 42.8668 40.8398H42.4494C42.3366 40.6254 42.2351 40.0162 42.2351 39.3958V38.1887L41.2762 38.2112C41.1295 38.2112 40.7572 38.3015 40.6219 38.3015C40.4639 38.3015 39.9337 38.0082 39.7419 37.8728ZM40.4301 39.5086C40.5542 39.4973 40.667 39.7342 40.6783 40.0388C39.6742 40.4111 36.9216 40.7833 36.0304 40.7833C35.7709 40.7833 35.2746 40.1967 35.2746 39.926L35.252 36.7334C35.252 36.6544 35.2182 36.598 35.1617 36.5642C35.0377 36.4739 34.8684 36.3724 34.6992 36.2596C34.7218 36.0565 34.8797 35.8083 34.9812 35.8083C35.1166 35.8083 35.7709 35.8535 35.9176 35.8535H38.1174C38.4559 35.8535 38.783 35.7068 39.0538 35.7068C39.2568 35.7068 39.7645 35.7519 39.8886 35.8309C40.0465 35.9663 40.024 36.3611 39.8547 36.5642H36.3012V37.7487H37.6323C37.9708 37.7487 38.1964 37.6133 38.4784 37.6133C38.6476 37.6133 39.0651 37.6359 39.2907 37.7036C39.4712 37.76 39.4712 38.2225 39.2794 38.4256H36.3012V39.8921C37.3052 39.926 39.3696 39.7906 40.4301 39.5086ZM43.7016 44.8333C43.8144 44.9461 43.8145 45.4199 43.634 45.5553H38.7379C38.0272 45.5553 37.6436 45.2507 37.6436 44.6641V43.7729C37.6436 43.6939 37.6323 43.6262 37.5534 43.5698L37.2037 43.3555C37.2037 43.2652 37.3052 43.0283 37.3729 43.0283C37.5534 43.0283 38.2302 43.0847 38.4333 43.0847H41.9192C41.9418 42.8929 41.9643 42.374 41.9643 42.0581H39.0199C38.7379 42.0581 38.3769 42.1484 38.2641 42.1484C37.9821 42.1484 37.2037 41.8212 37.1134 41.7535C37.1134 41.573 37.1924 41.3248 37.2713 41.3248C37.418 41.3248 38.4897 41.3813 39.0199 41.3813H41.4003C41.5808 41.3813 42.032 41.2797 42.1561 41.2797C42.2802 41.2797 42.6412 41.3248 42.7991 41.3587C42.9909 41.3925 43.0699 41.4828 43.0699 41.6182C43.0699 41.7761 42.9345 42.4755 42.8894 42.8704L42.8104 43.096C43.0022 43.1298 43.1037 43.2539 43.1037 43.4232C43.1037 43.5585 43.0135 43.739 42.7427 43.739H38.6928V44.5964C38.6928 44.8107 38.8507 44.8672 38.9974 44.8672H41.7049C42.0433 44.8672 42.6638 44.6754 42.833 44.6754C43.115 44.6754 43.5888 44.7205 43.7016 44.8333Z" fill="white"/>
<path d="M33.1726 35.1315C33.2967 35.1879 33.3306 35.2443 33.3306 35.3684C33.3306 35.4812 33.2967 35.8083 33.2967 35.9888L33.2742 43.8067C33.2742 44.5851 33.0486 45.4651 32.8793 45.702H32.4619C32.3491 45.4876 32.2476 44.7882 32.2476 44.1677V35.9775C32.2476 35.8309 32.1686 35.7519 32.0896 35.6842L31.4692 35.1879C31.503 34.9961 31.6271 34.7817 31.7287 34.7817C32.0107 34.7817 32.8793 35.0074 33.1726 35.1315ZM30.6005 40.9413C30.8487 41.2346 31.0969 41.6858 31.1872 41.8776C31.2661 42.0243 30.86 42.2725 30.6118 42.3289C29.9801 41.5956 29.134 40.6367 28.4233 39.8583C27.2726 41.212 25.9075 42.3853 24.8697 42.5996C24.6666 42.4868 24.3733 42.2161 24.5764 42.1371C25.7834 41.7423 28.1863 38.9332 29.0776 37.1282H27.1485C26.9341 37.1282 26.5506 37.2523 26.4603 37.2523C26.2009 37.2523 25.3999 36.8913 25.2532 36.8011C25.2532 36.598 25.3548 36.3498 25.4224 36.3498C25.5014 36.3498 26.6183 36.4288 26.9116 36.4288H28.9873C29.1565 36.4288 29.4724 36.316 29.6642 36.316C29.8221 36.316 30.0816 36.3611 30.1944 36.395C30.3411 36.4288 30.4652 36.5078 30.4652 36.6319C30.4652 36.7108 30.42 36.8462 30.3411 36.9929C30.0252 37.6923 29.495 38.5158 28.8745 39.3168L29.5627 40.0162C29.8672 40.3208 30.4087 40.7044 30.6005 40.9413Z" fill="white"/>
<path d="M23.3632 35.1315C23.4873 35.1879 23.5212 35.2443 23.5212 35.3684C23.5212 35.4812 23.4873 35.8083 23.4873 35.9888L23.4647 43.8067C23.4647 44.5851 23.2391 45.4651 23.0699 45.702H22.6525C22.5397 45.4876 22.4382 44.7882 22.4382 44.1677V41.2684C21.107 41.6858 18.0046 42.2725 16.8652 42.2725C16.5945 42.2725 16.0304 41.6182 16.0304 41.37L16.0079 37.2636C16.0079 37.1959 15.974 37.1282 15.9176 37.1057L15.4551 36.7898C15.4776 36.6431 15.6017 36.3498 15.7258 36.3498C15.8725 36.3498 16.5381 36.395 16.6847 36.395H18.783C19.144 36.395 19.7871 36.237 19.9788 36.237C20.227 36.237 20.6332 36.2709 20.7347 36.3837C20.8588 36.5416 20.8362 36.9252 20.6783 37.0944H17.0457V41.3587C18.3544 41.3587 21.2649 40.9074 22.4382 40.6141V35.9775C22.4382 35.8309 22.3592 35.7519 22.2802 35.6842L21.6598 35.1879C21.6936 34.9961 21.8177 34.7817 21.9192 34.7817C22.2013 34.7817 23.0699 35.0074 23.3632 35.1315Z" fill="white"/>
</svg>
