<svg width="120" height="67" viewBox="0 0 120 67" fill="none" xmlns="http://www.w3.org/2000/svg">
<mask id="mask0_1324_10231" style="mask-type:luminance" maskUnits="userSpaceOnUse" x="0" y="0" width="120" height="67">
<path d="M120 0H0V66.0674H120V0Z" fill="white"/>
</mask>
<g mask="url(#mask0_1324_10231)">
<mask id="mask1_1324_10231" style="mask-type:luminance" maskUnits="userSpaceOnUse" x="0" y="0" width="120" height="67">
<path d="M119.326 0H0.673828V66.0674H119.326V0Z" fill="white"/>
</mask>
<g mask="url(#mask1_1324_10231)">
<path d="M40.9301 54.5339C42.8203 53.9942 44.501 52.8907 45.7478 51.3709C46.9947 49.851 47.7483 47.987 47.9081 46.0277C48.068 44.0684 47.6264 42.1069 46.6425 40.4051C45.6585 38.7032 44.1789 37.3419 42.4011 36.5029H47.9386V31.173H40.8802V29.4202H35.5503V31.173H28.4258V36.5029H34.1265C32.3487 37.3421 30.8691 38.7034 29.8852 40.4054C28.9014 42.1073 28.46 44.0688 28.62 46.0282C28.78 47.9875 29.5337 49.8515 30.7807 51.3712C32.0276 52.891 33.7085 53.9943 35.5988 54.5339V59.609H28.4258V64.9389H47.9763V59.609H40.9301V54.5339ZM33.0316 45.2387C33.0319 44.2039 33.3389 43.1925 33.9139 42.3322C34.4889 41.472 35.306 40.8015 36.2619 40.4055C37.2179 40.0095 38.2698 39.9059 39.2846 40.1076C40.2995 40.3093 41.2318 40.8074 41.9636 41.5389C42.6955 42.2704 43.194 43.2024 43.3963 44.2171C43.5986 45.2319 43.4954 46.2839 43.0999 47.24C42.7045 48.1962 42.0344 49.0136 41.1744 49.5891C40.3145 50.1645 39.3032 50.472 38.2685 50.4728C36.8807 50.4714 35.5502 49.9195 34.5689 48.9382C33.5877 47.9569 33.0357 46.6264 33.0343 45.2387" fill="#222222"/>
<path d="M56.8397 29.4431H51.5098V64.9362H56.8397V43.6166H62.1709V38.2867H56.8397V29.4431Z" fill="#222222"/>
<path d="M81.6349 30.4611H65.6992V35.791H69.252V49.5843H65.6992V54.9142H75.4475V59.6198H65.6992V64.9497H90.5244V59.6211H80.7774V54.9155H90.5244V49.5843H86.9702V35.791H90.523V30.4611H81.6349ZM81.6349 49.5843H74.5819V35.791H81.6349V49.5843Z" fill="#222222"/>
<path d="M99.0508 41.8207V47.1506H113.271V50.6845H99.0508V64.9362H118.608V59.6063H104.381V56.0144H118.608V41.8207H99.0575H99.0508Z" fill="#222222"/>
<path d="M113.274 1.03012V8.04136H107.966V9.84136H99.074V6.30743H107.966V0.977539H93.7441V24.0337H107.966V18.7052H99.074V15.1712H107.966V13.382H113.274V38.338H118.604V1.03012H113.274Z" fill="#222222"/>
<path d="M6.00372 6.44227H16.6635V18.8791H6.00372V6.44227ZM0.673828 24.209H21.9934V1.11104H0.673828V24.209Z" fill="#222222"/>
<path d="M0.673828 41.8396V64.9362H21.9934V59.6063H6.00372V41.8396H0.673828Z" fill="#222222"/>
<path d="M15.7547 31.1785H0.673828V36.5097H10.4248V41.8436H15.7547V36.5056H21.992V31.1785H15.7547Z" fill="#222222"/>
</g>
</g>
</svg>
